<?xml version="1.0" encoding="utf-8"?>
<!-- Generator: Adobe Illustrator 22.1.0, SVG Export Plug-In . SVG Version: 6.00 Build 0)  -->
<svg version="1.1" id="Capa_1" xmlns="http://www.w3.org/2000/svg" xmlns:xlink="http://www.w3.org/1999/xlink" x="0px" y="0px"
	 viewBox="0 0 20 20" style="enable-background:new 0 0 20 20;" xml:space="preserve">
<g>
	<path d="M16.7,3.3c-1.8-1.8-4.2-2.8-6.7-2.8s-4.9,1-6.7,2.8S0.5,7.4,0.5,10s1,4.9,2.8,6.7c1.8,1.8,4.2,2.8,6.7,2.8s4.9-1,6.7-2.8
		c1.8-1.8,2.8-4.2,2.8-6.7S18.5,5.1,16.7,3.3z M10,18.6c-4.8,0-8.6-3.9-8.6-8.6S5.2,1.4,10,1.4s8.6,3.9,8.6,8.6S14.8,18.6,10,18.6z"
		/>
	<path d="M10,2.2c-4.3,0-7.8,3.5-7.8,7.8s3.5,7.8,7.8,7.8c1.8,0,3.5-0.7,4.9-1.8c0.2-0.2,0.2-0.4,0.1-0.6c-0.2-0.2-0.4-0.2-0.6-0.1
		c-1.2,1-2.8,1.5-4.4,1.5c-3.8,0-6.9-3.1-6.9-6.9s3-6.8,6.8-6.8s6.9,3.1,6.9,6.9c0,1.6-0.6,3.1-1.5,4.4c-0.2,0.2-0.1,0.5,0.1,0.6
		c0.2,0.2,0.5,0.1,0.6-0.1c1.1-1.4,1.8-3.1,1.8-4.9C17.8,5.7,14.3,2.2,10,2.2z"/>
	<path d="M11.5,10.1l1.9-1.9c0.2-0.2,0.3-0.5,0.3-0.8c0-0.3-0.1-0.6-0.3-0.8c-0.5-0.5-1.1-0.5-1.6,0L10,8.4L7.3,5.7
		C7.1,5.5,6.8,5.3,6.5,5.3S5.9,5.5,5.7,5.7C5.5,5.9,5.3,6.2,5.3,6.5s0.1,0.6,0.3,0.8L8.4,10c0,0.2,0.1,0.5,0.2,0.7l-2.9,2.9
		c-0.2,0.2-0.2,0.5,0,0.6c0.1,0.1,0.2,0.1,0.3,0.1c0.1,0,0.2,0,0.3-0.1l2.9-2.9c0.2,0.1,0.5,0.2,0.8,0.2
		C10.8,11.5,11.4,10.9,11.5,10.1z M12.4,7.2c0.1-0.1,0.3-0.1,0.4,0c0.1,0,0.1,0.1,0.1,0.2c0,0.1,0,0.1-0.1,0.2l-1.5,1.5
		c-0.1-0.1-0.2-0.3-0.4-0.4L12.4,7.2z M6.2,6.5c0-0.1,0-0.1,0.1-0.2c0.1,0,0.1-0.1,0.2-0.1c0.1,0,0.1,0,0.2,0.1l2.5,2.5
		C9,8.9,8.9,9,8.8,9.1L6.3,6.7C6.3,6.7,6.2,6.6,6.2,6.5z M10,10.7c-0.2,0-0.4-0.1-0.5-0.2l0,0l0,0c-0.1-0.1-0.2-0.3-0.2-0.5
		c0-0.4,0.3-0.7,0.7-0.7s0.7,0.3,0.7,0.7S10.4,10.7,10,10.7z"/>
	<path d="M5.1,9.5H4.4c-0.2,0-0.5,0.2-0.5,0.5s0.2,0.5,0.5,0.5h0.7c0.2,0,0.5-0.2,0.5-0.5S5.2,9.5,5.1,9.5z"/>
	<path d="M10.5,5.1V4.4c0-0.2-0.2-0.5-0.5-0.5S9.5,4.1,9.5,4.4v0.7c0,0.2,0.3,0.4,0.5,0.4S10.5,5.2,10.5,5.1z"/>
	<path d="M16.1,10c0-0.2-0.2-0.5-0.5-0.5h-0.7c-0.2,0-0.5,0.2-0.5,0.5s0.2,0.5,0.5,0.5h0.7C15.9,10.5,16.1,10.2,16.1,10z"/>
	<path d="M9.5,14.9v0.7c0,0.2,0.2,0.5,0.5,0.5s0.5-0.2,0.5-0.5v-0.7c0-0.2-0.2-0.5-0.5-0.5S9.5,14.8,9.5,14.9z"/>
</g>
</svg>
