<?xml version="1.0" encoding="utf-8"?>
<!-- Generator: Adobe Illustrator 21.1.0, SVG Export Plug-In . SVG Version: 6.00 Build 0)  -->
<svg version="1.1" id="Layer_1" xmlns="http://www.w3.org/2000/svg" xmlns:xlink="http://www.w3.org/1999/xlink" x="0px" y="0px"
	 viewBox="0 0 82.3 64.4" style="enable-background:new 0 0 82.3 64.4;" xml:space="preserve">
<style type="text/css">
	.st0{fill:#FB6C5A;}
</style>
<g>
	<circle class="st0" cx="27.1" cy="27.3" r="27"/>
	<circle class="st0" cx="68.1" cy="50.3" r="14"/>
</g>
<g>
	<g>
		<g>
			<path d="M33,29.1h-6.1c-0.4,0-0.7,0.3-0.7,0.7v6.2c0,0.4,0.3,0.7,0.7,0.7H33c0.4,0,0.7-0.3,0.7-0.7v-6.2
				C33.7,29.4,33.4,29.1,33,29.1z M32.3,35.2h-4.7v-4.7h4.7C32.3,30.5,32.3,35.2,32.3,35.2z"/>
		</g>
	</g>
	<g>
		<g>
			<path d="M42.2,29.1h-6.1c-0.4,0-0.7,0.3-0.7,0.7v6.2c0,0.4,0.3,0.7,0.7,0.7h6.1c0.4,0,0.7-0.3,0.7-0.7v-6.2
				C42.9,29.4,42.6,29.1,42.2,29.1z M41.5,35.2h-4.7v-4.7h4.7V35.2L41.5,35.2z"/>
		</g>
	</g>
	<g>
		<g>
			<path d="M33,38.3h-6.1c-0.4,0-0.7,0.3-0.7,0.7v6.2c0,0.4,0.3,0.7,0.7,0.7H33c0.4,0,0.7-0.3,0.7-0.7V39
				C33.7,38.6,33.4,38.3,33,38.3z M32.3,44.5h-4.7v-4.7h4.7C32.3,39.7,32.3,44.5,32.3,44.5z"/>
		</g>
	</g>
	<g>
		<g>
			<path d="M56.7,34.1V20.6c0-0.4-0.3-0.7-0.7-0.7h-3.1v-3.9c0-0.4-0.3-0.7-0.7-0.7h-3.1c-0.4,0-0.7,0.3-0.7,0.7v3.9h-7v-3.9
				c0-0.4-0.3-0.7-0.7-0.7h-3.1c-0.4,0-0.7,0.3-0.7,0.7v3.9h-7v-3.9c0-0.4-0.3-0.7-0.7-0.7h-3.1c-0.4,0-0.7,0.3-0.7,0.7v3.9h-3.1
				c-0.4,0-0.7,0.3-0.7,0.7v27.7c0,0.4,0.3,0.7,0.7,0.7h19.4c0.5,2.9,1.9,5.6,4.1,7.6c2.4,2.2,5.5,3.4,8.7,3.4c7.2,0,13-5.8,13-13
				C67.5,40.6,62.9,35.2,56.7,34.1z M49.8,20.6v-3.9h1.6v3.9v3.9h-1.6V20.6z M38.3,20.6v-3.9H40v3.9v3.9h-1.6V20.6z M26.8,20.6v-3.9
				h1.6v3.9v3.9h-1.6V20.6z M42.2,38.3h-6.1c-0.4,0-0.7,0.3-0.7,0.7v6.2c0,0.4,0.3,0.7,0.7,0.7h5.5c0,0.4,0,0.7,0,1.1
				c0,0.2,0,0.4,0,0.6H23V21.3h2.4v3.9c0,0.4,0.3,0.7,0.7,0.7h3.1c0.4,0,0.7-0.3,0.7-0.7v-3.9h7v3.9c0,0.4,0.3,0.7,0.7,0.7h3.1
				c0.4,0,0.7-0.3,0.7-0.7v-3.9h7v3.9c0,0.4,0.3,0.7,0.7,0.7h3.1c0.4,0,0.7-0.3,0.7-0.7v-3.9h2.4V34c-0.3,0-0.5,0-0.8,0
				c-0.8,0-1.6,0.1-2.3,0.2v-4.4c0-0.4-0.3-0.7-0.7-0.7h-6.1c-0.4,0-0.7,0.3-0.7,0.7v6.2c0,0.4,0.3,0.7,0.7,0.7h1.2
				c-1.2,0.9-2.2,2.1-3,3.4c-0.2,0.3-0.4,0.6-0.6,1v-2C42.9,38.6,42.6,38.3,42.2,38.3z M41.5,39.7v4.7h-4.7v-4.7H41.5z M50.7,30.5v4
				c-0.6,0.2-1.3,0.4-1.9,0.7H46v-4.7H50.7z M54.5,58.5c-5.9,0-10.9-4.5-11.5-10.4c0,0,0,0,0,0c0-0.4-0.1-0.8-0.1-1.2
				c0-4.4,2.4-8.4,6.4-10.4c0,0,0,0,0,0c0.7-0.4,1.5-0.7,2.3-0.9c0,0,0,0,0,0c0.9-0.2,1.9-0.4,2.9-0.4c0.5,0,1,0,1.4,0.1
				c0,0,0,0,0,0C61.7,36.2,66,41.1,66,47C66,53.3,60.8,58.5,54.5,58.5z"/>
		</g>
	</g>
	<g>
		<g>
			<path d="M64.5,43.4c-0.1-0.4-0.5-0.6-0.9-0.4c-0.4,0.1-0.6,0.5-0.4,0.9c0.4,1,0.5,2,0.5,3.1c0,0.4,0.3,0.7,0.7,0.7
				c0.4,0,0.7-0.3,0.7-0.7C65.1,45.7,64.9,44.5,64.5,43.4z"/>
		</g>
	</g>
	<g>
		<g>
			<path d="M63.2,40.9c-1.4-2-3.5-3.5-5.8-4.2c-0.4-0.1-0.8,0.1-0.9,0.5c-0.1,0.4,0.1,0.8,0.5,0.9c2,0.6,3.8,1.9,5,3.6
				c0.1,0.2,0.4,0.3,0.6,0.3c0.1,0,0.3,0,0.4-0.1C63.3,41.7,63.4,41.2,63.2,40.9z"/>
		</g>
	</g>
	<g>
		<g>
			<path d="M54.5,38.8c-4.5,0-8.1,3.7-8.1,8.2s3.7,8.2,8.1,8.2s8.1-3.7,8.1-8.2S59,38.8,54.5,38.8z M54.5,53.7c-3.7,0-6.7-3-6.7-6.7
				s3-6.7,6.7-6.7s6.7,3,6.7,6.7C61.2,50.7,58.2,53.7,54.5,53.7z"/>
		</g>
	</g>
	<g>
		<g>
			<path d="M58.7,46.8h-3.5v-3.5c0-0.4-0.3-0.7-0.7-0.7c-0.4,0-0.7,0.3-0.7,0.7v4.2c0,0.4,0.3,0.7,0.7,0.7h4.2
				c0.4,0,0.7-0.3,0.7-0.7C59.4,47.1,59.1,46.8,58.7,46.8z"/>
		</g>
	</g>
</g>
</svg>
