<?xml version="1.0" encoding="utf-8"?>
<!-- Generator: Adobe Illustrator 21.1.0, SVG Export Plug-In . SVG Version: 6.00 Build 0)  -->
<svg version="1.1" id="Capa_1" xmlns="http://www.w3.org/2000/svg" xmlns:xlink="http://www.w3.org/1999/xlink" x="0px" y="0px"
	 viewBox="0 0 82.3 64.1" style="enable-background:new 0 0 82.3 64.1;" xml:space="preserve">
<style type="text/css">
	.st0{fill:#FB6C5A;}
</style>
<g>
	<g>
		<circle class="st0" cx="27.1" cy="27" r="27"/>
		<circle class="st0" cx="68.1" cy="50" r="14"/>
	</g>
	<g>
		<g>
			<g>
				<path d="M36.4,17.2c-0.5,0-0.8,0.4-0.8,0.8c0,0.5,0.4,0.8,0.8,0.8s0.8-0.4,0.8-0.8C37.2,17.6,36.8,17.2,36.4,17.2z"/>
			</g>
		</g>
		<g>
			<g>
				<path d="M41.3,23.7c-0.5,0-0.8-0.4-0.8-0.8c0-0.5,0.4-0.8,0.8-0.8c0.3,0,0.6,0.1,0.9,0.4c0.3,0.3,0.8,0.3,1.2,0
					c0.3-0.3,0.3-0.8,0-1.2c-0.4-0.4-0.8-0.6-1.2-0.8v-1c0-0.5-0.4-0.8-0.8-0.8s-0.8,0.4-0.8,0.8v1c-1,0.3-1.6,1.2-1.6,2.3
					c0,1.4,1.1,2.5,2.5,2.5c0.5,0,0.8,0.4,0.8,0.8c0,0.5-0.4,0.8-0.8,0.8c-0.3,0-0.7-0.2-1.1-0.6c-0.3-0.3-0.8-0.4-1.2-0.1
					c-0.3,0.3-0.4,0.8-0.1,1.2c0.4,0.5,1,0.9,1.5,1.1v1c0,0.5,0.4,0.8,0.8,0.8s0.8-0.4,0.8-0.8v-1c1-0.3,1.6-1.2,1.6-2.3
					C43.7,24.8,42.6,23.7,41.3,23.7z"/>
			</g>
		</g>
		<g>
			<g>
				<path d="M58.9,24.2c-1.8,0-3.3,1.5-3.3,3.3v5.8c-1.1-0.3-2.3,0-3.1,0.9L47,39.7c-0.8,0.8-1.2,1.8-1.2,2.9v4.8H45
					c-0.5,0-0.8,0.4-0.8,0.8v5.1c0,0.5,0.4,0.8,0.8,0.8h11.4c0.5,0,0.8-0.4,0.8-0.8v-5.1c0-0.5-0.4-0.8-0.8-0.8h-0.8V47
					c0-0.2,0.1-0.4,0.2-0.6l5.1-5.1c0.8-0.8,1.2-1.8,1.2-2.9V27.5C62.2,25.7,60.7,24.2,58.9,24.2z M55.6,52.5h-9.8V49h9.8V52.5z
					 M60.6,38.4c0,0.7-0.3,1.3-0.7,1.7l-5.1,5.1C54.3,45.7,54,46.3,54,47v0.4h-6.5v-4.8c0-0.7,0.3-1.3,0.7-1.7l5.5-5.5
					c0.6-0.6,1.6-0.6,2.2-0.1c0,0,0,0,0,0c0,0,0,0,0.1,0.1c0.3,0.3,0.5,0.7,0.5,1.2c0,0.4-0.2,0.8-0.5,1.2l-4.1,4.1
					c-0.3,0.3-0.3,0.8,0,1.2c0.3,0.3,0.8,0.3,1.2,0l4.1-4.1c0.6-0.6,1-1.4,1-2.3c0-0.8-0.3-1.6-0.8-2.2v-6.8c0-0.9,0.7-1.6,1.6-1.6
					s1.6,0.7,1.6,1.6V38.4z"/>
			</g>
		</g>
		<g>
			<g>
				<path d="M37.5,47.4h-0.8v-4.8c0-1.1-0.4-2.1-1.2-2.9L30,34.2c-0.8-0.8-2-1.1-3.1-0.9v-5.8c0-1.8-1.5-3.3-3.3-3.3
					s-3.3,1.5-3.3,3.3v10.9c0,1.1,0.4,2.1,1.2,2.9l5.1,5.1c0.2,0.2,0.2,0.4,0.2,0.6v0.4h-0.8c-0.5,0-0.8,0.4-0.8,0.8v5.1
					c0,0.5,0.4,0.8,0.8,0.8h11.4c0.5,0,0.8-0.4,0.8-0.8v-5.1C38.3,47.7,38,47.4,37.5,47.4z M22.7,40.1c-0.5-0.5-0.7-1.1-0.7-1.7
					V27.5c0-0.9,0.7-1.6,1.6-1.6s1.6,0.7,1.6,1.6v6.8c-0.5,0.6-0.8,1.4-0.8,2.2c0,0.9,0.3,1.7,1,2.3l4.1,4.1c0.3,0.3,0.8,0.3,1.2,0
					c0.3-0.3,0.3-0.8,0-1.2l-4.1-4.1c-0.3-0.3-0.5-0.7-0.5-1.2c0-0.4,0.2-0.8,0.5-1.2c0,0,0,0,0.1-0.1l0,0c0.6-0.6,1.6-0.6,2.2,0.1
					l5.5,5.5c0.5,0.5,0.7,1.1,0.7,1.7v4.8h-6.5V47c0-0.6-0.3-1.3-0.7-1.7L22.7,40.1z M36.7,52.5h-9.8V49h9.8V52.5z"/>
			</g>
		</g>
		<g>
			<g>
				<path d="M41.3,12.3c-6.8,0-12.3,5.5-12.3,12.3s5.5,12.3,12.3,12.3s12.3-5.5,12.3-12.3S48,12.3,41.3,12.3z M41.3,35.2
					c-5.9,0-10.6-4.8-10.6-10.6s4.8-10.6,10.6-10.6s10.6,4.8,10.6,10.6S47.1,35.2,41.3,35.2z"/>
			</g>
		</g>
		<g>
			<g>
				<path d="M46.9,17.6c-2.1-1.7-4.9-2.4-7.6-1.8c-0.4,0.1-0.7,0.5-0.6,1c0.1,0.4,0.5,0.7,1,0.6c2.2-0.5,4.5,0,6.3,1.5
					c1.7,1.4,2.7,3.5,2.7,5.7c0,4.1-3.3,7.4-7.4,7.4s-7.4-3.3-7.4-7.4c0-1.2,0.3-2.4,0.9-3.5c0.2-0.4,0.1-0.9-0.3-1.1
					c-0.4-0.2-0.9-0.1-1.1,0.3c-0.7,1.3-1.1,2.8-1.1,4.2c0,5,4,9,9,9s9-4,9-9C50.3,21.8,49,19.3,46.9,17.6z"/>
			</g>
		</g>
	</g>
</g>
</svg>
