<?xml version="1.0" encoding="utf-8"?>
<!-- Generator: Adobe Illustrator 21.1.0, SVG Export Plug-In . SVG Version: 6.00 Build 0)  -->
<svg version="1.1" id="Capa_1" xmlns="http://www.w3.org/2000/svg" xmlns:xlink="http://www.w3.org/1999/xlink" x="0px" y="0px"
	 viewBox="0 0 82.3 64" style="enable-background:new 0 0 82.3 64;" xml:space="preserve">
<style type="text/css">
	.st0{fill:#FB6C5A;}
</style>
<circle class="st0" cx="27.2" cy="27" r="27"/>
<circle class="st0" cx="68.2" cy="50" r="14"/>
<g>
	<path d="M53.9,36.8L38.8,21.7c-0.8-0.8-1.9-1.2-3-1.2c-0.1,0-0.2,0-0.3,0l-11,0.7c-1.2,0.1-2.1,1-2.2,2.2l-0.3,3.9
		c-0.6-0.3-1.1-0.7-1.6-1.2c-1.2-1.2-1.9-2.6-2-4.1c-0.1-1.4,0.3-2.7,1.1-3.5c1.9-1.9,5.3-1.4,7.7,0.9c0.4,0.4,1,0.4,1.4,0
		c0.4-0.4,0.4-1,0-1.4c-3.2-3.1-7.9-3.5-10.5-0.9c-1.3,1.3-1.9,3.1-1.7,5.2c0.2,1.9,1.1,3.8,2.6,5.3c0.8,0.8,1.8,1.5,2.9,2l-0.3,4.9
		c-0.1,1.2,0.4,2.4,1.2,3.3L38,52.8c1,1,2.2,1.5,3.6,1.5l0,0c1.4,0,2.6-0.5,3.6-1.5l8.8-8.8c1-1,1.5-2.2,1.5-3.6
		C55.4,39,54.9,37.8,53.9,36.8z M52.5,42.6l-8.8,8.8c-0.6,0.6-1.3,0.9-2.2,0.9l0,0c-0.8,0-1.6-0.3-2.2-0.9L24.3,36.2
		c-0.5-0.5-0.7-1.1-0.6-1.7l0.3-4.4c0.2,0,0.3,0.1,0.5,0.1c0.3,0,0.5,0,0.7,0c1.7,0,3.3-0.6,4.4-1.8c0.4-0.4,0.4-1,0-1.4
		c-0.4-0.4-1-0.4-1.4,0c-0.9,0.9-2.1,1.3-3.5,1.1c-0.2,0-0.4-0.1-0.6-0.1l0.3-4.5c0-0.2,0.2-0.3,0.3-0.3l11-0.7c0.1,0,0.1,0,0.2,0
		c0.6,0,1.2,0.2,1.6,0.6l15.1,15.1c0.6,0.6,0.9,1.3,0.9,2.2C53.4,41.2,53.1,42,52.5,42.6z"/>
</g>
</svg>
