<?xml version="1.0" encoding="utf-8"?>
<!-- Generator: Adobe Illustrator 21.1.0, SVG Export Plug-In . SVG Version: 6.00 Build 0)  -->
<svg version="1.1" id="Layer_1" xmlns="http://www.w3.org/2000/svg" xmlns:xlink="http://www.w3.org/1999/xlink" x="0px" y="0px"
	 viewBox="0 0 82 64.3" style="enable-background:new 0 0 82 64.3;" xml:space="preserve">
<style type="text/css">
	.st0{fill:#FB6C5A;}
</style>
<circle class="st0" cx="27" cy="27" r="27"/>
<circle class="st0" cx="68" cy="50" r="14"/>
<g>
	<path d="M38.3,40.7c0.4-0.4,0.4-1,0-1.4c-0.4-0.4-1-0.4-1.4,0c-0.4,0.4-0.4,1,0,1.4C37.3,41.1,37.9,41.1,38.3,40.7z"/>
	<path d="M33.5,16.9c0,6.1,5,11.1,11.1,11.1s11.1-5,11.1-11.1s-5-11.1-11.1-11.1S33.5,10.8,33.5,16.9z M53.6,16.9
		c0,5-4.1,9.1-9.1,9.1s-9.1-4.1-9.1-9.1c0-5,4.1-9,9.1-9S53.6,11.9,53.6,16.9z"/>
	<path d="M26.2,57c0.4,0.4,1,0.4,1.4,0l4.9-4.8c0.8-0.8,1.1-2.1,0.7-3.1l1-1c0.6-0.5,1.3-0.8,2.1-0.8h13.4c2.4,0,4.6-0.9,6.3-2.6
		c0.1-0.1-0.5,0.6,9.1-10.9c1.4-1.7,1.2-4.2-0.5-5.7c-1.7-1.4-4.2-1.2-5.6,0.4l-5.9,6.1c-0.7-0.9-1.9-1.5-3.1-1.5H38.8
		c-1.6-0.7-3.3-1-5-1c-4.8,0-9.1,2.2-11.3,6.4c-1-0.2-2,0.1-2.7,0.8l-4.8,4.8c-0.4,0.4-0.4,1,0,1.4L26.2,57z M33.7,34.1
		c1.5,0,3,0.3,4.4,0.9c0.1,0.1,0.3,0.1,0.4,0.1H50c1.1,0,2,0.9,2,2c0,1.1-0.9,2-2,2h-8.2c-0.6,0-1,0.5-1,1c0,0.6,0.5,1,1,1H50
		c2.2,0,4-1.8,4-4c0-0.2,0-0.4,0-0.5c5.7-5.9,6.5-6.7,6.6-6.8c0.7-0.8,2-1,2.8-0.2c0.8,0.7,1,2,0.2,2.8l-9,10.8c-1.3,1.3-3,2-4.9,2
		H36.4c-1.3,0-2.5,0.5-3.5,1.4L32,47.4l-7.9-7.9C26,36.1,29.4,34.1,33.7,34.1z M21.1,40.8c0.3-0.3,0.8-0.4,1.2-0.1
		c0.2,0.1-0.3-0.3,8.7,8.7c0.4,0.4,0.4,1,0,1.4l-4.2,4.1l-9.9-10L21.1,40.8z"/>
	<path d="M43.4,10.8V12c-1.2,0.4-2,1.5-2,2.8c0,1.7,1.4,3,3,3c0.6,0,1,0.5,1,1s-0.5,1-1,1c-0.4,0-0.9-0.3-1.3-0.8
		c-0.4-0.4-1-0.5-1.4-0.1c-0.4,0.4-0.5,1-0.1,1.4c0.5,0.6,1.2,1.1,1.8,1.3v1.2c0,0.6,0.5,1,1,1s1-0.4,1-1v-1.2c1.2-0.4,2-1.5,2-2.8
		c0-1.7-1.4-3-3-3c-0.6,0-1-0.5-1-1s0.5-1,1-1c0.4,0,0.7,0.2,1.1,0.5c0.4,0.4,1,0.4,1.4,0c0.4-0.4,0.4-1,0-1.4
		c-0.5-0.5-1-0.8-1.5-0.9v-1.2c0-0.6-0.5-1-1-1S43.4,10.3,43.4,10.8z"/>
</g>
</svg>
