<?xml version="1.0" encoding="utf-8"?>
<!-- Generator: Adobe Illustrator 21.1.0, SVG Export Plug-In . SVG Version: 6.00 Build 0)  -->
<svg version="1.1" id="Layer_1" xmlns="http://www.w3.org/2000/svg" xmlns:xlink="http://www.w3.org/1999/xlink" x="0px" y="0px"
	 viewBox="0 0 82.6 64.3" style="enable-background:new 0 0 82.6 64.3;" xml:space="preserve">
<style type="text/css">
	.st0{fill:#FB6C5A;}
</style>
<g>
	<circle class="st0" cx="27.4" cy="27.2" r="27"/>
	<circle class="st0" cx="68.4" cy="50.2" r="14"/>
</g>
<g>
	<path d="M9.1,55.8h27.7c1.4,0,2.5-1.1,2.5-2.5c0-8.1,0-7.6,0-7.9c-0.2-4-3.7-5.5-3.9-5.6c0,0,0,0,0,0l-8.1-3.1v-1.6
		c1.3-1,2.2-2.5,2.4-4.2c1.7-0.3,2.8-1.7,2.8-3.2c0-0.8-0.3-1.5-0.7-2v-2.5c0-4.9-4-9-9-9c-4.9,0-9,4-9,9v2.5
		c-0.5,0.6-0.7,1.3-0.7,2c0,1.6,1.2,3,2.8,3.3c0.3,1.7,1.2,3.2,2.6,4.3v1.5c-0.8,0.3-7.1,2.7-8.1,3.1c0,0,0,0,0,0
		c-0.2,0.1-3.9,1.6-3.9,6v7.5C6.6,54.7,7.7,55.8,9.1,55.8z M29.8,28.8v-2.3c0.5,0.2,0.7,0.7,0.7,1.1C30.5,28.1,30.2,28.6,29.8,28.8z
		 M15.9,23.1c0-3.8,3.1-6.9,6.9-6.9c3.8,0,6.9,3.1,6.9,6.9v1.3c0,0,0,0,0,0c0-0.4-0.3-0.7-0.5-0.9c-0.3-0.3-0.8-0.9-1.8-1.9
		c-0.5-0.6-1.4-0.7-2-0.2c-2.4,1.6-5.3,2.3-7.9,2.1c-0.7-0.1-1.3,0.4-1.6,1c0,0-0.1,0-0.1,0V23.1z M15.2,27.7c0-0.5,0.3-0.8,0.7-1.1
		v2.2C15.5,28.6,15.2,28.1,15.2,27.7z M18,29.8c0,0,0-4.2,0-4.3c2.7,0.1,5.8-0.7,8.3-2.3c0.8,0.8,1.3,1.3,1.5,1.6c0,0.1,0,4.9,0,5
		c-0.1,2.8-2.3,4.8-4.8,4.8C19.9,34.6,18,32.3,18,29.8z M22.9,36.6c0.8,0,1.6-0.1,2.3-0.4v0.6c0,0.6,0.4,1.2,0.9,1.6
		c-0.9,0.9-2.1,1.4-3.3,1.4c-1.2,0-2.4-0.5-3.2-1.3c0.6-0.3,1-0.9,1-1.6v-0.5C21.4,36.5,22.2,36.6,22.9,36.6z M8.6,45.8
		c0-2.1,1.3-3.5,2.6-4.1l6.4-2.5l0.4,0.4c1.3,1.4,3,2.1,4.9,2.1c1.8,0,3.6-0.8,4.9-2.1l0.5-0.5l6.5,2.5c1.3,0.6,2.6,2,2.6,4.1v7.5
		c0,0.3-0.2,0.5-0.5,0.5h-3v-6.7c0-0.6-0.5-1-1-1c-0.6,0-1,0.5-1,1v6.7H14.1v-6.7c0-0.6-0.5-1-1-1c-0.6,0-1,0.5-1,1v6.7h-3
		c-0.3,0-0.5-0.2-0.5-0.5V45.8z"/>
	<path d="M49.6,7.4l-4.8-2.9c-0.9-0.5-2,0.1-2,1.2v0.5h-8.7c-1.3,0-2.4,1.1-2.4,2.4s1.1,2.4,2.4,2.4h8.7v0.5c0,1.1,1.1,1.7,2,1.2
		l4.8-2.9C50.5,9.3,50.5,8,49.6,7.4z M44.9,10.3V10c0-0.6-0.5-1-1-1h-9.7c-0.2,0-0.4-0.2-0.4-0.4c0-0.2,0.2-0.4,0.4-0.4h9.7
		c0.6,0,1-0.5,1-1V6.9l2.8,1.7L44.9,10.3z"/>
	<path d="M47.9,17H45c-0.6,0-1,0.5-1,1c0,0.6,0.5,1,1,1h2.9c1.3,0,2.4-1.1,2.4-2.4c0-1.3-1.1-2.4-2.4-2.4h-8.7v-0.5
		c0-1.1-1.1-1.7-2-1.2l-4.8,2.9c-0.9,0.5-0.9,1.9,0,2.4l4.8,2.9c0.9,0.5,2-0.1,2-1.2v-0.5h1.1c0.6,0,1-0.5,1-1c0-0.6-0.5-1-1-1h-2.1
		c-0.6,0-1,0.5-1,1v0.3l-2.8-1.7l2.8-1.7v0.3c0,0.6,0.5,1,1,1h9.7c0.2,0,0.4,0.2,0.4,0.4C48.3,16.9,48.1,17,47.9,17z"/>
	<path d="M71.9,39.8C71.9,39.8,71.9,39.8,71.9,39.8l-6.3-2.4l-1.8-0.7v-1.6c1.3-1,2.2-2.5,2.4-4.2c1.7-0.3,2.8-1.7,2.8-3.2
		c0-0.8-0.3-1.5-0.7-2v-2.5c0-4.9-4-9-9-9c-4.9,0-9,4-9,9v2.5c-0.5,0.6-0.7,1.3-0.7,2c0,1.6,1.2,3,2.8,3.3c0.3,1.7,1.2,3.2,2.6,4.3
		v1.5l-8.1,3.2c0,0,0,0,0,0c0,0,0,0-0.1,0c-0.5,0.2-3.8,1.9-3.8,5.9v7.5c0,1.4,1.1,2.5,2.5,2.5h27.7c1.4,0,2.5-1.1,2.5-2.5v-2.2
		c0-0.6-0.5-1-1-1s-1,0.5-1,1v2.2c0,0.3-0.2,0.5-0.5,0.5h-3v-6.7c0-0.6-0.5-1-1-1c-0.6,0-1,0.5-1,1v6.7H50.6v-6.7c0-0.6-0.5-1-1-1
		c-0.6,0-1,0.5-1,1v6.7h-3c-0.3,0-0.5-0.2-0.5-0.5v-7.5c0-2.8,2.2-3.9,2.6-4.1c0,0,0,0,0,0l6.4-2.5l0.4,0.4c1.3,1.4,3,2.1,4.9,2.1
		s3.6-0.8,4.9-2.1l0.5-0.5l6.5,2.5c1.3,0.6,2.6,2.1,2.6,4.1v0.6c0,0.6,0.5,1,1,1s1-0.5,1-1v-0.6C75.8,41.5,72,39.9,71.9,39.8z
		 M66.3,28.8v-2.3c0.5,0.2,0.7,0.7,0.7,1.1C67,28.1,66.7,28.6,66.3,28.8z M52.4,23.1c0-3.8,3.1-6.9,6.9-6.9s6.9,3.1,6.9,6.9v1.3
		c0,0,0,0,0,0c0-0.4-0.3-0.7-0.5-0.9c-0.3-0.3-0.7-0.8-1.8-1.9c-0.5-0.6-1.4-0.7-2-0.2c-2.4,1.6-5.3,2.3-7.9,2.1
		c-0.7-0.1-1.3,0.4-1.6,1c0,0-0.1,0-0.1,0V23.1z M51.7,27.7c0-0.5,0.3-0.8,0.7-1.1v2.2C51.9,28.6,51.7,28.1,51.7,27.7z M54.4,29.8
		C54.4,29.8,54.4,29.8,54.4,29.8v-4.3c2.8,0.1,5.8-0.7,8.3-2.3c0.8,0.8,1.3,1.3,1.5,1.6v4.9c0,2.7-2.2,4.8-4.8,4.8
		C56.3,34.6,54.4,32.2,54.4,29.8z M56.1,38.4c0.6-0.3,1-0.9,1-1.6v-0.5c0.7,0.2,1.5,0.4,2.3,0.4c0.8,0,1.6-0.1,2.3-0.4v0.6
		c0,0.6,0.4,1.2,0.9,1.6C60.8,40.2,57.9,40.2,56.1,38.4z"/>
</g>
</svg>
