<?xml version="1.0" encoding="utf-8"?>
<!-- Generator: Adobe Illustrator 21.1.0, SVG Export Plug-In . SVG Version: 6.00 Build 0)  -->
<svg version="1.1" id="Layer_1" xmlns="http://www.w3.org/2000/svg" xmlns:xlink="http://www.w3.org/1999/xlink" x="0px" y="0px"
	 viewBox="0 0 530 530" style="enable-background:new 0 0 530 530;" xml:space="preserve">
<style type="text/css">
	.st0{fill:#5C5A5A;}
</style>
<path class="st0" d="M119.5,271c-23.6,0-42.8,19.1-42.8,42.8c0,23.6,19.1,42.8,42.8,42.8c23.6,0,42.8-19.1,42.8-42.8
	C162.2,290.2,143.1,271,119.5,271z M119.5,334.1c-11.2,0-20.3-9.1-20.3-20.3c0-11.2,9.1-20.3,20.3-20.3c11.2,0,20.3,9.1,20.3,20.3
	C139.7,325,130.7,334,119.5,334.1z"/>
<path class="st0" d="M409.3,271c-23.6,0-42.8,19.1-42.8,42.8c0,23.6,19.1,42.8,42.8,42.8c23.6,0,42.8-19.1,42.8-42.8
	C452.1,290.2,433,271,409.3,271z M409.3,334.1c-11.2,0-20.3-9.1-20.3-20.3c0-11.2,9.1-20.3,20.3-20.3c11.2,0,20.3,9.1,20.3,20.3
	C429.6,325,420.5,334,409.3,334.1z"/>
<path class="st0" d="M39.8,248.2h2.4c-9.9,8.1-15.6,20.3-15.6,33.1v64.9c0,23.7,19.2,42.9,42.9,42.9h13.8v38.8
	c0,13.2,10.7,23.8,23.8,23.8h37.7c13.2,0,23.8-10.7,23.8-23.8v-38.8h192v38.8c0,13.2,10.7,23.8,23.8,23.8h37.7
	c13.2,0,23.8-10.7,23.8-23.8v-38.8h13.8c23.7,0,42.9-19.2,42.9-42.9v-64.9c0-12.8-5.7-24.9-15.6-33.1h1.8
	c13.2,0,23.8-10.7,23.8-23.8v-12.6c0-13.2-10.7-23.8-23.8-23.8h-3.8c-13.9,0-27.2,5.9-36.5,16.3L424,131.5c0-0.1-0.1-0.3-0.1-0.4
	c-5.5-14-19-23.3-34-23.4h-47.9v-0.6c0-20.1-16.3-36.4-36.4-36.5h-75.6c-20.1,0-36.4,16.3-36.4,36.5v0.6h-53.8
	c-15.1,0.1-28.6,9.3-34,23.4c-0.1,0.1-0.1,0.3-0.1,0.4l-25,73.1c-9.3-10.6-22.7-16.7-36.8-16.7h-3.8C26.7,188,16,198.6,16,211.8
	v12.6C16,237.6,26.7,248.2,39.8,248.2z M146.2,427.9c0,0.8-0.6,1.4-1.4,1.4h-37.7c-0.8,0-1.4-0.6-1.4-1.4v-38.8h40.4V427.9z
	 M423.6,427.9c0,0.8-0.6,1.4-1.4,1.4h-37.7c-0.8,0-1.4-0.6-1.4-1.4v-38.8h40.4V427.9z M480.3,346.2c0,11.3-9.2,20.4-20.4,20.4H69.5
	c-11.3,0-20.4-9.2-20.4-20.4v-64.9c0-11.3,9.2-20.4,20.4-20.4h390.3c11.3,0,20.4,9.2,20.4,20.4V346.2z M381.1,238.4h-40.5v-1.6
	c-0.1-7.3,3.8-14,10.1-17.7c6.3-3.7,14.1-3.7,20.4,0c6.3,3.7,10.1,10.4,10.1,17.7L381.1,238.4z M485.2,210.4h3.8
	c0.8,0,1.4,0.6,1.4,1.4v12.6c0,0.8-0.6,1.4-1.4,1.4h-27.9C465.5,216.4,474.9,210.4,485.2,210.4z M215.9,107.1c0-7.7,6.3-14,14-14
	h75.6c7.7,0,14,6.3,14,14v0.6H215.9V107.1z M126.6,139c2.1-5.3,7.3-8.8,13-8.8h250.3c5.7,0,10.8,3.5,13,8.8l33.4,97.9v0.1
	c0,0.5,0,0.9,0.1,1.4h-32.8v-1.6c0.1-15.3-8-29.5-21.3-37.2c-13.3-7.7-29.6-7.7-42.9,0c-13.3,7.7-21.4,21.9-21.3,37.2v1.6H92.7
	L126.6,139z M38.5,211.8c0-0.8,0.6-1.4,1.4-1.4h3.8c10.3,0,19.7,6,24.1,15.4H39.8c-0.8,0-1.4-0.6-1.4-1.4V211.8z"/>
</svg>
