<?xml version="1.0" encoding="utf-8"?>
<!-- Generator: Adobe Illustrator 21.1.0, SVG Export Plug-In . SVG Version: 6.00 Build 0)  -->
<svg version="1.1" id="Capa_1" xmlns="http://www.w3.org/2000/svg" xmlns:xlink="http://www.w3.org/1999/xlink" x="0px" y="0px"
	 viewBox="0 0 82.5 64.5" style="enable-background:new 0 0 82.5 64.5;" xml:space="preserve">
<style type="text/css">
	.st0{fill:#FB6C5A;}
</style>
<g>
	<g>
		<circle class="st0" cx="27.1" cy="27" r="27"/>
		<circle class="st0" cx="68.1" cy="50" r="14"/>
	</g>
	<g>
		<path d="M58.5,20h-1.8v-0.6c0-0.9-0.7-1.7-1.7-1.7s-1.7,0.7-1.7,1.7V20h-5.5v-0.6c0-0.9-0.7-1.7-1.7-1.7s-1.7,0.7-1.7,1.7V20h-5.5
			v-0.6c0-0.9-0.7-1.7-1.7-1.7c-0.9,0-1.7,0.7-1.7,1.7V20H30v-0.6c0-0.9-0.7-1.7-1.7-1.7c-0.9,0-1.7,0.7-1.7,1.7V20h-1.8
			c-0.3,0-0.6,0.3-0.6,0.6v27c0,0.3,0.3,0.6,0.6,0.6h33.6c0.3,0,0.6-0.3,0.6-0.6v-27C59,20.3,58.8,20,58.5,20z M54.4,19.5
			c0-0.3,0.3-0.6,0.6-0.6s0.6,0.3,0.6,0.6v2.2c0,0.3-0.3,0.6-0.6,0.6s-0.6-0.3-0.6-0.6V19.5z M45.5,19.5c0-0.3,0.3-0.6,0.6-0.6
			s0.6,0.3,0.6,0.6v2.2c0,0.3-0.3,0.6-0.6,0.6s-0.6-0.3-0.6-0.6V19.5z M36.7,19.5c0-0.3,0.3-0.6,0.6-0.6c0.3,0,0.6,0.3,0.6,0.6v2.2
			c0,0.3-0.3,0.6-0.6,0.6c-0.3,0-0.6-0.3-0.6-0.6V19.5z M27.8,19.5c0-0.3,0.3-0.6,0.6-0.6c0.3,0,0.6,0.3,0.6,0.6v2.2
			c0,0.3-0.3,0.6-0.6,0.6c-0.3,0-0.6-0.3-0.6-0.6V19.5z M26.7,21.1v0.6c0,0.9,0.7,1.7,1.7,1.7c0.9,0,1.7-0.7,1.7-1.7v-0.6h5.5v0.6
			c0,0.9,0.7,1.7,1.7,1.7c0.9,0,1.7-0.7,1.7-1.7v-0.6h5.5v0.6c0,0.9,0.7,1.7,1.7,1.7s1.7-0.7,1.7-1.7v-0.6h5.5v0.6
			c0,0.9,0.7,1.7,1.7,1.7s1.7-0.7,1.7-1.7v-0.6h1.3v5.7H25.4v-5.7H26.7z M25.4,47v-19h32.5v19H25.4z"/>
		<path d="M54.7,34.6h-2.2c-0.3,0-0.6,0.3-0.6,0.6s0.3,0.6,0.6,0.6h2.2c0.3,0,0.6-0.3,0.6-0.6S55,34.6,54.7,34.6z"/>
		<path d="M48.8,34.6h-2.2c-0.3,0-0.6,0.3-0.6,0.6s0.3,0.6,0.6,0.6h2.2c0.3,0,0.6-0.3,0.6-0.6S49.1,34.6,48.8,34.6z"/>
		<path d="M42.8,34.6h-2.2c-0.3,0-0.6,0.3-0.6,0.6s0.3,0.6,0.6,0.6h2.2c0.3,0,0.6-0.3,0.6-0.6S43.1,34.6,42.8,34.6z"/>
		<path d="M36.8,34.6h-2.2c-0.3,0-0.6,0.3-0.6,0.6s0.3,0.6,0.6,0.6h2.2c0.3,0,0.6-0.3,0.6-0.6S37.1,34.6,36.8,34.6z"/>
		<path d="M30.8,34.6h-2.2c-0.3,0-0.6,0.3-0.6,0.6s0.3,0.6,0.6,0.6h2.2c0.3,0,0.6-0.3,0.6-0.6S31.1,34.6,30.8,34.6z"/>
		<path d="M48.8,38.5h-2.2c-0.3,0-0.6,0.3-0.6,0.6s0.3,0.6,0.6,0.6h2.2c0.3,0,0.6-0.3,0.6-0.6S49.1,38.5,48.8,38.5z"/>
		<path d="M42.8,38.5h-2.2c-0.3,0-0.6,0.3-0.6,0.6s0.3,0.6,0.6,0.6h2.2c0.3,0,0.6-0.3,0.6-0.6S43.1,38.5,42.8,38.5z"/>
		<path d="M36.8,38.5h-2.2c-0.3,0-0.6,0.3-0.6,0.6s0.3,0.6,0.6,0.6h2.2c0.3,0,0.6-0.3,0.6-0.6S37.1,38.5,36.8,38.5z"/>
		<path d="M30.8,38.5h-2.2c-0.3,0-0.6,0.3-0.6,0.6s0.3,0.6,0.6,0.6h2.2c0.3,0,0.6-0.3,0.6-0.6S31.1,38.5,30.8,38.5z"/>
		<path d="M48.8,42.5h-2.2c-0.3,0-0.6,0.3-0.6,0.6s0.3,0.6,0.6,0.6h2.2c0.3,0,0.6-0.3,0.6-0.6S49.1,42.5,48.8,42.5z"/>
		<path d="M54.7,38.5h-2.2c-0.3,0-0.6,0.3-0.6,0.6s0.3,0.6,0.6,0.6h2.2c0.3,0,0.6-0.3,0.6-0.6S55,38.5,54.7,38.5z"/>
		<path d="M54.7,42.5h-2.2c-0.3,0-0.6,0.3-0.6,0.6s0.3,0.6,0.6,0.6h2.2c0.3,0,0.6-0.3,0.6-0.6S55,42.5,54.7,42.5z"/>
		<path d="M42.8,42.5h-2.2c-0.3,0-0.6,0.3-0.6,0.6s0.3,0.6,0.6,0.6h2.2c0.3,0,0.6-0.3,0.6-0.6S43.1,42.5,42.8,42.5z"/>
		<path d="M36.8,42.5h-2.2c-0.3,0-0.6,0.3-0.6,0.6s0.3,0.6,0.6,0.6h2.2c0.3,0,0.6-0.3,0.6-0.6S37.1,42.5,36.8,42.5z"/>
		<path d="M30.8,42.5h-2.2c-0.3,0-0.6,0.3-0.6,0.6s0.3,0.6,0.6,0.6h2.2c0.3,0,0.6-0.3,0.6-0.6S31.1,42.5,30.8,42.5z"/>
		<path d="M54.7,30.6h-2.2c-0.3,0-0.6,0.3-0.6,0.6s0.3,0.6,0.6,0.6h2.2c0.3,0,0.6-0.3,0.6-0.6S55,30.6,54.7,30.6z"/>
		<path d="M48.8,30.6h-2.2c-0.3,0-0.6,0.3-0.6,0.6s0.3,0.6,0.6,0.6h2.2c0.3,0,0.6-0.3,0.6-0.6S49.1,30.6,48.8,30.6z"/>
		<path d="M42.8,30.6h-2.2c-0.3,0-0.6,0.3-0.6,0.6s0.3,0.6,0.6,0.6h2.2c0.3,0,0.6-0.3,0.6-0.6S43.1,30.6,42.8,30.6z"/>
		<path d="M36.8,30.6h-2.2c-0.3,0-0.6,0.3-0.6,0.6s0.3,0.6,0.6,0.6h2.2c0.3,0,0.6-0.3,0.6-0.6S37.1,30.6,36.8,30.6z"/>
		<path d="M30.8,30.6h-2.2c-0.3,0-0.6,0.3-0.6,0.6s0.3,0.6,0.6,0.6h2.2c0.3,0,0.6-0.3,0.6-0.6S31.1,30.6,30.8,30.6z"/>
	</g>
</g>
</svg>
