<svg width="124" height="159" viewBox="0 0 124 159" fill="none" xmlns="http://www.w3.org/2000/svg">
<path d="M89.3134 32.3889C89.2393 32.396 89.164 32.3617 89.1243 32.2947C88.9927 32.0729 88.864 31.8447 88.7413 31.6158C88.6909 31.5222 88.7277 31.4054 88.8243 31.3562C89.0567 31.234 89.1095 31.5002 89.4652 32.1008C89.5197 32.1927 89.4871 32.3101 89.3935 32.364C89.3686 32.3783 89.3413 32.3866 89.314 32.3895L89.3134 32.3889Z" fill="#91B3FA"/>
<path d="M98.8977 40.4723C98.2598 40.2299 97.9604 40.1534 98.0641 39.9234C98.172 39.6838 98.3884 39.8653 99.0417 40.1137C99.1431 40.1522 99.1923 40.2637 99.1526 40.3627C99.1129 40.4617 98.9985 40.5109 98.8977 40.4723Z" fill="#91B3FA"/>
<path d="M18.0383 18.1129L99.1655 18.7828C103.641 18.8196 107.303 22.3577 107.493 26.8297L112.51 144.499C112.66 147.998 109.881 150.926 106.379 150.96L13.3832 151.882C10.0923 151.915 7.41434 149.242 7.44161 145.951L8.41923 27.5737C8.46251 22.305 12.769 18.069 18.0378 18.1129H18.0383Z" fill="url(#paint0_linear_46_1639)"/>
<path d="M10.7154 123.024C10.5701 123.021 10.4539 122.902 10.4551 122.757L10.4758 120.213C10.477 120.066 10.5968 119.949 10.7432 119.95C10.7438 119.95 10.745 119.95 10.745 119.95C10.8908 119.953 11.0076 120.072 11.0064 120.217L10.9857 122.761C10.9845 122.907 10.8648 123.025 10.7183 123.024C10.7177 123.024 10.7165 123.024 10.7159 123.024H10.7154Z" fill="white"/>
<path d="M18.2961 17.162C29.3623 18.7556 67.4208 23.7172 98.9383 21.5592C100.375 21.4608 101.613 22.5594 101.678 23.9988L106.981 142.194C107.054 143.815 105.805 145.19 104.185 145.272C90.9311 145.947 36.3492 148.527 16.9064 146.328C15.7231 146.194 14.8326 145.19 14.835 143.999L15.1296 19.9004C15.1338 18.2149 16.6266 16.9225 18.2955 17.1626L18.2961 17.162Z" fill="#7D97F4"/>
<path d="M19.457 20.2364C30.1065 21.7701 66.7315 26.5444 97.0626 24.4682C98.4458 24.3733 99.6368 25.431 99.6991 26.8159L104.802 140.561C104.872 142.121 103.671 143.444 102.112 143.523C89.3573 144.172 36.8307 146.655 18.1201 144.539C16.9813 144.41 16.124 143.443 16.127 142.297L16.4109 22.8716C16.4145 21.2496 17.8516 20.0057 19.4576 20.237L19.457 20.2364Z" fill="#BDD0FB"/>
<g opacity="0.6">
<path d="M23.918 52.7759C23.4757 52.7747 23.2499 53.1091 23.4159 53.5187L24.6508 56.5672C24.8168 56.9769 25.3142 57.3071 25.7565 57.3012L94.2712 56.387C94.7135 56.381 95.0585 56.0152 95.0383 55.5736L94.9559 53.7748C94.9358 53.3332 94.5575 52.9709 94.1153 52.9697L23.918 52.7759Z" fill="white"/>
</g>
<g opacity="0.6">
<path d="M23.7823 63.9329C23.34 63.9317 23.1141 64.2661 23.2801 64.6757L24.515 67.7242C24.681 68.1339 25.1785 68.4641 25.6207 68.4581L94.1354 67.544C94.5777 67.538 94.9228 67.1716 94.9026 66.7306L94.8202 64.9318C94.8 64.4902 94.4218 64.1279 93.9795 64.1267L23.7823 63.9329Z" fill="white"/>
</g>
<g opacity="0.6">
<path d="M23.9463 75.1001C23.5041 75.0989 23.2782 75.4333 23.4442 75.843L24.6791 78.8914C24.8451 79.3011 25.3425 79.6313 25.7848 79.6254L94.2995 78.7112C94.7418 78.7053 95.0868 78.3389 95.0667 77.8978L94.9843 76.0991C94.9641 75.6574 94.5859 75.2952 94.1436 75.294L23.9463 75.1001Z" fill="white"/>
</g>
<g opacity="0.6">
<path d="M23.9004 85.4465C23.4582 85.4454 23.2323 85.7797 23.3983 86.1894L24.6332 89.2379C24.7992 89.6475 25.2966 89.9777 25.7389 89.9718L94.2536 89.0576C94.6959 89.0517 95.0409 88.6853 95.0208 88.2442L94.9384 86.4455C94.9182 86.0038 94.54 85.6416 94.0977 85.6404L23.9004 85.4465Z" fill="white"/>
</g>
<g opacity="0.6">
<path d="M24.1719 96.478C23.7296 96.4768 23.5038 96.8112 23.6698 97.2209L24.9047 100.269C25.0707 100.679 25.5681 101.009 26.0104 101.003L94.5251 100.089C94.9674 100.083 95.3124 99.7168 95.2923 99.2757L95.2098 97.477C95.1897 97.0353 94.8114 96.6731 94.3692 96.6719L24.1719 96.478Z" fill="white"/>
</g>
<g opacity="0.6">
<path d="M23.7248 123.986C23.2831 123.977 23.005 124.322 23.107 124.752L23.8173 127.743C23.9192 128.173 24.3645 128.523 24.8067 128.519L64.5703 128.229C65.0125 128.226 65.3647 127.862 65.3528 127.42L65.3054 125.621C65.2935 125.179 64.9224 124.811 64.4807 124.802L23.7242 123.986H23.7248Z" fill="white"/>
</g>
<g opacity="0.6">
<path d="M23.7541 133.507C23.3124 133.498 23.0343 133.843 23.1363 134.273L23.8466 137.264C23.9485 137.694 24.3938 138.044 24.836 138.04L64.6002 137.75C65.0424 137.747 65.3946 137.383 65.3827 136.941L65.3353 135.142C65.3234 134.701 64.9523 134.332 64.5106 134.323L23.7541 133.507Z" fill="white"/>
</g>
<path d="M74.5694 139.432C74.1259 139.432 73.6819 139.222 73.2129 138.792C71.4842 137.204 71.0401 134.763 70.9198 132.441C70.1206 133.336 69.303 134.207 68.495 135.068L68.0557 134.656C69.0025 133.647 69.9623 132.624 70.8883 131.567C70.8119 128.391 70.9583 125.181 71.3241 122.025C71.5482 120.09 71.8713 118.042 72.7102 116.174C72.977 115.579 73.4204 114.725 74.1834 114.192C74.9785 113.636 76.0213 113.576 76.7185 114.044C77.5028 114.571 77.7145 115.571 77.8046 116.276C78.3388 120.429 76.7185 124.234 75.266 126.696C74.187 128.524 72.8809 130.196 71.4972 131.787C71.5683 134.162 71.8974 136.764 73.6214 138.348C73.9854 138.682 74.305 138.838 74.599 138.829C75.0864 138.811 75.48 138.34 75.8008 137.88C77.2568 135.794 78.3892 133.533 79.1812 131.135C79.2737 130.414 79.4753 129.706 79.7818 129.047L80.348 129.245C80.1814 129.929 79.9893 130.603 79.7717 131.268C79.6905 131.948 79.7154 132.64 79.85 133.313C79.9217 133.671 80.2235 134.851 81.0962 135.017C81.7447 135.142 82.4247 134.648 83.1729 133.511L86.2214 128.878L85.8402 130.52C85.7032 131.109 85.4744 132.517 86.2985 132.856C86.7674 133.049 87.2625 132.77 87.8352 132.447C88.4031 132.127 88.9918 131.796 89.657 131.885L89.9677 131.927L89.9143 132.236C89.8835 132.415 89.6357 133.995 90.4568 134.176C90.8315 134.258 91.1469 134 91.6194 133.562C91.9899 133.22 92.3729 132.866 92.8762 132.744L93.0179 133.33C92.667 133.415 92.3569 133.702 92.029 134.005C91.5642 134.434 91.0372 134.921 90.3269 134.764C89.3979 134.558 89.1703 133.508 89.2728 132.485C88.9035 132.537 88.5264 132.75 88.1316 132.972C87.5115 133.321 86.8089 133.717 86.0696 133.413C85.456 133.16 85.1258 132.549 85.1039 131.674L83.6775 133.843C83.1053 134.712 82.2042 135.841 80.9841 135.609C80.1458 135.449 79.5008 134.635 79.2595 133.431C79.2245 133.258 79.1966 133.083 79.1753 132.907C78.4236 134.777 77.4608 136.556 76.2952 138.225C75.9134 138.772 75.3775 139.404 74.621 139.432C74.6044 139.432 74.5872 139.432 74.57 139.432H74.5694ZM75.6342 114.328C75.231 114.328 74.8243 114.479 74.5291 114.686C73.8882 115.135 73.4981 115.89 73.2604 116.42C72.4547 118.214 72.1416 120.208 71.9229 122.094C71.5855 125.001 71.4367 127.954 71.4782 130.884C72.6794 129.469 73.8046 127.986 74.7472 126.389C76.1523 124.009 77.7198 120.336 77.2076 116.353C77.0872 115.417 76.8252 114.842 76.3829 114.545C76.1559 114.392 75.8962 114.328 75.6348 114.328H75.6342Z" fill="url(#paint1_linear_46_1639)"/>
<path d="M63.7668 2.45322C60.8535 0.390673 58.3048 0.409645 56.5067 0.924245C54.8663 1.39379 53.7932 2.96427 53.9343 4.66458L54.638 13.114L63.8362 14.0068C63.8362 14.0068 69.4808 6.49829 63.7668 2.45263V2.45322ZM59.6625 9.23136C58.395 9.22069 57.3758 8.18497 57.3865 6.91744C57.3972 5.64991 58.4329 4.63079 59.7004 4.64087C60.968 4.65154 61.9871 5.68726 61.977 6.95479C61.9663 8.22232 60.9306 9.24144 59.6625 9.23077V9.23136Z" fill="url(#paint2_linear_46_1639)"/>
<path d="M55.4298 9.77486C55.2703 9.71498 55.1505 9.56736 55.1357 9.38594L55.0237 8.04016C55.0029 7.78938 55.1891 7.56883 55.4399 7.54808C55.6906 7.52674 55.9112 7.7129 55.9319 7.96486L56.044 9.31065C56.0647 9.56143 55.8786 9.78197 55.6278 9.80272C55.5584 9.80865 55.4908 9.79857 55.4298 9.77545V9.77486ZM55.2104 7.13783C55.0509 7.07795 54.9312 6.93033 54.9164 6.74832L54.831 5.72683C54.6869 3.99628 55.7885 2.39497 57.4508 1.9195C58.5885 1.59402 59.7588 1.55548 60.9291 1.80508C61.1716 1.86081 61.3329 2.09973 61.2795 2.34636C61.2267 2.59239 60.9848 2.7495 60.7382 2.69733C59.7155 2.47856 58.6941 2.51236 57.701 2.79633C56.456 3.15264 55.6314 4.35318 55.7393 5.65153L55.8246 6.67362C55.8454 6.9244 55.6592 7.14435 55.4084 7.16569C55.3391 7.17162 55.2715 7.16154 55.2104 7.13842V7.13783Z" fill="#BDD0FB"/>
<path d="M42.0303 18.4666L42.0653 14.2217C42.0771 12.7562 43.3014 11.593 44.7657 11.6552L74.025 12.8996C75.3234 12.9548 76.3668 13.9887 76.4338 15.2865L76.6448 19.3671L42.0303 18.4666Z" fill="url(#paint3_linear_46_1639)"/>
<path d="M51.7251 13.3554C51.5799 13.353 51.4637 13.2338 51.4649 13.0886C51.466 12.9421 51.5858 12.8248 51.7322 12.8259L52.9909 12.8366C53.1432 12.8396 53.2553 12.9576 53.2535 13.1034C53.2523 13.2498 53.1326 13.3672 52.9861 13.366L51.7275 13.3554H51.7251Z" fill="#BDD0FB"/>
<path d="M43.4671 17.3514C43.2934 17.2862 43.1701 17.1178 43.1719 16.921L43.1861 15.2035C43.1921 14.4986 43.4719 13.8381 43.9746 13.3431C44.4774 12.8486 45.1426 12.5789 45.8481 12.5848L50.4753 12.6233C50.7261 12.6263 50.9294 12.8308 50.9271 13.0834C50.9253 13.3354 50.719 13.5375 50.467 13.5358L45.8398 13.4972C44.887 13.4895 44.1051 14.2584 44.0973 15.2112L44.0831 16.9287C44.0807 17.1806 43.875 17.3828 43.6231 17.381C43.5679 17.3804 43.5158 17.3704 43.4665 17.352L43.4671 17.3514Z" fill="#BDD0FB"/>
<path d="M32.8723 16.837L84.0519 17.2585C85.8921 17.2734 87.4543 18.6108 87.7537 20.4268L87.7952 20.6775C88.1224 22.6666 86.5786 24.4706 84.5629 24.454L32.0559 24.0201C30.8495 24.01 29.8967 22.9938 29.9643 21.7892L30.0965 19.4397C30.1795 17.9706 31.4014 16.8246 32.8729 16.837H32.8723Z" fill="url(#paint4_linear_46_1639)"/>
<path d="M29.7722 43.2334L29.1633 40.5597H26.4024L25.7935 43.2334H23.8223L26.4457 32.5952H29.1194L31.75 43.2334H29.7716H29.7722ZM28.794 38.8131L28.229 36.3492C28.1952 36.1992 28.1187 35.8239 28.0007 35.2222C27.8822 34.6204 27.811 34.2185 27.7867 34.0157C27.7239 34.4313 27.6444 34.889 27.5478 35.3888C27.4511 35.8885 27.1998 37.0304 26.7943 38.8131H28.7946H28.794Z" fill="url(#paint5_linear_46_1639)"/>
<path d="M35.8867 37.356H39.1261V42.7913C38.2083 43.1826 37.2319 43.3782 36.1985 43.3782C34.9666 43.3782 34.0186 42.9098 33.354 41.9725C32.69 41.0352 32.3574 39.6853 32.3574 37.9215C32.3574 36.1578 32.738 34.8903 33.4987 33.9286C34.2599 32.967 35.3235 32.4868 36.6912 32.4868C37.5366 32.4868 38.3435 32.7044 39.1118 33.139L38.4888 34.748C37.89 34.4 37.3291 34.2263 36.8074 34.2263C36.0586 34.2263 35.4658 34.5606 35.0282 35.23C34.5907 35.8993 34.3725 36.8111 34.3725 37.9654C34.3725 39.1197 34.5308 40.0647 34.8474 40.6973C35.164 41.3305 35.6241 41.6465 36.2282 41.6465C36.5471 41.6465 36.8708 41.6056 37.1993 41.5231V39.0954H35.8879V37.356H35.8867Z" fill="url(#paint6_linear_46_1639)"/>
<path d="M42.7134 39.1103V43.2336H40.7422V32.6387H43.3217C44.4138 32.6387 45.2189 32.8972 45.7388 33.4141C46.2581 33.9311 46.5178 34.7208 46.5178 35.7838C46.5178 37.1219 46.066 38.0568 45.1625 38.5886L47.199 43.2336H45.0902L43.416 39.1103H42.7128H42.7134ZM42.7134 37.4147H43.2209C43.6845 37.4147 44.0183 37.2831 44.2211 37.0199C44.4238 36.7567 44.5252 36.3642 44.5252 35.8425C44.5252 35.3208 44.4173 34.9158 44.2027 34.6864C43.9875 34.457 43.6555 34.342 43.2061 34.342H42.7134V37.4147Z" fill="url(#paint7_linear_46_1639)"/>
<path d="M52.9395 43.2336H48.1641V32.6387H52.9395V34.3414H50.1353V36.8634H52.7368V38.5738H50.1353V41.5084H52.9395V43.233V43.2336Z" fill="url(#paint8_linear_46_1639)"/>
<path d="M59.2579 43.2336H54.4824V32.6387H59.2579V34.3414H56.4537V36.8634H59.0551V38.5738H56.4537V41.5084H59.2579V43.233V43.2336Z" fill="url(#paint9_linear_46_1639)"/>
<path d="M64.5852 43.2336L62.5706 34.2115H62.4912C62.5831 34.9069 62.6287 35.5449 62.6287 36.1247V43.2336H60.8027V32.6387H63.8316L65.6434 40.9654H65.7015L67.4985 32.6387H70.5712V43.2336H68.7014V36.0518C68.7014 35.4577 68.7352 34.8488 68.8028 34.2258H68.7447L66.7372 43.2336H64.5852Z" fill="url(#paint10_linear_46_1639)"/>
<path d="M77.2159 43.2336H72.4404V32.6387H77.2159V34.3414H74.4117V36.8634H77.0131V38.5738H74.4117V41.5084H77.2159V43.233V43.2336Z" fill="url(#paint11_linear_46_1639)"/>
<path d="M86.1796 43.2336H83.7738L80.4982 35.5591H80.404C80.5249 36.1436 80.5848 36.7721 80.5848 37.4432V43.2336H78.7588V32.6387H81.1794L84.4259 40.2332H84.5054C84.4135 39.7257 84.3678 39.1222 84.3678 38.4214V32.6387H86.1796V43.2336Z" fill="url(#paint12_linear_46_1639)"/>
<path d="M91.304 43.2333H89.3399V34.3707H87.3105V32.6389H93.3328V34.3707H91.3034V43.2333H91.304Z" fill="url(#paint13_linear_46_1639)"/>
<path d="M20.8471 151.541C20.8471 151.541 20.4819 153.499 20.2934 155.439C20.2199 156.198 20.7985 156.862 21.5592 156.901C24.144 157.034 29.6736 157.296 31.6591 157.226C31.9579 157.216 32.1559 156.912 32.048 156.633C31.9579 156.4 31.7812 156.21 31.5547 156.103L22.4579 151.817L20.8471 151.541Z" fill="url(#paint14_linear_46_1639)"/>
<path d="M20.5742 150.385L20.8303 152.734C20.8303 152.734 22.4239 153.495 23.5249 152.666L22.887 150.045L20.5742 150.385Z" fill="url(#paint15_linear_46_1639)"/>
<path d="M21.2035 106.275C21.0772 106.887 20.2662 136.846 23.3413 150.305C23.3917 150.524 23.2785 150.749 23.0692 150.832C22.576 151.029 21.6102 151.31 20.4559 151.338C20.0984 151.346 19.78 151.111 19.6822 150.767C18.7965 147.642 14.5582 131.991 14.1283 117.074C13.6475 100.406 14.1337 116.507 14.1337 116.507L14.6068 106.21L21.2041 106.274L21.2035 106.275Z" fill="url(#paint16_linear_46_1639)"/>
<path d="M10.3267 152.464C10.3267 152.464 9.76581 153.449 9.20675 156.076C9.10596 156.55 9.43322 157.008 9.91581 157.06C10.7689 157.152 12.0821 157.273 13.1356 157.275C13.6212 157.276 14.0041 156.857 13.9502 156.375C13.8429 155.413 13.4943 153.834 12.3839 152.595L10.3278 152.464H10.3267Z" fill="url(#paint17_linear_46_1639)"/>
<path d="M9.87109 149.441L10.4877 152.996C10.4877 152.996 11.1262 153.48 12.402 153.146L12.1281 149.325L9.87109 149.441Z" fill="url(#paint18_linear_46_1639)"/>
<path d="M8.51793 107.073C5.74751 122.858 8.71358 146.153 9.74515 150.717C9.80858 150.996 10.0315 151.212 10.3137 151.262C10.7927 151.346 11.5824 151.418 12.3632 151.2C12.6324 151.124 12.8233 150.884 12.8369 150.605C13.0165 146.925 12.9721 124.323 15.4982 115.414C15.6263 114.963 15.9067 114.571 16.2915 114.303L21.061 110.98L21.476 105.539L8.51793 107.074V107.073Z" fill="url(#paint19_linear_46_1639)"/>
<path d="M25.4952 77.2774C17.6458 77.0728 8.96276 79.181 8.96276 79.181C6.49233 92.8126 8.27327 108.58 8.27327 108.58C14.3358 110.232 21.2159 107.729 21.2159 107.729C22.2807 102.032 27.1469 86.0149 27.1469 86.0149C30.9868 85.5756 34.1574 84.499 36.7737 83.0607C34.8107 80.7408 33.9031 77.8044 33.513 76.0703C30.7289 76.9062 27.9158 77.3402 25.4952 77.2774Z" fill="url(#paint20_linear_46_1639)"/>
<path d="M48.7946 65.9344C48.0322 64.9953 47.0522 65.4269 47.0522 65.4269C45.8504 70.296 39.7553 74.1947 33.5137 76.0693C33.9038 77.804 34.8114 80.7404 36.7744 83.0596C47.1577 77.351 48.7952 65.9338 48.7952 65.9338L48.7946 65.9344Z" fill="url(#paint21_linear_46_1639)"/>
<path d="M48.6056 66.1701C48.6838 66.4274 47.7459 66.8092 47.2053 65.7545C47.191 65.2518 46.9059 63.0944 47.21 62.6877C48.8309 60.5214 51.96 57.8162 51.96 57.8162C52.4793 58.3385 52.0424 58.8424 52.0424 58.8424L50.5223 60.3957C50.8318 60.9678 51.2112 61.4516 51.3843 62.1411C51.5159 62.6634 51.427 63.2195 51.159 63.6914C50.8904 64.1651 50.5241 64.7799 50.1784 65.2613C49.5245 66.1713 48.605 66.1695 48.605 66.1695L48.6056 66.1701Z" fill="url(#paint22_linear_46_1639)"/>
<path d="M49.8545 61.4067L48.4719 62.5563L48.0303 63.71L49.2403 65.0783C49.2403 65.0783 49.6737 62.7851 49.9837 62.2913C50.2938 61.7968 50.1379 61.555 49.8545 61.4073V61.4067Z" fill="url(#paint23_linear_46_1639)"/>
<path d="M11.9024 86.8107L8.96361 79.1807C8.96361 79.1807 1.58313 84.0931 0.317383 90.3987C1.7017 90.5137 4.21957 90.8985 6.67578 92.1678C7.2467 89.1905 11.9024 86.8107 11.9024 86.8107Z" fill="url(#paint24_linear_46_1639)"/>
<path d="M18.2419 94.0246C18.2419 94.0246 9.96442 98.5991 7.22483 94.5997C6.65568 93.7691 6.52585 92.948 6.67525 92.1678C4.21904 90.8979 1.70177 90.5137 0.316853 90.3987C-0.064947 92.2994 0.108168 94.327 1.20733 96.3848C5.98813 105.332 19.3114 96.0658 19.3114 96.0658L18.2413 94.0258L18.2419 94.0246Z" fill="url(#paint25_linear_46_1639)"/>
<path d="M17.604 70.8274L15.0369 78.027C14.9943 78.1462 15.0423 78.279 15.1526 78.3419C15.8296 78.7248 18.2728 79.8364 21.2465 77.9903C21.5566 77.7982 21.7688 77.4816 21.8192 77.1206L22.6878 70.876L17.6034 70.8274H17.604Z" fill="url(#paint26_linear_46_1639)"/>
<path d="M23.1042 64.1902C23.1042 64.1902 25.7982 69.3795 25.4265 71.4622C25.0547 73.5443 21.6571 73.3623 18.7046 71.64L16.6836 66.0452L23.1042 64.1908V64.1902Z" fill="url(#paint27_linear_46_1639)"/>
<path d="M18.8607 68.903C18.9817 68.8509 19.0279 68.7032 18.9568 68.5924C18.7404 68.2544 18.3349 67.5655 18.2092 66.965C18.2092 66.965 17.7189 66.6442 19.4714 66.2429C21.2233 65.8409 23.8366 65.2166 24.3986 63.7339C24.9464 62.2885 23.5781 58.6264 21.3104 61.5119C21.2244 61.6216 21.0573 61.6227 20.9731 61.5113C20.6102 61.0299 19.6546 60.0291 18.3088 60.6173C17.0495 61.168 16.8996 62.0858 16.912 62.5488C16.9156 62.6851 16.7928 62.7901 16.6594 62.7628C16.0269 62.6359 14.5062 62.5174 13.7811 64.0712C13.1841 65.3512 13.557 66.0828 13.9003 66.4421C14.0112 66.5583 13.9602 66.748 13.806 66.7936C13.3881 66.9169 12.8468 67.2656 12.8912 68.242C12.9529 69.5925 14.4629 69.4876 14.8933 69.4301C14.9639 69.4206 15.0344 69.4455 15.0819 69.4988C15.4465 69.9097 17.0893 71.6568 18.8838 71.8827C19.0392 71.9023 19.1613 71.7499 19.1115 71.6011L18.3556 69.334C18.3206 69.2285 18.3716 69.1141 18.4736 69.0702L18.8607 68.903Z" fill="url(#paint28_linear_46_1639)"/>
<path d="M19.1711 69.2268C19.1711 69.2268 17.2307 67.868 17.0771 68.995C16.9236 70.122 18.8201 70.6461 19.7658 70.2347L19.1705 69.2268H19.1711Z" fill="url(#paint29_linear_46_1639)"/>
<path d="M16.5508 101.254L21.0595 85.5077C21.1105 85.3287 21.2634 85.1989 21.4478 85.1769C22.2648 85.0815 24.632 84.8141 27.3651 84.5829C30.6573 84.3042 34.4806 84.079 36.7649 84.2704C37.0898 84.2977 37.286 84.641 37.1413 84.9333C35.8424 87.5614 30.4984 98.2536 27.8222 101.756C27.7333 101.872 27.5963 101.939 27.4505 101.938L16.9889 101.841C16.6848 101.838 16.4666 101.546 16.5502 101.253L16.5508 101.254Z" fill="url(#paint30_linear_46_1639)"/>
<path d="M17.6399 97.4495C17.6399 97.4495 17.0121 94.8671 17.2652 93.9505C17.5184 93.0339 18.0093 91.8559 19.6455 92.118C21.2818 92.38 23.2122 93.0689 23.2122 93.0689C23.2122 93.0689 23.1149 94.2623 21.8711 93.8776L22.6424 94.474C22.6424 94.474 22.5322 95.4297 21.4816 94.9192L22.199 95.7107C22.199 95.7107 21.7478 96.4956 20.9753 95.9923C20.2022 95.489 19.8323 97.7608 17.6405 97.4495H17.6399Z" fill="url(#paint31_linear_46_1639)"/>
<path d="M27.0645 89.2838C27.0645 90.0148 27.6573 90.6077 28.3883 90.6077C29.1193 90.6077 29.7122 90.0148 29.7122 89.2838C29.7122 88.5528 29.1193 87.96 28.3883 87.96C27.6573 87.96 27.0645 88.5528 27.0645 89.2838Z" fill="#91B3FA"/>
<path d="M21.5812 90.1593L22.4989 87.045C22.6104 86.6668 22.9151 86.3834 23.2921 86.3045C26.1675 85.7046 34.043 85.5771 34.1225 85.5759L34.1165 85.1995C33.7922 85.2042 26.1266 85.3287 23.2157 85.9358C22.7023 86.0431 22.2896 86.4273 22.1384 86.9383L21.2207 90.0526L21.5818 90.1593H21.5812Z" fill="#91B3FA"/>
<path d="M99.6345 65.2391C99.6345 65.2391 101.731 66.2588 102.117 67.4303C102.426 68.3706 104.744 68.4915 104.973 70.3401C105.091 71.2946 105.798 72.0588 106.748 72.2046C109.116 72.5674 112.764 73.797 113.348 77.9079C113.794 81.0459 112.195 82.2351 110.516 82.6472C109.283 82.9495 108.463 84.1489 108.713 85.3939C108.952 86.5879 108.595 87.9681 106.527 89.0595C101.892 91.5051 97.263 83.2649 97.263 83.2649L96.3145 68.8769L99.6345 65.2385V65.2391Z" fill="url(#paint32_linear_46_1639)"/>
<path d="M118.687 155.457L118.987 157.923C119.044 158.391 119.412 158.761 119.88 158.814C120.671 158.904 121.939 158.996 123.181 158.865C123.726 158.808 124.079 158.256 123.913 157.734C123.611 156.782 123.057 155.353 122.259 154.513H119.523C119.018 154.513 118.626 154.955 118.687 155.457Z" fill="url(#paint33_linear_46_1639)"/>
<path d="M97.2625 126.571L96.8006 129.287C96.8006 129.287 98.3468 144.948 98.6219 151.212C98.6652 152.195 98.4108 153.165 97.8956 154.002L95.207 158.368L102.04 154.336L102.175 153.502L101.057 151.965L102.522 134.421C102.608 133.39 102.395 132.356 101.909 131.443L100.496 128.789L97.2619 126.572L97.2625 126.571Z" fill="url(#paint34_linear_46_1639)"/>
<path d="M94.7567 159H96.9373C97.3451 159 97.7305 158.813 97.9789 158.489C98.6589 157.605 100.067 155.883 100.74 155.838C101.647 155.777 101.531 159 101.531 159H102.039L102.683 154.995C102.844 153.987 102.344 152.989 101.439 152.518C101.439 152.518 101.231 154.05 100.108 154.728C98.9844 155.405 95.5352 157.833 95.5352 157.833C95.5352 157.833 95.113 157.773 94.6488 157.857C93.9611 157.981 94.0572 159 94.7561 159H94.7567Z" fill="url(#paint35_linear_46_1639)"/>
<path d="M106.622 127.861C106.622 127.861 115.679 145.042 117.119 148.965C118.559 152.888 119.063 156.16 119.082 156.47C119.113 156.955 119.715 157.419 121.375 157.419C122.232 157.419 122.651 157.076 122.856 156.743C123.032 156.46 123.041 156.105 122.893 155.806C122.369 154.746 120.707 151.357 120.091 149.82C119.356 147.985 117.774 139.669 116.907 136.778C116.039 133.887 115.059 130.75 111.282 127.861C111.282 127.861 108.689 125.322 106.621 127.861H106.622Z" fill="url(#paint36_linear_46_1639)"/>
<path d="M100.899 99.709C98.5627 89.8089 104.482 84.2094 104.482 84.2094C100.747 80.6244 93.9426 78.9934 93.9426 78.9934C93.9426 78.9934 87.4496 83.7404 88.2197 87.4559C88.6715 89.6334 92.7835 100.5 92.7835 100.5C92.7835 100.5 96.5861 102.3 100.899 99.7096V99.709Z" fill="url(#paint37_linear_46_1639)"/>
<path d="M106.079 104.61C105.128 101.745 100.899 99.709 100.899 99.709C96.5857 102.299 92.7831 100.499 92.7831 100.499C92.7831 100.499 91.93 103.759 92.5187 106.788C93.1074 109.818 96.8003 129.287 96.8003 129.287C102.619 130.466 111.568 128.1 111.568 128.1C107.862 121.52 107.029 107.474 106.079 104.61L106.079 104.61Z" fill="url(#paint38_linear_46_1639)"/>
<path d="M98.1871 72.4502L100.087 80.9826C100.269 81.7343 99.5833 81.611 98.8232 81.4681C97.5788 81.2333 95.9751 80.7502 95.4392 79.782C95.3847 79.6836 95.3574 79.5721 95.342 79.4607L94.5256 73.544C94.461 73.0744 94.7147 72.6191 95.1475 72.427L96.7222 71.7286C97.3286 71.4601 98.0306 71.8057 98.1865 72.4502H98.1871Z" fill="url(#paint39_linear_46_1639)"/>
<path d="M104.481 84.2087C104.481 84.2087 117.739 93.6945 106.177 103.662C106.177 103.662 105.736 104.16 104.868 104.42C104.43 104.551 103.135 105.531 102.478 106.042C102.267 106.206 101.962 106.15 101.82 105.923C101.709 105.745 101.696 105.524 101.786 105.334L103.428 101.863C103.884 101.438 104.581 101.408 105.072 101.792C105.385 102.038 105.844 101.935 106.02 101.578C106.914 99.757 108.601 94.4029 101.694 88.3534C101.434 88.1258 101.368 87.7499 101.528 87.4434C102.013 86.5108 103.123 84.6593 104.482 84.2093L104.481 84.2087Z" fill="url(#paint40_linear_46_1639)"/>
<path d="M94.5486 64.6719C94.5486 64.6719 92.5263 66.0408 91.6572 69.5268C90.7881 73.0128 92.2003 74.2638 93.648 74.1867C95.0958 74.1102 97.1945 73.6626 99.0128 71.1613C100.831 68.6601 97.1986 62.9989 94.5486 64.6713V64.6719Z" fill="url(#paint41_linear_46_1639)"/>
<path d="M97.18 69.7563C97.18 69.7563 97.921 64.7609 93.7734 65.5251L92.9351 66.3984C92.9351 66.3984 90.9052 64.1123 93.1515 62.3842C95.3978 60.656 98.5156 61.0982 100.24 64.2445C101.965 67.3908 102.591 69.6016 101.146 71.5563C99.7002 73.5115 98.6123 71.8343 98.6123 71.8343C98.6123 71.8343 99.2751 70.1423 98.7249 69.416C98.1748 68.6898 97.4651 69.8382 97.4651 69.8382L97.18 69.7557V69.7563Z" fill="url(#paint42_linear_46_1639)"/>
<path d="M97.7467 70.1838C97.7467 70.1838 98.1125 67.6138 99.4251 68.3483C100.738 69.0829 98.952 70.7494 98.2358 71.3162L97.7461 70.1838H97.7467Z" fill="url(#paint43_linear_46_1639)"/>
<defs>
<linearGradient id="paint0_linear_46_1639" x1="96.1667" y1="30.8639" x2="-16.4885" y2="204.024" gradientUnits="userSpaceOnUse">
<stop stop-color="#09005D"/>
<stop offset="1" stop-color="#1A0F91"/>
</linearGradient>
<linearGradient id="paint1_linear_46_1639" x1="102.969" y1="79.9579" x2="61.9819" y2="171.275" gradientUnits="userSpaceOnUse">
<stop stop-color="#09005D"/>
<stop offset="1" stop-color="#1A0F91"/>
</linearGradient>
<linearGradient id="paint2_linear_46_1639" x1="79.1857" y1="-1.09548" x2="24.6881" y2="23.3604" gradientUnits="userSpaceOnUse">
<stop stop-color="#09005D"/>
<stop offset="1" stop-color="#1A0F91"/>
</linearGradient>
<linearGradient id="paint3_linear_46_1639" x1="76.9599" y1="-6.44515" x2="39.2332" y2="42.3303" gradientUnits="userSpaceOnUse">
<stop stop-color="#09005D"/>
<stop offset="1" stop-color="#1A0F91"/>
</linearGradient>
<linearGradient id="paint4_linear_46_1639" x1="72.2323" y1="-3.48219" x2="46.0695" y2="43.6138" gradientUnits="userSpaceOnUse">
<stop stop-color="#09005D"/>
<stop offset="1" stop-color="#1A0F91"/>
</linearGradient>
<linearGradient id="paint5_linear_46_1639" x1="49.7331" y1="-7.4837" x2="12.0612" y2="75.3948" gradientUnits="userSpaceOnUse">
<stop stop-color="#4042E2"/>
<stop offset="1" stop-color="#4F52FF"/>
</linearGradient>
<linearGradient id="paint6_linear_46_1639" x1="55.8209" y1="-4.71557" x2="18.1484" y2="78.1629" gradientUnits="userSpaceOnUse">
<stop stop-color="#4042E2"/>
<stop offset="1" stop-color="#4F52FF"/>
</linearGradient>
<linearGradient id="paint7_linear_46_1639" x1="62.0673" y1="-1.87629" x2="24.3953" y2="81.0022" gradientUnits="userSpaceOnUse">
<stop stop-color="#4042E2"/>
<stop offset="1" stop-color="#4F52FF"/>
</linearGradient>
<linearGradient id="paint8_linear_46_1639" x1="67.5214" y1="0.602442" x2="29.8495" y2="83.4809" gradientUnits="userSpaceOnUse">
<stop stop-color="#4042E2"/>
<stop offset="1" stop-color="#4F52FF"/>
</linearGradient>
<linearGradient id="paint9_linear_46_1639" x1="72.7578" y1="2.98277" x2="35.0859" y2="85.8613" gradientUnits="userSpaceOnUse">
<stop stop-color="#4042E2"/>
<stop offset="1" stop-color="#4F52FF"/>
</linearGradient>
<linearGradient id="paint10_linear_46_1639" x1="80.0653" y1="6.30395" x2="42.3927" y2="89.1824" gradientUnits="userSpaceOnUse">
<stop stop-color="#4042E2"/>
<stop offset="1" stop-color="#4F52FF"/>
</linearGradient>
<linearGradient id="paint11_linear_46_1639" x1="87.6407" y1="9.74786" x2="49.9687" y2="92.6263" gradientUnits="userSpaceOnUse">
<stop stop-color="#4042E2"/>
<stop offset="1" stop-color="#4F52FF"/>
</linearGradient>
<linearGradient id="paint12_linear_46_1639" x1="93.9739" y1="12.6268" x2="56.302" y2="95.5053" gradientUnits="userSpaceOnUse">
<stop stop-color="#4042E2"/>
<stop offset="1" stop-color="#4F52FF"/>
</linearGradient>
<linearGradient id="paint13_linear_46_1639" x1="99.6414" y1="15.2018" x2="61.9694" y2="98.0803" gradientUnits="userSpaceOnUse">
<stop stop-color="#4042E2"/>
<stop offset="1" stop-color="#4F52FF"/>
</linearGradient>
<linearGradient id="paint14_linear_46_1639" x1="31.4289" y1="148.872" x2="-2.36991" y2="184.947" gradientUnits="userSpaceOnUse">
<stop stop-color="#09005D"/>
<stop offset="1" stop-color="#1A0F91"/>
</linearGradient>
<linearGradient id="paint15_linear_46_1639" x1="20.5444" y1="151.471" x2="23.5163" y2="151.499" gradientUnits="userSpaceOnUse">
<stop stop-color="#FEBBBA"/>
<stop offset="1" stop-color="#FF928E"/>
</linearGradient>
<linearGradient id="paint16_linear_46_1639" x1="0.455269" y1="166.977" x2="28.9871" y2="107.502" gradientUnits="userSpaceOnUse">
<stop stop-color="#4F52FF"/>
<stop offset="1" stop-color="#4042E2"/>
</linearGradient>
<linearGradient id="paint17_linear_46_1639" x1="23.9885" y1="141.899" x2="-9.81144" y2="177.976" gradientUnits="userSpaceOnUse">
<stop stop-color="#09005D"/>
<stop offset="1" stop-color="#1A0F91"/>
</linearGradient>
<linearGradient id="paint18_linear_46_1639" x1="9.83488" y1="151.217" x2="12.4007" y2="151.241" gradientUnits="userSpaceOnUse">
<stop stop-color="#FEBBBA"/>
<stop offset="1" stop-color="#FF928E"/>
</linearGradient>
<linearGradient id="paint19_linear_46_1639" x1="-6.08473" y1="163.839" x2="22.4465" y2="104.365" gradientUnits="userSpaceOnUse">
<stop stop-color="#4F52FF"/>
<stop offset="1" stop-color="#4042E2"/>
</linearGradient>
<linearGradient id="paint20_linear_46_1639" x1="-593.672" y1="-698.55" x2="-556.904" y2="-651.233" gradientUnits="userSpaceOnUse">
<stop stop-color="#FF928E"/>
<stop offset="1" stop-color="#FE7062"/>
</linearGradient>
<linearGradient id="paint21_linear_46_1639" x1="33.5067" y1="74.0561" x2="48.6897" y2="74.1992" gradientUnits="userSpaceOnUse">
<stop stop-color="#FEBBBA"/>
<stop offset="1" stop-color="#FF928E"/>
</linearGradient>
<linearGradient id="paint22_linear_46_1639" x1="45.3759" y1="71.697" x2="34.9696" y2="94.7807" gradientUnits="userSpaceOnUse">
<stop stop-color="#FEBBBA"/>
<stop offset="1" stop-color="#FF928E"/>
</linearGradient>
<linearGradient id="paint23_linear_46_1639" x1="48.7141" y1="63.9342" x2="53.0269" y2="57.4383" gradientUnits="userSpaceOnUse">
<stop stop-color="#FEBBBA"/>
<stop offset="1" stop-color="#FF928E"/>
</linearGradient>
<linearGradient id="paint24_linear_46_1639" x1="-600.154" y1="-693.512" x2="-563.386" y2="-646.195" gradientUnits="userSpaceOnUse">
<stop stop-color="#FF928E"/>
<stop offset="1" stop-color="#FE7062"/>
</linearGradient>
<linearGradient id="paint25_linear_46_1639" x1="0.0814541" y1="95.2473" x2="19.2945" y2="95.4284" gradientUnits="userSpaceOnUse">
<stop stop-color="#FEBBBA"/>
<stop offset="1" stop-color="#FF928E"/>
</linearGradient>
<linearGradient id="paint26_linear_46_1639" x1="9.06035" y1="96.162" x2="16.8961" y2="79.888" gradientUnits="userSpaceOnUse">
<stop stop-color="#FEBBBA"/>
<stop offset="1" stop-color="#FF928E"/>
</linearGradient>
<linearGradient id="paint27_linear_46_1639" x1="24.5083" y1="70.1524" x2="16.2034" y2="64.9787" gradientUnits="userSpaceOnUse">
<stop stop-color="#FEBBBA"/>
<stop offset="1" stop-color="#FF928E"/>
</linearGradient>
<linearGradient id="paint28_linear_46_1639" x1="41.9982" y1="34.3904" x2="20.6008" y2="62.4189" gradientUnits="userSpaceOnUse">
<stop stop-color="#E1473D"/>
<stop offset="1" stop-color="#E9605A"/>
</linearGradient>
<linearGradient id="paint29_linear_46_1639" x1="22.2955" y1="72.0317" x2="14.8238" y2="67.3766" gradientUnits="userSpaceOnUse">
<stop stop-color="#FEBBBA"/>
<stop offset="1" stop-color="#FF928E"/>
</linearGradient>
<linearGradient id="paint30_linear_46_1639" x1="24.4702" y1="83.093" x2="35.0729" y2="127.27" gradientUnits="userSpaceOnUse">
<stop stop-color="#09005D"/>
<stop offset="1" stop-color="#1A0F91"/>
</linearGradient>
<linearGradient id="paint31_linear_46_1639" x1="17.2053" y1="94.7799" x2="23.2122" y2="94.7799" gradientUnits="userSpaceOnUse">
<stop stop-color="#FEBBBA"/>
<stop offset="1" stop-color="#FF928E"/>
</linearGradient>
<linearGradient id="paint32_linear_46_1639" x1="113.28" y1="88.1234" x2="89.7711" y2="64.6148" gradientUnits="userSpaceOnUse">
<stop stop-color="#E1473D"/>
<stop offset="1" stop-color="#E9605A"/>
</linearGradient>
<linearGradient id="paint33_linear_46_1639" x1="140.917" y1="129.012" x2="110.177" y2="172.409" gradientUnits="userSpaceOnUse">
<stop stop-color="#4F52FF"/>
<stop offset="1" stop-color="#4042E2"/>
</linearGradient>
<linearGradient id="paint34_linear_46_1639" x1="96.3975" y1="177.517" x2="103.986" y2="88.8223" gradientUnits="userSpaceOnUse">
<stop stop-color="#FEBBBA"/>
<stop offset="1" stop-color="#FF928E"/>
</linearGradient>
<linearGradient id="paint35_linear_46_1639" x1="126.374" y1="118.71" x2="95.6335" y2="162.108" gradientUnits="userSpaceOnUse">
<stop stop-color="#4F52FF"/>
<stop offset="1" stop-color="#4042E2"/>
</linearGradient>
<linearGradient id="paint36_linear_46_1639" x1="111.664" y1="178.837" x2="119.255" y2="90.1184" gradientUnits="userSpaceOnUse">
<stop stop-color="#FEBBBA"/>
<stop offset="1" stop-color="#FF928E"/>
</linearGradient>
<linearGradient id="paint37_linear_46_1639" x1="96.5849" y1="88.0736" x2="100.379" y2="123.279" gradientUnits="userSpaceOnUse">
<stop stop-color="#4F52FF"/>
<stop offset="1" stop-color="#4042E2"/>
</linearGradient>
<linearGradient id="paint38_linear_46_1639" x1="131.947" y1="66.6673" x2="112.973" y2="97.0245" gradientUnits="userSpaceOnUse">
<stop stop-color="#4F52FF"/>
<stop offset="1" stop-color="#4042E2"/>
</linearGradient>
<linearGradient id="paint39_linear_46_1639" x1="95.5655" y1="90.0906" x2="96.9907" y2="79.6617" gradientUnits="userSpaceOnUse">
<stop stop-color="#FEBBBA"/>
<stop offset="1" stop-color="#FF928E"/>
</linearGradient>
<linearGradient id="paint40_linear_46_1639" x1="101.44" y1="95.1724" x2="110.91" y2="95.1724" gradientUnits="userSpaceOnUse">
<stop stop-color="#FEBBBA"/>
<stop offset="1" stop-color="#FF928E"/>
</linearGradient>
<linearGradient id="paint41_linear_46_1639" x1="93.0163" y1="77.5229" x2="100.919" y2="53.3924" gradientUnits="userSpaceOnUse">
<stop stop-color="#FEBBBA"/>
<stop offset="1" stop-color="#FF928E"/>
</linearGradient>
<linearGradient id="paint42_linear_46_1639" x1="116.432" y1="84.972" x2="92.9232" y2="61.4635" gradientUnits="userSpaceOnUse">
<stop stop-color="#E1473D"/>
<stop offset="1" stop-color="#E9605A"/>
</linearGradient>
<linearGradient id="paint43_linear_46_1639" x1="95.9035" y1="78.4685" x2="103.806" y2="54.3374" gradientUnits="userSpaceOnUse">
<stop stop-color="#FEBBBA"/>
<stop offset="1" stop-color="#FF928E"/>
</linearGradient>
</defs>
</svg>
