<svg width="296" height="136" viewBox="0 0 296 136" fill="none" xmlns="http://www.w3.org/2000/svg">
<path d="M139.783 4.46484H201.26C203.195 4.46484 204.765 6.03556 204.765 7.96916V130.912C204.765 132.846 203.194 134.416 201.26 134.416H139.783C137.848 134.416 136.278 132.845 136.278 130.912V7.96916C136.278 6.03447 137.849 4.46484 139.783 4.46484Z" fill="#78ACEA"/>
<path d="M208.386 7.96926V130.912C208.386 132.839 206.809 134.416 204.88 134.416H143.403C141.475 134.416 139.898 132.839 139.898 130.912V7.96926C139.898 6.04108 141.475 4.46387 143.403 4.46387H204.88C206.809 4.46387 208.386 6.04108 208.386 7.96926Z" fill="#AFCDFB"/>
<path opacity="0.4" d="M184.178 9.38293H166.375C165.994 9.38293 165.683 9.07095 165.683 8.69073C165.683 8.30943 165.995 7.99854 166.375 7.99854H184.178C184.559 7.99854 184.87 8.31051 184.87 8.69073C184.87 9.07203 184.558 9.38293 184.178 9.38293Z" fill="#5E92DD"/>
<path opacity="0.4" d="M163.214 9.38293C162.832 9.38293 162.521 9.07095 162.521 8.69073C162.521 8.30943 162.833 7.99854 163.214 7.99854C163.595 7.99854 163.906 8.31051 163.906 8.69073C163.906 9.07203 163.594 9.38293 163.214 9.38293Z" fill="#5E92DD"/>
<path d="M179.457 127.235C179.457 128.461 178.962 129.573 178.162 130.381C177.353 131.199 176.229 131.703 174.989 131.703C172.521 131.703 170.521 129.703 170.521 127.235C170.521 125.649 171.347 124.257 172.594 123.464C173.285 123.023 174.107 122.769 174.989 122.769C177.457 122.769 179.457 124.768 179.457 127.236V127.235Z" fill="#95C0F4"/>
<path d="M204.73 12.4702H143.998V120.572H204.73V12.4702Z" fill="#95C0F4"/>
<path d="M178.162 130.38C177.353 131.198 176.229 131.702 174.989 131.702C172.521 131.702 170.521 129.702 170.521 127.234C170.521 125.648 171.347 124.256 172.594 123.463C173.033 125.365 174.33 128.547 178.161 130.38H178.162Z" fill="#8CBAF1"/>
<path opacity="0.9" d="M203.857 25.3945H147.337C146.857 25.3945 146.464 25.9037 146.464 26.5265V62.6616C146.464 63.2834 146.857 63.7925 147.337 63.7925H203.857C204.338 63.7925 204.731 63.2834 204.731 62.6616V26.5265C204.731 25.9037 204.338 25.3945 203.857 25.3945Z" fill="#78ACEA"/>
<path opacity="0.9" d="M182.771 69.2939H138.707C138.332 69.2939 138.026 69.8031 138.026 70.4259V106.562C138.026 107.184 138.333 107.693 138.707 107.693H182.771C183.146 107.693 183.452 107.184 183.452 106.562V70.4259C183.452 69.8031 183.146 69.2939 182.771 69.2939Z" fill="#78ACEA"/>
<path d="M225.343 23.2702V59.4063C225.343 60.027 224.834 60.5361 224.211 60.5361H151.032C150.411 60.5361 149.902 60.027 149.902 59.4063V23.2702C149.902 22.6473 150.411 22.1382 151.032 22.1382H224.211C224.834 22.1382 225.343 22.6473 225.343 23.2702Z" fill="#FCECDB"/>
<path d="M225.343 23.2702V59.4052C225.343 60.027 224.751 60.5361 224.028 60.5361H187.623V22.1382H224.028C224.751 22.1382 225.343 22.6473 225.343 23.2702Z" fill="#F99746"/>
<path d="M205.493 36.1654H192.613C192.162 36.1654 191.793 35.796 191.793 35.3454C191.793 34.8948 192.162 34.5254 192.613 34.5254H205.493C205.943 34.5254 206.313 34.8948 206.313 35.3454C206.313 35.796 205.943 36.1654 205.493 36.1654Z" fill="#FCECDB"/>
<path d="M192.514 36.9851H202.31C202.709 36.9851 203.032 37.3079 203.032 37.7066V37.9037C203.032 38.3023 202.709 38.6251 202.31 38.6251H192.514C192.116 38.6251 191.793 38.3023 191.793 37.9037V37.7066C191.793 37.3079 192.116 36.9851 192.514 36.9851Z" fill="#FCECDB"/>
<path d="M192.783 26.9747C193.091 26.5674 193.499 26.3638 193.993 26.3638C194.486 26.3638 194.888 26.5674 195.197 26.9682C195.506 27.3701 195.656 27.8695 195.656 28.4685C195.656 29.0676 195.505 29.568 195.197 29.9688C194.888 30.3707 194.488 30.5744 193.993 30.5744C193.497 30.5744 193.091 30.3707 192.783 29.9688C192.474 29.568 192.323 29.0676 192.323 28.4685C192.323 27.8695 192.475 27.3744 192.783 26.9736V26.9747ZM194.882 27.2542C194.649 26.9281 194.352 26.7657 193.991 26.7657C193.631 26.7657 193.334 26.9281 193.101 27.2542C192.868 27.5803 192.752 27.9876 192.752 28.4696C192.752 28.9517 192.868 29.3655 193.096 29.6915C193.328 30.0111 193.625 30.1746 193.991 30.1746C194.358 30.1746 194.654 30.0122 194.882 29.6915C195.115 29.3655 195.231 28.9581 195.231 28.4696C195.231 27.9811 195.115 27.5792 194.882 27.2542Z" fill="#FCECDB"/>
<path d="M198.977 26.8707C199.25 27.2022 199.39 27.6734 199.39 28.2725C199.413 29.5409 198.727 30.5874 197.621 30.5754C197.29 30.5754 196.998 30.4942 196.76 30.3252V29.9125C197.015 30.0869 197.29 30.1746 197.585 30.1746C198.55 30.1746 198.952 29.2961 198.97 28.4349C198.754 28.8011 198.329 29.0394 197.777 29.0394C197.411 29.0394 197.097 28.917 196.84 28.6787C196.59 28.4349 196.462 28.1208 196.462 27.7427C196.462 27.3409 196.595 27.0159 196.857 26.7537C197.125 26.4916 197.456 26.3638 197.846 26.3638C198.323 26.3638 198.701 26.5328 198.975 26.8696L198.977 26.8707ZM197.168 27.0451C196.982 27.226 196.889 27.4578 196.889 27.7427C196.889 28.0276 196.982 28.2432 197.174 28.4122C197.365 28.5812 197.598 28.6624 197.883 28.6624C198.121 28.6624 198.342 28.5866 198.546 28.436C198.75 28.2844 198.884 28.0991 198.959 27.8717C198.888 27.174 198.505 26.7667 197.871 26.7667C197.592 26.7667 197.36 26.8599 197.167 27.0462L197.168 27.0451Z" fill="#FCECDB"/>
<path d="M200.252 27.8589C200.368 27.743 200.566 27.743 200.682 27.8589C200.798 27.9748 200.798 28.173 200.682 28.289C200.566 28.4049 200.368 28.4049 200.252 28.289C200.136 28.173 200.136 27.9748 200.252 27.8589ZM200.252 30.0232C200.368 29.9073 200.566 29.9073 200.682 30.0232C200.798 30.1391 200.798 30.3374 200.682 30.4533C200.566 30.5692 200.368 30.5692 200.252 30.4533C200.136 30.3374 200.136 30.1391 200.252 30.0232Z" fill="#FCECDB"/>
<path d="M202.264 30.5063V26.9001L201.351 27.4233V27.0106L202.31 26.4343H202.688V30.5063H202.264Z" fill="#FCECDB"/>
<path d="M204.171 26.9747C204.48 26.5674 204.886 26.3638 205.381 26.3638C205.876 26.3638 206.277 26.5674 206.586 26.9682C206.895 27.3701 207.045 27.8695 207.045 28.4685C207.045 29.0676 206.893 29.568 206.586 29.9688C206.277 30.3707 205.876 30.5744 205.381 30.5744C204.886 30.5744 204.48 30.3707 204.171 29.9688C203.862 29.568 203.712 29.0676 203.712 28.4685C203.712 27.8695 203.864 27.3744 204.171 26.9736V26.9747ZM206.271 27.2542C206.038 26.9281 205.741 26.7657 205.38 26.7657C205.019 26.7657 204.723 26.9281 204.49 27.2542C204.257 27.5803 204.141 27.9876 204.141 28.4696C204.141 28.9517 204.257 29.3655 204.484 29.6915C204.717 30.0111 205.014 30.1746 205.38 30.1746C205.746 30.1746 206.043 30.0122 206.271 29.6915C206.503 29.3655 206.619 28.9581 206.619 28.4696C206.619 27.9811 206.503 27.5792 206.271 27.2542Z" fill="#FCECDB"/>
<path d="M209.552 30.5063V26.4343H211.262C212.077 26.4343 212.565 26.8882 212.565 27.5631C212.565 28.2379 212.077 28.7092 211.262 28.7092H209.983V30.5063H209.553H209.552ZM209.982 28.3192H211.233C211.809 28.3192 212.141 28.0462 212.141 27.575C212.141 27.1038 211.809 26.8243 211.233 26.8243H209.982V28.3192Z" fill="#FCECDB"/>
<path d="M213.421 30.5063V26.4343H213.846L215.318 28.4058L216.79 26.4343H217.209V30.5063H216.784V27.0864L215.452 28.8662H215.19L213.847 27.0864V30.5063H213.422H213.421Z" fill="#FCECDB"/>
<path d="M171.62 60.5364H151.032C150.411 60.5364 149.902 60.0272 149.902 59.4065V34.8503C155.515 41.4809 166.504 54.481 171.62 60.5364Z" fill="#F9E5D1"/>
<path d="M168.623 26.896C164.504 26.896 161.164 30.2357 161.164 34.3553C161.164 38.4749 168.623 47.6337 168.623 47.6337C168.623 47.6337 176.083 38.4749 176.083 34.3553C176.083 30.2357 172.743 26.896 168.623 26.896ZM168.623 37.7664C166.697 37.7664 165.136 36.2054 165.136 34.2794C165.136 32.3534 166.697 30.7924 168.623 30.7924C170.549 30.7924 172.11 32.3534 172.11 34.2794C172.11 36.2054 170.549 37.7664 168.623 37.7664Z" fill="#F99746"/>
<path d="M167.996 53.8253H155.117C154.666 53.8253 154.297 53.456 154.297 53.0053C154.297 52.5547 154.666 52.1853 155.117 52.1853H167.996C168.446 52.1853 168.816 52.5547 168.816 53.0053C168.816 53.456 168.446 53.8253 167.996 53.8253Z" fill="#EFCBAB"/>
<path d="M155.018 54.6453H164.814C165.213 54.6453 165.536 54.9681 165.536 55.3667V55.5639C165.536 55.9625 165.213 56.2853 164.814 56.2853H155.018C154.62 56.2853 154.297 55.9614 154.297 55.5639V55.3667C154.297 54.9681 154.62 54.6453 155.018 54.6453Z" fill="#EFCBAB"/>
<path d="M189.209 67.6508V103.787C189.209 104.409 188.7 104.918 188.078 104.918H114.901C114.278 104.918 113.769 104.409 113.769 103.787V67.6508C113.769 67.0301 114.278 66.521 114.901 66.521H188.078C188.7 66.521 189.209 67.0301 189.209 67.6508Z" fill="#FCECDB"/>
<path d="M189.209 67.6509V103.786C189.209 104.409 188.699 104.918 188.078 104.918H155.53V66.52H188.078C188.699 66.52 189.209 67.0291 189.209 67.6509Z" fill="#F99746"/>
<path d="M172.123 93.5451C171.476 93.5451 170.876 93.2028 170.548 92.6416L165.738 84.4198C165.229 83.5499 165.522 82.432 166.393 81.9229C167.263 81.4138 168.381 81.7073 168.89 82.5772L171.976 87.8515L177.786 75.8978C178.227 74.9912 179.319 74.6131 180.226 75.054C181.133 75.4949 181.511 76.5868 181.07 77.4935L173.766 92.5192C173.472 93.1248 172.868 93.5191 172.195 93.5451C172.171 93.5451 172.148 93.5462 172.124 93.5462L172.123 93.5451Z" fill="#FCECDB"/>
<path d="M172.123 97.7762C165.875 97.7762 160.794 92.6935 160.794 86.4475C160.794 80.2015 165.877 75.1189 172.123 75.1189C178.369 75.1189 183.451 80.2015 183.451 86.4475C183.451 92.6935 178.369 97.7762 172.123 97.7762ZM172.123 76.4459C166.608 76.4459 162.121 80.9327 162.121 86.4475C162.121 91.9623 166.608 96.4492 172.123 96.4492C177.637 96.4492 182.124 91.9623 182.124 86.4475C182.124 80.9327 177.637 76.4459 172.123 76.4459Z" fill="#FCECDB"/>
<path d="M135.201 104.918H114.899C114.276 104.918 113.767 104.409 113.767 103.787V75.8242L135.201 104.918Z" fill="#F9E5D1"/>
<path d="M123.586 72.7886C121.345 72.7886 119.528 74.6052 119.528 76.8464C119.528 79.0877 121.345 80.9043 123.586 80.9043C125.827 80.9043 127.644 79.0877 127.644 76.8464C127.644 74.6052 125.827 72.7886 123.586 72.7886ZM126.397 76.9764H123.586C123.515 76.9764 123.456 76.9179 123.456 76.8464V73.8242C123.456 73.7527 123.515 73.6942 123.586 73.6942C123.658 73.6942 123.716 73.7527 123.716 73.8242V76.7164H126.397C126.469 76.7164 126.527 76.7749 126.527 76.8464C126.527 76.9179 126.469 76.9764 126.397 76.9764Z" fill="#F99746"/>
<path d="M144.465 75.3354H131.586C131.135 75.3354 130.766 74.966 130.766 74.5153C130.766 74.0647 131.135 73.6953 131.586 73.6953H144.465C144.916 73.6953 145.285 74.0647 145.285 74.5153C145.285 74.967 144.916 75.3354 144.465 75.3354Z" fill="#EFCBAB"/>
<path d="M131.487 76.1555H141.283C141.682 76.1555 142.004 76.4783 142.004 76.877V77.0741C142.004 77.4727 141.68 77.7956 141.283 77.7956H131.487C131.088 77.7956 130.766 77.4727 130.766 77.0741V76.877C130.766 76.4783 131.088 76.1555 131.487 76.1555Z" fill="#EFCBAB"/>
<path d="M123.181 88.4946C121.164 88.4946 119.528 90.1303 119.528 92.1473C119.528 94.1644 123.181 98.6501 123.181 98.6501C123.181 98.6501 126.834 94.1654 126.834 92.1473C126.834 90.1292 125.198 88.4946 123.181 88.4946ZM123.181 93.8177C122.239 93.8177 121.474 93.0529 121.474 92.1105C121.474 91.1681 122.239 90.4033 123.181 90.4033C124.123 90.4033 124.888 91.1681 124.888 92.1105C124.888 93.0529 124.123 93.8177 123.181 93.8177Z" fill="#F99746"/>
<path d="M143.486 91.1574H130.606C130.156 91.1574 129.786 90.788 129.786 90.3374C129.786 89.8867 130.156 89.5173 130.606 89.5173H143.486C143.937 89.5173 144.306 89.8867 144.306 90.3374C144.306 90.788 143.937 91.1574 143.486 91.1574Z" fill="#EFCBAB"/>
<path d="M130.508 91.9773H140.303C140.702 91.9773 141.025 92.3001 141.025 92.6987V92.8959C141.025 93.2945 140.701 93.6173 140.303 93.6173H130.508C130.109 93.6173 129.786 93.2934 129.786 92.8959V92.6987C129.786 92.3001 130.109 91.9773 130.508 91.9773Z" fill="#EFCBAB"/>
<path d="M44.1458 88.2715C43.8771 81.6756 43.2998 75.9376 42.6076 71.9361C41.5048 65.5579 40.5115 61.8879 40.4996 61.8489C40.3544 61.2878 38.2551 59.0184 33.5884 59.0888C28.9218 59.1592 29.3637 62.1349 29.3637 62.1349C29.3637 62.2356 29.3767 62.3288 29.3973 62.3992C29.4428 62.553 33.726 78.0868 33.5408 98.1421C33.5386 98.4237 33.5061 98.9101 33.5267 99.2351C33.5267 99.2362 44.3418 99.5146 44.3451 99.2351C44.7221 97.4824 44.5379 92.6251 44.1458 88.2715Z" fill="#B7D3F3"/>
<path d="M45.5055 98.0445C45.5023 98.324 45.3549 98.5471 45.1751 98.5471H45.1708C44.991 98.5428 44.848 98.3196 44.8458 98.0445H35.5775C35.5743 98.324 35.427 98.5471 35.2471 98.5471H35.2428C35.0597 98.5428 34.9146 98.312 34.9167 98.0293C34.9709 92.2881 34.6427 86.9271 34.1476 82.1955C32.916 70.3956 30.6379 62.5096 30.6054 62.4001C30.5848 62.3297 30.5718 62.2366 30.5718 62.1358C30.5718 62.1358 30.1288 59.1591 34.7954 59.0897C39.4631 59.0193 41.5625 61.2898 41.7076 61.8509C41.7163 61.8802 42.2785 63.9579 43.026 67.694C43.274 68.9311 43.5405 70.3512 43.8156 71.9371C44.5068 75.9386 45.0852 81.6766 45.3539 88.2725C45.746 92.6272 45.8836 96.294 45.5066 98.0456L45.5055 98.0445Z" fill="#D2E3FC"/>
<path d="M34.2309 98.5482H70.5696C70.5696 98.5482 69.7236 95.124 48.6782 95.6332C33.7857 95.9939 34.2309 98.5482 34.2309 98.5482Z" fill="#C5DCF8"/>
<path d="M31.2734 134.317C35.4873 112.988 34.4029 99.8993 34.3975 99.7346C34.3867 99.4064 34.9922 99.1074 35.3183 99.0977C35.6476 99.0923 37.1024 99.0013 37.2703 99.2818C37.4913 99.6501 38.3395 115.776 32.0599 134.317H31.2734Z" fill="#B7D3F3"/>
<path d="M65.2014 134.317C60.9876 112.988 62.0719 99.8993 62.0773 99.7346C62.0882 99.4064 61.4826 99.1074 61.1566 99.0977C60.8273 99.0923 59.3725 99.0013 59.2046 99.2818C58.9836 99.6501 58.1354 115.776 64.415 134.317H65.2014Z" fill="#B7D3F3"/>
<path d="M71.9251 134.317C67.7123 112.988 68.7956 99.8993 68.801 99.7346C68.8118 99.4064 68.2063 99.1074 67.8802 99.0977C67.5509 99.0923 66.0961 99.0013 65.9282 99.2818C65.7072 99.6501 64.859 115.776 71.1386 134.317H71.9251Z" fill="#B7D3F3"/>
<path d="M38.042 134.317C42.2558 112.988 41.1715 99.8993 41.1661 99.7346C41.1553 99.4064 41.7608 99.1074 42.0868 99.0977C42.4162 99.0923 43.871 99.0013 44.0389 99.2818C44.2598 99.6501 45.108 115.776 38.8284 134.317H38.042Z" fill="#B7D3F3"/>
<path d="M70.5917 97.6621H34.253C33.842 97.6621 33.5088 97.9953 33.5088 98.4063V98.8959C33.5088 99.3069 33.842 99.6401 34.253 99.6401H70.5917C71.0027 99.6401 71.3359 99.3069 71.3359 98.8959V98.4063C71.3359 97.9953 71.0027 97.6621 70.5917 97.6621Z" fill="#B7D3F3"/>
<path d="M69.3134 66.8233L81.3927 64.2073L82.1044 65.9416C82.1044 65.9416 68.7761 73.872 67.5271 73.4842C66.2781 73.0964 69.3134 66.8244 69.3134 66.8244V66.8233Z" fill="#FFB27D"/>
<path d="M58.3331 121.454C58.0309 121.8 57.9919 122.188 58.1414 122.602C58.1414 122.604 58.1425 122.606 58.1446 122.607C58.4219 123.372 59.3362 124.227 60.3989 125.08C60.5343 125.19 60.6556 125.289 60.7607 125.382C60.7888 125.405 60.8159 125.43 60.8419 125.454C60.8636 125.473 60.8842 125.492 60.9047 125.51C61.8959 126.424 61.5233 126.633 63.3031 128.486C65.3331 130.598 66.7305 130.636 67.128 130.444C67.4638 130.28 66.7814 129.16 66.0242 127.9C65.9874 127.839 65.9516 127.778 65.9137 127.717C65.813 127.55 65.7122 127.38 65.6126 127.211C64.7254 125.696 64.9529 124.985 65.163 122.73C65.3342 120.897 68.0141 112.493 68.0141 112.493L64.1242 111.823C64.1242 111.823 62.9532 118.515 61.6619 119.546C60.9719 120.095 60.1995 120.102 59.5355 120.509C59.4889 120.537 59.4424 120.567 59.3979 120.596C59.021 120.846 58.6375 121.104 58.3331 121.452V121.454Z" fill="#FFB27D"/>
<path d="M58.3331 121.454C58.0309 121.801 57.9919 122.189 58.1414 122.602C58.1414 122.605 58.1425 122.607 58.1446 122.608C58.4837 123.373 59.3752 124.222 60.4021 125.073C60.5364 125.185 60.6545 125.287 60.7607 125.383C60.7888 125.407 60.8159 125.432 60.8419 125.456C60.8636 125.474 60.8842 125.494 60.9047 125.512C61.8959 126.425 61.5233 126.634 63.3031 128.488C65.3331 130.6 66.7305 130.638 67.128 130.445C67.4638 130.282 66.7814 129.161 66.0242 127.902C65.6288 127.756 63.7938 127.011 62.4061 125.236C61.1842 123.676 60.3685 121.672 59.5366 120.512C59.49 120.54 59.4434 120.569 59.399 120.598C59.0221 120.849 58.6386 121.106 58.3342 121.454H58.3331Z" fill="#1C468A"/>
<path d="M89.697 119.024C89.9375 120.224 91.649 120.025 93.561 119.557C95.4729 119.09 95.019 119.645 97.7402 119.343C100.461 119.042 101.286 118.027 101.369 117.623C101.444 117.265 100.098 117.138 98.6566 116.971C98.4757 116.951 98.2926 116.929 98.1106 116.906C96.4825 116.701 95.2899 115.651 93.8101 114.788C92.4095 113.971 90.3177 110.641 90.3177 110.641L86.5859 110.936C86.5859 110.936 88.5445 113.911 89.3016 115.204C89.7469 115.965 89.723 116.971 89.6678 117.748C89.6385 118.17 89.6115 118.601 89.697 119.025V119.024Z" fill="#FFB27D"/>
<path d="M93.5612 119.557C95.4731 119.09 95.0192 119.645 97.7404 119.344C100.461 119.043 101.286 118.028 101.369 117.624C101.444 117.265 100.099 117.138 98.6568 116.971L98.6438 117C98.6438 117 97.0113 118.157 94.7463 118.211C92.9004 118.255 90.9441 117.726 89.6691 117.747C89.6398 118.17 89.6127 118.601 89.6983 119.024C89.9388 120.224 91.6503 120.025 93.5623 119.557H93.5612Z" fill="#1C468A"/>
<path d="M81.3927 64.2072C81.3927 64.2072 82.282 62.0288 83.2602 61.9399C84.2384 61.8511 87.3506 61.3615 87.5726 61.8067C87.7947 62.2508 87.5726 63.8519 86.9053 64.4303C86.2381 65.0088 82.1033 65.9425 82.1033 65.9425L81.3916 64.2083L81.3927 64.2072Z" fill="#FFB27D"/>
<path d="M75.3957 95.1599L67.3526 116.807C67.3526 116.807 66.1166 116.926 64.9326 116.584C63.8428 116.27 62.5928 115.445 62.5928 115.445C62.5928 115.445 64.5881 94.6606 68.2463 90.3373C71.9044 86.0141 75.3957 95.1589 75.3957 95.1589V95.1599Z" fill="#163560"/>
<path d="M43.5805 86.402C43.5805 86.402 66.6928 78.5874 71.8479 80.2502C77.002 81.913 92.4795 112.704 92.4795 112.704C92.4795 112.704 92.1307 113.169 91.1775 113.527C90.2903 113.859 88.1444 113.837 88.1444 113.837C88.1444 113.837 74.1769 101.865 72.5141 98.3741C70.8513 94.8817 70.1862 91.5572 68.5234 91.8887C66.8607 92.2212 47.074 100.036 42.5839 95.3811C38.095 90.7253 39.2681 84.6764 39.2681 84.6764L43.5816 86.402H43.5805Z" fill="#1C468A"/>
<path d="M56.7579 31.2951C55.7591 30.7274 54.5621 30.6657 53.7237 30.7144C53.9392 30.4924 54.3639 30.4111 54.3639 30.4111C53.845 30.3342 52.6859 30.8488 52.6859 30.8488C45.4628 28.0659 44.3276 38.7012 44.4792 41.1721C44.6298 43.643 44.6482 46.4865 41.0421 48.7029C33.9468 53.063 39.9339 60.6749 39.9339 60.6749C39.9902 60.7074 43.2346 66.2125 43.2346 66.2125C43.0526 64.2161 52.2656 53.6782 57.072 50.5227C58.2419 48.8004 58.6579 45.7564 58.6893 45.517C58.4878 47.9294 58.074 49.2835 57.7057 50.045C61.7755 46.2991 59.4064 32.7986 56.7579 31.294V31.2951Z" fill="#B5453C"/>
<path d="M56.7877 50.6796C56.8116 50.6904 54.4674 51.908 52.7028 51.426C51.0433 50.9732 49.96 48.8229 49.9828 48.8175C50.6858 48.6777 50.8884 47.7126 50.8732 43.5637L51.1906 43.6266L56.531 44.6838C56.531 44.6838 56.4097 46.365 56.4054 47.9476C56.4021 49.2768 56.4823 50.5377 56.7867 50.6796H56.7877Z" fill="#FFB27D"/>
<path d="M56.53 44.6838C56.53 44.6838 56.4087 46.365 56.4043 47.9477C53.4156 47.8632 51.8363 45.1366 51.1885 43.6255L56.5289 44.6827L56.53 44.6838Z" fill="#ED975D"/>
<path d="M50.6385 43.0449C50.6385 43.0449 49.0722 40.5707 48.6963 38.4541C48.4276 36.9429 49.1978 31.3436 54.8242 32.1506C54.8242 32.1506 56.4588 32.312 57.9949 33.3487C59.2168 34.1741 60.9803 35.955 59.0088 40.8415L58.4964 42.4924L50.6385 43.0449Z" fill="#B5453C"/>
<path d="M57.529 46.1833C57.529 46.1833 50.4576 46.3003 50.4532 41.8958C50.4489 37.4913 49.5325 34.5394 54.0464 34.2795C58.5603 34.0184 59.4399 35.6985 59.7984 37.1685C60.1581 38.6385 59.3673 46.0403 57.5279 46.1844L57.529 46.1833Z" fill="#FFB27D"/>
<path d="M57.2671 34.1697C57.2671 34.1697 55.3314 39.3368 52.36 40.1016C49.3887 40.8653 48.0996 40.0691 48.0996 40.0691C48.0996 40.0691 50.3788 38.259 50.8511 35.098C50.8511 35.098 55.8059 31.7096 57.2661 34.1697H57.2671Z" fill="#B5453C"/>
<path d="M56.7871 34.59C56.7871 34.59 58.2333 35.7436 58.5853 36.8648C58.9374 37.986 59.0966 40.2955 59.7693 40.2164C59.7693 40.2164 61.2274 36.7045 59.5884 34.7178C57.8498 32.6109 56.7871 34.59 56.7871 34.59Z" fill="#B5453C"/>
<path d="M41.0413 69.7028C40.3436 66.778 42.716 61.1039 45.1934 56.4059C47.44 52.1476 49.7733 48.6931 49.9824 48.8177C55.9089 52.335 56.444 49.4113 56.444 49.4113C56.444 49.4113 61.8277 50.1263 63.3519 52.7499C65.2421 56.0051 67.2852 65.1022 69.3141 66.8246C69.0021 67.7778 69.1364 68.2859 69.4668 69.4677C69.5372 69.7212 69.6152 69.9617 69.7019 70.1902C70.0074 71.0211 70.3897 71.696 70.7201 72.282C69.6889 72.9092 67.6968 74.1008 66.2301 73.2439C63.9932 71.9343 62.248 67.949 61.2655 66.362C61.2623 66.3555 61.2579 66.3501 61.2547 66.3447C59.1196 78.4305 62.0227 81.1831 60.5528 82.457C59.0005 83.8023 56.7841 81.8157 51.9063 83.9302C48.7074 85.3178 44.2672 87.3251 41.2785 87.6739C39.711 87.858 38.5411 87.5851 38.1598 86.5267C37.0516 83.4503 42.3726 75.2804 41.0423 69.7049L41.0413 69.7028Z" fill="#1C468A"/>
<path d="M55.9561 43.5131C55.9561 43.5131 56.0882 44.0732 57.4802 43.9865C57.4802 43.9865 58.649 43.9139 58.6133 43.2997C58.6133 43.2997 57.4802 42.8621 55.9561 43.5142V43.5131Z" fill="white"/>
<path d="M38.1598 86.5242C38.5411 87.5826 39.711 87.8556 41.2785 87.6714C43.3475 86.7701 52.2832 83.3081 52.1836 80.9628C52.0352 77.4899 50.4655 77.3784 51.5737 73.0919C52.4641 69.6494 44.2065 63.2495 42.8904 61.8586C40.4141 66.5567 40.3458 66.7788 41.0423 69.7035C42.3726 75.279 37.0516 83.4489 38.1598 86.5253V86.5242Z" fill="#163560"/>
<path d="M37.1494 73.9975C38.7342 71.7725 40.385 70.595 41.4715 70.0036C41.2213 69.3591 48.1379 60.8805 48.1379 59.5676C48.1379 58.2547 49.9826 48.8174 49.9826 48.8174C49.9826 48.8174 44.2197 49.1727 42.2255 51.9556C39.7308 55.435 34.5485 68.8272 37.1505 73.9986L37.1494 73.9975Z" fill="#1C468A"/>
<path d="M41.4706 70.0034L52.9856 73.0084L51.9045 74.9484C51.9045 74.9484 37.8905 74.851 37.1485 73.9974C36.4064 73.1438 41.4706 70.0034 41.4706 70.0034Z" fill="#FFB27D"/>
<path d="M61.2656 66.3597C62.2481 67.9467 63.9933 71.933 66.2302 73.2416C67.698 74.0985 69.689 72.9069 70.7202 72.2797C70.3898 71.6936 70.0075 71.0188 69.702 70.1879C68.8787 70.3764 67.8745 70.6169 67.2267 70.8119C65.9658 71.1932 61.2656 66.3586 61.2656 66.3586V66.3597Z" fill="#163560"/>
<path d="M52.9865 73.0085C52.9865 73.0085 56.6023 71.9849 57.4635 72.2243C58.3247 72.4637 61.2766 74.4178 60.8617 74.9486C60.4468 75.4794 57.847 74.6312 56.65 74.7916C55.4541 74.9519 54.529 75.5423 53.6667 75.4144C52.8056 75.2866 51.9043 74.9486 51.9043 74.9486L52.9854 73.0085H52.9865Z" fill="#FFB27D"/>
<path d="M52.9854 73.0089C52.9854 73.0089 54.7543 72.1 55.258 71.5822C55.3219 71.5172 55.4292 71.5302 55.4779 71.6071C55.6133 71.8195 55.739 72.23 55.1183 72.6384C54.2246 73.2266 52.9854 73.0078 52.9854 73.0078V73.0089Z" fill="#FFB27D"/>
<path d="M69.6988 78.0965H52.8271C52.8271 77.3534 53.4294 76.7522 54.1725 76.7522H69.6988V78.0965Z" fill="#ED7D2B"/>
<path d="M69.6495 59.7217H95.7341L89.4773 78.0968H63.2236L69.6495 59.7217Z" fill="#ED7D2B"/>
<path d="M96.1189 59.7217L89.861 78.0958H63.6084L70.0342 59.7217H96.1189Z" fill="#F99746"/>
<path d="M82.0554 68.7396C81.8929 69.4416 81.1931 70.0114 80.4911 70.0114C79.7892 70.0114 79.3516 69.4427 79.513 68.7396C79.6755 68.0377 80.3752 67.469 81.0772 67.469C81.7791 67.469 82.2168 68.0377 82.0554 68.7396Z" fill="#F9DDBF"/>
<path d="M96.1187 59.7217L89.8608 78.0958H72.4746C83.9917 74.1646 87.0573 62.1796 87.5719 59.7217H96.1187Z" fill="#ED893E"/>
<path d="M20.3929 134.318C20.7233 134.318 21.005 134.086 21.0613 133.769L24.3371 115.2L29.0492 88.4939L30.3664 81.026L27.0105 80.9307L26.4277 85.2658L22.3385 115.731L19.9141 133.79C19.8773 134.071 20.1005 134.319 20.3908 134.319L20.3929 134.318Z" fill="#95C0F4"/>
<path d="M26.4277 85.2646C28.6018 86.2244 29.0492 88.4927 29.0492 88.4927L30.3664 81.0248L27.0105 80.9294L26.4277 85.2646Z" fill="#78ACEA"/>
<path d="M103.875 134.318C103.544 134.318 103.263 134.086 103.206 133.769L99.9307 115.2L95.2186 88.4939L93.9014 81.026L97.2573 80.9307L97.8401 85.2658L101.929 115.731L104.354 133.79C104.39 134.071 104.167 134.319 103.876 134.319L103.875 134.318Z" fill="#95C0F4"/>
<path d="M97.8391 85.2646C95.665 86.2244 95.2176 88.4927 95.2176 88.4927L93.9004 81.0248L97.2563 80.9294L97.8391 85.2646Z" fill="#78ACEA"/>
<path d="M104.103 83.957L18.1515 83.957C17.0217 83.957 16.1042 83.0395 16.1042 81.9097V80.1397C16.1042 79.0098 17.0217 78.0923 18.1515 78.0923L104.103 78.0923C105.233 78.0923 106.15 79.0098 106.15 80.1397V81.9097C106.15 83.0395 105.233 83.957 104.103 83.957Z" fill="#78ACEA"/>
<path d="M218.139 38.6253C218.139 38.6253 216.939 34.7538 216.257 34.3378C215.576 33.9219 212.734 32.5212 212.565 32.8993C212.396 33.2773 214.099 35.1167 214.478 35.7298C214.857 36.3429 215.046 36.9485 214.781 36.6842C214.515 36.4188 213.078 35.5327 212.926 35.7298C212.775 35.927 213.645 36.6842 214.061 37.2897C214.477 37.8952 214.932 38.9167 216.408 39.1442C217.884 39.3717 218.138 38.6253 218.138 38.6253H218.139Z" fill="#FFB27D"/>
<path d="M261.877 71.2205C261.877 71.2205 261.518 74.7173 261.123 75.3791C260.729 76.041 259.048 78.1544 258.333 78.5693C257.617 78.9842 258.771 75.7843 258.624 75.1614C258.478 74.5385 258.035 76.2977 257.72 76.3389C257.405 76.38 257.486 74.7974 257.474 74.2211C257.462 73.6448 259.009 72.2225 259.554 70.9963C260.099 69.7701 261.877 71.2216 261.877 71.2216V71.2205Z" fill="#FFB27D"/>
<path d="M250.912 35.3418C250.912 35.3418 248.005 49.6125 232.004 54.2759C227.009 55.7318 215.662 39.287 215.662 39.287C215.662 39.287 216.061 37.7715 218.56 38.1192C218.56 38.1192 229.608 45.4334 231 46.2285C232.234 46.9337 240.35 37.1649 244.051 35.5888C247.751 34.0126 250.912 35.3407 250.912 35.3407V35.3418Z" fill="#233862"/>
<path d="M270.015 125.054C270.015 125.054 272.001 126.866 271.613 128.152C271.225 129.439 269.435 130.297 269.192 131.871C268.95 133.444 267.982 134.302 267.11 134.302H262.956C262.956 134.302 262.315 133.195 263.864 132.861C265.413 132.528 265.996 130.679 265.9 128.963C265.804 127.247 266.045 124.958 266.045 124.958L269.337 124.195L270.015 125.053V125.054Z" fill="#233862"/>
<path d="M245.663 129.739C245.663 129.739 246.019 133.862 245.147 134.291L233.994 134.268C233.994 134.268 233.994 132.981 235.786 132.696C237.578 132.41 240.724 131.361 241.256 129.024C241.789 126.689 245.662 129.739 245.662 129.739H245.663Z" fill="#233862"/>
<path d="M236.247 71.5043C236.247 71.5043 236.835 78.7307 237.527 87.4173C238.466 99.2171 239.597 113.712 239.708 116.457C239.901 121.226 240.677 128.852 240.677 128.852C240.677 128.852 242.515 130.664 246.196 129.9C246.196 129.9 249.476 119.012 250.412 107.493C250.426 107.305 250.441 107.114 250.455 106.924C251.326 95.1972 252.681 70.5034 252.681 70.5034L236.245 71.5043H236.247Z" fill="#F99746"/>
<path d="M236.247 71.5043C236.247 71.5043 236.835 78.7307 237.527 87.4173L250.413 107.493C250.427 107.305 250.442 107.114 250.456 106.924C251.327 95.1972 252.682 70.5034 252.682 70.5034L236.246 71.5043H236.247Z" fill="#ED7D2B"/>
<path d="M238.933 72.3619C238.933 72.3619 249.535 98.5332 256.507 110.832C263.479 123.132 265.657 126.563 265.657 126.563C265.657 126.563 269.651 124.991 270.014 123.918C270.014 123.918 267.348 100.174 262.68 94.3855C260.042 91.1151 256.943 81.2998 256.798 77.867C256.652 74.4342 255.854 67.6411 255.854 67.6411L238.934 72.3608L238.933 72.3619Z" fill="#F99746"/>
<path d="M252.883 32.0293C252.883 32.0293 245.709 35.4902 241.573 34.2066C241.573 34.2066 242.591 32.9219 244.372 31.9664C244.229 31.1367 244.118 30.4163 244.054 29.8054C243.878 28.396 243.878 27.5966 243.878 27.5966L246.646 25.4193L249.271 23.3362C249.064 29.1944 252.881 32.0293 252.881 32.0293H252.883Z" fill="#FFB27D"/>
<path d="M256.664 68.9831C256.68 69.4229 255.742 69.9234 255.327 70.1108C252.258 71.4584 249.394 72.3975 246.149 72.7106C242.315 73.1027 237.782 72.2405 236.223 72.2719C236.064 72.2719 235.921 72.2091 235.794 72.0997C235.682 72.0217 235.603 67.4016 235.682 61.59C235.682 61.356 235.682 61.1209 235.699 60.8859V60.8079C235.73 58.5374 235.81 56.1564 235.921 53.7743C236.143 48.5433 236.558 43.4997 237.257 40.7125C238.1 37.4227 240.01 35.2464 241.743 33.6638L243.174 32.4115C244.606 32.6932 246.117 32.6152 247.628 31.8786C249.283 31.0802 251.065 30.219 251.351 30.4379C253.514 32.0194 254.977 35.5746 255.757 40.1178C255.76 40.1405 255.765 40.1622 255.768 40.1849C256.206 42.7826 256.424 45.6889 256.408 48.7318C256.408 49.8605 256.377 51.0185 256.313 52.1624C255.993 57.3425 256.207 61.9539 256.416 65.1484C256.457 65.78 256.499 66.3552 256.535 66.8697C256.599 67.7786 256.647 68.4827 256.662 68.9842L256.664 68.9831Z" fill="#2A4E96"/>
<path d="M256.416 65.1477C244.524 51.4175 251.901 41.4397 251.901 41.4397L255.767 40.1853C256.205 42.7829 256.424 45.6893 256.408 48.7321C256.408 49.8609 256.376 51.0189 256.312 52.1628C255.993 57.3429 256.206 61.9543 256.415 65.1488L256.416 65.1477Z" fill="#233862"/>
<path d="M249.319 25.5767C249.319 25.5767 247.506 28.8817 244.054 29.8058C243.879 28.3964 243.879 27.597 243.879 27.597L246.647 25.4197L249.319 25.5767Z" fill="#ED985F"/>
<path d="M242.617 27.5015C242.617 27.5015 249.461 28.6205 250.103 24.4142C250.746 20.2069 252.062 17.5182 247.719 16.6256C243.376 15.733 242.281 17.2128 241.719 18.5657C241.158 19.9187 240.852 27.1028 242.617 27.5026V27.5015Z" fill="#FFB27D"/>
<path d="M252.592 16.1217C252.655 16.0502 252.798 15.9928 253.116 15.9755C253.116 15.9755 252.861 15.8162 252.52 15.8076C252.453 15.3645 252.218 14.5792 251.454 14.3885C251.454 14.3885 251.865 14.6073 251.918 15.0785C251.034 14.1708 249.141 13.51 243.895 13.9238C236.983 14.4698 239.261 18.8948 240.156 19.4224C241.051 19.9499 243.304 18.5038 244.971 18.6359C246.638 18.7681 246.956 21.1772 247.521 21.5076C248.087 21.838 247.864 21.2542 248.629 20.9075C249.394 20.562 249.468 21.8294 249.247 22.6537C249.026 23.4781 250.078 24.5656 250.078 24.5656L251.14 23.4217C252.203 22.2778 253.204 17.4303 252.721 16.3969C252.678 16.3059 252.636 16.2127 252.592 16.1206V16.1217Z" fill="#2C3A64"/>
<path d="M251.347 30.4021C251.347 30.4021 255.677 32.4527 257.754 35.6049C260.974 40.4947 264.707 58.3142 264.776 59.9651C264.846 61.6149 262.052 73.2652 262.052 73.2652C262.052 73.2652 259.218 73.0789 258.488 71.649C258.488 71.649 259.055 59.6791 258.695 58.9089C258.336 58.1398 246.883 42.8519 248.171 39.5902C249.459 36.3286 251.348 30.4032 251.348 30.4032L251.347 30.4021Z" fill="#2A4E96"/>
<path d="M215.436 51.0295H198.358C196.866 51.0295 195.656 52.2391 195.656 53.7312V54.4949C195.656 55.9869 196.866 57.1965 198.358 57.1965H215.436C216.928 57.1965 218.138 55.9869 218.138 54.4949V53.7312C218.138 52.2391 216.928 51.0295 215.436 51.0295Z" fill="#FCECDB"/>
<path d="M206.86 55.4598C206.74 55.4598 206.627 55.3959 206.567 55.2908L205.67 53.7569C205.574 53.5945 205.63 53.3865 205.792 53.2911C205.955 53.1958 206.163 53.2511 206.258 53.4136L206.834 54.3982L207.919 52.1678C208.001 51.9988 208.205 51.9284 208.374 52.0107C208.543 52.0931 208.613 52.2967 208.531 52.4657L207.168 55.2692C207.113 55.3818 207 55.4555 206.874 55.4609C206.87 55.4609 206.866 55.4609 206.861 55.4609L206.86 55.4598Z" fill="#F99746"/>
<path d="M206.86 56.2495C205.695 56.2495 204.747 55.3017 204.747 54.1361C204.747 52.9705 205.695 52.0227 206.86 52.0227C208.026 52.0227 208.974 52.9705 208.974 54.1361C208.974 55.3017 208.026 56.2495 206.86 56.2495ZM206.86 52.2697C205.831 52.2697 204.994 53.107 204.994 54.1361C204.994 55.1652 205.831 56.0026 206.86 56.0026C207.89 56.0026 208.727 55.1652 208.727 54.1361C208.727 53.107 207.89 52.2697 206.86 52.2697Z" fill="#F99746"/>
<path d="M110.497 35.0491H92.2477C89.8504 35.0491 87.8887 37.0108 87.8887 39.4081V46.3127C87.8887 47.4079 88.2992 48.412 88.973 49.1801L87.8887 54.1359L94.1412 50.6717H110.498C112.895 50.6717 114.857 48.7099 114.857 46.3127V39.4081C114.857 37.0108 112.895 35.0491 110.498 35.0491H110.497Z" fill="#D2E3FC"/>
<path d="M110.841 40.31H91.9213C91.5314 40.31 91.2129 39.9915 91.2129 39.6015C91.2129 39.2115 91.5314 38.8931 91.9213 38.8931H110.841C111.231 38.8931 111.55 39.2115 111.55 39.6015C111.55 39.9904 111.231 40.31 110.841 40.31Z" fill="#B7D3F3"/>
<path d="M110.841 43.4079H91.9213C91.5314 43.4079 91.2129 43.0894 91.2129 42.6994C91.2129 42.3094 91.5314 41.991 91.9213 41.991H110.841C111.231 41.991 111.55 42.3094 111.55 42.6994C111.55 43.0894 111.231 43.4079 110.841 43.4079Z" fill="#B7D3F3"/>
<path d="M110.841 46.391H91.9213C91.5314 46.391 91.2129 46.0725 91.2129 45.6826C91.2129 45.2937 91.5314 44.9741 91.9213 44.9741H110.841C111.231 44.9741 111.55 45.2926 111.55 45.6826C111.55 46.0725 111.231 46.391 110.841 46.391Z" fill="#B7D3F3"/>
</svg>
