<svg width="199" height="146" viewBox="0 0 199 146" fill="none" xmlns="http://www.w3.org/2000/svg">
<g clip-path="url(#clip0_46_1270)">
<path d="M21.0464 56.3126C18.9808 56.5155 19.6468 58.9274 19.6468 62.03C19.6468 65.1326 18.6529 63.7719 19.5587 67.6531C20.4644 71.5365 19.1468 70.4688 20.112 74.3398C21.0772 78.2108 20.5382 76.8092 21.0464 80.5408C21.5546 84.2725 21.0772 84.75 21.6223 88.5985C22.1674 92.447 20.9419 92.9244 21.6223 97.0783C22.3026 101.234 21.4337 99.5312 21.7657 103.617C22.0977 107.704 22.4317 111.978 22.4317 111.978H25.7412C25.7412 111.978 26.5937 108.083 26.729 105.714C26.8642 103.345 26.8642 102.783 27.0015 100.101C27.1368 97.4184 27.9544 95.8508 27.3089 93.2626C26.6614 90.6744 27.5466 90.742 26.9339 86.9284C26.3212 83.1147 26.5261 80.6638 26.2535 78.551C25.981 76.4362 25.9195 74.348 25.5015 71.8623C25.0834 69.3765 25.4769 68.6859 25.1162 66.5014C24.7555 64.3149 24.2494 63.4583 23.9912 60.9234C23.733 58.3885 22.7842 56.1384 21.0444 56.3105L21.0464 56.3126Z" fill="#678CD6"/>
<path d="M14.216 69.6758C15.7058 69.7209 15.6094 72.6636 16.3718 75.2231C17.1341 77.7847 17.337 77.0777 17.6177 80.8053C17.8985 84.5329 18.9805 84.748 18.9661 88.6109C18.9538 92.4737 18.2489 92.7688 18.9354 95.5496C19.6219 98.3304 19.6874 98.7403 19.9395 101.115C20.1936 103.49 19.9067 103.47 20.3883 105.665C20.8678 107.859 20.9518 111.903 20.9518 111.903L17.4886 111.886C17.4886 111.886 16.3369 109.128 16.2324 106.349C16.1259 103.57 14.2979 99.7567 14.091 97.2443C13.884 94.732 13.8963 92.2134 13.4106 89.6519C12.927 87.0903 12.929 86.4489 12.843 83.7439C12.7569 81.0389 12.4618 80.0634 12.4741 77.3257C12.4864 74.5879 11.8552 69.6041 14.2139 69.6758H14.216Z" fill="#678CD6"/>
<path d="M33.981 69.6758C32.4912 69.7209 32.5875 72.6636 31.8252 75.2231C31.0629 77.7847 30.86 77.0777 30.5792 80.8053C30.2985 84.5329 29.2165 84.748 29.2308 88.6109C29.2431 92.4737 29.9481 92.7688 29.2616 95.5496C28.5751 98.3304 28.5095 98.7403 28.2574 101.115C28.0033 103.49 28.2902 103.47 27.8087 105.665C27.3291 107.859 27.2451 111.903 27.2451 111.903L30.7083 111.886C30.7083 111.886 31.86 109.128 31.9645 106.349C32.0711 103.57 33.899 99.7567 34.106 97.2443C34.313 94.732 34.3007 92.2134 34.7863 89.6519C35.272 87.0903 35.2679 86.4489 35.354 83.7439C35.4401 81.0389 35.7351 80.0634 35.7229 77.3257C35.7106 74.5879 36.3417 69.6041 33.983 69.6758H33.981Z" fill="#678CD6"/>
<path d="M21.0469 57.1406C21.0469 57.1406 25.8175 87.0351 23.9937 111.983" stroke="#313F4A" stroke-width="0.104512" stroke-miterlimit="10"/>
<path d="M19.5239 111.591C19.5239 111.591 14.9397 89.6683 14.1221 71.6677" stroke="#313F4A" stroke-width="0.104512" stroke-miterlimit="10"/>
<path d="M28.6738 111.591C28.6738 111.591 33.258 89.6683 34.0757 71.6677" stroke="#313F4A" stroke-width="0.104512" stroke-miterlimit="10"/>
<path d="M13.7207 111.114H34.0759V120.587C34.0759 121.374 33.4365 122.011 32.6517 122.011H15.1449C14.358 122.011 13.7207 121.372 13.7207 120.587V111.114Z" fill="#15244F"/>
<path d="M13.7207 113.413C15.2146 114.003 17.7639 114.751 20.1922 114.233C23.9382 113.431 24.4833 114.114 26.5961 115.067C28.3646 115.866 32.7131 117.186 34.0779 117.593V111.116H13.7227V113.413H13.7207Z" fill="#0C193A"/>
<path d="M190.265 117.241C190.265 117.241 190.23 118.188 190.097 119.538C189.786 122.714 188.95 128.116 186.798 128.684C186.798 128.684 182.357 129.754 181.486 129.245C181.486 129.245 181.501 114.188 169.084 110.599C161.729 108.48 147.542 108.71 145.938 130.647C145.938 130.647 62.4967 130.508 56.8797 131.551C56.8797 131.551 54.6808 131.204 55.0579 127.78C55.0579 127.78 55.0804 127.045 54.9739 125.86C54.5886 121.294 52.3754 110.015 40.1332 107.702C40.1332 107.702 22.5773 104.077 19.3149 123.79C19.1633 124.717 19.0403 125.692 18.9625 126.719C18.8682 127.741 18.817 128.817 18.8026 129.946C18.8026 129.946 12.1385 131.651 9.32484 129.454C9.32484 129.454 2.39634 129.653 2.26518 129.284L1.94141 127.358C1.94141 127.358 2.00903 127.278 2.11764 127.133C2.71807 126.364 4.52755 123.864 2.91275 123.708C2.91275 123.708 1.49467 118.011 2.20781 111.86C2.98652 105.167 6.27966 97.9411 16.655 96.8837C16.655 96.8837 41.5902 91.2606 48.3712 87.5904C60.6995 80.916 81.5342 67.0958 112.562 68.1348C125.962 68.5856 148.036 67.809 166.033 72.2149C166.033 72.2149 166.891 73.2661 167.297 74.7477C167.297 74.7477 179.976 87.5678 180.708 88.2154C181.318 88.7543 181.912 89.2871 182.47 89.824C183.345 90.6581 184.142 91.4942 184.81 92.3815C186.943 95.1992 187.796 98.4924 185.736 103.548C185.736 103.548 191.55 112.712 190.263 117.243L190.265 117.241Z" fill="#EF3E38"/>
<path d="M23.1039 130.639L18.8046 129.944C18.8046 129.944 16.6795 108.114 36.3215 107.31C43.7951 107.005 56.525 111.72 55.1889 130.526C55.1889 130.526 53.5905 133.75 50.1929 134.33C50.1929 134.33 59.5313 117.286 40.6413 111.241C33.9772 109.108 21.0444 114.302 23.1039 130.639Z" fill="#15244F"/>
<path d="M148.596 130.366L145.844 130.569C145.844 130.569 143.911 111.03 162.643 109.167C170.086 108.427 182.652 114.407 181.486 129.241C181.486 129.241 181.181 127.762 178.955 128.518C178.955 128.518 178.837 118.141 167.631 113.897C161.088 111.419 148.516 114.222 148.594 130.364L148.596 130.366Z" fill="#15244F"/>
<path d="M53.1615 125.982C53.3626 117.632 46.5384 110.695 37.9191 110.487C29.2998 110.28 22.1494 116.88 21.9482 125.23C21.7471 133.58 28.5713 140.518 37.1906 140.725C45.8099 140.933 52.9603 134.332 53.1615 125.982Z" fill="#0C193A"/>
<path d="M48.2829 126.182C48.1354 132.325 42.9713 137.184 36.7477 137.035C30.5242 136.885 25.5998 131.784 25.7474 125.641C25.8949 119.497 31.059 114.638 37.2826 114.788C43.5061 114.938 48.4305 120.038 48.2829 126.182Z" fill="#D7E2FF"/>
<path d="M44.9284 125.796C44.8238 130.112 41.2725 133.526 36.9937 133.424C32.7148 133.321 29.3295 129.739 29.434 125.423C29.5385 121.108 33.0898 117.694 37.3687 117.796C41.6475 117.899 45.0329 121.481 44.9284 125.796Z" fill="#0C193A"/>
<path d="M46.732 127.624L46.9841 124.663L40.8957 124.483C40.8609 124.372 40.8199 124.266 40.7748 124.159L45.4615 120.509L43.5598 118.226L39.1354 122.343C39.035 122.286 38.9305 122.235 38.824 122.188L39.6396 116.161L36.6763 115.927L36.3976 121.915C36.2439 121.946 36.0964 121.985 35.9509 122.034L32.1209 117.296L29.9179 119.29L33.9734 123.491C33.7931 123.751 33.6435 124.032 33.5328 124.333L27.5305 123.946L27.5039 126.917L33.5082 126.778C33.541 126.872 33.5738 126.964 33.6148 127.055L28.9548 131.098L31.0245 133.231L35.2501 128.856C35.414 128.948 35.5861 129.026 35.7624 129.094L34.6312 135.063L37.5678 135.522L38.244 129.227C38.3588 129.196 38.4694 129.159 38.5801 129.118L38.5125 129.172L42.1314 134.168L44.4799 132.348L40.4326 127.684C40.5924 127.45 40.7257 127.198 40.8302 126.932L46.7402 127.63L46.732 127.624Z" fill="#D7E2FF"/>
<path d="M36.4292 123.626C36.419 124.094 36.0296 124.462 35.5624 124.452C35.0951 124.442 34.7263 124.053 34.7365 123.585C34.7468 123.118 35.1361 122.749 35.6034 122.759C36.0706 122.77 36.4395 123.159 36.4292 123.626Z" fill="#A2B2EA"/>
<path d="M40.0611 124.118C40.0508 124.585 39.6615 124.954 39.1942 124.944C38.727 124.934 38.3581 124.544 38.3684 124.077C38.3786 123.61 38.768 123.241 39.2352 123.251C39.7024 123.262 40.0713 123.651 40.0611 124.118Z" fill="#A2B2EA"/>
<path d="M39.4976 127.708C39.4873 128.176 39.098 128.544 38.6307 128.534C38.1635 128.524 37.7946 128.135 37.8049 127.667C37.8151 127.2 38.2045 126.831 38.6717 126.842C39.139 126.852 39.5078 127.241 39.4976 127.708Z" fill="#A2B2EA"/>
<path d="M35.8296 127.217C35.8194 127.684 35.43 128.053 34.9628 128.042C34.4955 128.032 34.1267 127.643 34.1369 127.176C34.1472 126.708 34.5365 126.34 35.0038 126.35C35.471 126.36 35.8399 126.749 35.8296 127.217Z" fill="#A2B2EA"/>
<path d="M179.486 127.538C179.285 135.887 172.135 142.49 163.516 142.281C154.897 142.074 148.073 135.137 148.272 126.788C148.473 118.44 155.622 111.837 164.242 112.046C172.861 112.253 179.685 119.19 179.484 127.538H179.486Z" fill="#0C193A"/>
<path d="M174.615 127.743C174.467 133.887 169.303 138.746 163.08 138.596C156.856 138.447 151.932 133.346 152.079 127.202C152.227 121.059 157.391 116.2 163.615 116.35C169.838 116.499 174.763 121.6 174.615 127.743Z" fill="#D7E2FF"/>
<path d="M171.26 127.36C171.156 131.676 167.605 135.092 163.326 134.987C159.047 134.885 155.662 131.303 155.766 126.987C155.871 122.671 159.422 119.257 163.701 119.36C167.98 119.462 171.365 123.044 171.26 127.36Z" fill="#0C193A"/>
<path d="M173.062 129.188L173.314 126.227L167.226 126.047C167.191 125.936 167.15 125.829 167.105 125.723L171.792 122.073L169.89 119.79L165.465 123.907C165.365 123.85 165.261 123.799 165.154 123.751L165.97 117.725L163.006 117.491L162.728 123.479C162.574 123.51 162.426 123.549 162.281 123.598L158.451 118.86L156.248 120.854L160.303 125.055C160.123 125.315 159.974 125.596 159.863 125.897L153.861 125.51L153.834 128.481L159.838 128.342C159.871 128.436 159.904 128.528 159.945 128.618L155.285 132.662L157.355 134.795L161.58 130.42C161.744 130.512 161.916 130.59 162.092 130.657L160.961 136.627L163.898 137.086L164.574 130.791C164.689 130.76 164.799 130.723 164.91 130.682L164.843 130.735L168.462 135.731L170.81 133.912L166.763 129.247C166.923 129.014 167.056 128.762 167.16 128.495L173.07 129.194L173.062 129.188Z" fill="#D7E2FF"/>
<path d="M162.762 125.188C162.752 125.655 162.363 126.024 161.895 126.014C161.428 126.003 161.059 125.614 161.07 125.147C161.08 124.68 161.469 124.311 161.936 124.321C162.404 124.331 162.772 124.721 162.762 125.188Z" fill="#A2B2EA"/>
<path d="M166.391 125.68C166.381 126.147 165.992 126.516 165.524 126.505C165.057 126.495 164.688 126.106 164.698 125.639C164.709 125.171 165.098 124.802 165.565 124.813C166.033 124.823 166.401 125.212 166.391 125.68Z" fill="#A2B2EA"/>
<path d="M165.828 129.272C165.817 129.739 165.428 130.108 164.961 130.098C164.494 130.088 164.125 129.698 164.135 129.231C164.145 128.764 164.535 128.395 165.002 128.405C165.469 128.415 165.838 128.805 165.828 129.272Z" fill="#A2B2EA"/>
<path d="M162.16 128.78C162.149 129.247 161.76 129.616 161.293 129.606C160.826 129.596 160.457 129.206 160.467 128.739C160.477 128.272 160.867 127.903 161.334 127.913C161.801 127.924 162.17 128.313 162.16 128.78Z" fill="#A2B2EA"/>
<path d="M182.469 89.8219C182.457 89.8219 182.444 89.8281 182.434 89.826C180.567 90.076 173.735 88.5391 173.735 88.5391C169.921 88.5063 165.374 88.5801 160.292 88.7338C131.873 89.6109 86.5622 93.0966 57.1698 95.527C40.1754 96.9431 28.5008 97.9984 28.5008 97.9984C20.1092 104.271 2.26636 111.884 2.26636 111.884L2.20898 111.853C2.9877 105.161 6.28084 97.9349 16.6562 96.8775C16.6562 96.8775 20.9944 95.898 26.5499 94.4901C34.3022 92.5269 44.4194 89.7215 48.3724 87.5862C60.7007 80.9118 81.5354 67.0917 112.563 68.1307C125.963 68.5815 148.038 67.8048 166.034 72.2107C166.034 72.2107 166.893 73.262 167.298 74.7436L167.305 74.7497C167.62 75.0694 178.414 85.9837 180.422 87.9325C180.565 88.078 180.664 88.1682 180.709 88.2112C181.319 88.7502 181.914 89.283 182.471 89.8199L182.469 89.8219Z" fill="#DB221E"/>
<path d="M109.648 97.5701C109.617 98.8283 106.959 99.7874 103.709 99.7095C100.459 99.6316 97.8504 98.5476 97.8811 97.2893C97.9119 96.0311 100.57 95.0721 103.82 95.1499C107.07 95.2278 109.679 96.3119 109.648 97.5701Z" fill="#F45E55"/>
<path d="M156.229 94.3714C156.198 95.6296 153.54 96.5887 150.29 96.5108C147.04 96.4329 144.431 95.3489 144.462 94.0906C144.493 92.8324 147.151 91.8733 150.401 91.9512C153.651 92.0291 156.26 93.1131 156.229 94.3714Z" fill="#F45E55"/>
<path d="M174.039 100.367C173.99 102.452 172.258 104.101 170.174 104.052C168.09 104.003 166.44 102.271 166.489 100.187C166.539 98.103 168.27 96.4534 170.354 96.5025C172.438 96.5517 174.088 98.2833 174.039 100.367Z" fill="#F45E55"/>
<path d="M58.1335 85.5637C58.1335 85.5637 40.2415 95.2403 47.7909 95.4206L57.1703 95.5292C57.1703 95.5292 56.6559 89.945 58.1335 85.5637Z" fill="#EF3E38"/>
<path d="M185.736 103.546C182.591 103.865 172.607 94.5946 172.607 94.5946C168.801 89.7932 184.435 92.3301 184.435 92.3301L184.81 92.3793C186.943 95.197 187.796 98.4902 185.736 103.546Z" fill="white"/>
<path d="M74.9865 77.9178C79.5215 76.221 98.7577 69.4236 111.576 71.1532C111.992 71.2085 112.266 71.6122 112.178 72.0221C111.559 74.9095 109.301 85.3135 107.979 89.746C107.742 90.5432 107.039 91.1067 106.209 91.1702L73.4372 93.6826L71.4023 88.5329L73.6729 79.2805C73.884 78.6514 74.3635 78.1514 74.9844 77.9178H74.9865Z" fill="#D7E2FF"/>
<path d="M74.9865 77.9178C79.5215 76.221 98.7577 69.4236 111.576 71.1532C111.992 71.2085 112.266 71.6122 112.178 72.0221C111.559 74.9095 109.301 85.3135 107.979 89.746C107.742 90.5432 107.039 91.1067 106.209 91.1702L73.4372 93.6826L71.4023 88.5329L73.6729 79.2805C73.884 78.6514 74.3635 78.1514 74.9844 77.9178H74.9865Z" fill="#D7E2FF"/>
<path d="M74.9865 77.9178C79.5215 76.221 98.7577 69.4236 111.576 71.1532C111.992 71.2085 112.266 71.6122 112.178 72.0221C111.559 74.9095 109.301 85.3135 107.979 89.746C107.742 90.5432 107.039 91.1067 106.209 91.1702L73.4372 93.6826L71.4023 88.5329L73.6729 79.2805C73.884 78.6514 74.3635 78.1514 74.9844 77.9178H74.9865Z" fill="#D7E2FF"/>
<path d="M74.9865 77.9178C79.5215 76.221 98.7577 69.4236 111.576 71.1532C111.992 71.2085 112.266 71.6122 112.178 72.0221C111.559 74.9095 109.301 85.3135 107.979 89.746C107.742 90.5432 107.039 91.1067 106.209 91.1702L73.4372 93.6826L71.4023 88.5329L73.6729 79.2805C73.884 78.6514 74.3635 78.1514 74.9844 77.9178H74.9865Z" fill="#D7E2FF"/>
<path d="M18.9625 126.717C18.8682 127.739 18.817 128.815 18.8026 129.944C18.8026 129.944 12.1385 131.649 9.32484 129.452C9.32484 129.452 2.39634 129.651 2.26518 129.282L1.94141 127.356C1.94141 127.356 16.2902 127.266 18.6571 126.733C18.7637 126.706 18.8702 126.702 18.9645 126.717H18.9625Z" fill="#F45E55"/>
<path d="M8.75685 125.389C8.75685 125.389 4.18702 127.428 2.11523 127.131C2.71566 126.362 4.52515 123.862 2.91034 123.706C2.91034 123.706 4.63786 113.075 9.07038 112.298C9.07038 112.298 12.341 125.18 8.75685 125.389Z" fill="#F45E55"/>
<path d="M8.75714 125.389C7.84113 122.571 9.07068 112.298 9.07068 112.298C9.07068 112.298 12.3413 125.18 8.75714 125.389Z" fill="#F45E55"/>
<path d="M147.024 114.187C145.058 114.14 143.98 109.995 143.98 109.995C144.28 105.882 140.161 106.724 138.577 106.333C113.022 100.029 67.982 107.491 58.4223 107.857C57.6354 107.888 50.9815 110.601 50.9897 110.745C46.6043 105.745 39.7086 104.456 35.401 104.839C16.9537 106.48 19.1485 123.68 19.1485 123.68C19.1485 123.68 19.2058 123.716 19.3165 123.79C22.581 104.079 40.1348 107.702 40.1348 107.702C50.1966 109.609 55.1455 118.042 54.9755 125.86C55.0062 125.561 63.7114 127.087 64.6459 126.881L111.135 127.044L136.605 127.139C136.605 127.139 140.749 127.909 142.921 122.251C143.028 121.989 143.122 121.708 143.218 121.411C143.218 121.411 144.933 118.126 147.298 114.981C147.298 114.474 147.21 114.196 147.024 114.192V114.187Z" fill="#DB221E"/>
<path d="M64.9961 124.532C64.9961 124.532 101.696 116.143 130.873 120.669L64.9961 124.532Z" fill="#F45E55"/>
<path d="M13.6797 106.595C13.6797 106.595 27.3851 113.718 48.0599 94.396L28.4998 98.0006C28.4998 98.0006 20.2311 103.368 13.6797 106.595Z" fill="#EF3E38"/>
<path d="M180.418 87.9346C180.244 87.8711 180.057 87.7912 179.865 87.7031C170.332 83.4181 167.389 75.0121 167.301 74.7498C167.616 75.0694 178.41 85.9837 180.418 87.9326V87.9346Z" fill="#F45E55"/>
<path d="M149.611 69.6101C149.611 69.6101 152.265 67.3682 152.788 70.1286L149.611 69.6101Z" fill="#111111"/>
<path d="M155.783 64.3597L155.561 64.1987L151.967 69.1643L152.19 69.3253L155.783 64.3597Z" fill="#111111"/>
<path d="M190.096 119.538C189.785 122.714 188.949 128.116 186.797 128.684C186.797 128.684 182.356 129.754 181.485 129.245C181.485 129.245 181.5 114.188 169.083 110.599C161.729 108.48 147.542 108.71 145.937 130.647C145.937 130.647 62.4959 130.508 56.8789 131.551C56.8789 131.551 54.6801 131.204 55.0571 127.78C55.0571 127.78 55.0695 126.803 54.9629 125.618C54.9629 125.618 129.931 116.559 142.921 122.251C142.921 122.251 149.81 104.251 167.969 108.025C167.969 108.025 175.155 109.081 180 115.673C180 115.673 186.344 121.124 189.914 119.591C189.98 119.563 190.039 119.546 190.098 119.542L190.096 119.538Z" fill="#F45E55"/>
<path d="M29.7386 96.0805C29.7386 96.0805 48.5609 91.8836 53.5078 88.1765C53.5078 88.1765 41.5566 95.562 47.7371 95.0005C82.1563 91.8754 160.442 88.4778 160.454 88.6601C160.739 92.7525 28.1914 98.0436 28.1914 98.0436C28.1914 98.0436 30.2345 97.4022 29.7386 96.0805Z" fill="#F45E55"/>
<path d="M166.032 72.2129C166.032 72.2129 160.979 73.1309 159.708 74.1412C159.376 74.4056 158.942 74.4896 158.534 74.3769C155.704 73.5982 146.548 71.2272 137.035 70.387C137.035 70.387 152.933 70.2292 166.032 72.2129Z" fill="#F45E55"/>
<path d="M28.4973 97.9983L28.317 98.1869C28.2494 98.2648 28.1818 98.3365 28.1059 98.4082C20.1405 106.589 8.19749 106.025 8.19749 106.025C8.19749 106.025 7.99462 102.187 11.5029 99.2382C12.503 98.3898 13.7981 97.6192 15.4826 97.0352C15.7879 96.9205 16.1096 96.82 16.4396 96.7278C16.4396 96.7278 20.9971 95.9081 26.5526 94.4941L26.6223 94.5228C26.6223 94.5228 32.4811 95.943 28.4973 98.0004V97.9983Z" fill="white"/>
<path d="M142.921 122.249C140.749 127.907 136.605 127.137 136.605 127.137L111.135 127.042L64.6458 126.878C63.7113 127.085 62.9203 127.149 62.2564 127.11L59.6846 125.104C59.6846 125.104 126.154 116.509 142.511 122.126C142.648 122.173 142.792 122.21 142.921 122.247V122.249Z" fill="#F45E55"/>
<path d="M137.181 127.448C136.798 127.456 136.562 127.417 136.554 127.415L64.6766 127.163C63.7811 127.36 62.9614 127.436 62.2401 127.393C60.9859 127.321 60.0269 126.883 59.3896 126.094C58.3998 124.868 58.5227 123.206 58.5678 122.807C56.9018 119.028 55.9776 114.36 55.8177 108.925C55.6067 101.648 56.869 95.5004 56.8813 95.4389L56.9202 95.2565L57.1026 95.2196C63.0741 93.9942 90.5627 92.1847 112.57 90.8834C136.827 89.4469 160.098 88.287 160.329 88.2747L160.571 88.2625L160.62 88.5002C163.528 102.427 152.889 110.017 152.782 110.093L152.751 110.112C151.186 110.925 149.427 112.618 147.526 115.147C145.202 118.235 143.487 121.505 143.468 121.538C143.39 121.798 143.292 122.085 143.183 122.354C141.462 126.833 138.474 127.417 137.181 127.446V127.448ZM64.6152 126.596H64.6459L136.605 126.852C136.816 126.887 140.599 127.499 142.655 122.147C142.761 121.887 142.853 121.612 142.946 121.321C142.982 121.243 144.718 117.934 147.071 114.806C149.015 112.218 150.833 110.472 152.468 109.618C152.897 109.308 162.727 102.029 160.11 88.8547C157.559 88.9817 135.519 90.0924 112.6 91.4511C90.8312 92.738 63.7012 94.5229 57.3977 95.7402C57.1928 96.8099 56.1928 102.402 56.3813 108.911C56.5391 114.304 57.4592 118.927 59.115 122.651L59.1498 122.727L59.1375 122.809C59.1355 122.827 58.8814 124.567 59.8302 125.739C60.363 126.397 61.1847 126.762 62.2708 126.825C62.9491 126.864 63.7278 126.79 64.5824 126.6L64.6131 126.594L64.6152 126.596Z" fill="#F45E55"/>
<path d="M110.747 126.78C108.096 120.68 111.995 92.5372 112.163 91.3425L112.725 91.4204C112.684 91.7114 108.68 120.6 111.268 126.555L110.747 126.78Z" fill="#F45E55"/>
<path d="M160.342 88.5595C160.342 88.6128 160.327 88.6702 160.29 88.7357C147.03 89.1476 130.089 90.1231 112.799 91.2911C93.0465 92.6355 72.845 94.2339 57.1683 95.529L57.158 95.4983C57.158 95.4983 56.6047 84.9651 60.3221 83.1351C60.3221 83.1351 85.6754 68.0035 117.094 69.4175C127.408 69.8827 156.811 70.2249 157.848 76.0898C157.848 76.0898 160.35 86.3525 160.344 88.5595H160.342Z" fill="#0C193A"/>
<path d="M120.939 72.6247C120.211 76.8687 118.014 89.7728 118.055 90.6335L149.288 89.2257C149.288 89.2257 155.327 81.1557 153.882 75.674C153.706 75.0039 133.123 71.2866 122.568 71.262C121.764 71.262 121.076 71.8317 120.939 72.6247Z" fill="#D7E2FF"/>
<path d="M61.8836 84.576C63.8385 82.9017 68.601 80.8873 71.0683 79.9324C71.4515 79.7848 71.8491 80.1045 71.7814 80.5103C71.4208 82.7009 70.39 88.697 69.8203 89.0843C69.8203 89.0843 63.5967 90.8979 61.1766 89.4655C61.1766 89.4655 60.4962 85.7625 61.8836 84.576Z" fill="#D7E2FF"/>
<path d="M70.291 85.8568C70.291 85.8568 72.828 90.5291 70.5226 92.5332C70.5226 92.5332 63.7294 93.5476 63.5449 88.9327C63.5449 88.9327 63.9384 84.8219 70.291 85.8568Z" fill="#15244F"/>
<mask id="mask0_46_1270" style="mask-type:luminance" maskUnits="userSpaceOnUse" x="118" y="71" width="37" height="20">
<path d="M120.939 72.6247C120.211 76.8687 118.014 89.7728 118.055 90.6335L149.288 89.2257C149.288 89.2257 155.327 81.1557 153.882 75.674C153.706 75.0039 133.123 71.2866 122.568 71.262C121.764 71.262 121.076 71.8317 120.939 72.6247Z" fill="white"/>
</mask>
<g mask="url(#mask0_46_1270)">
<g opacity="0.57">
<path d="M144.625 68.488L142.326 66.5254L121.231 91.2337L123.529 93.1964L144.625 68.488Z" fill="white"/>
<path d="M153.56 72.6643L148.433 68.2866L127.337 92.995L132.465 97.3727L153.56 72.6643Z" fill="white"/>
</g>
</g>
<path d="M74.9865 77.9178C79.5215 76.221 98.7577 69.4236 111.576 71.1532C111.992 71.2085 112.266 71.6122 112.178 72.0221C111.559 74.9095 109.301 85.3135 107.979 89.746C107.742 90.5432 107.039 91.1067 106.209 91.1702L73.4372 93.6826L71.4023 88.5329L73.6729 79.2805C73.884 78.6514 74.3635 78.1514 74.9844 77.9178H74.9865Z" fill="#D7E2FF"/>
<mask id="mask1_46_1270" style="mask-type:luminance" maskUnits="userSpaceOnUse" x="71" y="70" width="42" height="24">
<path d="M74.9865 77.9178C79.5215 76.221 98.7577 69.4236 111.576 71.1532C111.992 71.2085 112.266 71.6122 112.178 72.0221C111.559 74.9095 109.301 85.3135 107.979 89.746C107.742 90.5432 107.039 91.1067 106.209 91.1702L73.4372 93.6826L71.4023 88.5329L73.6729 79.2805C73.884 78.6514 74.3635 78.1514 74.9844 77.9178H74.9865Z" fill="white"/>
</mask>
<g mask="url(#mask1_46_1270)">
<g opacity="0.56">
<path d="M101.745 67.7308L99.5898 66.0793L75.586 97.407L77.7414 99.0584L101.745 67.7308Z" fill="white"/>
<path d="M114.904 72.1183L106.511 65.687L82.5069 97.0146L90.9005 103.446L114.904 72.1183Z" fill="white"/>
</g>
</g>
<path d="M74.4846 137.022C74.4846 137.022 73.8165 138.916 74.0009 140.809C74.0009 140.809 75.6342 141.367 77.083 141.367C78.5318 141.367 81.4643 141.998 81.8004 141.367C82.1344 140.736 77.5298 138.692 77.083 138.469C76.6363 138.246 76.4887 137.451 76.4887 137.451L74.4825 137.02L74.4846 137.022Z" fill="#1F282E"/>
<path d="M47.6245 134.41C47.6245 134.41 46.4113 136.01 46.0117 137.871C46.0117 137.871 47.3991 138.897 48.7782 139.338C50.1573 139.779 52.7599 141.272 53.2701 140.772C53.7804 140.272 50.0159 136.926 49.6573 136.578C49.3008 136.229 49.4012 135.426 49.4012 135.426L47.6204 134.407L47.6245 134.41Z" fill="#1F282E"/>
<path d="M65.5721 88.9265C65.5721 88.9265 67.0106 105.017 67.5291 109.099C68.0476 113.181 69.8304 124.186 70.4247 127.151C71.0189 130.116 72.9985 137.453 72.9985 137.453L78.3471 137.938C78.3471 137.938 77.011 121.698 76.888 117.636C76.763 113.577 76.6646 97.5333 76.3675 94.1664C76.0703 90.7995 75.1912 79.5102 75.1912 79.5102L66.3651 76.342L56.4611 77.2622C56.4611 77.2622 52.9958 88.8199 51.9056 96.3468C50.8154 103.874 50.1228 110.706 50.1228 110.706C50.1228 110.706 46.9546 130.809 46.7559 134.571L51.1126 136.155C51.1126 136.155 57.2521 119.716 58.8362 113.577C60.4202 107.437 65.57 88.9265 65.57 88.9265H65.5721Z" fill="#15244F"/>
<path d="M52.5293 92.7832C53.9474 85.6456 56.4618 77.2622 56.4618 77.2622L66.3658 76.342L75.1919 79.5102C75.1919 79.5102 75.651 85.412 76.0178 89.9531C75.2739 90.4675 74.0218 91.1151 72.1549 91.4347C69.1159 91.9553 68.5565 92.1643 65.9006 92.5536C65.7039 90.3958 65.5727 88.9265 65.5727 88.9265C65.5727 88.9265 65.1527 90.4388 64.5153 92.736C61.4169 93.0291 55.5335 92.4881 52.5293 92.7811V92.7832Z" fill="#0C193A"/>
<path d="M74.1871 137.68L74.4207 137.606C73.9002 135.971 72.9617 130.085 72.1358 124.895C71.5416 121.169 71.0292 117.95 70.7424 116.72C70.4063 115.284 70.1891 112.558 69.9595 109.673C69.7177 106.642 69.4677 103.509 69.0579 101.671C68.2771 98.1541 67.6808 91.5514 67.6746 91.4858L67.4287 91.5084C67.4349 91.574 68.0332 98.193 68.8181 101.724C69.2239 103.546 69.4718 106.671 69.7136 109.693C69.9452 112.589 70.1624 115.323 70.5026 116.778C70.7874 117.999 71.3243 121.368 71.892 124.934C72.7199 130.135 73.6605 136.03 74.1871 137.682V137.68Z" fill="#0C193A"/>
<path d="M47.8689 135.098C48.3812 130.303 50.2111 121.645 51.4243 115.917C52.1108 112.671 52.6067 110.325 52.6518 109.724C53.1846 102.7 55.2748 91.6274 55.2953 91.5168L55.0535 91.4717C55.033 91.5823 52.9407 102.669 52.4059 109.706C52.3608 110.29 51.8423 112.751 51.1825 115.866C49.9693 121.6 48.1373 130.264 47.625 135.071L47.8689 135.098Z" fill="#0C193A"/>
<path d="M108.035 61.6263C108.035 61.6263 109.74 61.8005 110.484 61.6099C111.228 61.4193 111.994 61.2185 113.109 61.3435C114.224 61.4685 116.304 62.0812 116.129 62.3046C115.955 62.5279 114.644 62.4029 114.644 62.4029C114.644 62.4029 114.396 63.0218 113.777 63.071C113.158 63.1202 112.797 63.739 112.086 63.7145C111.375 63.6899 110.459 62.9972 110.459 62.9972L107.291 63.4685L108.037 61.6283L108.035 61.6263Z" fill="#5E4A3A"/>
<path d="M83.4966 53.7163C85.7733 54.7512 86.8656 56.4848 86.8656 56.4848L94.4888 60.6489L108.502 61.2391C108.502 61.2391 108.649 61.7637 108.155 64.522C108.155 64.522 101.061 66.7762 96.7839 67.3745C92.5072 67.9729 89.6382 67.8254 86.8389 66.8356C84.0397 65.8458 81.1195 64.522 81.1195 64.522L79.1133 63.8642L83.4946 53.7184L83.4966 53.7163Z" fill="#3E60B5"/>
<path d="M81.1195 64.522L79.1133 63.8642L82.5068 56.0053L83.2651 55.7615C83.2651 55.7615 83.5438 57.7247 83.4946 59.9522C83.4454 62.1797 84.7815 63.4462 85.6237 64.522C86.3922 65.5056 91.7407 66.2229 93.4314 67.6963C90.876 67.8131 88.8349 67.5426 86.8369 66.8356C84.0376 65.8458 81.1175 64.522 81.1175 64.522H81.1195Z" fill="#314FA5"/>
<path d="M79.1141 40.3674C79.485 41.6297 79.362 43.0662 79.8825 43.6851C80.403 44.304 79.9563 47.2508 79.6346 47.5725C79.3128 47.8942 77.1591 47.3737 77.1591 47.3737L75.3516 52.7469C75.3516 52.7469 71.538 53.3166 69.9785 49.9988L72.8249 45.6421C72.8249 45.6421 73.3516 44.5704 73.036 43.142C72.7204 41.7117 73.4069 39.9473 74.2614 39.5579C75.116 39.1686 79.1141 40.3694 79.1141 40.3694V40.3674Z" fill="#5E4A3A"/>
<path d="M73.9162 44.6257C73.9162 44.6257 74.5331 45.5909 74.8814 45.9618C75.8999 47.052 77.1582 47.3738 77.1582 47.3738L76.6663 48.8369C76.6663 48.8369 75.5024 48.8369 75.0495 47.6709C74.6499 46.6422 74.2052 46.384 74.0371 45.7713C73.8691 45.1585 73.9162 44.6257 73.9162 44.6257Z" fill="#453629"/>
<path d="M75.97 51.8883C75.97 51.8883 72.2568 53.2162 69.73 49.2058C69.73 49.2058 66.4799 68.9052 67.5845 72.0283C68.689 75.1513 76.0192 56.4499 75.9679 51.8862L75.97 51.8883Z" fill="#0C193A"/>
<path d="M71.0012 48.4354C71.0012 48.4354 70.6221 48.8104 69.9786 51.5339C69.3352 54.2573 68.3946 65.4482 68.0974 69.9033C68.0974 69.9033 69.4971 67.725 71.0012 64.4564C72.5054 61.1879 75.3518 52.745 75.3518 52.745L76.0997 50.5195C76.0997 50.5195 78.5445 51.4498 79.4851 51.8863C80.4257 52.3249 83.4955 53.7142 83.4955 53.7142C83.4955 53.7142 83.2967 57.1754 82.1594 60.3456C81.02 63.5138 79.8314 64.397 78.8416 67.0999C77.8518 69.8029 76.8108 73.6165 75.5239 76.092C75.5239 76.092 76.7125 81.1434 76.9112 83.371C77.11 85.5985 77.0588 87.1846 77.0588 87.1846C77.0588 87.1846 74.2206 89.2994 69.6815 88.8691C68.6425 88.7707 68.5421 88.5719 68.3454 86.7891C68.1466 85.0063 67.206 78.3708 67.206 78.3708C67.206 78.3708 66.1158 82.084 65.2756 84.0657C64.4334 86.0473 64.583 87.1354 63.294 87.5309C62.005 87.9264 54.5785 86.0452 52.7957 82.9263L56.1626 74.4588L57.2016 70.348L57.6975 61.5342C57.6975 61.5342 54.4781 66.436 51.7055 68.4668C48.9329 70.4976 45.1704 69.309 44.279 67.9217C43.3876 66.5343 42.9941 64.7515 42.9941 64.7515C42.9941 64.7515 48.9841 58.7124 50.0231 57.325C51.062 55.9377 52.9227 53.3085 54.7261 51.333C56.1708 49.751 58.1053 47.921 62.3022 47.9907C65.583 48.046 70.9992 48.4313 70.9992 48.4313L71.0012 48.4354Z" fill="#3E60B5"/>
<path d="M67.5292 69.4277C67.5456 69.4277 67.56 69.4257 67.5764 69.4216C67.6645 69.3949 67.7157 69.3027 67.6891 69.2146L65.1705 60.784L67.6358 58.7839C67.685 58.7429 67.7075 58.6794 67.6932 58.6159L66.2034 52.2386L69.8449 48.966C69.9125 48.9045 69.9186 48.798 69.8572 48.7303C69.7957 48.6607 69.6912 48.6566 69.6215 48.718L65.9083 52.0563C65.8632 52.0972 65.8447 52.1587 65.857 52.2181L67.3448 58.5893L64.8754 60.5955C64.8222 60.6385 64.8017 60.7082 64.8201 60.7717L67.3714 69.3089C67.3919 69.3806 67.4595 69.4277 67.5313 69.4277H67.5292Z" fill="#15244F"/>
<path d="M57.2028 70.35L57.6988 61.5362C57.6988 61.5362 61.162 57.6446 61.7583 55.6937C62.451 53.4293 61.7583 51.3862 61.7583 51.3862C62.5002 51.8821 62.7973 54.0605 62.9407 55.4458C63.0842 56.8331 62.4018 56.8331 62.6989 58.6652C62.9961 60.4972 63.0453 61.9829 62.6989 64.2104C62.3526 66.438 63.0944 71.391 62.1046 72.4955C61.1149 73.6001 56.043 74.7599 56.043 74.7599L56.1618 74.4608L57.2008 70.35H57.2028Z" fill="#314FA5"/>
<path d="M44.281 67.9236C43.3896 66.5363 42.9961 64.7535 42.9961 64.7535C42.9961 64.7535 43.5637 64.1797 44.3793 63.3477C44.8835 62.9829 45.5023 62.6366 46.238 62.3968C48.6213 61.6181 49.107 62.5423 51.3919 61.5218C53.3161 60.6611 56.1297 62.1079 56.972 62.5874C55.8654 64.1407 53.6768 67.0261 51.7074 68.4687C48.9348 70.4995 45.1724 69.311 44.281 67.9236Z" fill="#314FA5"/>
<path d="M51.1185 70.2156L60.9004 73.7412L65.6183 60.6511L55.8364 57.1255L51.1185 70.2156Z" fill="#F8F8F8"/>
<path d="M64.0786 64.9276L53.6336 63.239L51.1191 70.2167L55.5332 71.8069L62.4412 69.4667L64.0786 64.9276Z" fill="#DBDBDB"/>
<path d="M67.206 78.5388C67.206 78.5388 67.2245 78.5388 67.2327 78.5367C67.3228 78.5224 67.3863 78.4363 67.372 78.3461C67.3679 78.3257 67.0421 76.2621 67.1507 75.1022C67.2593 73.9321 68.2511 69.9852 68.2614 69.9463C68.2839 69.8582 68.2306 69.7659 68.1405 69.7434C68.0503 69.7188 67.9601 69.7741 67.9376 69.8643C67.8966 70.0282 66.9314 73.8767 66.8187 75.0714C66.706 76.2744 67.0298 78.3134 67.0441 78.3994C67.0564 78.4814 67.1281 78.5388 67.2081 78.5388H67.206Z" fill="#15244F"/>
<path d="M75.1894 75.6903C75.2283 75.6903 75.2693 75.676 75.3001 75.6473C75.3697 75.5858 75.3738 75.4792 75.3124 75.4116L73.716 73.6288C73.6545 73.5591 73.548 73.555 73.4803 73.6165C73.4107 73.6779 73.4066 73.7845 73.468 73.8521L75.0644 75.635C75.0972 75.6719 75.1423 75.6903 75.1894 75.6903Z" fill="#15244F"/>
<path d="M74.9682 76.1739C75.0338 76.1739 75.0932 76.137 75.1219 76.0735C75.1588 75.9894 75.1198 75.8911 75.0338 75.8542C75.0338 75.8542 74.7735 75.7415 73.8801 75.3706C73.005 75.0058 72.6505 74.7578 72.4763 74.3849C72.4374 74.3009 72.337 74.266 72.255 74.305C72.171 74.3439 72.1361 74.4443 72.1751 74.5263C72.3882 74.9792 72.8001 75.2804 73.753 75.678C74.6424 76.0489 74.9026 76.1595 74.9026 76.1595C74.9252 76.1698 74.9477 76.1739 74.9682 76.1739Z" fill="#15244F"/>
<path d="M75.8149 83.4139C76.024 83.4139 76.2371 83.4057 76.4584 83.3873C76.5506 83.3811 76.6182 83.2992 76.6121 83.209C76.6059 83.1188 76.5281 83.0492 76.4338 83.0553C74.7842 83.1865 73.4808 82.8073 72.5525 81.9344C71.2082 80.672 71.0402 78.7171 71.0197 78.1924C72.4808 77.926 75.485 78.383 75.5157 78.3892C75.6121 78.4035 75.692 78.34 75.7063 78.2498C75.7207 78.1597 75.6592 78.0736 75.567 78.0592C75.4338 78.0388 72.2759 77.5551 70.8127 77.8953C70.7389 77.9117 70.6857 77.9773 70.6836 78.0551C70.6836 78.1597 70.659 80.6106 72.321 82.1762C73.196 82.9979 74.3702 83.4139 75.817 83.4139H75.8149Z" fill="#15244F"/>
<path d="M57.3262 81.6435C57.7135 81.6435 58.1275 81.6128 58.564 81.541C61.2587 81.0923 61.7198 77.838 61.7239 77.8053C61.7362 77.7192 61.6788 77.6393 61.5928 77.6208C59.9329 77.2684 56.2258 75.5675 56.1889 75.5511C56.1049 75.5121 56.0065 75.5511 55.9676 75.6331C55.9286 75.7171 55.9676 75.8154 56.0496 75.8544C56.1992 75.922 59.6132 77.4897 61.3653 77.9118C61.2424 78.5286 60.6419 80.8586 58.5066 81.2132C56.0004 81.6312 54.2421 80.5594 54.2237 80.5492C54.1479 80.5 54.0433 80.5246 53.9942 80.6025C53.945 80.6804 53.9696 80.7828 54.0474 80.832C54.111 80.8709 55.3754 81.6456 57.3242 81.6456L57.3262 81.6435Z" fill="#15244F"/>
<path d="M56.7585 66.0179C56.7585 66.0179 59.7791 66.067 60.2996 66.0179C60.8201 65.9687 61.8099 64.9031 62.5026 64.9277C63.1952 64.9523 61.7607 65.4728 61.8345 65.9175C61.9083 66.3621 63.2956 66.2638 63.7403 66.2392C64.185 66.2146 64.2362 66.7843 63.7403 66.9318C63.7403 66.9318 63.9391 67.2782 63.5928 67.5753C63.5928 67.5753 63.5928 68.02 63.1973 68.2679C63.1973 68.2679 63.3981 68.6143 62.9636 68.7126C62.5292 68.811 61.4144 68.0446 60.3263 67.9954C59.2361 67.9462 56.3896 68.7229 56.3896 68.7229L56.7606 66.0158L56.7585 66.0179Z" fill="#5E4A3A"/>
<path d="M68.7897 69.8725C68.8265 69.8725 68.8655 69.8602 68.8962 69.8336L75.6096 64.2883C75.6526 64.2535 75.6751 64.1982 75.669 64.1428L75.2243 59.8107L78.6588 56.6077C78.706 56.5627 78.7244 56.495 78.7039 56.4336L76.7817 50.669C76.753 50.5809 76.6588 50.5358 76.5707 50.5645C76.4825 50.5932 76.4354 50.6875 76.4661 50.7756L78.3555 56.4377L74.9374 59.6242C74.8985 59.6591 74.88 59.7124 74.8862 59.7636L75.3309 64.0896L68.6872 69.5774C68.6155 69.6369 68.6052 69.7414 68.6647 69.8131C68.6974 69.852 68.7446 69.8746 68.7938 69.8746L68.7897 69.8725Z" fill="#15244F"/>
<path d="M75.1894 42.2937C75.3348 42.8225 75.5377 43.4475 75.7959 44.0069L74.9045 44.2549C74.9045 44.2549 74.7816 43.2159 74.0869 43.2651C73.3942 43.3143 73.6422 44.0827 73.8881 44.4782C74.136 44.8737 72.8225 45.6422 72.8225 45.6422C72.8225 45.6422 72.7979 44.3307 72.2774 43.4885C71.7569 42.6462 71.5356 40.3449 73.0704 39.3285C74.6053 38.3141 78.2448 37.8674 79.1116 40.3675C79.1116 40.3675 77.3575 40.6339 76.1136 40.8449C75.4353 40.9597 75.0049 41.6318 75.1873 42.2937H75.1894Z" fill="#F59D00"/>
<path d="M57.501 65.0609C57.501 65.0609 52.7979 64.358 49.6769 63.7146C46.558 63.0711 43.8345 63.6859 42.6951 65.0609C41.5558 66.438 42.398 71.7353 46.9289 71.4013C53.341 70.9279 57.8473 69.9033 57.8473 69.9033L57.501 65.0609Z" fill="#3E60B5"/>
<path d="M61.2867 50.8883C61.3072 50.8883 61.3277 50.8842 61.3482 50.876C61.4322 50.8432 61.4752 50.7469 61.4425 50.6608C61.4179 50.5993 60.8174 49.1382 58.3911 48.8124C58.2948 48.8021 58.2149 48.8636 58.2046 48.9558C58.1924 49.0481 58.2559 49.13 58.3481 49.1423C60.5695 49.4395 61.1125 50.7284 61.1351 50.7817C61.1617 50.8473 61.2232 50.8862 61.2908 50.8862L61.2867 50.8883Z" fill="#15244F"/>
<path d="M50.3688 64.0198C50.4384 64.0198 50.504 63.9747 50.5266 63.905C50.5552 63.8169 50.5081 63.7227 50.42 63.694C50.2929 63.6509 47.2642 62.6755 44.5448 63.696C44.4587 63.7288 44.4157 63.8251 44.4485 63.9112C44.4813 63.9973 44.5755 64.0423 44.6637 64.0095C47.2724 63.03 50.2868 64.0013 50.3175 64.0116C50.336 64.0177 50.3524 64.0198 50.3708 64.0198H50.3688Z" fill="#15244F"/>
<path d="M90.9971 133.159C90.9971 133.159 89.661 138.309 89.784 138.928C89.9069 139.547 91.8148 140.662 91.8148 140.662C91.8148 140.662 93.8702 141.231 93.7964 141.578C93.7226 141.924 88.9438 141.627 88.0769 141.578C87.2101 141.529 86.2449 141.725 86.0215 141.281C85.7982 140.836 87.0113 138.731 87.0871 138.235C87.1609 137.739 87.4827 133.309 87.4827 133.309L90.9992 133.161L90.9971 133.159Z" fill="#F86C6C"/>
<path d="M104.553 133.159C104.553 133.159 103.93 138.309 104.055 138.928C104.178 139.547 106.086 140.662 106.086 140.662C106.086 140.662 108.142 141.231 108.068 141.578C107.994 141.924 103.215 141.627 102.348 141.578C101.482 141.529 100.516 141.725 100.293 141.281C100.07 140.836 101.283 138.731 101.359 138.235C101.432 137.739 101.041 133.309 101.041 133.309L104.558 133.161L104.553 133.159Z" fill="#F86C6C"/>
<path d="M86.0215 141.281C85.8822 141.002 86.3023 140.078 86.6568 139.301C88.0236 139.977 89.5134 140.094 89.8966 139.918C90.0934 139.828 90.1426 139.631 90.1385 139.442C90.7225 140.022 91.8147 140.66 91.8147 140.66C91.8147 140.66 93.8701 141.229 93.7964 141.576C93.7226 141.922 88.9437 141.625 88.0769 141.576C87.2101 141.527 86.2449 141.723 86.0215 141.279V141.281Z" fill="#0C193A"/>
<path d="M100.291 141.281C100.152 141.002 100.572 140.078 100.926 139.301C102.293 139.977 103.783 140.094 104.166 139.918C104.363 139.828 104.412 139.631 104.408 139.442C104.992 140.022 106.084 140.66 106.084 140.66C106.084 140.66 108.14 141.229 108.066 141.576C107.992 141.922 103.213 141.625 102.346 141.576C101.48 141.527 100.514 141.723 100.291 141.279V141.281Z" fill="#0C193A"/>
<path d="M101.965 76.5386C101.965 76.5386 103.451 77.678 103.352 79.5592C103.352 79.5592 106.621 95.1069 106.918 105.357C107.215 115.608 104.838 134.323 104.838 134.323C104.838 134.323 103.451 134.768 101.719 134.67C99.9854 134.571 98.4997 135.639 97.8562 134.684C97.2128 133.729 96.9156 119.171 97.014 116.944C97.1123 114.716 96.9955 111.001 96.9955 111.001C96.9955 111.001 94.7373 123.528 91.5179 133.778C91.5179 133.778 89.8334 134.274 87.9522 134.075C86.071 133.877 85.9726 134.323 85.3271 134.075C84.6837 133.827 85.3763 130.856 85.3271 127.391C85.2779 123.925 87.0116 110.259 87.7534 108.029C88.4953 105.802 88.1489 95.9962 88.2494 93.9675C88.3477 91.9367 87.2104 80.1535 89.9338 76.3398L101.967 76.5386H101.965Z" fill="#15244F"/>
<path d="M93.9438 89.3385C93.9582 89.3385 93.9725 89.3364 93.9848 89.3303C94.0483 89.3077 94.0811 89.236 94.0586 89.1725C92.0175 83.537 93.5053 79.498 93.5217 79.459C93.5463 79.3955 93.5135 79.3238 93.45 79.2992C93.3885 79.2746 93.3147 79.3074 93.2922 79.3709C93.2758 79.4119 91.7573 83.535 93.8291 89.2565C93.8475 89.3057 93.8946 89.3385 93.9438 89.3385Z" fill="#15244F"/>
<path d="M88.4072 81.3115C88.6695 79.2684 89.1347 77.4609 89.9339 76.342L101.967 76.5408C101.967 76.5408 102.725 77.1249 103.121 78.1454C102.584 78.3749 101.543 78.7561 100.555 78.7561C99.1432 78.7561 96.471 78.6823 95.096 79.1639C93.8849 79.5901 90.8827 81.3996 88.4072 81.3115Z" fill="#0C193A"/>
<path d="M94.3888 91.0475C94.3888 91.0475 95.2311 92.3344 95.3294 94.1172C95.4278 95.8775 96.4176 108.296 96.9791 111.089C96.8254 111.929 95.4585 119.305 93.4072 127.149C93.4072 127.1 93.6511 120.811 92.8703 116.151C92.0855 111.472 92.0199 109.911 92.8703 106.568C93.7208 103.226 94.8335 92.4573 94.3888 91.0454V91.0475Z" fill="#0C193A"/>
<path d="M85.8175 131.87C86.2007 131.87 86.6761 131.801 87.2089 131.723C87.8544 131.629 88.5881 131.524 89.2602 131.538C90.8976 131.579 92.2378 131.143 92.2952 131.125C92.3607 131.104 92.3956 131.034 92.373 130.969C92.3525 130.905 92.2829 130.87 92.2173 130.891C92.2029 130.895 90.8545 131.325 89.2643 131.295C88.5655 131.278 87.8258 131.387 87.172 131.483C86.3216 131.606 85.5203 131.723 85.2007 131.497C85.1453 131.456 85.0695 131.471 85.0285 131.526C84.9896 131.581 85.0019 131.657 85.0572 131.698C85.2375 131.827 85.4958 131.875 85.8134 131.875L85.8175 131.87Z" fill="#3D2A2A"/>
<path d="M97.8342 132.828C98.1805 132.828 98.619 132.758 99.1088 132.682C99.9531 132.549 100.912 132.397 101.724 132.541C103.224 132.803 105.078 132.162 105.158 132.135C105.222 132.112 105.257 132.043 105.234 131.979C105.211 131.916 105.142 131.881 105.076 131.903C105.058 131.91 103.203 132.551 101.767 132.299C100.914 132.149 99.9347 132.305 99.0719 132.44C98.4223 132.543 97.8608 132.631 97.5411 132.557C97.4755 132.541 97.4079 132.584 97.3936 132.649C97.3792 132.715 97.4182 132.78 97.4858 132.797C97.5862 132.819 97.7051 132.83 97.8362 132.83L97.8342 132.828Z" fill="#3D2A2A"/>
<path d="M88.1875 59.1099C86.294 59.8517 85.9968 64.4584 85.6259 66.6122C85.255 68.7659 84.0009 72.7271 85.4271 74.387C87.1116 76.342 91.3433 73.6329 91.3433 73.6329L88.1875 59.1119V59.1099Z" fill="#F86C6C"/>
<path d="M86.8662 75.0714C86.9912 75.0407 87.7228 74.8153 88.4072 73.6308C88.9667 72.6615 89.4892 69.9053 89.4892 69.9053L90.5672 70.0528L91.3459 73.6329C91.3459 73.6329 88.7966 75.2579 86.8662 75.0735V75.0714Z" fill="#ED3232"/>
<path d="M98.6227 48.841C98.6227 48.841 98.6043 50.8841 99.3277 51.087C99.3277 51.087 98.9936 53.7797 98.6965 53.8903C98.3994 54.001 97.5448 54.0194 97.5448 54.0194L96.6165 58.3638L92.7168 58.2716C92.7168 58.2716 94.8337 54.1301 94.4443 53.2018C94.055 52.2735 93.3767 49.6361 94.1984 48.4844C95.0201 47.3327 98.6227 48.8369 98.6227 48.8369V48.841Z" fill="#F86C6C"/>
<path d="M94.4878 53.5237C94.4878 53.3987 94.4796 53.286 94.4448 53.204C94.3198 52.9069 94.1661 52.4315 94.0391 51.8884C94.3424 52.0524 94.7542 52.2921 95.2543 52.6364C96.3178 53.3659 97.7892 54.0115 98.1703 53.9848C97.8568 54.0155 97.5453 54.0217 97.5453 54.0217L97.2236 55.5279C97.1334 55.534 97.0371 55.5402 96.9264 55.5443C96.3137 55.5668 95.2399 54.4295 94.4858 53.5237H94.4878Z" fill="#ED3232"/>
<path d="M99.1431 58.6548C99.1431 58.6548 97.5836 58.0319 95.02 57.995C92.4584 57.9581 89.0772 57.9581 88.1878 59.1098C87.2964 60.2614 86.3312 63.5669 87.1488 66.0547C87.9665 68.5424 89.7493 75.0427 89.7493 75.0427L88.9686 76.7886C88.9686 76.7886 96.1286 77.4505 102.248 77.2108C102.655 77.1944 102.94 76.8009 102.834 76.4054L102.151 73.8541C102.151 73.8541 101.561 59.4499 99.1431 58.6569V58.6548Z" fill="#ED3232"/>
<path d="M98.7974 72.0324C97.7585 69.6061 96.5187 68.1265 96.5699 65.3478C96.6498 60.8886 97.9572 59.7451 97.9572 59.7451C98.5946 59.2922 99.5188 59.8599 100.488 60.8538C101.795 65.0834 102.154 73.8542 102.154 73.8542L102.836 76.4055C102.941 76.799 102.658 77.1945 102.25 77.2108C100.806 77.2682 99.3056 77.2723 97.8527 77.2498C99.4819 76.0387 99.6499 74.0202 98.7995 72.0344L98.7974 72.0324Z" fill="#C61717"/>
<path d="M99.4772 47.671C99.5571 48.9333 97.4341 49.9354 97.4341 49.9354C97.4341 49.9354 97.3234 51.4949 96.766 52.3863C96.2086 53.2777 96.6922 58.8844 95.3541 59.4787C94.0159 60.073 91.4912 59.4787 90.0445 59.4787C88.5977 59.4787 88.9297 57.8065 89.0055 57.1016C89.0793 56.3967 91.0015 51.3678 91.2699 50.0092C91.5179 48.7591 92.3089 46.9517 93.8438 46.8287C93.8438 46.8287 99.2907 44.7733 99.4772 47.671Z" fill="#0C193A"/>
<path d="M98.9191 58.6632C96.7797 58.9193 97.0624 63.0834 97.9539 65.645C98.8453 68.2065 102.487 77.4548 105.848 77.6023C109.206 77.7499 115.223 69.2967 115.223 69.2967H112.772L106.846 72.6636C106.846 72.6636 103.784 66.2761 102.856 63.6756C101.927 61.0751 100.776 58.4398 98.9191 58.6632Z" fill="#F86C6C"/>
<path d="M107.658 74.4094C107.842 73.4893 107.207 72.8172 107.18 72.7905L107.002 72.9606C107.002 72.9606 107.574 73.5713 107.416 74.3623L107.658 74.4115V74.4094Z" fill="#A63B3B"/>
<path d="M109.191 71.3315L112.771 69.2966H115.221C115.221 69.2966 114.808 69.8766 114.142 70.727C112.566 70.7741 110.5 71.0979 109.188 71.3315H109.191Z" fill="#ED3232"/>
</g>
<defs>
<clipPath id="clip0_46_1270">
<rect width="199" height="146" fill="white"/>
</clipPath>
</defs>
</svg>
