<?xml version="1.0" encoding="utf-8"?>
<!-- Generator: Adobe Illustrator 22.1.0, SVG Export Plug-In . SVG Version: 6.00 Build 0)  -->
<svg version="1.1" id="Capa_1" xmlns="http://www.w3.org/2000/svg" xmlns:xlink="http://www.w3.org/1999/xlink" x="0px" y="0px"
	 viewBox="0 0 329 120" style="enable-background:new 0 0 329 120;" xml:space="preserve">
<style type="text/css">
	.st0{fill:#D15241;}
	.st1{fill:#E1E6E9;}
	.st2{fill:#D5D6DB;}
	.st3{fill:#2F4859;}
	.st4{fill:#E56353;}
	.st5{fill:#FCD462;}
	.st6{fill:#64798A;}
	.st7{fill:#EBF0F3;}
	.st8{fill:#FFFFFF;}
</style>
<path class="st0" d="M216.7,44.9h20.3l-47-29.6c-0.6-0.3-0.8-1.2-0.5-1.8l2.9-5.4c0.3-0.6,0.1-1.2-0.5-1.5l-2.7-1.2
	c-1-0.5-2.3-0.1-2.9,0.9l-4.5,8.1c-1.3,2.3-0.8,5.1,1.3,6.7L216.7,44.9z"/>
<path class="st1" d="M264.6,42.8l-30.9,1.6l-21-10.8c-8.7-4.5-16.8-10.3-23.7-17.3c-1-0.9-1.2-2.4-0.6-3.5l2-4.7
	c0.1-0.1,0.1-0.1,0.1-0.1c0.3-0.7,0.9-1.2,1.7-1.5L264.6,42.8z"/>
<path class="st2" d="M233.7,44.4l-21-10.8c-8.7-4.5-16.8-10.3-23.7-17.3c-1-0.9-1.2-2.4-0.6-3.5l2-4.7c0.1-0.1,0.1-0.1,0.1-0.1
	c0.3-0.7,0.9-1.2,1.7-1.5L233.7,44.4z"/>
<g>
	<path class="st3" d="M144.5,42.8V25c0-1.2,1-2.3,2.3-2.3h5.7c1.2,0,2.3,1,2.3,2.3v17.8H144.5z"/>
	<path class="st3" d="M103.2,47.1v-24c0-1.4-1.1-2.6-2.6-2.6h-8.3c-1.4,0-2.6,1.1-2.6,2.6v24C89.8,47.1,103.2,47.1,103.2,47.1z"/>
</g>
<path class="st4" d="M1.6,85.2c0,7.4,6,13.5,13.5,13.5l20.6,0.1l61.9,0.4l139.7,1.1l61.3,0.4l17.3,0.1c6,0.1,10.8-4.8,10.8-10.8v-15
	c0-18.8-15.3-34.1-34.1-34.1H17.4c-3.1,0-5.9,1-8.1,2.8c-2.6,2.1-4.4,5.2-4.7,8.8L3.3,66.2L1.6,85.2z"/>
<path class="st5" d="M3.3,66.2h5.3c1.7,0,3.2-1.2,3.6-2.8L16,48.6c0.6-2.4-1.2-4.7-3.6-4.7H9.3C6.8,46,5,49.1,4.6,52.7L3.3,66.2z"/>
<path class="st2" d="M35.2,93.1c0,1.9,0.2,3.9,0.6,5.8l61.9,0.4c0.4-2,0.6-4.1,0.6-6.2c0-17.4-14.2-31.5-31.5-31.5
	S35.2,75.7,35.2,93.1z"/>
<path class="st3" d="M93.6,93.1c0,14.9-12,26.9-26.9,26.9s-26.9-12-26.9-26.9s12-26.9,26.9-26.9C81.6,66.2,93.6,78.3,93.6,93.1z"/>
<path class="st6" d="M83.9,93c0,9.5-7.7,17.2-17.2,17.2c-9.3,0-17-7.7-17-17.2s7.7-17.1,17-17.1C76.1,76,83.9,83.5,83.9,93z"/>
<path class="st7" d="M83.9,93c0,1.3-0.1,2.6-0.5,3.9c-2.4-0.5-4.7,0.2-6,2.4c-1.2,2.2-0.7,4.7,1,6.4c-1.9,1.7-4,3-6.5,3.8
	c-0.7-2.3-2.6-4-5.1-4c-2.5,0-4.4,1.8-5.1,4.1c-2.4-0.8-4.7-2.1-6.5-3.9c1.7-1.7,2.2-4.2,1-6.4c-1.3-2.2-3.7-2.9-6-2.4
	c-0.3-1.2-0.5-2.5-0.5-3.9c0-1.3,0.1-2.5,0.4-3.7c2.4,0.6,4.8-0.2,6.1-2.4c1.3-2.2,0.7-4.8-1-6.5c1.9-1.7,4-3,6.5-3.7
	c0.8,2.4,2.6,4.1,5.1,4.1c2.5,0,4.4-1.8,5.1-4c2.5,0.8,4.7,2.1,6.6,3.7c-1.7,1.8-2.3,4.3-1,6.5c1.2,2.1,3.7,2.8,6.1,2.4
	C83.8,90.5,83.9,91.7,83.9,93z"/>
<path class="st2" d="M236.5,93.1c0,2.5,0.3,4.9,0.8,7.3l61.3,0.4c0.6-2.4,1-5.1,1-7.7c0-17.4-14.2-31.5-31.5-31.5
	C250.6,61.5,236.5,75.7,236.5,93.1z"/>
<path class="st3" d="M294.9,93.1c0,14.9-12,26.9-26.9,26.9c-14.9,0-26.9-12-26.9-26.9s12-26.9,26.9-26.9
	C282.9,66.2,294.9,78.3,294.9,93.1z"/>
<path class="st6" d="M285.2,93c0,9.5-7.7,17.2-17.2,17.2c-9.3,0-17-7.7-17-17.2s7.7-17.1,17-17.1C277.5,76,285.2,83.5,285.2,93z"/>
<path class="st7" d="M285.2,93c0,1.3-0.1,2.6-0.5,3.9c-2.4-0.5-4.7,0.2-6,2.4c-1.2,2.2-0.7,4.7,1,6.4c-1.9,1.7-4,3-6.5,3.8
	c-0.7-2.3-2.6-4-5.1-4c-2.5,0-4.4,1.8-5.1,4.1c-2.4-0.8-4.7-2.1-6.5-3.9c1.7-1.7,2.2-4.2,1-6.4c-1.3-2.2-3.7-2.9-6-2.4
	c-0.3-1.2-0.5-2.5-0.5-3.9c0-1.3,0.1-2.5,0.4-3.7c2.4,0.6,4.8-0.2,6.1-2.4c1.3-2.2,0.7-4.8-1-6.5c1.9-1.7,4-3,6.5-3.7
	c0.8,2.4,2.6,4.1,5.1,4.1s4.4-1.8,5.1-4c2.5,0.8,4.7,2.1,6.6,3.7c-1.7,1.8-2.3,4.3-1,6.5c1.2,2.1,3.7,2.8,6.1,2.4
	C285.1,90.5,285.2,91.7,285.2,93z"/>
<path class="st0" d="M126.4,56.1v15.6c0,12,9.8,21.8,21.8,21.8H214c4.2,0,7.7-3.5,7.7-7.7V54.1c0-4.2-3.5-7.7-7.7-7.7h-77.9
	C130.8,46.4,126.4,50.8,126.4,56.1z"/>
<path class="st3" d="M132.7,61c2.8,1.9,5.8,2.8,8.7,2.8c2.9,0,5.8-1,8.6-2.8c0.7-0.5,0.9-1.5,0.4-2.2c-0.5-0.7-1.5-0.9-2.2-0.4
	c-4.7,3.1-9.2,3.1-13.8,0c-0.7-0.5-1.7-0.3-2.2,0.4C131.8,59.5,131.9,60.5,132.7,61z"/>
<ellipse transform="matrix(0.9762 -0.2169 0.2169 0.9762 -7.7818 69.5429)" class="st7" cx="312.9" cy="70.2" rx="9.7" ry="15.4"/>
<path class="st8" d="M310.9,56.6c1.6,0.3,2.8,1.2,3.9,2.3c1,1.1,2,2.3,2.8,3.6c0.8,1.3,1.6,2.6,2.2,4.1c0.7,1.4,1.2,2.8,1.9,4.3
	c-0.1-1.6-0.6-3.1-1-4.7c-0.6-1.5-1.2-3-2.1-4.3c-0.9-1.3-1.9-2.6-3.2-3.7c-0.6-0.6-1.3-1-2.1-1.2C312.5,56.7,311.7,56.5,310.9,56.6
	z"/>
</svg>
