<?xml version="1.0" encoding="utf-8"?>
<!-- Generator: Adobe Illustrator 22.1.0, SVG Export Plug-In . SVG Version: 6.00 Build 0)  -->
<svg version="1.1" id="Capa_1" xmlns="http://www.w3.org/2000/svg" xmlns:xlink="http://www.w3.org/1999/xlink" x="0px" y="0px"
	 viewBox="0 0 20 15.4" style="enable-background:new 0 0 20 15.4;" xml:space="preserve">
<g>
	<g id="Shape_17">
		<g>
			<path d="M19,3.3c0-0.4-0.2-0.7-0.4-1c0,0,0,0,0,0c0,0,0,0,0,0c-0.3-0.3-0.7-0.5-1.1-0.5h-15C2.1,1.8,1.7,2,1.4,2.2c0,0,0,0,0,0
				c0,0,0,0,0,0C1.2,2.5,1,2.9,1,3.3v8.8c0,0.4,0.2,0.7,0.4,1c0,0,0,0,0,0c0,0,0,0,0,0c0.3,0.3,0.7,0.5,1.1,0.5h15
				c0.4,0,0.8-0.2,1.1-0.5c0,0,0,0,0,0c0,0,0,0,0,0c0.3-0.3,0.4-0.6,0.4-1L19,3.3L19,3.3z M13.1,7.2l5.2-4.3
				c0.1,0.1,0.1,0.2,0.1,0.4v8.8c0,0.1,0,0.2-0.1,0.3L13.1,7.2z M17.5,2.4c0.1,0,0.3,0,0.4,0.1L10,9L2.1,2.5
				c0.1-0.1,0.2-0.1,0.4-0.1H17.5z M1.7,12.4c0-0.1-0.1-0.2-0.1-0.3V3.3c0-0.1,0-0.3,0.1-0.4l5.2,4.3L1.7,12.4z M2.5,13
				c-0.1,0-0.3,0-0.4-0.1l5.3-5.3l2.4,2c0.1,0,0.1,0.1,0.2,0.1s0.1,0,0.2-0.1l2.4-2l5.3,5.3c-0.1,0.1-0.3,0.1-0.4,0.1L2.5,13L2.5,13
				z"/>
		</g>
	</g>
</g>
</svg>
