<?xml version="1.0" encoding="utf-8"?>
<!-- Generator: Adobe Illustrator 21.1.0, SVG Export Plug-In . SVG Version: 6.00 Build 0)  -->
<svg version="1.1" id="Layer_1" xmlns="http://www.w3.org/2000/svg" xmlns:xlink="http://www.w3.org/1999/xlink" x="0px" y="0px"
	 viewBox="0 0 512 512" style="enable-background:new 0 0 512 512;" xml:space="preserve">
<style type="text/css">
	.st0{fill:#FFFFFF;}
	.st1{fill:#F24026;}
	.st2{fill:#3498DB;}
	.st3{fill:#BFBEBE;}
</style>
<circle class="st0" cx="362.7" cy="236.3" r="98.7"/>
<path class="st1" d="M362.2,352.3c-63.9,0-115.8-52-115.8-115.8c0-63.9,52-115.8,115.8-115.8c63.9,0,115.8,52,115.8,115.8
	S426.1,352.3,362.2,352.3z M362.2,140.7c-52.8,0-95.8,43-95.8,95.8s43,95.8,95.8,95.8s95.8-43,95.8-95.8
	C458,183.6,415,140.7,362.2,140.7z"/>
<path class="st1" d="M362.2,314.7c-43.1,0-78.2-35.1-78.2-78.2s35.1-78.2,78.2-78.2s78.2,35.1,78.2,78.2
	C440.4,279.6,405.3,314.7,362.2,314.7z M362.2,178.3c-32.1,0-58.2,26.1-58.2,58.2s26.1,58.2,58.2,58.2s58.2-26.1,58.2-58.2
	S394.3,178.3,362.2,178.3z"/>
<path class="st1" d="M360.6,271.3c-12-0.4-21.8-6.6-21.8-13c0-3.4,3-8.4,6.8-8.4c4.2,0,7.6,5.9,15,7.2v-16.2
	c-9.2-3.5-20-7.8-20-20.6c0-12.7,9.4-18.8,20-20.3v-2.8c0-1.4,1.6-2.7,3.8-2.7c1.9,0,3.8,1.3,3.8,2.7v2.5c6.2,0.2,17.9,1.8,17.9,8.7
	c0,2.7-1.8,8.2-6.2,8.2c-3.3,0-5.2-3.2-11.7-3.7v14.6c9.1,3.4,19.7,8.1,19.7,21.6c0,12.4-8,19.9-19.7,21.8v2.9
	c0,1.4-1.9,2.7-3.8,2.7c-2.2,0-3.8-1.3-3.8-2.7L360.6,271.3L360.6,271.3z M361.6,225.1v-11.9c-4.5,0.9-6.4,3.2-6.4,5.6
	C355.2,221.7,357.8,223.5,361.6,225.1z M367.2,243.6V257c3.4-0.8,6.1-2.7,6.1-6.3C373.3,247.4,370.8,245.3,367.2,243.6z"/>
<path class="st2" d="M168.1,443.1c-0.6,0-1.3-0.1-1.9-0.2s-1.3-0.3-1.9-0.6c-0.6-0.3-1.2-0.6-1.7-0.9c-0.5-0.4-1.1-0.8-1.5-1.3
	c-1.9-1.9-2.9-4.4-2.9-7.1c0-2.6,1.1-5.2,2.9-7.1c0.5-0.5,1-0.9,1.5-1.2c0.6-0.4,1.1-0.7,1.7-0.9c0.6-0.3,1.2-0.4,1.9-0.6
	c1.3-0.3,2.6-0.3,3.9,0c0.6,0.1,1.3,0.3,1.9,0.6c0.6,0.3,1.2,0.6,1.7,0.9c0.6,0.4,1.1,0.8,1.5,1.2c1.9,1.9,2.9,4.4,2.9,7.1
	c0,2.6-1.1,5.2-2.9,7.1c-0.5,0.5-1,0.9-1.5,1.3s-1.1,0.7-1.7,0.9c-0.6,0.3-1.2,0.4-1.9,0.6C169.4,443,168.7,443.1,168.1,443.1z"/>
<circle class="st0" cx="133.7" cy="115.7" r="98.7"/>
<path class="st0" d="M99,385v83l194,32.5c0,0,36-1,48-10s133.5-84,133.5-84s36-60-31.5-54.5l-91,48c0,0,9.5-37.5-69.5-37l-47.5,1.5
	c0,0-71.5-75-115.5,13.5L99,385z"/>
<rect x="37" y="369.5" class="st0" width="56" height="118"/>
<path class="st3" d="M489.1,361.7c-11.2-19.5-36.1-26.2-55.8-15.2l-73.8,35.8c-6.6-15.9-22.4-27.2-40.7-27.2h-80.1
	c-13.9-19.7-36.8-31.7-61-31.7c-0.9,0-1.7,0-2.5,0c-30.6,1-56.9,22-65.4,51.6h-3.6v-6c0-5.5-4.5-10-10-10H36.9c-5.5,0-10,4.5-10,10
	v121.3c0,5.5,4.5,10,10,10h59.3c5.5,0,10-4.5,10-10V483c38.3,7.2,156.4,29,196.4,29c21.6,0,56.3-15.7,106.1-48.1
	c35.7-23.2,66.1-46.7,66.4-47s0.6-0.5,0.9-0.8C493.7,398.6,498.6,378.2,489.1,361.7z M86.2,480.4H46.9V379h39.3V480.4z M462.4,401.6
	c-33,25.6-124.6,90.4-159.8,90.4c-39.2,0-163.5-23.1-196.4-29.3v-67.6h11.5c4.7,0,8.7-3.2,9.8-7.8l0.8-3.5
	c5.2-22.9,24.8-39.5,47.7-40.3c0.6,0,1.2,0,1.9,0c19.2,0,37.2,10.3,47,26.8c1.8,3,5.1,4.9,8.6,4.9H319c13.2,0,24,10.8,24,24
	s-10.8,24-24,24H205.4c-5.5,0-10,4.5-10,10s4.5,10,10,10h113.5c23,0,41.9-17.7,43.8-40.1l79.6-38.7c0.2-0.1,0.4-0.2,0.6-0.3
	c10.1-5.8,23-2.4,28.8,7.6C478.4,383.1,467.8,396.1,462.4,401.6z"/>
<path class="st1" d="M133.8,231.6C70,231.6,18,179.7,18,115.8C18,52,70,0,133.8,0s115.8,52,115.8,115.8
	C249.6,179.7,197.7,231.6,133.8,231.6z M133.8,20C81,20,38,63,38,115.8s43,95.8,95.8,95.8s95.8-43,95.8-95.8S186.7,20,133.8,20z"/>
<path class="st1" d="M133.8,194c-43.1,0-78.2-35.1-78.2-78.2s35.1-78.2,78.2-78.2S212,72.7,212,115.8S176.9,194,133.8,194z
	 M133.8,57.6c-32.1,0-58.2,26.1-58.2,58.2s26.1,58.2,58.2,58.2s58.2-26.1,58.2-58.2S165.9,57.6,133.8,57.6z"/>
<path class="st1" d="M155.8,142.8c0,3.4-1.5,6.8-4.5,6.8h-42.4c-3,0-4.5-3.4-4.5-6.8c0-3.4,1.5-6.8,4.5-6.8h5l3.2-23h-4.7
	c-2.5,0-3.8-2.7-3.8-5.5c0-2.7,1.3-5.5,3.8-5.5h6.3l1-6.9c1.9-13.2,13.9-22.3,26.9-22.3h4.2c3.2,0,5,3.4,5,6.7s-1.8,6.8-5,6.8h-4.7
	c-7.1,0-10.2,3.7-10.9,8.8l-1,6.9h10.7c2.5,0,3.8,2.8,3.8,5.5c0,2.8-1.3,5.5-3.8,5.5h-12.3l-3.3,23h22
	C154.3,136,155.8,139.4,155.8,142.8z"/>
</svg>
