<svg width="63" height="49" viewBox="0 0 63 49" fill="none" xmlns="http://www.w3.org/2000/svg">
<g clip-path="url(#clip0_46_2189)">
<path d="M21.196 40.8174C32.3434 40.8174 41.3802 31.7806 41.3802 20.6332C41.3802 9.48573 32.3434 0.448944 21.196 0.448944C10.0485 0.448944 1.01172 9.48573 1.01172 20.6332C1.01172 31.7806 10.0485 40.8174 21.196 40.8174Z" fill="#FB6C5A"/>
<path d="M51.8458 48.2929C57.6259 48.2929 62.3117 43.6071 62.3117 37.827C62.3117 32.0468 57.6259 27.3611 51.8458 27.3611C46.0656 27.3611 41.3799 32.0468 41.3799 37.827C41.3799 43.6071 46.0656 48.2929 51.8458 48.2929Z" fill="#FB6C5A"/>
<path d="M28.1479 13.307C27.7741 13.307 27.5498 13.606 27.5498 13.905C27.5498 14.2788 27.8488 14.5031 28.1479 14.5031C28.4469 14.5031 28.7459 14.2041 28.7459 13.905C28.7459 13.606 28.4469 13.307 28.1479 13.307Z" fill="black"/>
<path d="M31.8113 18.1662C31.4375 18.1662 31.2133 17.8672 31.2133 17.5682C31.2133 17.1944 31.5123 16.9701 31.8113 16.9701C32.0356 16.9701 32.2598 17.0449 32.4841 17.2691C32.7084 17.4934 33.0822 17.4934 33.3812 17.2691C33.6055 17.0449 33.6055 16.6711 33.3812 16.3721C33.0822 16.073 32.7831 15.9235 32.4841 15.774V15.0265C32.4841 14.6527 32.1851 14.4284 31.8861 14.4284C31.587 14.4284 31.288 14.7274 31.288 15.0265V15.774C30.5404 15.9983 30.0919 16.6711 30.0919 17.4934C30.0919 18.54 30.9142 19.3623 31.9608 19.3623C32.3346 19.3623 32.5589 19.6614 32.5589 19.9604C32.5589 20.3342 32.2598 20.5584 31.9608 20.5584C31.7365 20.5584 31.4375 20.4089 31.1385 20.1099C30.9142 19.8856 30.5404 19.8109 30.2414 20.0351C30.0172 20.2594 29.9424 20.6332 30.1667 20.9322C30.4657 21.306 30.9142 21.605 31.288 21.7545V22.5021C31.288 22.8759 31.587 23.1001 31.8861 23.1001C32.1851 23.1001 32.4841 22.8011 32.4841 22.5021V21.7545C33.2317 21.5303 33.6802 20.8575 33.6802 20.0351C33.6055 18.9885 32.7831 18.1662 31.8113 18.1662Z" fill="black"/>
<path d="M44.9687 18.54C43.6231 18.54 42.5017 19.6614 42.5017 21.007V25.3429C41.6794 25.1186 40.7823 25.3429 40.1843 26.0157L36.0727 30.1273C35.4746 30.7253 35.1756 31.4729 35.1756 32.2952V35.8835H34.5775C34.2038 35.8835 33.9795 36.1826 33.9795 36.4816V40.2942C33.9795 40.6679 34.2785 40.8922 34.5775 40.8922H43.0998C43.4736 40.8922 43.6978 40.5932 43.6978 40.2942V36.4816C43.6978 36.1078 43.3988 35.8835 43.0998 35.8835H42.5017V35.5845C42.5017 35.435 42.5765 35.2855 42.6512 35.136L46.4638 31.3234C47.0619 30.7253 47.3609 29.9778 47.3609 29.1555V21.007C47.4356 19.6614 46.3143 18.54 44.9687 18.54ZM42.5017 39.6961H35.1756V37.0796H42.5017V39.6961ZM46.2395 29.1555C46.2395 29.6787 46.0153 30.1273 45.7162 30.4263L41.9037 34.2389C41.5299 34.6127 41.3056 35.0612 41.3056 35.5845V35.8835H36.4465V32.2952C36.4465 31.7719 36.6707 31.3234 36.9697 31.0244L41.0814 26.9128C41.5299 26.4642 42.2775 26.4642 42.726 26.838C42.726 26.838 42.726 26.838 42.8007 26.9128C43.025 27.137 43.1745 27.4361 43.1745 27.8098C43.1745 28.1089 43.025 28.4079 42.8007 28.7069L39.7357 31.7719C39.5115 31.9962 39.5115 32.37 39.7357 32.669C39.96 32.8933 40.3338 32.8933 40.6328 32.669L43.6978 29.604C44.1464 29.1554 44.4454 28.5574 44.4454 27.8846C44.4454 27.2865 44.2211 26.6885 43.8473 26.2399V21.1565C43.8473 20.4837 44.3706 19.9604 45.0434 19.9604C45.7162 19.9604 46.2395 20.4837 46.2395 21.1565V29.1555Z" fill="black"/>
<path d="M28.9704 35.8835H28.3724V32.2952C28.3724 31.4729 28.0733 30.7253 27.4753 30.1273L23.3637 26.0157C22.7656 25.4176 21.8685 25.1934 21.0462 25.3429V21.007C21.0462 19.6614 19.9249 18.54 18.5793 18.54C17.2337 18.54 16.1123 19.6614 16.1123 21.007V29.1555C16.1123 29.9778 16.4113 30.7253 17.0094 31.3234L20.822 35.136C20.9715 35.2855 20.9715 35.435 20.9715 35.5845V35.8835H20.3734C19.9996 35.8835 19.7754 36.1826 19.7754 36.4816V40.2942C19.7754 40.6679 20.0744 40.8922 20.3734 40.8922H28.8957C29.2694 40.8922 29.4937 40.5932 29.4937 40.2942V36.4816C29.5685 36.1078 29.3442 35.8835 28.9704 35.8835ZM17.9065 30.4263C17.5327 30.0525 17.3832 29.604 17.3832 29.1555V21.007C17.3832 20.3342 17.9065 19.8109 18.5793 19.8109C19.2521 19.8109 19.7754 20.3342 19.7754 21.007V26.0904C19.4016 26.539 19.1773 27.137 19.1773 27.7351C19.1773 28.4079 19.4016 29.0059 19.9249 29.4545L22.9899 32.5195C23.2142 32.7438 23.5879 32.7438 23.887 32.5195C24.1112 32.2952 24.1112 31.9214 23.887 31.6224L20.822 28.5574C20.5977 28.3331 20.4482 28.0341 20.4482 27.6603C20.4482 27.3613 20.5977 27.0623 20.822 26.7632C20.822 26.7632 20.822 26.7632 20.8967 26.6885C21.3453 26.2399 22.0928 26.24 22.5414 26.7632L26.653 30.8748C27.0267 31.2486 27.1763 31.6972 27.1763 32.1457V35.734H22.3171V35.5845C22.3171 35.136 22.0928 34.6127 21.7938 34.3136L17.9065 30.4263ZM28.3724 39.6961H21.0462V37.0796H28.3724V39.6961Z" fill="black"/>
<path d="M31.8113 9.64395C26.7278 9.64395 22.6162 13.7556 22.6162 18.839C22.6162 23.9224 26.7278 28.034 31.8113 28.034C36.8947 28.034 41.0063 23.9224 41.0063 18.839C41.0063 13.7556 36.8199 9.64395 31.8113 9.64395ZM31.8113 26.7632C27.4006 26.7632 23.8871 23.1749 23.8871 18.839C23.8871 14.5031 27.4754 10.9148 31.8113 10.9148C36.1471 10.9148 39.7354 14.5031 39.7354 18.839C39.7354 23.1749 36.1471 26.7632 31.8113 26.7632Z" fill="black"/>
<path d="M35.9974 13.606C34.4276 12.3351 32.3344 11.8118 30.316 12.2603C30.0169 12.3351 29.7927 12.6341 29.8674 13.0079C29.9422 13.3069 30.2412 13.5312 30.615 13.4564C32.2596 13.0827 33.979 13.4564 35.3246 14.5778C36.5955 15.6244 37.3431 17.1943 37.3431 18.8389C37.3431 21.9039 34.8761 24.3709 31.8111 24.3709C28.7461 24.3709 26.2791 21.9039 26.2791 18.8389C26.2791 17.9418 26.5034 17.0448 26.9519 16.2224C27.1014 15.9234 27.0267 15.5496 26.7276 15.4001C26.4286 15.2506 26.0548 15.3254 25.9053 15.6244C25.382 16.5962 25.083 17.7176 25.083 18.7641C25.083 22.502 28.0733 25.4922 31.8111 25.4922C35.5489 25.4922 38.5392 22.502 38.5392 18.7641C38.5392 16.7457 37.5673 14.8768 35.9974 13.606Z" fill="black"/>
</g>
<defs>
<clipPath id="clip0_46_2189">
<rect width="61.5245" height="47.9189" fill="white" transform="translate(0.936523 0.448792)"/>
</clipPath>
</defs>
</svg>
