<?xml version="1.0" encoding="utf-8"?>
<!-- Generator: Adobe Illustrator 21.1.0, SVG Export Plug-In . SVG Version: 6.00 Build 0)  -->
<svg version="1.1" id="Capa_1" xmlns="http://www.w3.org/2000/svg" xmlns:xlink="http://www.w3.org/1999/xlink" x="0px" y="0px"
	 viewBox="0 0 82.3 64.2" style="enable-background:new 0 0 82.3 64.2;" xml:space="preserve">
<style type="text/css">
	.st0{fill:#FB6C5A;}
</style>
<g>
	<circle class="st0" cx="27.1" cy="27" r="27"/>
	<circle class="st0" cx="68.1" cy="50" r="14"/>
</g>
<g>
	<g>
		<g>
			<path d="M58.8,22.9l-1-0.3c-0.3-0.1-0.5-0.1-0.8-0.1c-1.1,0-2.2,0.8-2.5,1.8L53.9,26v-1.3v-0.1c0-0.2-0.1-0.4-0.3-0.5L43.2,14.1
				c-0.1-0.1-0.3-0.2-0.4-0.2H22.3c-0.4,0-0.6,0.3-0.6,0.6v2h-2.4c-0.4,0-0.6,0.3-0.6,0.6v38.1c0,0.4,0.3,0.6,0.6,0.6h31
				c0.4,0,0.6-0.3,0.6-0.6v-2h2.4c0.4,0,0.6-0.3,0.6-0.6V44l1.8-2.4l0.1-0.2l4.8-15.2C61,24.8,60.2,23.4,58.8,22.9z M43.3,16l8.3,8
				h-8.3V16z M49.6,54.6H19.9V17.8h1.7v34.9c0,0.4,0.3,0.6,0.6,0.6h27.3L49.6,54.6L49.6,54.6z M52.7,52L52.7,52H22.9V15.1h19.2v9.5
				c0,0.4,0.3,0.6,0.6,0.6h9.9v4.8l-3,9.4v0.2l0.1,8.1c0,0.3,0.2,0.5,0.4,0.6c0.3,0.1,0.6,0,0.7-0.3l1.7-2.3L52.7,52L52.7,52z
				 M51,45.8l-0.1-5.3l3.2,1L51,45.8z M59.3,25.8l-4.6,14.6l-3.7-1.2l4.6-14.5c0.3-0.7,1-1.1,1.7-0.9l1,0.3
				C59.2,24.3,59.6,25.1,59.3,25.8z"/>
			<path d="M27.2,25.3h9.2c0.4,0,0.6-0.3,0.6-0.6v-6.5c0-0.4-0.3-0.6-0.6-0.6h-9.2c-0.4,0-0.6,0.3-0.6,0.6v6.5
				C26.6,25,26.9,25.3,27.2,25.3z M27.9,18.8h7.9v5.2h-7.9V18.8z"/>
			<path d="M26,31.3h19.4c0.4,0,0.6-0.3,0.6-0.6c0-0.4-0.3-0.6-0.6-0.6H26c-0.4,0-0.6,0.3-0.6,0.6C25.3,31.1,25.6,31.3,26,31.3z"/>
			<path d="M26,36h19.4c0.4,0,0.6-0.3,0.6-0.6c0-0.4-0.3-0.6-0.6-0.6H26c-0.4,0-0.6,0.3-0.6,0.6C25.3,35.7,25.6,36,26,36z"/>
			<path d="M26,40.6h19.4c0.4,0,0.6-0.3,0.6-0.6c0-0.4-0.3-0.6-0.6-0.6H26c-0.4,0-0.6,0.3-0.6,0.6C25.3,40.3,25.6,40.6,26,40.6z"/>
			<path d="M45.9,44.6c0-0.4-0.3-0.6-0.6-0.6H26c-0.4,0-0.6,0.3-0.6,0.6s0.3,0.6,0.6,0.6h19.4C45.6,45.2,45.9,44.9,45.9,44.6z"/>
			<path d="M48,48.6h-9.6c-0.4,0-0.6,0.3-0.6,0.6s0.3,0.6,0.6,0.6h9.6c0.4,0,0.6-0.3,0.6-0.6S48.3,48.6,48,48.6z"/>
		</g>
	</g>
</g>
</svg>
