<svg width="63" height="49" viewBox="0 0 63 49" fill="none" xmlns="http://www.w3.org/2000/svg">
<g clip-path="url(#clip0_46_2152)">
<path d="M21.196 41.3562C32.3434 41.3562 41.3802 32.3194 41.3802 21.172C41.3802 10.0245 32.3434 0.987744 21.196 0.987744C10.0485 0.987744 1.01172 10.0245 1.01172 21.172C1.01172 32.3194 10.0485 41.3562 21.196 41.3562Z" fill="#FB6C5A"/>
<path d="M51.8458 48.8317C57.6259 48.8317 62.3117 44.146 62.3117 38.3658C62.3117 32.5856 57.6259 27.8999 51.8458 27.8999C46.0656 27.8999 41.3799 32.5856 41.3799 38.3658C41.3799 44.146 46.0656 48.8317 51.8458 48.8317Z" fill="#FB6C5A"/>
<path d="M44.8933 18.107L44.1458 17.8827C43.9215 17.808 43.772 17.808 43.5477 17.808C42.7254 17.808 41.9031 18.406 41.6788 19.1536L41.2303 20.4244V19.4526V19.3778C41.2303 19.2283 41.1555 19.0788 41.006 19.0041L33.2313 11.5284C33.1566 11.4537 33.0071 11.3789 32.9323 11.3789H17.6072C17.3082 11.3789 17.1587 11.6032 17.1587 11.8275V13.3226H15.3646C15.0655 13.3226 14.916 13.5468 14.916 13.7711V42.2533C14.916 42.5523 15.1403 42.7019 15.3646 42.7019H38.539C38.8381 42.7019 38.9876 42.4776 38.9876 42.2533V40.7582H40.7817C41.0808 40.7582 41.2303 40.5339 41.2303 40.3096V33.8806L42.5759 32.0864L42.6506 31.9369L46.239 20.574C46.538 19.5274 45.9399 18.4808 44.8933 18.107ZM33.3061 12.9488L39.5109 18.9293H33.3061V12.9488ZM38.0157 41.8048H15.8131V14.2944H17.084V40.3844C17.084 40.6834 17.3082 40.8329 17.5325 40.8329H37.941L38.0157 41.8048ZM40.3332 39.8611H18.0558V12.276H32.409V19.3778C32.409 19.6769 32.6333 19.8264 32.8576 19.8264H40.2584V23.4147L38.0157 30.4418V30.5913L38.0905 36.6466C38.0905 36.8709 38.24 37.0204 38.3895 37.0951C38.6138 37.1699 38.8381 37.0951 38.9128 36.8708L40.1837 35.1515L40.3332 39.8611ZM39.0623 35.2262L38.9876 31.2641L41.3798 32.0117L39.0623 35.2262ZM45.2671 20.2749L41.8283 31.1894L39.0623 30.2923L42.5011 19.4526C42.7254 18.9293 43.2487 18.6303 43.772 18.7798L44.5196 19.0041C45.1924 19.1536 45.4914 19.7516 45.2671 20.2749Z" fill="black"/>
<path d="M21.2698 19.9011H28.1474C28.4464 19.9011 28.596 19.6769 28.596 19.4526V14.5934C28.596 14.2944 28.3717 14.1449 28.1474 14.1449H21.2698C20.9708 14.1449 20.8213 14.3692 20.8213 14.5934V19.4526C20.8213 19.6769 21.0456 19.9011 21.2698 19.9011ZM21.7931 15.042H27.6989V18.9293H21.7931V15.042Z" fill="black"/>
<path d="M20.3732 24.3865H34.8759C35.175 24.3865 35.3245 24.1622 35.3245 23.9379C35.3245 23.6389 35.1002 23.4894 34.8759 23.4894H20.3732C20.0742 23.4894 19.9246 23.7137 19.9246 23.9379C19.8499 24.2369 20.0742 24.3865 20.3732 24.3865Z" fill="black"/>
<path d="M20.3732 27.9H34.8759C35.175 27.9 35.3245 27.6757 35.3245 27.4515C35.3245 27.1524 35.1002 27.0029 34.8759 27.0029H20.3732C20.0742 27.0029 19.9246 27.2272 19.9246 27.4515C19.8499 27.6757 20.0742 27.9 20.3732 27.9Z" fill="black"/>
<path d="M20.3732 31.3388H34.8759C35.175 31.3388 35.3245 31.1145 35.3245 30.8903C35.3245 30.5912 35.1002 30.4417 34.8759 30.4417H20.3732C20.0742 30.4417 19.9246 30.666 19.9246 30.8903C19.8499 31.1145 20.0742 31.3388 20.3732 31.3388Z" fill="black"/>
<path d="M35.2499 34.3291C35.2499 34.0301 35.0256 33.8805 34.8013 33.8805H20.3733C20.0743 33.8805 19.9248 34.1048 19.9248 34.3291C19.9248 34.5534 20.1491 34.7776 20.3733 34.7776H34.8761C35.0256 34.7776 35.2499 34.5534 35.2499 34.3291Z" fill="black"/>
<path d="M36.8195 37.3194H29.6429C29.3439 37.3194 29.1943 37.5436 29.1943 37.7679C29.1943 37.9922 29.4186 38.2164 29.6429 38.2164H36.8195C37.1185 38.2164 37.268 37.9922 37.268 37.7679C37.268 37.5436 37.0438 37.3194 36.8195 37.3194Z" fill="black"/>
</g>
<defs>
<clipPath id="clip0_46_2152">
<rect width="61.5245" height="47.9936" fill="white" transform="translate(0.936523 0.987567)"/>
</clipPath>
</defs>
</svg>
