<?xml version="1.0" encoding="utf-8"?>
<!-- Generator: Adobe Illustrator 21.1.0, SVG Export Plug-In . SVG Version: 6.00 Build 0)  -->
<svg version="1.1" id="Layer_1" xmlns="http://www.w3.org/2000/svg" xmlns:xlink="http://www.w3.org/1999/xlink" x="0px" y="0px"
	 viewBox="0 0 512 512" style="enable-background:new 0 0 512 512;" xml:space="preserve">
<style type="text/css">
	.st0{fill:#3498DB;}
	.st1{fill:#FFFFFF;}
	.st2{fill:#BFBEBE;}
	.st3{fill:#F24026;}
</style>
<g>
	<path class="st0" d="M380.1,166.2h-56.8c-5.5,0-10-4.5-10-10V99.4c0-5.5,4.5-10,10-10h56.8c5.5,0,10,4.5,10,10v56.8
		C390.1,161.7,385.6,166.2,380.1,166.2z"/>
	<path class="st1" d="M380.1,295h-56.8c-5.5,0-10-4.5-10-10v-56.8c0-5.5,4.5-10,10-10h56.8c5.5,0,10,4.5,10,10V285
		C390.1,290.6,385.6,295,380.1,295z"/>
	<path class="st1" d="M380.1,423.9h-56.8c-5.5,0-10-4.5-10-10v-56.8c0-5.5,4.5-10,10-10h56.8c5.5,0,10,4.5,10,10v56.8
		C390.1,419.4,385.6,423.9,380.1,423.9z"/>
</g>
<rect x="74.3" y="11" class="st1" width="362.7" height="491.3"/>
<path class="st2" d="M127,497H84.5c-1.4,0-2.5-1.1-2.5-2.5V95.7c0-4.1-3.4-7.5-7.5-7.5S67,91.5,67,95.7v398.8
	c0,9.6,7.9,17.5,17.5,17.5H127c4.1,0,7.5-3.4,7.5-7.5S131.1,497,127,497z"/>
<path class="st2" d="M436.5,440.2c-4.1,0-7.5,3.4-7.5,7.5v46.8c0,1.4-1.1,2.5-2.5,2.5H159.3c-4.1,0-7.5,3.4-7.5,7.5s3.4,7.5,7.5,7.5
	h267.2c9.6,0,17.5-7.9,17.5-17.5v-46.8C444,443.5,440.6,440.2,436.5,440.2z"/>
<path class="st2" d="M426.5,0h-43.2c-4.1,0-7.5,3.4-7.5,7.5v15c0,4.1-3.4,7.5-7.5,7.5s-7.5-3.4-7.5-7.5v-15c0-4.1-3.4-7.5-7.5-7.5
	h-26.4c-4.1,0-7.5,3.4-7.5,7.5v15c0,4.1-3.4,7.5-7.5,7.5s-7.5-3.4-7.5-7.5v-15c0-4.1-3.4-7.5-7.5-7.5h-26.4c-4.1,0-7.5,3.4-7.5,7.5
	v15c0,4.1-3.4,7.5-7.5,7.5s-7.5-3.4-7.5-7.5v-15c0-4.1-3.4-7.5-7.5-7.5h-26.4c-4.1,0-7.5,3.4-7.5,7.5v15c0,4.1-3.4,7.5-7.5,7.5
	s-7.5-3.4-7.5-7.5v-15c0-4.1-3.4-7.5-7.5-7.5h-26.4c-4.1,0-7.5,3.4-7.5,7.5v15c0,4.1-3.4,7.5-7.5,7.5s-7.5-3.4-7.5-7.5v-15
	c0-4.1-3.4-7.5-7.5-7.5H84.5C74.9,0,67,7.9,67,17.5v46.2c0,4.1,3.4,7.5,7.5,7.5s7.5-3.4,7.5-7.5V17.5c0-1.4,1.1-2.5,2.5-2.5h35.7
	v7.5c0,12.4,10.1,22.5,22.5,22.5s22.5-10.1,22.5-22.5V15h11.4v7.5c0,12.4,10.1,22.5,22.5,22.5s22.5-10.1,22.5-22.5V15H233v7.5
	c0,12.4,10.1,22.5,22.5,22.5S278,34.9,278,22.5V15h11.4v7.5c0,12.4,10.1,22.5,22.5,22.5s22.5-10.1,22.5-22.5V15h11.4v7.5
	c0,12.4,10.1,22.5,22.5,22.5s22.5-10.1,22.5-22.5V15h35.7c1.4,0,2.5,1.1,2.5,2.5V416c0,4.1,3.4,7.5,7.5,7.5s7.5-3.4,7.5-7.5V17.5
	C444,7.9,436.1,0,426.5,0z"/>
<path class="st2" d="M396.6,93.7c-2.4-6.8-8.9-11.8-16.5-11.8h-56.8c-9.6,0-17.5,7.9-17.5,17.5v56.8c0,9.6,7.9,17.5,17.5,17.5h56.8
	c9.6,0,17.5-7.9,17.5-17.5V114 M382.6,129.2v27c0,1.4-1.1,2.5-2.5,2.5h-56.8c-1.4,0-2.5-1.1-2.5-2.5V99.4c0-1.4,1.1-2.5,2.5-2.5
	h56.8c1.4,0,2.5,1.1,2.5,2.5v8.5"/>
<path class="st2" d="M305.8,285c0,9.6,7.9,17.5,17.5,17.5h56.8c9.6,0,17.5-7.9,17.5-17.5v-56.8c0-9.6-7.9-17.5-17.5-17.5h-56.8
	c-9.6,0-17.5,7.9-17.5,17.5V285z M320.8,228.2c0-1.4,1.1-2.5,2.5-2.5h56.8c1.4,0,2.5,1.1,2.5,2.5V285c0,1.4-1.1,2.5-2.5,2.5h-56.8
	c-1.4,0-2.5-1.1-2.5-2.5V228.2z"/>
<path class="st2" d="M305.8,413.9c0,9.6,7.9,17.5,17.5,17.5h56.8c9.6,0,17.5-7.9,17.5-17.5v-56.8c0-9.6-7.9-17.5-17.5-17.5h-56.8
	c-9.6,0-17.5,7.9-17.5,17.5V413.9z M320.8,357.1c0-1.4,1.1-2.5,2.5-2.5h56.8c1.4,0,2.5,1.1,2.5,2.5v56.8c0,1.4-1.1,2.5-2.5,2.5
	h-56.8c-1.4,0-2.5-1.1-2.5-2.5V357.1z"/>
<path class="st3" d="M128.5,115.4h144c4.1,0,7.5-3.4,7.5-7.5s-3.4-7.5-7.5-7.5h-144c-4.1,0-7.5,3.4-7.5,7.5
	C121,112.1,124.4,115.4,128.5,115.4z"/>
<path class="st3" d="M128.5,155.4h144c4.1,0,7.5-3.4,7.5-7.5s-3.4-7.5-7.5-7.5h-144c-4.1,0-7.5,3.4-7.5,7.5
	C121,152.1,124.4,155.4,128.5,155.4z"/>
<path class="st3" d="M128.5,245.8h144c4.1,0,7.5-3.4,7.5-7.5s-3.4-7.5-7.5-7.5h-144c-4.1,0-7.5,3.4-7.5,7.5
	C121,242.5,124.4,245.8,128.5,245.8z"/>
<path class="st3" d="M128.5,285.8h144c4.1,0,7.5-3.4,7.5-7.5s-3.4-7.5-7.5-7.5h-144c-4.1,0-7.5,3.4-7.5,7.5
	C121,282.5,124.4,285.8,128.5,285.8z"/>
<path class="st3" d="M128.5,373.4h144c4.1,0,7.5-3.4,7.5-7.5s-3.4-7.5-7.5-7.5h-144c-4.1,0-7.5,3.4-7.5,7.5
	C121,370.1,124.4,373.4,128.5,373.4z"/>
<path class="st3" d="M128.5,413.4h144c4.1,0,7.5-3.4,7.5-7.5s-3.4-7.5-7.5-7.5h-144c-4.1,0-7.5,3.4-7.5,7.5
	C121,410.1,124.4,413.4,128.5,413.4z"/>
</svg>
