<svg width="250" height="149" viewBox="0 0 250 149" fill="none" xmlns="http://www.w3.org/2000/svg">
<g clip-path="url(#clip0_46_1403)">
<path d="M71.372 0.00732422H49.0762V30.7075H71.372V0.00732422Z" fill="#F5F5F5"/>
<path d="M65.7216 3.87329H43.4258V34.5735H65.7216V3.87329Z" fill="#E0E0E0"/>
<path d="M170.813 45.8552C170.813 45.8552 170.765 45.8589 170.669 45.8626C170.565 45.8626 170.425 45.8626 170.237 45.8701C169.849 45.8701 169.285 45.8775 168.558 45.8812C167.081 45.8849 164.944 45.8924 162.258 45.9035C156.865 45.9109 149.285 45.9221 140.515 45.9369H140.456L140.442 45.8812C139.991 44.3364 140.268 42.5241 141.272 41.139C142.276 39.7575 143.996 38.8774 145.771 38.922L145.69 39.0259C145.561 38.5729 145.498 38.0641 145.52 37.5554C145.586 35.8657 146.542 34.2317 148.011 33.4741C149.458 32.7054 151.248 32.7351 152.617 33.5001L152.507 33.541C153.289 31.6211 154.939 30.2322 156.725 29.586C158.519 28.9287 160.508 29.0178 162.073 29.8385C163.645 30.6481 164.764 32.0296 165.384 33.4779C166.018 34.9336 166.107 36.497 165.79 37.8413L165.731 37.7708C166.631 37.6705 167.498 37.8265 168.248 38.1347C168.997 38.4429 169.632 38.896 170.115 39.4233C170.355 39.6833 170.562 39.9692 170.702 40.27C170.842 40.5708 170.946 40.8753 171.016 41.1724C171.16 41.7666 171.211 42.3199 171.23 42.8175C171.263 43.8165 171.141 44.5852 171.034 45.0939C170.975 45.3465 170.923 45.5396 170.879 45.6658C170.835 45.7921 170.813 45.8552 170.813 45.8552Z" fill="#EBEBEB"/>
<path d="M228.786 31.2646C225.76 31.7696 223.712 34.6514 224.217 37.6965C224.719 40.7416 227.583 42.8027 230.61 42.2939C233.201 41.8594 235.068 39.6907 235.242 37.1655L236.766 36.9092L237.578 35.1861L238.766 36.575L240.674 36.2556L241.486 34.5325L242.675 35.9214L244.313 35.6466L244.808 34.5957L245.531 35.4424L246.487 35.2827L247.535 33.8864L245.738 31.8959L234.393 33.7935C233.234 31.9479 231.056 30.8821 228.783 31.2609L228.786 31.2646ZM225.694 37.4477C225.55 36.575 226.136 35.7469 227.004 35.6021C227.871 35.4572 228.694 36.0477 228.838 36.9204C228.982 37.7931 228.395 38.6212 227.528 38.766C226.661 38.9109 225.838 38.3204 225.694 37.4477Z" fill="#EBEBEB"/>
<path d="M223.151 73.9856L223.834 86.6453C223.86 87.0946 224.229 87.4511 224.675 87.4548L247.318 87.6219C247.787 87.6219 248.171 87.2468 248.174 86.7715L248.245 76.9157C248.245 76.4403 247.868 76.0541 247.396 76.0541L233.471 76.043C233.245 76.043 233.031 75.9539 232.869 75.7942L230.466 73.3766C230.308 73.2169 230.093 73.1278 229.872 73.1278L224 73.0833C223.509 73.0833 223.118 73.4917 223.144 73.9856H223.151Z" fill="#EBEBEB"/>
<path d="M248.264 74.5677L223.521 74.3853L223.413 89.2615L248.155 89.444L248.264 74.5677Z" fill="#F5F5F5"/>
<path d="M221.545 75.705L223.32 91.2315C223.353 91.5063 223.582 91.718 223.859 91.718L247.971 91.8962C248.255 91.8962 248.495 91.6808 248.521 91.3949L249.849 75.8907C249.875 75.5713 249.628 75.2965 249.31 75.2928L222.095 75.0923C221.766 75.0923 221.512 75.3782 221.549 75.705H221.545Z" fill="#EBEBEB"/>
<path d="M220.294 143.898C214.555 139.861 213.252 132.374 213.481 125.642C213.518 124.516 213.396 123.332 213.927 122.348C214.459 121.364 215.699 120.688 216.699 121.163C217.529 121.557 217.891 122.526 218.352 123.328C218.969 124.398 219.888 125.281 220.973 125.846C221.685 126.217 222.564 126.444 223.265 126.054C224.228 125.519 224.342 124.178 224.335 123.061C224.32 120.977 224.309 118.894 224.294 116.811C224.287 115.693 224.283 114.553 224.63 113.491C224.977 112.429 225.738 111.445 226.797 111.148C227.852 110.85 229.159 111.463 229.384 112.555C229.476 113.012 229.384 113.483 229.417 113.948C229.447 114.412 229.665 114.924 230.1 115.054C230.543 115.184 230.99 114.869 231.322 114.542C232.47 113.413 233.245 111.961 233.972 110.513C234.699 109.068 235.404 107.586 236.444 106.357C237.485 105.128 238.925 104.151 240.515 104.058C242.106 103.969 243.8 104.957 244.202 106.528C244.605 108.102 243.693 109.703 242.697 110.977C241.22 112.871 239.478 114.542 237.533 115.927C237.183 116.176 236.802 116.447 236.67 116.863C236.43 117.609 237.131 118.348 237.862 118.593C238.688 118.872 239.589 118.783 240.453 118.887C241.32 118.991 242.257 119.373 242.586 120.198C243.04 121.341 242.091 122.537 241.158 123.321C239.286 124.891 237.149 126.132 234.872 126.971C234.057 127.272 233.197 127.536 232.536 128.115C231.875 128.694 231.48 129.697 231.879 130.484C232.278 131.271 233.3 131.524 234.156 131.364C235.012 131.205 235.776 130.737 236.592 130.428C238.12 129.849 240.091 129.953 241.069 131.283C241.711 132.155 241.766 133.37 241.442 134.409C241.117 135.449 240.456 136.344 239.759 137.172C237.312 140.061 234.178 142.386 230.639 143.623C227.099 144.859 223.818 145.194 220.297 143.898" fill="#EBEBEB"/>
<path d="M220.205 148.889C220.449 146.222 221.028 143.073 222.021 139.675C223.006 136.277 224.39 132.642 225.974 128.891C226.372 127.955 226.767 127.03 227.155 126.117C227.542 125.207 227.93 124.305 228.362 123.447C229.218 121.727 230.17 120.138 231.122 118.656C232.075 117.175 233.03 115.804 233.935 114.53C234.843 113.257 235.71 112.087 236.544 111.055C238.209 108.982 239.748 107.471 240.844 106.479C241.39 105.982 241.829 105.61 242.128 105.362C242.272 105.243 242.386 105.15 242.471 105.079C242.549 105.016 242.589 104.987 242.593 104.99C242.593 104.99 242.56 105.027 242.486 105.098C242.405 105.172 242.294 105.269 242.158 105.395C241.866 105.655 241.438 106.034 240.899 106.543C239.821 107.553 238.304 109.072 236.655 111.151C235.828 112.187 234.968 113.361 234.071 114.634C233.174 115.912 232.222 117.286 231.277 118.764C230.332 120.242 229.388 121.828 228.535 123.54C228.107 124.394 227.727 125.289 227.336 126.199C226.948 127.108 226.557 128.033 226.158 128.969C224.579 132.716 223.191 136.34 222.198 139.723C221.202 143.106 220.607 146.237 220.345 148.896" fill="#E0E0E0"/>
<path d="M228.417 123.443C228.417 123.443 228.365 123.276 228.31 122.968C228.251 122.66 228.181 122.21 228.103 121.653C227.945 120.539 227.782 118.994 227.605 117.293C227.432 115.589 227.243 114.051 227.07 112.945C226.985 112.392 226.911 111.942 226.856 111.634C226.804 111.326 226.778 111.151 226.793 111.147C226.808 111.147 226.856 111.311 226.933 111.615C227.011 111.92 227.107 112.366 227.21 112.919C227.421 114.025 227.631 115.567 227.804 117.271C227.974 118.953 228.126 120.472 228.244 121.635C228.299 122.158 228.347 122.6 228.384 122.957C228.417 123.269 228.428 123.443 228.413 123.447L228.417 123.443Z" fill="#E0E0E0"/>
<path d="M242.697 120.758C242.697 120.758 242.494 120.795 242.128 120.825C241.763 120.858 241.231 120.903 240.578 120.977C239.272 121.118 237.47 121.378 235.496 121.753C233.521 122.132 231.75 122.548 230.48 122.89C229.842 123.057 229.329 123.202 228.974 123.302C228.62 123.402 228.421 123.454 228.417 123.439C228.413 123.424 228.602 123.35 228.952 123.224C229.299 123.101 229.808 122.931 230.443 122.745C231.709 122.366 233.481 121.924 235.463 121.545C237.441 121.17 239.253 120.933 240.567 120.829C241.224 120.769 241.759 120.747 242.128 120.74C242.497 120.732 242.7 120.74 242.7 120.751L242.697 120.758Z" fill="#E0E0E0"/>
<path d="M222.195 139.412C222.195 139.412 222.154 139.356 222.095 139.237C222.029 139.096 221.948 138.925 221.852 138.717C221.641 138.264 221.353 137.603 221.01 136.779C220.32 135.134 219.442 132.827 218.504 130.272C217.567 127.718 216.707 125.408 216.053 123.748C215.732 122.942 215.47 122.277 215.275 121.787C215.19 121.572 215.123 121.397 215.064 121.252C215.02 121.13 214.998 121.063 215.005 121.059C215.013 121.059 215.046 121.118 215.105 121.234C215.171 121.375 215.253 121.546 215.349 121.754C215.559 122.207 215.847 122.868 216.19 123.692C216.88 125.337 217.759 127.643 218.696 130.198C219.634 132.753 220.493 135.063 221.147 136.723C221.468 137.529 221.73 138.194 221.925 138.684C222.01 138.899 222.077 139.074 222.136 139.219C222.18 139.341 222.202 139.408 222.195 139.412Z" fill="#E0E0E0"/>
<path d="M241.172 133.258C241.172 133.258 241.11 133.291 240.984 133.336C240.837 133.384 240.652 133.447 240.434 133.522C239.925 133.689 239.238 133.912 238.401 134.183C236.684 134.743 234.322 135.542 231.717 136.433C229.107 137.321 226.738 138.101 225.011 138.624C224.147 138.888 223.446 139.092 222.959 139.222C222.733 139.281 222.549 139.33 222.398 139.371C222.268 139.404 222.198 139.415 222.198 139.408C222.198 139.4 222.261 139.374 222.386 139.33C222.534 139.281 222.715 139.218 222.936 139.144C223.446 138.977 224.132 138.754 224.97 138.483C226.686 137.922 229.048 137.124 231.658 136.233C234.267 135.345 236.636 134.565 238.364 134.042C239.227 133.778 239.929 133.574 240.416 133.444C240.641 133.384 240.825 133.336 240.977 133.295C241.106 133.262 241.176 133.251 241.176 133.258H241.172Z" fill="#E0E0E0"/>
<path d="M243.642 148.903C243.642 148.955 190.58 149 125.14 149C59.6989 149 6.62598 148.955 6.62598 148.903C6.62598 148.851 59.6768 148.807 125.14 148.807C190.602 148.807 243.642 148.851 243.642 148.903Z" fill="#263238"/>
<path d="M216.304 135.939C216.95 136.775 218.105 136.426 218.618 135.872C219.135 135.315 219.323 134.539 219.497 133.8C219.888 132.111 220.283 130.339 219.844 128.657C219.711 128.156 219.497 127.658 219.124 127.301C218.751 126.945 218.194 126.748 217.703 126.904C217.12 127.09 216.784 127.691 216.548 128.256C215.85 129.92 215.529 131.743 215.614 133.544C215.655 134.387 215.795 135.263 216.304 135.936" fill="#E8505B"/>
<g opacity="0.2">
<path d="M216.304 135.939C216.95 136.775 218.105 136.426 218.618 135.872C219.135 135.315 219.323 134.539 219.497 133.8C219.888 132.111 220.283 130.339 219.844 128.657C219.711 128.156 219.497 127.658 219.124 127.301C218.751 126.945 218.194 126.748 217.703 126.904C217.12 127.09 216.784 127.691 216.548 128.256C215.85 129.92 215.529 131.743 215.614 133.544C215.655 134.387 215.795 135.263 216.304 135.936" fill="black"/>
</g>
<path d="M218.777 140.203C219.737 139.642 220.892 139.515 221.992 139.642C222.582 139.709 223.202 139.853 223.627 140.277C224.047 140.7 224.162 141.476 223.723 141.881C223.461 142.122 223.084 142.174 222.73 142.189C221.873 142.223 220.918 142.119 220.261 142.672C219.884 142.988 219.652 143.493 219.194 143.66C218.744 143.823 218.216 143.582 217.954 143.177C217.692 142.776 217.659 142.26 217.747 141.784C217.747 141.784 217.814 140.763 218.781 140.195L218.777 140.203Z" fill="#E8505B"/>
<path d="M214.713 137.265C215.326 136.452 215.392 135.308 215.053 134.346C214.713 133.384 214.016 132.586 213.226 131.947C212.3 131.197 211.226 130.629 210.085 130.291C209.635 130.157 209.166 130.057 208.701 130.127C208.236 130.194 207.782 130.458 207.586 130.889C207.295 131.52 207.642 132.252 208.003 132.846C208.646 133.889 209.365 134.885 210.163 135.813C210.801 136.563 211.528 137.295 212.462 137.599C213.396 137.904 214.344 137.815 214.798 137.15" fill="#E8505B"/>
<path d="M216.921 148.981C216.921 148.981 216.943 148.84 216.954 148.584C216.969 148.298 216.984 147.934 217.002 147.507C217.028 147.054 217.069 146.512 217.164 145.921C217.26 145.331 217.423 144.689 217.641 144.035C217.866 143.385 218.154 142.791 218.497 142.308C218.84 141.825 219.246 141.465 219.637 141.25C220.025 141.031 220.379 140.934 220.623 140.886C220.87 140.849 221.01 140.819 221.01 140.808C221.01 140.797 220.87 140.8 220.615 140.823C220.364 140.852 219.995 140.938 219.582 141.149C219.169 141.357 218.737 141.725 218.375 142.219C218.013 142.713 217.714 143.318 217.486 143.983C217.264 144.648 217.105 145.298 217.017 145.899C216.928 146.501 216.902 147.047 216.888 147.503C216.877 147.96 216.884 148.328 216.888 148.584C216.895 148.84 216.906 148.981 216.917 148.981H216.921Z" fill="#263238"/>
<path d="M216.95 148.153C216.95 148.153 216.958 148.09 216.95 147.971C216.943 147.834 216.936 147.663 216.925 147.451C216.902 146.998 216.869 146.345 216.851 145.535C216.81 143.916 216.836 141.677 216.98 139.211C217.128 136.745 217.371 134.517 217.618 132.92C217.674 132.519 217.737 132.159 217.792 131.843C217.847 131.528 217.892 131.253 217.936 131.03C217.976 130.822 218.006 130.651 218.032 130.517C218.05 130.399 218.061 130.335 218.054 130.335C218.05 130.335 218.032 130.395 217.999 130.51C217.965 130.644 217.925 130.811 217.873 131.019C217.818 131.238 217.762 131.509 217.7 131.828C217.633 132.144 217.567 132.504 217.5 132.905C217.224 134.506 216.961 136.734 216.814 139.207C216.67 141.68 216.663 143.923 216.733 145.543C216.762 146.352 216.814 147.009 216.858 147.459C216.88 147.67 216.902 147.841 216.917 147.979C216.932 148.098 216.943 148.161 216.947 148.157L216.95 148.153Z" fill="#263238"/>
<path d="M216.744 143.834C216.744 143.834 216.744 143.641 216.714 143.288C216.677 142.939 216.603 142.438 216.474 141.822C216.338 141.209 216.157 140.481 215.891 139.697C215.633 138.906 215.293 138.06 214.869 137.198C214.038 135.468 212.961 134.071 212.038 133.221C211.82 132.994 211.584 132.835 211.392 132.675C211.293 132.601 211.204 132.523 211.119 132.463C211.03 132.408 210.949 132.356 210.872 132.311C210.573 132.129 210.407 132.033 210.403 132.04C210.377 132.077 211.071 132.441 211.964 133.303C212.854 134.164 213.906 135.553 214.729 137.269C215.149 138.119 215.489 138.962 215.755 139.742C216.028 140.518 216.22 141.238 216.367 141.844C216.511 142.453 216.6 142.95 216.655 143.292C216.703 143.637 216.736 143.831 216.747 143.827L216.744 143.834Z" fill="#263238"/>
<path d="M42.6729 65.541H0.945312V93.6602H42.6729V65.541Z" fill="#FAFAFA"/>
<path d="M31.3388 82.5974H30.2279V75.8684C30.2279 74.253 28.9214 72.9384 27.3159 72.9384C25.7104 72.9384 24.4039 74.253 24.4039 75.8684V82.5974H23.293V75.8684C23.293 73.6366 25.0977 71.8169 27.3196 71.8169C29.5414 71.8169 31.3462 73.6328 31.3462 75.8684V82.5974H31.3388Z" fill="#263238"/>
<path d="M31.5679 79.6006H23.0607C22.3697 79.6006 21.8096 80.1642 21.8096 80.8595V85.4495C21.8096 86.1447 22.3697 86.7084 23.0607 86.7084H31.5679C32.2589 86.7084 32.8191 86.1447 32.8191 85.4495V80.8595C32.8191 80.1642 32.2589 79.6006 31.5679 79.6006Z" fill="#263238"/>
<path d="M27.3126 83.1545C26.8032 83.1545 26.3936 82.7386 26.3936 82.2299C26.3936 81.7211 26.8069 81.3052 27.3126 81.3052C27.8182 81.3052 28.2315 81.7211 28.2315 82.2299C28.2315 82.7386 27.8182 83.1545 27.3126 83.1545Z" fill="#455A64"/>
<path d="M27.5635 82.5974H27.0615V84.5025H27.5635V82.5974Z" fill="#455A64"/>
<path d="M21.5364 82.5157C23.0828 81.8621 24.1826 80.2578 24.19 78.3676C24.2011 75.8906 22.3373 73.8742 20.0306 73.8667C17.7238 73.8556 15.8452 75.8535 15.8342 78.3305C15.8268 80.2392 16.934 81.8621 18.4952 82.5157C12.0659 83.4886 12.3575 90.5222 12.3575 90.5222L27.5597 90.5927C27.5597 90.5927 27.9066 83.4849 21.5327 82.5157H21.5364Z" fill="#E8505B"/>
<path d="M42.6732 93.6601C42.6732 93.6601 42.6695 93.4819 42.6658 93.1476C42.6658 92.806 42.6621 92.3121 42.6584 91.6622C42.6547 90.3588 42.6473 88.45 42.6399 86.0064C42.6289 81.1194 42.6178 74.1007 42.5993 65.5409L42.6769 65.6189C31.1765 65.6226 16.6718 65.63 0.95295 65.6374L1.04891 65.5409C1.04891 75.5601 1.04153 85.0855 1.04153 93.6601L0.95295 93.571C13.2321 93.5896 23.651 93.6044 31.0067 93.6156C34.6864 93.6267 37.5984 93.6341 39.5988 93.6378C40.5953 93.6416 41.3629 93.6453 41.8833 93.649C42.1417 93.649 42.3373 93.6527 42.4739 93.6527C42.6067 93.6527 42.6769 93.6564 42.6769 93.6564C42.6769 93.6564 42.6141 93.6564 42.4849 93.6601C42.3484 93.6601 42.1565 93.6601 41.9055 93.6638C41.3851 93.6638 40.6248 93.6713 39.6357 93.675C37.6427 93.6787 34.7381 93.6898 31.0658 93.6973C23.6953 93.7084 13.2579 93.7233 0.95295 93.7418H0.856991V93.6527C0.856991 85.0855 0.849609 75.5601 0.849609 65.5409V65.4443H0.945569C16.6645 65.4518 31.1691 65.4592 42.6695 65.4629H42.747V65.5409C42.7285 74.1193 42.7175 81.1565 42.7064 86.0547C42.699 88.4908 42.6916 90.3959 42.6879 91.6956C42.6842 92.3381 42.6805 92.8283 42.6805 93.1662C42.6805 93.4967 42.6732 93.6638 42.6732 93.6638V93.6601Z" fill="#263238"/>
<path d="M42.6619 68.9203C42.6619 68.9723 33.328 69.0168 21.8129 69.0168C10.2978 69.0168 0.963867 68.9723 0.963867 68.9203C0.963867 68.8683 10.2978 68.8237 21.8129 68.8237C33.328 68.8237 42.6619 68.8683 42.6619 68.9203Z" fill="#263238"/>
<path d="M3.69469 67.2343C3.69469 67.4757 3.50277 67.6688 3.26287 67.6688C3.02297 67.6688 2.83105 67.4757 2.83105 67.2343C2.83105 66.9929 3.02297 66.7998 3.26287 66.7998C3.50277 66.7998 3.69469 66.9929 3.69469 67.2343Z" fill="#263238"/>
<path d="M5.10485 67.2343C5.10485 67.4757 4.91293 67.6688 4.67303 67.6688C4.43313 67.6688 4.24121 67.4757 4.24121 67.2343C4.24121 66.9929 4.43313 66.7998 4.67303 66.7998C4.91293 66.7998 5.10485 66.9929 5.10485 67.2343Z" fill="#263238"/>
<path d="M6.62535 67.2343C6.62535 67.4757 6.43343 67.6688 6.19354 67.6688C5.95364 67.6688 5.76172 67.4757 5.76172 67.2343C5.76172 66.9929 5.95364 66.7998 6.19354 66.7998C6.43343 66.7998 6.62535 66.9929 6.62535 67.2343Z" fill="#263238"/>
<path d="M42.6732 93.6601C42.6732 93.6601 42.6695 93.4819 42.6658 93.1476C42.6658 92.806 42.6621 92.3121 42.6584 91.6622C42.6547 90.3588 42.6473 88.45 42.6399 86.0064C42.6289 81.1194 42.6178 74.1007 42.5993 65.5409L42.6769 65.6189C31.1765 65.6226 16.6718 65.63 0.95295 65.6374L1.04891 65.5409C1.04891 75.5601 1.04153 85.0855 1.04153 93.6601L0.95295 93.571C13.2321 93.5896 23.651 93.6044 31.0067 93.6156C34.6864 93.6267 37.5984 93.6341 39.5988 93.6378C40.5953 93.6416 41.3629 93.6453 41.8833 93.649C42.1417 93.649 42.3373 93.6527 42.4739 93.6527C42.6067 93.6527 42.6769 93.6564 42.6769 93.6564C42.6769 93.6564 42.6141 93.6564 42.4849 93.6601C42.3484 93.6601 42.1565 93.6601 41.9055 93.6638C41.3851 93.6638 40.6248 93.6713 39.6357 93.675C37.6427 93.6787 34.7381 93.6898 31.0658 93.6973C23.6953 93.7084 13.2579 93.7233 0.95295 93.7418H0.856991V93.6527C0.856991 85.0855 0.849609 75.5601 0.849609 65.5409V65.4443H0.945569C16.6645 65.4518 31.1691 65.4592 42.6695 65.4629H42.747V65.5409C42.7285 74.1193 42.7175 81.1565 42.7064 86.0547C42.699 88.4908 42.6916 90.3959 42.6879 91.6956C42.6842 92.3381 42.6805 92.8283 42.6805 93.1662C42.6805 93.4967 42.6732 93.6638 42.6732 93.6638V93.6601Z" fill="#263238"/>
<path d="M21.5403 94.5886C21.4886 94.5886 21.4443 94.3806 21.4443 94.1244C21.4443 93.8681 21.4886 93.6602 21.5403 93.6602C21.592 93.6602 21.6363 93.8681 21.6363 94.1244C21.6363 94.3806 21.592 94.5886 21.5403 94.5886Z" fill="#263238"/>
<path d="M21.5403 98.6549C21.4886 98.6549 21.4443 98.2019 21.4443 97.6374C21.4443 97.0729 21.4886 96.6199 21.5403 96.6199C21.592 96.6199 21.6363 97.0729 21.6363 97.6374C21.6363 98.2019 21.592 98.6549 21.5403 98.6549Z" fill="#263238"/>
<path d="M21.5403 102.718C21.4886 102.718 21.4443 102.265 21.4443 101.7C21.4443 101.136 21.4886 100.683 21.5403 100.683C21.592 100.683 21.6363 101.136 21.6363 101.7C21.6363 102.265 21.592 102.718 21.5403 102.718Z" fill="#263238"/>
<path d="M21.5403 106.78C21.4886 106.78 21.4443 106.327 21.4443 105.767C21.4443 105.206 21.4886 104.749 21.5403 104.749C21.592 104.749 21.6363 105.202 21.6363 105.767C21.6363 106.331 21.592 106.78 21.5403 106.78Z" fill="#263238"/>
<path d="M21.5403 110.843C21.4886 110.843 21.4443 110.39 21.4443 109.825C21.4443 109.261 21.4886 108.808 21.5403 108.808C21.592 108.808 21.6363 109.261 21.6363 109.825C21.6363 110.39 21.592 110.843 21.5403 110.843Z" fill="#263238"/>
<path d="M22.4627 113.803C22.4627 113.855 22.0493 113.899 21.54 113.899C21.3481 113.706 21.4883 113.847 21.444 113.803V113.791V113.78V113.758V113.71V113.617C21.444 113.561 21.4477 113.506 21.4514 113.442C21.4551 113.331 21.4625 113.231 21.4735 113.149C21.492 112.982 21.5141 112.878 21.54 112.878C21.5658 112.878 21.5916 112.982 21.6064 113.149C21.6138 113.234 21.6212 113.335 21.6286 113.442C21.6286 113.506 21.6322 113.561 21.6359 113.617V113.71V113.758V113.78V113.791V113.799V113.806C21.5916 113.762 21.7319 113.903 21.54 113.71C22.0493 113.71 22.4627 113.754 22.4627 113.806V113.803Z" fill="#263238"/>
<path d="M26.0903 113.803C26.0903 113.855 25.6843 113.899 25.1823 113.899C24.6804 113.899 24.2744 113.855 24.2744 113.803C24.2744 113.751 24.6804 113.706 25.1823 113.706C25.6843 113.706 26.0903 113.751 26.0903 113.803Z" fill="#263238"/>
<path d="M29.7153 113.803C29.7153 113.855 29.3093 113.899 28.8073 113.899C28.3054 113.899 27.8994 113.855 27.8994 113.803C27.8994 113.751 28.3054 113.706 28.8073 113.706C29.3093 113.706 29.7153 113.751 29.7153 113.803Z" fill="#263238"/>
<path d="M33.3432 113.803C33.3432 113.855 32.9372 113.899 32.4353 113.899C31.9333 113.899 31.5273 113.855 31.5273 113.803C31.5273 113.751 31.9333 113.706 32.4353 113.706C32.9372 113.706 33.3432 113.751 33.3432 113.803Z" fill="#263238"/>
<path d="M36.9711 113.803C36.9711 113.855 36.5651 113.899 36.0632 113.899C35.5613 113.899 35.1553 113.855 35.1553 113.803C35.1553 113.751 35.5613 113.706 36.0632 113.706C36.5651 113.706 36.9711 113.751 36.9711 113.803Z" fill="#263238"/>
<path d="M40.5951 113.803C40.5951 113.855 40.1892 113.899 39.6872 113.899C39.1853 113.899 38.7793 113.855 38.7793 113.803C38.7793 113.751 39.1853 113.706 39.6872 113.706C40.1892 113.706 40.5951 113.751 40.5951 113.803Z" fill="#263238"/>
<path d="M44.2231 113.803C44.2231 113.855 43.8171 113.899 43.3152 113.899C42.8132 113.899 42.4072 113.855 42.4072 113.803C42.4072 113.751 42.8132 113.706 43.3152 113.706C43.8171 113.706 44.2231 113.751 44.2231 113.803Z" fill="#263238"/>
<path d="M47.851 113.803C47.851 113.855 47.445 113.899 46.9431 113.899C46.4411 113.899 46.0352 113.855 46.0352 113.803C46.0352 113.751 46.4411 113.706 46.9431 113.706C47.445 113.706 47.851 113.751 47.851 113.803Z" fill="#263238"/>
<path d="M51.476 113.803C51.476 113.855 51.07 113.899 50.5681 113.899C50.0661 113.899 49.6602 113.855 49.6602 113.803C49.6602 113.751 50.0661 113.706 50.5681 113.706C51.07 113.706 51.476 113.751 51.476 113.803Z" fill="#263238"/>
<path d="M55.1039 113.803C55.1039 113.855 54.6979 113.899 54.196 113.899C53.6941 113.899 53.2881 113.855 53.2881 113.803C53.2881 113.751 53.6941 113.706 54.196 113.706C54.6979 113.706 55.1039 113.751 55.1039 113.803Z" fill="#263238"/>
<path d="M58.7319 113.803C58.7319 113.855 58.3259 113.899 57.8239 113.899C57.322 113.899 56.916 113.855 56.916 113.803C56.916 113.751 57.322 113.706 57.8239 113.706C58.3259 113.706 58.7319 113.751 58.7319 113.803Z" fill="#263238"/>
<path d="M61.4666 113.803C61.4666 113.855 61.26 113.899 61.0053 113.899C60.7506 113.899 60.5439 113.855 60.5439 113.803C60.5439 113.751 60.7506 113.706 61.0053 113.706C61.26 113.706 61.4666 113.751 61.4666 113.803Z" fill="#263238"/>
<path d="M61.8983 8.5896H39.6025V39.2898H61.8983V8.5896Z" fill="white"/>
<path d="M61.9126 39.2822C61.9126 39.2822 61.9089 39.2302 61.9052 39.13C61.9052 39.026 61.9052 38.8812 61.8979 38.6955C61.8979 38.3056 61.8905 37.7448 61.8831 37.0169C61.8757 35.5464 61.8646 33.4111 61.8499 30.7113C61.8351 25.308 61.8093 17.6469 61.7834 8.57835L61.8831 8.67861C55.1696 8.68604 47.5851 8.69718 39.5873 8.70461L39.698 8.5932C39.698 20.0607 39.698 30.6779 39.698 39.2934L39.6057 39.2005C46.3487 39.2154 51.9107 39.2265 55.7971 39.2377C57.7384 39.2451 59.259 39.2525 60.3034 39.2562C60.8202 39.2599 61.2151 39.2637 61.4919 39.2674C61.7613 39.2674 61.9052 39.2785 61.9052 39.2785C61.9052 39.2785 61.7761 39.2859 61.5103 39.2897C61.2372 39.2897 60.846 39.2971 60.3404 39.3008C59.2996 39.3082 57.7864 39.3157 55.8561 39.3268C51.9587 39.3416 46.3746 39.3602 39.6094 39.3862H39.5172V39.2934C39.5061 30.6779 39.4913 20.0607 39.4766 8.5932V8.48179H39.5873C47.5851 8.48179 55.1659 8.47808 61.8831 8.47437H61.9827V8.57463C61.968 17.6692 61.9569 25.3526 61.9495 30.7707C61.9385 33.4631 61.9311 35.5909 61.9274 37.0541C61.9237 37.7745 61.92 38.3278 61.9163 38.7103C61.9163 38.8923 61.9126 39.0297 61.9089 39.1337C61.9089 39.2265 61.9052 39.2748 61.9015 39.2748L61.9126 39.2822Z" fill="#263238"/>
<path d="M53.2325 14.7578C53.2325 14.821 50.8077 14.873 47.8145 14.873C44.8213 14.873 42.3965 14.8284 42.3965 14.7653C42.3965 14.7021 44.8213 14.6501 47.8145 14.6501C50.8077 14.6501 53.2325 14.6947 53.2325 14.7578Z" fill="#263238"/>
<path d="M59.0973 17.4204C59.0973 17.4836 55.3586 17.5356 50.7489 17.5393C46.1391 17.5393 42.4004 17.4947 42.4004 17.4316C42.4004 17.3684 46.1391 17.3165 50.7489 17.3127C55.3586 17.3127 59.0973 17.3573 59.0973 17.4204Z" fill="#263238"/>
<path d="M59.0973 20.2019C59.0973 20.2651 55.3586 20.3171 50.7489 20.3208C46.1391 20.3208 42.4004 20.2762 42.4004 20.2131C42.4004 20.1499 46.1391 20.098 50.7489 20.0942C55.3586 20.0942 59.0973 20.1388 59.0973 20.2019Z" fill="#263238"/>
<path d="M59.1003 22.9871C59.1003 23.0502 55.3615 23.1022 50.7518 23.1059C46.1421 23.1059 42.4033 23.0614 42.4033 22.9982C42.4033 22.9351 46.1421 22.8831 50.7518 22.8794C55.3615 22.8794 59.1003 22.924 59.1003 22.9871Z" fill="#263238"/>
<path d="M59.1003 25.7686C59.1003 25.8317 55.3615 25.8837 50.7518 25.8874C46.1421 25.8874 42.4033 25.8429 42.4033 25.7797C42.4033 25.7166 46.1421 25.6646 50.7518 25.6609C55.3615 25.6609 59.1003 25.7055 59.1003 25.7686Z" fill="#263238"/>
<path d="M59.1042 28.5537C59.1042 28.6169 55.3654 28.6689 50.7557 28.6726C46.146 28.6726 42.4072 28.628 42.4072 28.5649C42.4072 28.5017 46.146 28.4498 50.7557 28.446C55.3654 28.446 59.1042 28.4906 59.1042 28.5537Z" fill="#263238"/>
<path d="M59.1042 31.3352C59.1042 31.3984 55.3654 31.4504 50.7557 31.4541C46.146 31.4541 42.4072 31.4095 42.4072 31.3464C42.4072 31.2832 46.146 31.2313 50.7557 31.2275C55.3654 31.2275 59.1042 31.2721 59.1042 31.3352Z" fill="#263238"/>
<path d="M51.387 34.1241C51.387 34.1872 49.3793 34.2392 46.8991 34.2392C44.4189 34.2392 42.4111 34.1909 42.4111 34.1315C42.4111 34.0683 44.4189 34.0164 46.8991 34.0164C49.3756 34.0164 51.387 34.0646 51.387 34.1241Z" fill="#263238"/>
<path d="M59.9602 41.514C62.4612 41.514 64.4887 39.474 64.4887 36.9574C64.4887 34.4409 62.4612 32.4009 59.9602 32.4009C57.4591 32.4009 55.4316 34.4409 55.4316 36.9574C55.4316 39.474 57.4591 41.514 59.9602 41.514Z" fill="#E8505B"/>
<path d="M62.5585 35.1973C62.7541 35.3793 61.8647 36.6568 60.5729 38.0456C60.3662 38.2685 60.1595 38.4839 59.9639 38.677L59.6502 38.9889L59.3402 38.7252C58.2145 37.7746 57.4764 36.9576 57.6129 36.7793C57.7495 36.6011 58.7164 37.121 59.9122 37.9862L59.2885 38.0345C59.4694 37.8265 59.665 37.6037 59.8753 37.3809C61.1671 35.992 62.3703 35.0117 62.5659 35.1936L62.5585 35.1973Z" fill="#E0E0E0"/>
<path d="M49.0657 40.9608C49.014 40.9608 48.9697 40.5449 48.9697 40.0324C48.9697 39.5199 49.014 39.104 49.0657 39.104C49.1174 39.104 49.1616 39.5199 49.1616 40.0324C49.1616 40.5449 49.1174 40.9608 49.0657 40.9608Z" fill="#263238"/>
<path d="M49.0657 44.6744C49.014 44.6744 48.9697 44.2585 48.9697 43.746C48.9697 43.2335 49.014 42.8176 49.0657 42.8176C49.1174 42.8176 49.1616 43.2335 49.1616 43.746C49.1616 44.2585 49.1174 44.6744 49.0657 44.6744Z" fill="#263238"/>
<path d="M49.0657 48.388C49.014 48.388 48.9697 47.9721 48.9697 47.4596C48.9697 46.9472 49.014 46.5312 49.0657 46.5312C49.1174 46.5312 49.1616 46.9472 49.1616 47.4596C49.1616 47.9721 49.1174 48.388 49.0657 48.388Z" fill="#263238"/>
<path d="M49.0657 52.1014C49.014 52.1014 48.9697 51.6855 48.9697 51.173C48.9697 50.6605 49.014 50.2446 49.0657 50.2446C49.1174 50.2446 49.1616 50.6605 49.1616 51.173C49.1616 51.6855 49.1174 52.1014 49.0657 52.1014Z" fill="#263238"/>
<path d="M49.0657 55.815C49.014 55.815 48.9697 55.3991 48.9697 54.8866C48.9697 54.3742 49.014 53.9583 49.0657 53.9583C49.1174 53.9583 49.1616 54.3742 49.1616 54.8866C49.1616 55.3991 49.1174 55.815 49.0657 55.815Z" fill="#263238"/>
<path d="M49.0657 59.5287C49.014 59.5287 48.9697 59.1127 48.9697 58.6003C48.9697 58.0878 49.014 57.6719 49.0657 57.6719C49.1174 57.6719 49.1616 58.0878 49.1616 58.6003C49.1616 59.1127 49.1174 59.5287 49.0657 59.5287Z" fill="#263238"/>
<path d="M49.0657 63.2423C49.014 63.2423 48.9697 62.8264 48.9697 62.3139C48.9697 61.8014 49.014 61.3855 49.0657 61.3855C49.1174 61.3855 49.1616 61.8014 49.1616 62.3139C49.1616 62.8264 49.1174 63.2423 49.0657 63.2423Z" fill="#263238"/>
<path d="M49.0657 66.9559C49.014 66.9559 48.9697 66.54 48.9697 66.0275C48.9697 65.515 49.014 65.0991 49.0657 65.0991C49.1174 65.0991 49.1616 65.515 49.1616 66.0275C49.1616 66.54 49.1174 66.9559 49.0657 66.9559Z" fill="#263238"/>
<path d="M50.8447 68.8795C50.8447 68.9315 50.4314 68.9761 49.922 68.9761C49.5308 68.9761 49.1949 68.9501 49.0621 68.9129L49.0215 68.9018L49.0289 68.8795C49.0399 68.8387 49.051 68.8164 49.0621 68.8164C49.0732 68.8164 49.0879 68.8387 49.0953 68.8795L49.0621 68.8461C49.1949 68.809 49.5271 68.783 49.922 68.783C50.4314 68.783 50.8447 68.8275 50.8447 68.8795Z" fill="#263238"/>
<path d="M54.5348 68.8795C54.5348 68.9315 54.1215 68.9761 53.6121 68.9761C53.1028 68.9761 52.6895 68.9315 52.6895 68.8795C52.6895 68.8275 53.1028 68.783 53.6121 68.783C54.1215 68.783 54.5348 68.8275 54.5348 68.8795Z" fill="#263238"/>
<path d="M58.2262 68.8795C58.2262 68.9315 57.8129 68.9761 57.3035 68.9761C56.7942 68.9761 56.3809 68.9315 56.3809 68.8795C56.3809 68.8275 56.7942 68.783 57.3035 68.783C57.8129 68.783 58.2262 68.8275 58.2262 68.8795Z" fill="#263238"/>
<path d="M61.9167 68.8795C61.9167 68.9315 61.5033 68.9761 60.994 68.9761C60.4847 68.9761 60.0713 68.9315 60.0713 68.8795C60.0713 68.8275 60.4847 68.783 60.994 68.783C61.5033 68.783 61.9167 68.8275 61.9167 68.8795Z" fill="#263238"/>
<path d="M65.6071 68.8795C65.6071 68.9315 65.1937 68.9761 64.6844 68.9761C64.1751 68.9761 63.7617 68.9315 63.7617 68.8795C63.7617 68.8275 64.1751 68.783 64.6844 68.783C65.1937 68.783 65.6071 68.8275 65.6071 68.8795Z" fill="#263238"/>
<path d="M127.08 35.2865C127.029 35.2865 126.984 34.8706 126.984 34.3581C126.984 33.8456 127.029 33.4297 127.08 33.4297C127.132 33.4297 127.176 33.8456 127.176 34.3581C127.176 34.8706 127.132 35.2865 127.08 35.2865Z" fill="#263238"/>
<path d="M127.08 39.0001C127.029 39.0001 126.984 38.5842 126.984 38.0717C126.984 37.5592 127.029 37.1433 127.08 37.1433C127.132 37.1433 127.176 37.5592 127.176 38.0717C127.176 38.5842 127.132 39.0001 127.08 39.0001Z" fill="#263238"/>
<path d="M127.08 42.7137C127.029 42.7137 126.984 42.2978 126.984 41.7853C126.984 41.2729 127.029 40.8569 127.08 40.8569C127.132 40.8569 127.176 41.2729 127.176 41.7853C127.176 42.2978 127.132 42.7137 127.08 42.7137Z" fill="#263238"/>
<path d="M127.08 46.4234C127.029 46.4234 126.984 46.0075 126.984 45.495C126.984 44.9826 127.029 44.5667 127.08 44.5667C127.132 44.5667 127.176 44.9826 127.176 45.495C127.176 46.0075 127.132 46.4234 127.08 46.4234Z" fill="#263238"/>
<path d="M127.08 50.1371C127.029 50.1371 126.984 49.7211 126.984 49.2087C126.984 48.6962 127.029 48.2803 127.08 48.2803C127.132 48.2803 127.176 48.6962 127.176 49.2087C127.176 49.7211 127.132 50.1371 127.08 50.1371Z" fill="#263238"/>
<path d="M127.08 53.8543C127.029 53.8543 126.984 53.4384 126.984 52.926C126.984 52.4135 127.029 51.9976 127.08 51.9976C127.132 51.9976 127.176 52.4135 127.176 52.926C127.176 53.4384 127.132 53.8543 127.08 53.8543Z" fill="#263238"/>
<path d="M127.08 57.568C127.029 57.568 126.984 57.1521 126.984 56.6396C126.984 56.1271 127.029 55.7112 127.08 55.7112C127.132 55.7112 127.176 56.1271 127.176 56.6396C127.176 57.1521 127.132 57.568 127.08 57.568Z" fill="#263238"/>
<path d="M127.08 61.2816C127.029 61.2816 126.984 60.8657 126.984 60.3532C126.984 59.8407 127.029 59.4248 127.08 59.4248C127.132 59.4248 127.176 59.8407 127.176 60.3532C127.176 60.8657 127.132 61.2816 127.08 61.2816Z" fill="#263238"/>
<path d="M152.144 37.6705C152.144 37.6705 152.074 37.6779 151.927 37.6779C151.772 37.6779 151.554 37.6816 151.273 37.6853C150.687 37.689 149.834 37.6965 148.731 37.7039C146.498 37.7113 143.257 37.7225 139.194 37.7373C131.03 37.7484 119.551 37.767 106.276 37.7893H106.187L106.161 37.7039C105.479 35.3643 105.896 32.62 107.42 30.5218C108.937 28.4311 111.546 27.0979 114.233 27.1685L114.111 27.3281C113.916 26.6448 113.823 25.8724 113.857 25.1037C113.96 22.545 115.403 20.0718 117.625 18.9243C119.817 17.7582 122.523 17.8028 124.6 18.9614L124.431 19.0209C125.615 16.1168 128.11 14.0112 130.819 13.0346C133.536 12.043 136.547 12.173 138.917 13.4171C141.297 14.6425 142.991 16.7333 143.929 18.928C144.892 21.1339 145.025 23.5032 144.545 25.5345L144.453 25.4305C145.815 25.2782 147.132 25.5159 148.262 25.9801C149.395 26.448 150.358 27.135 151.089 27.9297C151.454 28.3271 151.768 28.7542 151.978 29.2146C152.189 29.6714 152.347 30.1319 152.451 30.5775C152.669 31.4762 152.75 32.3155 152.776 33.0693C152.824 34.5808 152.643 35.7431 152.48 36.5155C152.392 36.9018 152.314 37.1914 152.244 37.3845C152.178 37.5776 152.141 37.6667 152.141 37.6667" fill="#E8505B"/>
<path d="M147.967 24.9515H146.546V16.3508C146.546 14.2861 144.874 12.6038 142.822 12.6038C140.77 12.6038 139.098 14.2861 139.098 16.3508V24.9515H137.677V16.3508C137.677 13.4951 139.983 11.1741 142.822 11.1741C145.66 11.1741 147.967 13.4951 147.967 16.3508V24.9515Z" fill="#E0E0E0"/>
<path d="M148.605 21.1228H137.038C136.347 21.1228 135.787 21.6864 135.787 22.3817V28.9473C135.787 29.6426 136.347 30.2062 137.038 30.2062H148.605C149.296 30.2062 149.856 29.6426 149.856 28.9473V22.3817C149.856 21.6864 149.296 21.1228 148.605 21.1228Z" fill="#E0E0E0"/>
<path d="M142.822 25.6647C142.172 25.6647 141.645 25.1336 141.645 24.48C141.645 23.8265 142.172 23.2954 142.822 23.2954C143.471 23.2954 143.999 23.8265 143.999 24.48C143.999 25.1336 143.471 25.6647 142.822 25.6647Z" fill="#455A64"/>
<path d="M143.143 24.9517H142.501V27.3841H143.143V24.9517Z" fill="#455A64"/>
<path d="M229.329 22.0958C232.437 19.1769 232.607 14.2787 229.706 11.1519C226.805 8.02506 221.937 7.85423 218.829 10.7731C216.172 13.2686 215.666 17.2125 217.386 20.2613L215.821 21.7319L216.194 24.3462L213.766 23.6592L211.806 25.4975L212.179 28.1118L209.75 27.4248L208.067 29.0068L208.296 30.5999L206.816 30.184L205.834 31.105L205.687 33.5262L209.278 34.436L220.929 23.4995C223.672 24.7362 226.997 24.2868 229.333 22.0958H229.329ZM228.193 12.5742C229.023 13.4729 228.975 14.8766 228.086 15.7159C227.193 16.5514 225.797 16.5032 224.963 15.6082C224.133 14.7095 224.181 13.3058 225.07 12.4702C225.964 11.6347 227.359 11.6829 228.189 12.5779L228.193 12.5742Z" fill="#263238"/>
<path d="M228.188 12.5742C228.188 12.5742 228.044 12.4405 227.749 12.2548C227.461 12.0766 226.97 11.8797 226.361 11.9466C225.764 12.0023 225.051 12.3885 224.689 13.1164C224.317 13.8219 224.391 14.8543 225.029 15.5339C225.66 16.2246 226.679 16.3695 227.402 16.0464C228.148 15.7344 228.583 15.0474 228.679 14.4495C228.79 13.8405 228.628 13.3355 228.473 13.0347C228.314 12.7264 228.174 12.5853 228.188 12.5742C228.192 12.5705 228.229 12.6039 228.295 12.6707C228.362 12.7376 228.447 12.8453 228.539 13.0012C228.72 13.302 228.915 13.8257 228.816 14.4755C228.731 15.1143 228.281 15.8644 227.472 16.2135C227.077 16.388 226.609 16.4549 226.147 16.362C225.682 16.2803 225.232 16.0352 224.889 15.6713C224.553 15.2999 224.339 14.832 224.291 14.3604C224.236 13.8888 224.331 13.4209 224.531 13.0384C224.929 12.2548 225.708 11.8537 226.347 11.8129C226.996 11.7572 227.506 11.9874 227.79 12.1917C227.937 12.2919 228.037 12.3885 228.1 12.4591C228.162 12.5296 228.192 12.5668 228.188 12.5705V12.5742Z" fill="#263238"/>
<path d="M229.329 22.0959C229.329 22.0959 229.292 22.133 229.218 22.2036C229.137 22.2779 229.026 22.3781 228.878 22.5081C228.561 22.7532 228.089 23.1208 227.387 23.4625C226.69 23.7967 225.771 24.1086 224.653 24.2015C223.538 24.2869 222.22 24.1421 220.899 23.5553L220.962 23.5442C217.958 26.3739 213.964 30.1358 209.332 34.503L209.299 34.5364L209.255 34.5252C208.129 34.2393 206.911 33.9348 205.664 33.6191L205.59 33.6006V33.5263C205.638 32.7724 205.69 31.9443 205.737 31.105V31.0679L205.767 31.0419C206.07 30.756 206.409 30.4403 206.745 30.1209L206.782 30.0838L206.834 30.0987C207.295 30.2286 207.804 30.3697 208.314 30.5146L208.196 30.6186C208.125 30.1209 208.044 29.575 207.967 29.0254L207.959 28.9772L207.996 28.9437C208.524 28.4461 209.1 27.9076 209.679 27.3617L209.72 27.3246L209.771 27.3395C210.539 27.5549 211.366 27.7888 212.2 28.0228L212.078 28.1305C211.96 27.3023 211.831 26.4111 211.705 25.5161L211.698 25.4678L211.735 25.4344C211.897 25.2821 212.078 25.115 212.255 24.9479C212.739 24.4949 213.219 24.0455 213.695 23.5962L213.735 23.559L213.787 23.5739C214.603 23.8041 215.415 24.0344 216.216 24.2609L216.094 24.3686C215.968 23.4885 215.843 22.6158 215.721 21.7542L215.714 21.706L215.75 21.6725C216.278 21.1786 216.799 20.6884 217.315 20.202L217.297 20.3171C216.692 19.2216 216.341 18.0035 216.297 16.7929C216.271 16.1876 216.308 15.586 216.426 14.9992C216.526 14.4125 216.714 13.8517 216.939 13.3133C217.862 11.1631 219.725 9.61454 221.722 8.99066C223.73 8.34821 225.837 8.60445 227.483 9.42886C229.155 10.2384 230.336 11.605 231.026 12.9902C231.698 14.3976 231.898 15.8385 231.783 17.0566C231.683 18.282 231.318 19.2884 230.919 20.0386C230.871 20.1314 230.823 20.2242 230.776 20.3134C230.72 20.3988 230.668 20.4805 230.617 20.5585C230.513 20.7144 230.425 20.8704 230.325 20.9967C230.119 21.2492 229.96 21.4757 229.801 21.6317C229.65 21.7839 229.532 21.9028 229.447 21.9882C229.366 22.0662 229.321 22.107 229.321 22.107C229.321 22.107 229.358 22.0625 229.436 21.9771C229.517 21.8879 229.631 21.7691 229.779 21.6094C229.93 21.4497 230.085 21.2195 230.288 20.967C230.384 20.837 230.469 20.6847 230.573 20.525C230.62 20.4471 230.672 20.3654 230.728 20.2799C230.772 20.1908 230.82 20.098 230.868 20.0051C231.255 19.255 231.606 18.256 231.694 17.0454C231.798 15.8422 231.595 14.4236 230.923 13.0422C230.237 11.683 229.067 10.3461 227.424 9.55884C225.808 8.75671 223.741 8.51532 221.777 9.14663C219.825 9.76309 218.006 11.2819 217.105 13.3838C216.884 13.9074 216.703 14.4571 216.607 15.0289C216.492 15.5971 216.459 16.1876 216.485 16.778C216.529 17.9627 216.872 19.151 217.467 20.2205L217.504 20.2874L217.448 20.3394C216.932 20.8258 216.411 21.316 215.883 21.8099L215.913 21.7282C216.035 22.5898 216.16 23.4625 216.289 24.3426L216.311 24.4874L216.171 24.4466C215.367 24.2201 214.558 23.9935 213.743 23.7633L213.835 23.741C213.359 24.1903 212.879 24.6397 212.396 25.0927C212.218 25.2599 212.041 25.427 211.875 25.5792L211.905 25.4938C212.034 26.3888 212.159 27.28 212.277 28.1082L212.3 28.253L212.159 28.2122C211.325 27.9782 210.495 27.7442 209.731 27.5251L209.823 27.5029C209.244 28.0488 208.668 28.5872 208.14 29.0848L208.17 29.0031C208.247 29.5528 208.325 30.0987 208.398 30.5963L208.421 30.7411L208.284 30.7003C207.771 30.5554 207.265 30.4106 206.804 30.2806L206.893 30.2583C206.553 30.5777 206.217 30.8934 205.911 31.1793L205.94 31.1162C205.889 31.9554 205.837 32.7836 205.793 33.5374L205.726 33.4446C206.974 33.7602 208.188 34.0722 209.318 34.3581L209.236 34.3804C213.887 30.0318 217.895 26.2811 220.906 23.4662L220.936 23.4402L220.973 23.4551C222.272 24.0418 223.571 24.1903 224.671 24.1161C225.778 24.0344 226.69 23.7336 227.387 23.4105C228.085 23.0837 228.561 22.7235 228.882 22.4895C229.033 22.3633 229.148 22.2667 229.229 22.1999C229.307 22.1367 229.351 22.1033 229.351 22.1033L229.329 22.0959Z" fill="#263238"/>
<path d="M229.071 21.2157C232.178 18.2968 232.348 13.3986 229.447 10.2718C226.546 7.14493 221.678 6.9741 218.57 9.89298C215.913 12.3885 215.408 16.3323 217.127 19.3812L215.563 20.8518L215.935 23.4661L213.507 22.7791L211.547 24.6173L211.92 27.2317L209.491 26.5447L207.808 28.1267L208.037 29.7198L206.557 29.3039L205.575 30.2248L205.428 32.6461L209.019 33.5559L220.671 22.6194C223.413 23.856 226.738 23.4067 229.074 21.2157H229.071ZM227.934 11.6941C228.764 12.5928 228.716 13.9965 227.827 14.8358C226.934 15.6713 225.539 15.623 224.708 14.7281C223.878 13.8294 223.926 12.4256 224.815 11.5901C225.708 10.7545 227.104 10.8028 227.934 11.6978V11.6941Z" fill="#E0E0E0"/>
<path d="M227.934 11.6941C227.934 11.6941 227.79 11.5604 227.495 11.3747C227.207 11.1964 226.716 10.9996 226.107 11.0665C225.509 11.1222 224.797 11.5084 224.435 12.2362C224.062 12.9418 224.136 13.9742 224.775 14.6538C225.406 15.3445 226.425 15.4893 227.148 15.1663C227.893 14.8543 228.329 14.1673 228.425 13.5694C228.536 12.9604 228.373 12.4553 228.218 12.1545C228.06 11.8463 227.919 11.7052 227.934 11.6941C227.938 11.6903 227.975 11.7238 228.041 11.7906C228.108 11.8575 228.192 11.9651 228.285 12.1211C228.466 12.4219 228.661 12.9455 228.561 13.5954C228.477 14.2341 228.026 14.9843 227.222 15.3334C226.827 15.5079 226.358 15.5747 225.897 15.4819C225.432 15.4002 224.981 15.1551 224.638 14.7912C224.302 14.4198 224.088 13.9519 224.04 13.4803C223.981 13.0087 224.081 12.5407 224.28 12.1583C224.679 11.3747 225.458 10.9736 226.096 10.9328C226.746 10.8771 227.255 11.1073 227.539 11.3116C227.687 11.4118 227.786 11.5084 227.849 11.5789C227.912 11.6495 227.941 11.6866 227.938 11.6903L227.934 11.6941Z" fill="#263238"/>
<path d="M229.071 21.2158C229.071 21.2158 229.034 21.2529 228.96 21.3235C228.879 21.3977 228.768 21.498 228.621 21.628C228.303 21.8731 227.831 22.2407 227.13 22.5824C226.432 22.9166 225.513 23.2285 224.395 23.3214C223.28 23.4068 221.963 23.2619 220.641 22.6752L220.704 22.6641C217.7 25.4938 213.706 29.2557 209.074 33.6228L209.041 33.6563L208.997 33.6451C207.871 33.3592 206.653 33.0547 205.406 32.739L205.332 32.7204V32.6462C205.38 31.8923 205.432 31.0642 205.48 30.2249V30.1878L205.509 30.1618C205.812 29.8758 206.151 29.5602 206.487 29.2408L206.524 29.2037L206.576 29.2185C207.037 29.3485 207.546 29.4896 208.056 29.6344L207.938 29.7384C207.868 29.2408 207.786 28.6949 207.709 28.1453L207.702 28.097L207.738 28.0636C208.266 27.566 208.842 27.0275 209.421 26.4816L209.462 26.4445L209.514 26.4593C210.281 26.6747 211.108 26.9087 211.942 27.1426L211.82 27.2503C211.702 26.4222 211.573 25.5309 211.448 24.636L211.44 24.5877L211.477 24.5543C211.64 24.402 211.82 24.2349 211.998 24.0678C212.481 23.6147 212.961 23.1654 213.437 22.716L213.478 22.6789L213.529 22.6938C214.345 22.924 215.157 23.1543 215.958 23.3808L215.836 23.4885C215.71 22.6084 215.585 21.7357 215.463 20.8741L215.456 20.8258L215.493 20.7924C216.02 20.2985 216.541 19.8083 217.058 19.3218L217.039 19.437C216.434 18.3414 216.083 17.1234 216.039 15.9128C216.013 15.3075 216.05 14.7059 216.168 14.1191C216.268 13.5324 216.456 12.9716 216.681 12.4331C217.604 10.283 219.468 8.73442 221.464 8.11053C223.472 7.46809 225.579 7.72432 227.226 8.54874C228.897 9.3583 230.079 10.7249 230.769 12.1101C231.44 13.5175 231.64 14.9584 231.525 16.1764C231.426 17.4019 231.06 18.4083 230.662 19.1584C230.614 19.2513 230.566 19.3441 230.518 19.4332C230.462 19.5187 230.411 19.6004 230.359 19.6783C230.256 19.8343 230.167 19.9903 230.067 20.1165C229.861 20.3691 229.702 20.5956 229.543 20.7516C229.392 20.9038 229.274 21.0227 229.189 21.1081C229.108 21.1861 229.064 21.2269 229.064 21.2269C229.064 21.2269 229.1 21.1823 229.178 21.0969C229.259 21.0078 229.374 20.889 229.521 20.7293C229.673 20.5696 229.828 20.3394 230.031 20.0868C230.126 19.9569 230.211 19.8046 230.315 19.6449C230.363 19.5669 230.414 19.4852 230.47 19.3998C230.514 19.3107 230.562 19.2179 230.61 19.125C230.998 18.3749 231.348 17.3759 231.437 16.1653C231.54 14.9621 231.337 13.5435 230.665 12.1621C229.979 10.8029 228.809 9.46599 227.167 8.67871C225.55 7.87658 223.483 7.6352 221.52 8.2665C219.567 8.88296 217.748 10.4018 216.847 12.5037C216.626 13.0273 216.445 13.5769 216.349 14.1488C216.235 14.717 216.201 15.3075 216.227 15.8979C216.271 17.0825 216.615 18.2709 217.209 19.3404L217.246 19.4072L217.19 19.4592C216.674 19.9457 216.153 20.4359 215.626 20.9298L215.655 20.8481C215.777 21.7097 215.902 22.5824 216.032 23.4625L216.054 23.6073L215.913 23.5665C215.109 23.3399 214.301 23.1134 213.485 22.8832L213.577 22.8609C213.101 23.3102 212.621 23.7596 212.138 24.2126C211.961 24.3797 211.783 24.5468 211.617 24.6991L211.647 24.6137C211.776 25.5087 211.902 26.3999 212.02 27.228L212.042 27.3729L211.902 27.332C211.067 27.0981 210.237 26.8641 209.473 26.645L209.565 26.6227C208.986 27.1686 208.41 27.7071 207.882 28.2047L207.912 28.123C207.989 28.6726 208.067 29.2185 208.141 29.7161L208.163 29.861L208.026 29.8201C207.513 29.6753 207.008 29.5305 206.546 29.4005L206.635 29.3782C206.295 29.6976 205.959 30.0132 205.653 30.2992L205.683 30.236C205.631 31.0753 205.579 31.9034 205.535 32.6573L205.469 32.5645C206.716 32.8801 207.93 33.1921 209.06 33.478L208.978 33.5003C213.629 29.1517 217.637 25.401 220.649 22.5861L220.678 22.5601L220.715 22.5749C222.014 23.1617 223.313 23.3102 224.413 23.2359C225.52 23.1543 226.432 22.8534 227.13 22.5304C227.827 22.2036 228.303 21.8434 228.624 21.6094C228.776 21.4831 228.89 21.3866 228.971 21.3197C229.049 21.2566 229.093 21.2232 229.093 21.2232L229.071 21.2158Z" fill="#263238"/>
<path d="M228.362 20.6142C228.336 20.5919 228.812 20.2094 229.395 19.3033C229.694 18.8577 229.975 18.2523 230.185 17.5208C230.392 16.7892 230.506 15.9128 230.407 14.9584C230.303 14.0077 230.004 12.9716 229.392 12.0284C228.779 11.0926 227.908 10.205 226.779 9.64798C226.225 9.35461 225.605 9.14665 224.959 9.02781C224.638 8.95725 224.306 8.9424 223.97 8.91269C223.634 8.92012 223.295 8.91269 222.959 8.96468C221.597 9.10951 220.253 9.73339 219.187 10.7175C218.135 11.7202 217.423 13.0273 217.186 14.3828C217.113 14.7207 217.094 15.0587 217.065 15.3966C217.068 15.7345 217.065 16.0688 217.109 16.3956C217.179 17.0529 217.341 17.6879 217.596 18.2635C218.072 19.437 218.892 20.3728 219.777 21.0524C220.674 21.732 221.678 22.1033 222.612 22.2742C223.553 22.4413 224.428 22.3893 225.17 22.2296C225.911 22.0662 226.528 21.8285 226.993 21.5574C227.93 21.0338 228.344 20.5845 228.366 20.6105C228.366 20.6105 228.344 20.6402 228.288 20.6885C228.225 20.7442 228.148 20.8147 228.048 20.9038C227.945 21.0004 227.808 21.1155 227.635 21.2306C227.465 21.3532 227.273 21.498 227.03 21.6206C226.565 21.9028 225.945 22.1553 225.195 22.3299C224.446 22.5007 223.553 22.5638 222.593 22.4004C221.637 22.237 220.608 21.8619 219.685 21.1749C218.773 20.4842 217.932 19.5298 217.437 18.3266C217.175 17.7324 217.006 17.0826 216.932 16.4067C216.88 16.0688 216.887 15.7271 216.884 15.378C216.913 15.0327 216.928 14.6836 217.006 14.3345C217.249 12.9419 217.98 11.5939 219.061 10.5615C220.161 9.54771 221.545 8.90898 222.944 8.76044C223.291 8.70845 223.642 8.71587 223.985 8.71216C224.328 8.74187 224.671 8.75672 225 8.83099C225.664 8.95354 226.299 9.16893 226.867 9.47344C228.026 10.0528 228.916 10.9663 229.536 11.9281C230.156 12.9011 230.455 13.9632 230.551 14.9324C230.643 15.9091 230.521 16.8003 230.3 17.5393C230.075 18.2783 229.779 18.8874 229.469 19.333C229.329 19.567 229.174 19.7526 229.041 19.9123C228.916 20.0794 228.79 20.2057 228.687 20.306C228.591 20.3988 228.513 20.4731 228.454 20.5325C228.403 20.5845 228.373 20.6068 228.369 20.603L228.362 20.6142Z" fill="#263238"/>
<path d="M228.052 15.118C228.052 15.118 228.214 14.9509 228.428 14.6056C228.639 14.2639 228.871 13.6846 228.794 12.9604C228.753 12.6039 228.639 12.2177 228.406 11.8612C228.174 11.5122 227.849 11.1816 227.424 10.9737C227.007 10.7583 226.502 10.658 225.996 10.7212C225.487 10.7769 224.988 11.0108 224.59 11.3785C224.199 11.7535 223.933 12.24 223.841 12.7451C223.741 13.2501 223.807 13.7626 223.992 14.1971C224.169 14.6353 224.472 14.9881 224.804 15.2443C225.14 15.5005 225.516 15.6417 225.867 15.7085C226.579 15.8385 227.17 15.6454 227.52 15.456C227.878 15.2629 228.041 15.0995 228.055 15.1143C228.059 15.118 228.022 15.1626 227.941 15.2369C227.864 15.3149 227.734 15.4151 227.557 15.5228C227.207 15.7345 226.598 15.961 225.845 15.8422C225.476 15.7828 225.073 15.6379 224.712 15.3706C224.357 15.1032 224.025 14.7318 223.833 14.2639C223.63 13.8034 223.556 13.2501 223.66 12.7079C223.756 12.162 224.04 11.6384 224.461 11.2336C224.889 10.8363 225.431 10.5875 225.978 10.5318C226.524 10.4649 227.063 10.58 227.509 10.814C227.959 11.0405 228.306 11.397 228.546 11.7758C228.786 12.1546 228.901 12.5705 228.934 12.9456C229 13.7106 228.735 14.3048 228.498 14.6427C228.38 14.8172 228.269 14.9361 228.188 15.0103C228.107 15.0846 228.063 15.1218 228.059 15.118H228.052Z" fill="#263238"/>
<path d="M208.074 33.1287C208.037 33.0879 210.661 30.5664 213.935 27.4952C217.208 24.4241 219.888 21.9657 219.925 22.0029C219.962 22.0437 217.337 24.5652 214.064 27.6364C210.794 30.7075 208.111 33.1659 208.074 33.1287Z" fill="#263238"/>
<path d="M196.74 66.6774C196.74 66.7294 196.327 66.7739 195.817 66.7739C195.308 66.7739 194.895 66.7294 194.895 66.6774C194.895 66.6254 195.308 66.5808 195.817 66.5808C196.327 66.5808 196.74 66.6254 196.74 66.6774Z" fill="#263238"/>
<path d="M200.43 66.6774C200.43 66.7294 200.017 66.7739 199.508 66.7739C198.998 66.7739 198.585 66.7294 198.585 66.6774C198.585 66.6254 198.998 66.5808 199.508 66.5808C200.017 66.5808 200.43 66.6254 200.43 66.6774Z" fill="#263238"/>
<path d="M204.121 66.6774C204.121 66.7294 203.707 66.7739 203.198 66.7739C202.689 66.7739 202.275 66.7294 202.275 66.6774C202.275 66.6254 202.689 66.5808 203.198 66.5808C203.707 66.5808 204.121 66.6254 204.121 66.6774Z" fill="#263238"/>
<path d="M207.812 66.6774C207.812 66.7294 207.399 66.7739 206.889 66.7739C206.38 66.7739 205.967 66.7294 205.967 66.6774C205.967 66.6254 206.38 66.5808 206.889 66.5808C207.399 66.5808 207.812 66.6254 207.812 66.6774Z" fill="#263238"/>
<path d="M211.503 66.6774C211.503 66.7294 211.089 66.7739 210.58 66.7739C210.071 66.7739 209.657 66.7294 209.657 66.6774C209.657 66.6254 210.071 66.5808 210.58 66.5808C211.089 66.5808 211.503 66.6254 211.503 66.6774Z" fill="#263238"/>
<path d="M215.193 66.6774C215.193 66.7294 214.78 66.7739 214.27 66.7739C213.761 66.7739 213.348 66.7294 213.348 66.6774C213.348 66.6254 213.761 66.5808 214.27 66.5808C214.78 66.5808 215.193 66.6254 215.193 66.6774Z" fill="#263238"/>
<path d="M218.323 66.1128C218.364 66.1128 218.397 66.343 218.412 66.6773V66.7627L218.323 66.7664C218.213 66.7701 218.091 66.7738 217.962 66.7738C217.452 66.7738 217.039 66.7292 217.039 66.6773C217.039 66.6253 217.452 66.5807 217.962 66.5807C218.091 66.5807 218.213 66.5807 218.323 66.5881L218.235 66.6773C218.25 66.3468 218.283 66.1128 218.323 66.1128Z" fill="#263238"/>
<path d="M218.324 62.3994C218.375 62.3994 218.419 62.8153 218.419 63.3278C218.419 63.8403 218.375 64.2562 218.324 64.2562C218.272 64.2562 218.228 63.8403 218.228 63.3278C218.228 62.8153 218.272 62.3994 218.324 62.3994Z" fill="#263238"/>
<path d="M218.324 58.6858C218.375 58.6858 218.419 59.1017 218.419 59.6142C218.419 60.1267 218.375 60.5426 218.324 60.5426C218.272 60.5426 218.228 60.1267 218.228 59.6142C218.228 59.1017 218.272 58.6858 218.324 58.6858Z" fill="#263238"/>
<path d="M218.324 54.9722C218.375 54.9722 218.419 55.3881 218.419 55.9006C218.419 56.413 218.375 56.829 218.324 56.829C218.272 56.829 218.228 56.413 218.228 55.9006C218.228 55.3881 218.272 54.9722 218.324 54.9722Z" fill="#263238"/>
<path d="M218.324 51.2585C218.375 51.2585 218.419 51.6745 218.419 52.1869C218.419 52.6994 218.375 53.1153 218.324 53.1153C218.272 53.1153 218.228 52.6994 218.228 52.1869C218.228 51.6745 218.272 51.2585 218.324 51.2585Z" fill="#263238"/>
<path d="M218.324 47.5449C218.375 47.5449 218.419 47.9608 218.419 48.4733C218.419 48.9858 218.375 49.4017 218.324 49.4017C218.272 49.4017 218.228 48.9858 218.228 48.4733C218.228 47.9608 218.272 47.5449 218.324 47.5449Z" fill="#263238"/>
<path d="M218.324 43.8313C218.375 43.8313 218.419 44.2472 218.419 44.7597C218.419 45.2722 218.375 45.6881 218.324 45.6881C218.272 45.6881 218.228 45.2722 218.228 44.7597C218.228 44.2472 218.272 43.8313 218.324 43.8313Z" fill="#263238"/>
<path d="M218.324 40.1179C218.375 40.1179 218.419 40.5338 218.419 41.0463C218.419 41.5588 218.375 41.9747 218.324 41.9747C218.272 41.9747 218.228 41.5588 218.228 41.0463C218.228 40.5338 218.272 40.1179 218.324 40.1179Z" fill="#263238"/>
<path d="M218.324 36.4043C218.375 36.4043 218.419 36.8202 218.419 37.3327C218.419 37.8452 218.375 38.2611 218.324 38.2611C218.272 38.2611 218.228 37.8452 218.228 37.3327C218.228 36.8202 218.272 36.4043 218.324 36.4043Z" fill="#263238"/>
<path d="M218.324 32.6907C218.375 32.6907 218.419 33.1066 218.419 33.6191C218.419 34.1315 218.375 34.5475 218.324 34.5475C218.272 34.5475 218.228 34.1315 218.228 33.6191C218.228 33.1066 218.272 32.6907 218.324 32.6907Z" fill="#263238"/>
<path d="M218.324 28.9771C218.375 28.9771 218.419 29.393 218.419 29.9054C218.419 30.4179 218.375 30.8338 218.324 30.8338C218.272 30.8338 218.228 30.4179 218.228 29.9054C218.228 29.393 218.272 28.9771 218.324 28.9771Z" fill="#263238"/>
<path d="M190.654 103.691C190.654 103.743 190.241 103.787 189.731 103.787C189.222 103.787 188.809 103.743 188.809 103.691C188.809 103.639 189.222 103.594 189.731 103.594C190.241 103.594 190.654 103.639 190.654 103.691Z" fill="#263238"/>
<path d="M194.344 103.691C194.344 103.743 193.931 103.787 193.422 103.787C192.912 103.787 192.499 103.743 192.499 103.691C192.499 103.639 192.912 103.594 193.422 103.594C193.931 103.594 194.344 103.639 194.344 103.691Z" fill="#263238"/>
<path d="M198.035 103.691C198.035 103.743 197.621 103.787 197.112 103.787C196.603 103.787 196.189 103.743 196.189 103.691C196.189 103.639 196.603 103.594 197.112 103.594C197.621 103.594 198.035 103.639 198.035 103.691Z" fill="#263238"/>
<path d="M201.726 103.691C201.726 103.743 201.313 103.787 200.804 103.787C200.294 103.787 199.881 103.743 199.881 103.691C199.881 103.639 200.294 103.594 200.804 103.594C201.313 103.594 201.726 103.639 201.726 103.691Z" fill="#263238"/>
<path d="M205.417 103.691C205.417 103.743 205.003 103.787 204.494 103.787C203.985 103.787 203.571 103.743 203.571 103.691C203.571 103.639 203.985 103.594 204.494 103.594C205.003 103.594 205.417 103.639 205.417 103.691Z" fill="#263238"/>
<path d="M209.107 103.691C209.107 103.743 208.694 103.787 208.184 103.787C207.675 103.787 207.262 103.743 207.262 103.691C207.262 103.639 207.675 103.594 208.184 103.594C208.694 103.594 209.107 103.639 209.107 103.691Z" fill="#263238"/>
<path d="M212.798 103.691C212.798 103.743 212.385 103.787 211.876 103.787C211.366 103.787 210.953 103.743 210.953 103.691C210.953 103.639 211.366 103.594 211.876 103.594C212.385 103.594 212.798 103.639 212.798 103.691Z" fill="#263238"/>
<path d="M216.489 103.691C216.489 103.743 216.076 103.787 215.566 103.787C215.057 103.787 214.644 103.743 214.644 103.691C214.644 103.639 215.057 103.594 215.566 103.594C216.076 103.594 216.489 103.639 216.489 103.691Z" fill="#263238"/>
<path d="M220.179 103.691C220.179 103.743 219.766 103.787 219.257 103.787C218.747 103.787 218.334 103.743 218.334 103.691C218.334 103.639 218.747 103.594 219.257 103.594C219.766 103.594 220.179 103.639 220.179 103.691Z" fill="#263238"/>
<path d="M223.871 103.691C223.871 103.743 223.457 103.787 222.948 103.787C222.439 103.787 222.025 103.743 222.025 103.691C222.025 103.639 222.439 103.594 222.948 103.594C223.457 103.594 223.871 103.639 223.871 103.691Z" fill="#263238"/>
<path d="M227.218 103.345C227.247 103.345 227.273 103.479 227.288 103.694V103.761L227.214 103.769C227.059 103.783 226.856 103.791 226.639 103.791C226.129 103.791 225.716 103.746 225.716 103.694C225.716 103.642 226.129 103.598 226.639 103.598C226.86 103.598 227.059 103.605 227.214 103.62L227.14 103.694C227.159 103.483 227.188 103.349 227.218 103.349V103.345Z" fill="#263238"/>
<path d="M227.255 99.6316C227.306 99.6316 227.347 100.048 227.343 100.56C227.34 101.072 227.292 101.488 227.236 101.488C227.185 101.488 227.144 101.072 227.148 100.56C227.151 100.048 227.199 99.6316 227.251 99.6316H227.255Z" fill="#263238"/>
<path d="M227.292 95.918C227.343 95.918 227.384 96.3339 227.38 96.8464C227.377 97.3588 227.329 97.7748 227.273 97.7748C227.222 97.7748 227.181 97.3588 227.185 96.8464C227.188 96.3339 227.236 95.918 227.292 95.918Z" fill="#263238"/>
<path d="M227.329 92.2046C227.381 92.2046 227.421 92.6205 227.418 93.133C227.414 93.6455 227.366 94.0614 227.311 94.0614C227.255 94.0614 227.218 93.6455 227.222 93.133C227.226 92.6205 227.274 92.2046 227.325 92.2046H227.329Z" fill="#263238"/>
<path d="M215.112 80.5661L215.791 93.1143C215.817 93.5599 216.182 93.9127 216.625 93.9164L239.069 94.0836C239.534 94.0836 239.914 93.7122 239.917 93.2443L239.988 83.4739C239.988 83.0022 239.615 82.6197 239.146 82.6197L225.343 82.6086C225.121 82.6086 224.907 82.5195 224.748 82.3598L222.368 79.9645C222.213 79.8085 221.999 79.7194 221.777 79.7157L215.957 79.6711C215.47 79.6711 215.082 80.0759 215.112 80.5661Z" fill="#E8505B"/>
<path d="M240.008 81.1428L215.483 80.9619L215.376 95.7044L239.9 95.8853L240.008 81.1428Z" fill="#F5F5F5"/>
<path d="M213.522 82.2706L215.282 97.6597C215.312 97.9345 215.544 98.1388 215.818 98.1425L239.715 98.317C239.999 98.317 240.236 98.1016 240.258 97.8194L241.572 82.4526C241.597 82.137 241.35 81.8622 241.036 81.8622L214.061 81.6616C213.736 81.6616 213.481 81.9439 213.518 82.2669L213.522 82.2706Z" fill="#E8505B"/>
<path d="M193.496 58.344H69.9702C67.0003 58.344 64.5928 60.7664 64.5928 63.7547V142.282C64.5928 145.27 67.0003 147.693 69.9702 147.693H193.496C196.466 147.693 198.873 145.27 198.873 142.282V63.7547C198.873 60.7664 196.466 58.344 193.496 58.344Z" fill="#263238"/>
<path d="M58.9756 141.086H204.461V142.293C204.461 145.94 201.52 148.904 197.892 148.904H65.5451C61.9208 148.904 58.9756 145.944 58.9756 142.293V141.086Z" fill="#263238"/>
<path d="M194.89 61.8943H68.1943V137.347H194.89V61.8943Z" fill="#455A64"/>
<path d="M118.496 141.086L120.301 143.976H145.704L147.38 141.086H118.496Z" fill="#455A64"/>
<path d="M72.0145 64.4492H191.336C192.004 64.4492 192.543 64.9951 192.543 65.6636V135.891C192.543 136.563 192.001 137.105 191.336 137.105H72.0145C71.3465 137.105 70.8076 136.56 70.8076 135.891V65.6636C70.8076 64.9914 71.3502 64.4492 72.0145 64.4492Z" fill="#EBEBEB"/>
<path d="M192.543 69.7744H70.8037V137.109H192.543V69.7744Z" fill="#FAFAFA"/>
<path d="M80.7909 67.2567C80.7909 67.7952 80.3554 68.2334 79.8203 68.2334C79.2851 68.2334 78.8496 67.7952 78.8496 67.2567C78.8496 66.7182 79.2851 66.28 79.8203 66.28C80.3554 66.28 80.7909 66.7182 80.7909 67.2567Z" fill="#263238"/>
<path d="M74.8974 67.2567C74.8974 67.7952 74.4619 68.2334 73.9267 68.2334C73.3916 68.2334 72.9561 67.7952 72.9561 67.2567C72.9561 66.7182 73.3916 66.28 73.9267 66.28C74.4619 66.28 74.8974 66.7182 74.8974 67.2567Z" fill="#263238"/>
<path d="M77.7275 67.2567C77.7275 67.7952 77.292 68.2334 76.7568 68.2334C76.2216 68.2334 75.7861 67.7952 75.7861 67.2567C75.7861 66.7182 76.2216 66.28 76.7568 66.28C77.292 66.28 77.7275 66.7182 77.7275 67.2567Z" fill="#263238"/>
<path d="M197.722 141.086C197.722 141.135 167.919 141.176 131.163 141.176C94.4068 141.176 64.5967 141.135 64.5967 141.086C64.5967 141.038 94.3958 140.997 131.163 140.997C167.93 140.997 197.722 141.038 197.722 141.086Z" fill="#455A64"/>
<path d="M107.021 103.694H79.2412V105.566H107.021V103.694Z" fill="#E0E0E0"/>
<path d="M142.906 77.7327H115.126V79.6043H142.906V77.7327Z" fill="#E0E0E0"/>
<path d="M184.224 84.6956C184.224 84.7438 168.756 84.7847 149.675 84.7847C130.594 84.7847 115.126 84.7438 115.126 84.6956C115.126 84.6473 130.59 84.6064 149.675 84.6064C168.76 84.6064 184.224 84.6473 184.224 84.6956Z" fill="#E0E0E0"/>
<path d="M184.224 88.7805C184.224 88.8288 168.756 88.8697 149.675 88.8697C130.594 88.8697 115.126 88.8288 115.126 88.7805C115.126 88.7323 130.59 88.6914 149.675 88.6914C168.76 88.6914 184.224 88.7323 184.224 88.7805Z" fill="#E0E0E0"/>
<path d="M184.224 92.8618C184.224 92.9101 168.756 92.951 149.675 92.951C130.594 92.951 115.126 92.9101 115.126 92.8618C115.126 92.8136 130.59 92.7727 149.675 92.7727C168.76 92.7727 184.224 92.8136 184.224 92.8618Z" fill="#E0E0E0"/>
<path d="M184.224 96.9431C184.224 96.9914 168.756 97.0323 149.675 97.0323C130.594 97.0323 115.126 96.9914 115.126 96.9431C115.126 96.8948 130.59 96.854 149.675 96.854C168.76 96.854 184.224 96.8948 184.224 96.9431Z" fill="#E0E0E0"/>
<path d="M184.224 101.028C184.224 101.076 168.756 101.117 149.675 101.117C130.594 101.117 115.126 101.076 115.126 101.028C115.126 100.98 130.59 100.939 149.675 100.939C168.76 100.939 184.224 100.98 184.224 101.028Z" fill="#E0E0E0"/>
<path d="M142.098 105.109C142.098 105.157 136.06 105.198 128.612 105.198C121.164 105.198 115.126 105.157 115.126 105.109C115.126 105.061 121.164 105.02 128.612 105.02C136.06 105.02 142.098 105.061 142.098 105.109Z" fill="#E0E0E0"/>
<path d="M183.718 113.034C183.718 113.082 173.55 113.123 161.013 113.123C148.475 113.123 138.304 113.082 138.304 113.034C138.304 112.986 148.468 112.945 161.013 112.945C173.558 112.945 183.718 112.986 183.718 113.034Z" fill="#E0E0E0"/>
<path d="M183.718 117.368C183.718 117.416 173.55 117.457 161.013 117.457C148.475 117.457 138.304 117.416 138.304 117.368C138.304 117.319 148.468 117.279 161.013 117.279C173.558 117.279 183.718 117.319 183.718 117.368Z" fill="#E0E0E0"/>
<path d="M183.718 121.705C183.718 121.753 173.55 121.794 161.013 121.794C148.475 121.794 138.304 121.753 138.304 121.705C138.304 121.657 148.468 121.616 161.013 121.616C173.558 121.616 183.718 121.657 183.718 121.705Z" fill="#E0E0E0"/>
<path d="M183.718 126.039C183.718 126.087 173.55 126.128 161.013 126.128C148.475 126.128 138.304 126.087 138.304 126.039C138.304 125.991 148.468 125.95 161.013 125.95C173.558 125.95 183.718 125.991 183.718 126.039Z" fill="#E0E0E0"/>
<path d="M107.092 112.622C107.092 112.67 101.032 112.711 93.5543 112.711C86.0768 112.711 80.0166 112.67 80.0166 112.622C80.0166 112.574 86.0768 112.533 93.5543 112.533C101.032 112.533 107.092 112.574 107.092 112.622Z" fill="#E0E0E0"/>
<path d="M107.092 116.023C107.092 116.072 101.032 116.113 93.5543 116.113C86.0768 116.113 80.0166 116.072 80.0166 116.023C80.0166 115.975 86.0768 115.934 93.5543 115.934C101.032 115.934 107.092 115.975 107.092 116.023Z" fill="#E0E0E0"/>
<path d="M107.092 119.429C107.092 119.477 101.032 119.518 93.5543 119.518C86.0768 119.518 80.0166 119.477 80.0166 119.429C80.0166 119.38 86.0768 119.34 93.5543 119.34C101.032 119.34 107.092 119.38 107.092 119.429Z" fill="#E0E0E0"/>
<path d="M107.092 122.83C107.092 122.879 101.032 122.919 93.5543 122.919C86.0768 122.919 80.0166 122.879 80.0166 122.83C80.0166 122.782 86.0768 122.741 93.5543 122.741C101.032 122.741 107.092 122.782 107.092 122.83Z" fill="#E0E0E0"/>
<path d="M107.092 126.236C107.092 126.284 101.032 126.325 93.5543 126.325C86.0768 126.325 80.0166 126.284 80.0166 126.236C80.0166 126.188 86.0768 126.147 93.5543 126.147C101.032 126.147 107.092 126.188 107.092 126.236Z" fill="#E0E0E0"/>
<path d="M134.816 110.966H115.107V130.154H134.816V110.966Z" fill="#F5F5F5"/>
<path d="M116.636 128.512L122.087 118.638L126.549 124.951L129.258 121.597L133.288 128.512H116.636Z" fill="#EBEBEB"/>
<path d="M128.446 116.718C128.446 117.505 127.811 118.144 127.029 118.144C126.246 118.144 125.611 117.505 125.611 116.718C125.611 115.93 126.246 115.292 127.029 115.292C127.811 115.292 128.446 115.93 128.446 116.718Z" fill="#EBEBEB"/>
<path d="M133.289 128.564C133.289 128.564 133.289 128.535 133.285 128.486C133.285 128.431 133.285 128.356 133.281 128.263C133.281 128.059 133.278 127.77 133.27 127.398C133.267 126.637 133.259 125.538 133.248 124.141C133.237 121.338 133.222 117.349 133.208 112.555L133.289 112.637C128.465 112.64 122.748 112.644 116.636 112.652C116.614 112.67 116.813 112.473 116.728 112.559V113.647C116.728 114.011 116.728 114.371 116.728 114.731C116.728 115.452 116.728 116.161 116.728 116.867C116.728 118.278 116.728 119.655 116.728 121C116.728 123.688 116.721 126.228 116.721 128.564L116.64 128.483C121.611 128.501 125.763 128.516 128.683 128.523C130.137 128.531 131.285 128.538 132.078 128.546C132.466 128.549 132.765 128.553 132.979 128.557C133.075 128.557 133.152 128.557 133.211 128.561C133.263 128.561 133.292 128.561 133.292 128.564C133.292 128.564 133.27 128.564 133.219 128.568C133.16 128.568 133.089 128.568 132.993 128.572C132.783 128.572 132.488 128.575 132.108 128.583C131.318 128.587 130.177 128.594 128.731 128.605C125.8 128.616 121.63 128.631 116.636 128.646H116.555V128.564C116.555 126.228 116.548 123.688 116.548 121C116.548 119.655 116.548 118.274 116.548 116.867C116.548 116.161 116.548 115.448 116.548 114.731C116.548 114.371 116.548 114.011 116.548 113.647V112.83V112.692V112.562C116.463 112.64 116.662 112.44 116.643 112.462C122.755 112.466 128.472 112.473 133.296 112.477H133.377V112.559C133.359 117.372 133.348 121.378 133.337 124.197C133.329 125.586 133.322 126.681 133.315 127.439C133.311 127.803 133.307 128.085 133.304 128.286C133.304 128.375 133.304 128.445 133.3 128.501C133.3 128.549 133.3 128.572 133.296 128.572L133.289 128.564Z" fill="#EBEBEB"/>
<path d="M106.498 74.5391H79.7656V100.564H106.498V74.5391Z" fill="#F5F5F5"/>
<path d="M81.8398 98.3355L89.2361 84.9443L95.2815 93.5041L98.9575 88.9587L104.427 98.3355H81.8398Z" fill="#E0E0E0"/>
<path d="M97.8614 82.3413C97.8614 83.4108 97.0014 84.276 95.9385 84.276C94.8756 84.276 94.0156 83.4108 94.0156 82.3413C94.0156 81.2718 94.8756 80.4065 95.9385 80.4065C97.0014 80.4065 97.8614 81.2718 97.8614 82.3413Z" fill="#E0E0E0"/>
<path d="M104.427 98.4099C104.427 98.4099 104.423 98.3728 104.419 98.3022C104.419 98.2242 104.419 98.124 104.412 97.9977C104.412 97.7192 104.404 97.3293 104.401 96.8279C104.393 95.7956 104.386 94.3027 104.371 92.4088C104.356 88.6061 104.338 83.1954 104.316 76.6966L104.427 76.808C97.8865 76.8117 90.1286 76.8192 81.8428 76.8266C81.8133 76.8526 82.0827 76.5852 81.9683 76.7003V78.1746C81.9683 78.6648 81.9683 79.155 81.9683 79.6452C81.9683 80.6219 81.9683 81.5874 81.9683 82.5418C81.9683 84.4543 81.9683 86.3259 81.9683 88.1493C81.9646 91.7923 81.9609 95.2385 81.9572 98.4099L81.8465 98.2985C88.5895 98.3208 94.2179 98.3431 98.1781 98.3542C100.153 98.3654 101.71 98.3765 102.784 98.3839C103.308 98.3876 103.718 98.3951 104.006 98.3988C104.139 98.3988 104.242 98.4025 104.323 98.4062C104.393 98.4062 104.434 98.4099 104.434 98.4136C104.434 98.4136 104.404 98.4174 104.334 98.4211C104.257 98.4211 104.157 98.4211 104.028 98.4285C103.744 98.4285 103.345 98.4359 102.828 98.4396C101.758 98.4471 100.212 98.4545 98.2482 98.4693C94.2733 98.4842 88.6154 98.5028 81.8465 98.525H81.7358V98.4136C81.7321 95.2422 81.7284 91.7998 81.7247 88.153C81.7247 86.3296 81.7247 84.458 81.7247 82.5455C81.7247 81.5911 81.7247 80.6219 81.7247 79.6489C81.7247 79.1624 81.7247 78.6722 81.7247 78.1783V77.068V76.8823V76.704C81.6103 76.8155 81.8797 76.5444 81.8539 76.5741C90.1433 76.5815 97.8976 76.5852 104.438 76.5926H104.548V76.704C104.526 83.2325 104.508 88.6692 104.493 92.4868C104.482 94.3695 104.471 95.855 104.463 96.8799C104.456 97.3738 104.452 97.7563 104.452 98.0311C104.452 98.1537 104.449 98.2465 104.445 98.3245C104.445 98.3876 104.441 98.4211 104.438 98.4173L104.427 98.4099Z" fill="#E0E0E0"/>
<path d="M110.081 84.4282L111.402 87.1206L114.354 87.5513L112.217 89.6495L112.723 92.6092L110.081 91.2092L107.442 92.6092L107.944 89.6495L105.807 87.5513L108.763 87.1206L110.081 84.4282Z" fill="#E8505B"/>
<path d="M119.382 75.0701L120.703 77.7624L123.655 78.1932L121.518 80.2914L122.024 83.2474L119.382 81.8511L116.743 83.2474L117.248 80.2914L115.111 78.1932L118.064 77.7624L119.382 75.0701Z" fill="#E8505B"/>
<path d="M131.816 71.3972L133.133 74.0896L136.086 74.5203L133.953 76.6148L134.455 79.5745L131.816 78.1782L129.173 79.5745L129.679 76.6148L127.542 74.5203L130.495 74.0896L131.816 71.3972Z" fill="#E8505B"/>
<path d="M144.678 75.1555L146 77.8479L148.952 78.2824L146.815 80.3768L147.321 83.3365L144.678 81.9402L142.04 83.3365L142.541 80.3768L140.408 78.2824L143.361 77.8479L144.678 75.1555Z" fill="#E8505B"/>
<path d="M153.547 84.0791L154.869 86.7714L157.821 87.2022L155.684 89.2967L156.186 92.2564L153.547 90.8601L150.905 92.2564L151.41 89.2967L149.273 87.2022L152.226 86.7714L153.547 84.0791Z" fill="#E8505B"/>
<path d="M156.761 97.0247L158.082 99.717L161.035 100.148L158.898 102.242L159.404 105.202L156.761 103.806L154.122 105.202L154.624 102.242L152.487 100.148L155.44 99.717L156.761 97.0247Z" fill="#E8505B"/>
<path d="M153.632 109.881L154.954 112.573L157.906 113.004L155.769 115.102L156.275 118.058L153.632 116.662L150.993 118.058L151.495 115.102L149.358 113.004L152.315 112.573L153.632 109.881Z" fill="#E8505B"/>
<path d="M144.216 118.801L145.538 121.494L148.49 121.928L146.353 124.023L146.859 126.982L144.216 125.586L141.574 126.982L142.079 124.023L139.942 121.928L142.895 121.494L144.216 118.801Z" fill="#E8505B"/>
<path d="M131.565 122.481L132.886 125.174L135.839 125.604L133.702 127.699L134.204 130.659L131.565 129.262L128.922 130.659L129.428 127.699L127.291 125.604L130.244 125.174L131.565 122.481Z" fill="#E8505B"/>
<path d="M119.481 118.809L120.802 121.501L123.755 121.932L121.618 124.026L122.123 126.986L119.481 125.59L116.838 126.986L117.344 124.026L115.207 121.932L118.16 121.501L119.481 118.809Z" fill="#E8505B"/>
<path d="M109.918 109.647L111.24 112.34L114.192 112.774L112.055 114.869L112.561 117.828L109.918 116.432L107.276 117.828L107.781 114.869L105.645 112.774L108.597 112.34L109.918 109.647Z" fill="#E8505B"/>
<path d="M106.704 97.0396L108.021 99.7319L110.977 100.163L108.841 102.257L109.342 105.217L106.704 103.821L104.061 105.217L104.567 102.257L102.43 100.163L105.382 99.7319L106.704 97.0396Z" fill="#E8505B"/>
<path d="M140.928 106.275H138.345V92.1266C138.345 88.7955 135.65 86.0883 132.343 86.0883C129.037 86.0883 126.342 88.7992 126.342 92.1266V106.275H123.759V92.1266C123.759 87.362 127.612 83.4888 132.343 83.4888C137.075 83.4888 140.928 87.3657 140.928 92.1266V106.275Z" fill="#263238"/>
<path d="M141.766 99.9807H122.914C121.73 99.9807 120.77 100.947 120.77 102.138V112.763C120.77 113.954 121.73 114.92 122.914 114.92H141.766C142.95 114.92 143.911 113.954 143.911 112.763V102.138C143.911 100.947 142.95 99.9807 141.766 99.9807Z" fill="#E8505B"/>
<path d="M134.277 105.503C134.277 106.576 133.41 107.449 132.343 107.449C131.277 107.449 130.409 106.576 130.409 105.503C130.409 104.43 131.277 103.557 132.343 103.557C133.41 103.557 134.277 104.43 134.277 105.503Z" fill="#263238"/>
<path d="M132.871 106.275H131.815V110.278H132.871V106.275Z" fill="#263238"/>
<path d="M122.006 113.502C121.954 113.502 121.91 111.01 121.91 107.939C121.91 104.868 121.954 102.376 122.006 102.376C122.058 102.376 122.102 104.868 122.102 107.939C122.102 111.01 122.058 113.502 122.006 113.502Z" fill="#FAFAFA"/>
<path d="M130.827 107.998C130.827 107.998 130.735 107.969 130.602 107.868C130.465 107.772 130.284 107.601 130.104 107.356C129.742 106.881 129.413 106.015 129.627 105.083C129.853 104.151 130.532 103.527 131.067 103.264C131.336 103.126 131.576 103.059 131.739 103.033C131.905 103.007 131.997 103.007 132.001 103.019C132.008 103.056 131.635 103.089 131.133 103.382C130.639 103.665 130.022 104.266 129.816 105.124C129.616 105.986 129.901 106.803 130.218 107.278C130.535 107.768 130.857 107.969 130.831 107.995L130.827 107.998Z" fill="#FAFAFA"/>
<path d="M50.9405 93.3482C50.6452 94.18 50.7301 95.1084 50.9996 95.9514C51.269 96.7907 51.7192 97.5594 52.1658 98.3244C52.7453 96.8278 53.3284 95.3275 53.7344 93.7753C53.823 93.4336 53.8894 93.0251 53.6495 92.7689C53.465 92.5758 53.1697 92.5461 52.904 92.5609C52.1252 92.6092 51.3649 92.9323 50.7929 93.467" fill="#263238"/>
<path d="M18.3955 135L12.3574 148.889H20.669L26.5853 134.892L18.3955 135Z" fill="#263238"/>
<path d="M54.2991 148.725C62.4446 146.011 56.8605 135.171 56.8605 135.171L21.2558 138.539C18.3992 138.52 16.0703 140.845 16.0703 143.723C16.0703 146.586 18.377 148.907 21.2226 148.907L54.2991 148.729" fill="#455A64"/>
<path d="M62.3964 148.904C70.3352 146.207 65.1017 135.167 65.1017 135.167L30.3939 138.461C27.0021 138.505 25.3486 140.151 25.3486 143.63C25.356 146.493 26.4079 148.904 30.3828 148.822L62.4001 148.904" fill="#455A64"/>
<path d="M54.5759 136.998C54.5759 136.998 54.5427 136.994 54.4763 136.994C54.4025 136.994 54.3065 136.998 54.1884 137.001C53.9227 137.012 53.5499 137.027 53.0775 137.046C52.0994 137.094 50.708 137.165 48.9955 137.25C45.5373 137.44 40.7799 137.703 35.528 137.993C34.871 138.023 34.2214 138.082 33.5793 138.089C32.9371 138.101 32.3023 138.127 31.6822 138.164C31.0622 138.201 30.4532 138.249 29.8553 138.312C29.2648 138.383 28.6632 138.446 28.1206 138.669C27.5781 138.88 27.0798 139.196 26.6776 139.601C26.2753 140.006 25.9874 140.503 25.8028 141.016C25.6146 141.528 25.5113 142.044 25.4448 142.542C25.3821 143.04 25.3452 143.522 25.3489 143.987C25.3489 144.911 25.5113 145.751 25.8065 146.419C26.0981 147.091 26.5041 147.581 26.8842 147.897C27.2681 148.22 27.6224 148.38 27.866 148.454C28.1133 148.532 28.1169 148.506 27.8771 148.417C27.6408 148.328 27.2976 148.161 26.9248 147.838C26.5558 147.518 26.1682 147.032 25.8914 146.371C25.6146 145.713 25.4633 144.889 25.467 143.983C25.467 143.53 25.5039 143.051 25.574 142.561C25.6441 142.07 25.7475 141.562 25.932 141.071C26.1166 140.578 26.3934 140.106 26.7772 139.72C27.1647 139.333 27.6445 139.036 28.1686 138.832C28.6927 138.617 29.2722 138.557 29.8664 138.49C30.4606 138.427 31.0659 138.383 31.6859 138.346C32.3059 138.309 32.9371 138.283 33.5756 138.275C34.2178 138.268 34.8673 138.208 35.5243 138.179C40.7799 137.867 45.5336 137.584 48.9918 137.38C50.7043 137.269 52.0957 137.18 53.0738 137.116C53.5462 137.083 53.9153 137.053 54.1847 137.035C54.3028 137.024 54.3988 137.016 54.4726 137.009C54.539 137.001 54.5722 136.998 54.5722 136.994L54.5759 136.998Z" fill="#263238"/>
<path d="M62.4147 140.418C62.4147 140.418 62.3225 140.485 62.1343 140.559C61.946 140.633 61.6545 140.708 61.2928 140.734C60.5768 140.789 59.488 140.567 58.6834 139.742C57.8862 138.91 57.6906 137.811 57.7644 137.091C57.7976 136.723 57.8788 136.437 57.9563 136.248C58.0338 136.058 58.0929 135.962 58.104 135.969C58.1409 135.98 57.9305 136.389 57.8973 137.102C57.8604 137.796 58.0707 138.832 58.8163 139.608C59.5692 140.381 60.5915 140.619 61.2854 140.596C61.994 140.585 62.4037 140.381 62.4147 140.418Z" fill="#263238"/>
<path d="M44.7551 118.459L41.463 129.797L29.2725 131.115V133.292L47.1837 133.54L49.6232 118.775L44.7551 118.459Z" fill="#FFBE9D"/>
<path d="M60.6509 106.613C62.8137 106.617 68.6709 107.727 69.1839 111.701C69.649 115.288 70.3428 119.358 70.3428 119.358L62.6328 119.566L65.2607 120.264L66.3863 137.009L46.4342 136.314L47.4934 127.706L48.3607 119.102L44.002 118.745C44.002 118.745 45.493 111.255 48.095 108.945C48.095 108.945 50.4755 106.84 53.8378 106.617C57.2001 106.394 60.6509 106.617 60.6509 106.617" fill="#E8505B"/>
<path d="M49.0808 113.539C49.1287 113.543 48.8224 116.569 48.4017 120.298C47.9809 124.026 47.6008 127.042 47.5528 127.038C47.5048 127.034 47.8112 124.008 48.2319 120.279C48.6526 116.551 49.0328 113.535 49.0808 113.539Z" fill="#263238"/>
<path d="M61.2487 106.639C61.2487 106.639 61.2597 106.687 61.2708 106.78C61.2782 106.873 61.2893 107.011 61.2893 107.185C61.2966 107.538 61.2671 108.058 61.0752 108.667C60.8907 109.268 60.577 110 59.9421 110.598C59.6321 110.899 59.2409 111.159 58.7869 111.318C58.333 111.478 57.8384 111.541 57.3365 111.549C56.8345 111.552 56.3437 111.534 55.8749 111.448C55.4062 111.363 54.9596 111.196 54.609 110.932C53.9004 110.401 53.5645 109.658 53.4058 109.049C53.2397 108.433 53.225 107.913 53.2397 107.56C53.2471 107.382 53.2582 107.248 53.2693 107.155C53.2803 107.063 53.2877 107.014 53.2951 107.014C53.3062 107.014 53.2951 107.211 53.3025 107.56C53.3062 107.909 53.3394 108.418 53.5166 109.02C53.6826 109.614 54.0222 110.323 54.6976 110.817C55.0334 111.062 55.4505 111.218 55.9045 111.3C56.3584 111.378 56.8419 111.4 57.3365 111.393C57.8273 111.385 58.3071 111.326 58.7353 111.173C59.1634 111.021 59.5399 110.776 59.8388 110.494C60.4515 109.922 60.7689 109.224 60.9645 108.633C61.1712 108.039 61.2118 107.53 61.2265 107.181C61.2376 106.832 61.2339 106.635 61.2487 106.635V106.639Z" fill="#263238"/>
<g opacity="0.2">
<path d="M62.3187 113.539C61.5805 117.093 60.6172 120.743 59.8791 124.294C59.7204 125.047 59.5543 125.831 59.0967 126.447C58.8088 126.834 58.4249 127.134 58.0448 127.424C56.5906 128.523 55.0553 129.552 53.3428 130.18C55.8119 129.968 58.2662 129.541 60.6615 128.898C61.0675 128.791 61.4993 128.657 61.7614 128.327C61.9939 128.033 62.0456 127.643 62.0898 127.272C62.6213 122.715 62.4663 118.122 62.3224 113.539" fill="black"/>
</g>
<path d="M70.4679 119.418C70.4679 119.418 70.2612 119.444 69.8884 119.462C69.4861 119.477 68.9547 119.496 68.3088 119.522C66.9727 119.562 65.1274 119.611 63.0901 119.652C62.8649 119.655 62.6435 119.659 62.4368 119.663H62.3556V119.581C62.2818 117.676 62.315 115.982 62.3519 114.768C62.3704 114.159 62.3925 113.669 62.4147 113.331C62.4368 112.993 62.4516 112.807 62.4626 112.807C62.4737 112.807 62.4774 112.993 62.4774 113.331C62.4774 113.695 62.47 114.178 62.4663 114.768C62.4589 115.982 62.4479 117.68 62.5254 119.574L62.4405 119.492C62.6509 119.488 62.8723 119.484 63.0937 119.477C65.131 119.436 66.9764 119.41 68.3125 119.399C68.9583 119.399 69.4935 119.399 69.8958 119.395C70.2686 119.395 70.4752 119.406 70.4752 119.418H70.4679Z" fill="#263238"/>
<path d="M14.0038 120.235L20.8133 133.704H42.2824L41.415 131.944L35.1961 131.758L30.125 120.402C29.8113 119.696 29.1138 119.243 28.3424 119.243H14.6091C14.1035 119.243 13.775 119.782 14.0038 120.235Z" fill="#E0E0E0"/>
<path d="M23.9314 127.094C24.386 127.094 24.7545 126.723 24.7545 126.265C24.7545 125.808 24.386 125.437 23.9314 125.437C23.4769 125.437 23.1084 125.808 23.1084 126.265C23.1084 126.723 23.4769 127.094 23.9314 127.094Z" fill="#263238"/>
<path d="M61.3521 96.464L60.5844 107.426C60.4589 109.216 58.979 110.602 57.1963 110.602C55.2328 110.602 53.679 108.93 53.8082 106.962C53.8747 105.919 53.9374 105.065 53.9374 105.065C53.9374 105.065 51.3059 104.652 51.269 101.997C51.2505 100.746 51.4166 98.2725 51.6011 95.9478C51.8189 93.2331 54.0666 91.1387 56.7756 91.1387C59.5178 91.2984 61.5883 93.7085 61.3521 96.464Z" fill="#FFBE9D"/>
<path d="M53.9224 105.191C53.9224 105.191 55.5906 105.328 57.3585 104.207C57.3585 104.207 56.5465 106.116 53.915 105.878L53.9224 105.191Z" fill="#EB996E"/>
<path d="M52.4241 97.6708C52.4167 97.8714 52.5791 98.0422 52.7858 98.0533C52.9924 98.0645 53.1659 97.9122 53.1733 97.7117C53.1807 97.5112 53.0183 97.3403 52.8116 97.3292C52.6049 97.318 52.4315 97.4703 52.4241 97.6708Z" fill="#263238"/>
<path d="M52.1913 97.1511C52.2393 97.1993 52.5235 96.9877 52.9294 96.9877C53.3354 96.984 53.6307 97.1919 53.675 97.1436C53.6971 97.1214 53.6491 97.0322 53.52 96.9357C53.3908 96.8428 53.1767 96.75 52.9221 96.75C52.6711 96.75 52.457 96.8466 52.3352 96.9394C52.2097 97.0359 52.1691 97.1251 52.1913 97.1474V97.1511Z" fill="#263238"/>
<path d="M56.2405 97.7824C56.2331 97.9829 56.3955 98.1538 56.6022 98.1649C56.8089 98.176 56.9823 98.0238 56.9897 97.8233C56.9971 97.6227 56.8347 97.4519 56.628 97.4408C56.4213 97.4296 56.2479 97.5819 56.2405 97.7824Z" fill="#263238"/>
<path d="M56.1737 97.2253C56.2217 97.2736 56.5059 97.0619 56.9119 97.0619C57.3178 97.0582 57.6131 97.2661 57.6574 97.2179C57.6795 97.1956 57.6316 97.1065 57.5024 97.0099C57.3732 96.9171 57.1591 96.8242 56.9045 96.8242C56.6535 96.8242 56.4394 96.9208 56.3177 97.0136C56.1922 97.1102 56.1516 97.1993 56.1737 97.2216V97.2253Z" fill="#263238"/>
<path d="M54.701 100.248C54.701 100.226 54.4501 100.181 54.0441 100.129C53.9408 100.118 53.8411 100.099 53.8263 100.025C53.8005 99.9509 53.8448 99.8395 53.8965 99.717C53.9924 99.4644 54.0958 99.2008 54.2028 98.926C54.6272 97.7971 54.9336 96.8687 54.8893 96.8538C54.845 96.8352 54.4611 97.7376 54.0367 98.8666C53.9334 99.1451 53.8374 99.4087 53.7451 99.665C53.7045 99.7838 53.6381 99.9175 53.6898 100.073C53.7193 100.151 53.7931 100.207 53.8596 100.226C53.926 100.244 53.985 100.248 54.0367 100.252C54.4464 100.274 54.701 100.274 54.7047 100.252L54.701 100.248Z" fill="#263238"/>
<path d="M55.8976 100.53C55.8311 100.527 55.8311 100.968 55.4547 101.284C55.0782 101.6 54.6095 101.548 54.6058 101.611C54.5984 101.637 54.7092 101.696 54.9085 101.704C55.1041 101.711 55.3846 101.648 55.6171 101.455C55.8459 101.262 55.9456 101.006 55.9603 100.824C55.9788 100.638 55.9271 100.53 55.8976 100.53Z" fill="#263238"/>
<path d="M56.0703 95.6285C56.1109 95.7399 56.5132 95.6879 56.9893 95.7436C57.4654 95.7919 57.8493 95.933 57.912 95.8327C57.9415 95.7844 57.8751 95.6804 57.7201 95.5727C57.5651 95.465 57.3215 95.3648 57.0373 95.3314C56.7531 95.3017 56.4911 95.3462 56.3176 95.4168C56.1441 95.4873 56.0556 95.5765 56.074 95.6285H56.0703Z" fill="#263238"/>
<path d="M52.3395 95.97C52.4096 96.0628 52.6901 95.97 53.026 95.9626C53.3618 95.9477 53.646 96.0257 53.7125 95.9291C53.742 95.8809 53.6977 95.788 53.5722 95.7026C53.4504 95.6135 53.2437 95.5429 53.0149 95.5503C52.7861 95.5578 52.5831 95.6432 52.4687 95.736C52.3506 95.8326 52.31 95.9254 52.3432 95.97H52.3395Z" fill="#263238"/>
<path d="M60.4666 98.6216C60.5109 98.603 62.2788 98.0831 62.2197 99.8953C62.1607 101.708 60.3633 101.277 60.3633 101.225C60.3633 101.173 60.4666 98.6216 60.4666 98.6216Z" fill="#FFBE9D"/>
<path d="M60.9346 100.556C60.9346 100.556 60.9641 100.579 61.0158 100.605C61.0674 100.631 61.156 100.649 61.252 100.616C61.4439 100.553 61.6137 100.252 61.6321 99.925C61.6432 99.7616 61.6137 99.6019 61.5583 99.4682C61.5066 99.3345 61.4254 99.238 61.3295 99.2194C61.2335 99.1934 61.1634 99.2491 61.1413 99.3011C61.1154 99.3494 61.1265 99.3865 61.1154 99.3902C61.1117 99.394 61.0785 99.3568 61.0933 99.2826C61.1007 99.2454 61.1228 99.2046 61.1671 99.1711C61.2114 99.1377 61.2741 99.1229 61.3406 99.1303C61.4808 99.1451 61.5989 99.2788 61.658 99.4237C61.7244 99.5685 61.7613 99.7467 61.7502 99.9324C61.7281 100.296 61.5288 100.634 61.2667 100.701C61.1376 100.731 61.0342 100.69 60.9826 100.645C60.9272 100.597 60.9198 100.556 60.9272 100.556H60.9346Z" fill="#EB996E"/>
<path d="M44.5701 133.726H18.3252V135.015H44.5701V133.726Z" fill="#263238"/>
<path d="M36.4873 134.368L44.4704 148.903H51.6157L44.57 135.015L36.4873 134.368Z" fill="#263238"/>
<path d="M44.5703 135.015C44.5703 135.067 38.6873 135.141 31.435 135.178C24.179 135.215 18.2959 135.2 18.2959 135.148C18.2959 135.096 24.1753 135.022 31.435 134.985C38.691 134.948 44.574 134.963 44.574 135.015H44.5703Z" fill="#455A64"/>
<path d="M50.8737 94.7595C51.3535 94.9414 51.9108 94.9043 52.3573 94.6518C52.1691 94.8077 52.2355 95.1345 52.4275 95.2868C52.6194 95.4353 52.8814 95.4502 53.125 95.4428C54.4205 95.3982 55.6938 94.8486 56.6238 93.9388C56.6349 94.3992 57.0003 94.7929 57.4284 94.9489C57.8566 95.1048 58.3327 95.0603 58.7756 94.9526C58.6574 95.6284 58.5393 96.3303 58.6944 96.9988C58.8457 97.6709 59.3402 98.3096 60.0193 98.4136C60.1559 98.7479 60.0784 99.1266 60.1042 99.4868C60.1301 99.8471 60.3367 100.259 60.6984 100.27C61.0158 100.278 61.252 99.9548 61.2926 99.6391C61.3332 99.3235 61.1487 98.681 61.3738 98.1685C61.6174 97.6152 61.5215 97.7155 61.7614 97.1622C62.005 96.6088 62.1415 95.8438 62.3297 95.2682C62.518 94.6926 62.5918 94.0502 62.3777 93.4857C62.1637 92.9212 61.6027 92.4608 61.0011 92.5016C61.2188 91.9334 61.038 91.2316 60.5693 90.8454C60.1005 90.4591 59.3808 90.4146 58.8715 90.7451C58.8715 90.7451 56.8158 89.3413 54.546 90.1175C52.2909 90.8899 51.9366 92.9658 51.4457 93.0326C50.9512 93.0958 49.4527 92.2788 49.7111 92.795C49.9694 93.3112 50.3976 93.8088 50.6116 93.8311C50.8257 93.8533 48.8954 93.0326 49.5598 93.7679C50.2241 94.4995 50.8774 94.7706 50.8774 94.7706L50.8737 94.7595Z" fill="#263238"/>
<path d="M68.9661 112.436C68.9439 112.455 68.7705 112.124 68.2538 111.745C67.7481 111.367 66.8624 110.98 65.7219 110.995C64.5815 110.992 63.2713 111.489 61.9906 112.28C60.6914 113.053 59.3886 114.141 57.7573 114.854C56.9453 115.21 56.0817 115.414 55.2439 115.426C54.4061 115.444 53.5978 115.296 52.8744 115.032C52.151 114.768 51.5199 114.371 50.9884 113.951C50.4496 113.532 49.9809 113.116 49.5195 112.778C48.6116 112.08 47.7 111.79 47.0652 111.771C46.4267 111.753 46.0945 111.931 46.0908 111.901C46.0908 111.901 46.1093 111.887 46.1499 111.872C46.1905 111.857 46.2495 111.823 46.3307 111.805C46.4931 111.749 46.7441 111.701 47.0689 111.697C47.7184 111.697 48.6633 111.976 49.6007 112.67C50.5456 113.327 51.5088 114.371 52.9372 114.869C54.3433 115.385 56.1001 115.403 57.6872 114.679C59.2816 113.981 60.5881 112.904 61.9057 112.128C63.2048 111.337 64.5519 110.836 65.7293 110.858C66.8993 110.858 67.8035 111.281 68.3054 111.686C68.5638 111.887 68.7262 112.08 68.8332 112.217C68.9329 112.358 68.9808 112.432 68.9735 112.436H68.9661Z" fill="#FAFAFA"/>
<path d="M62.3968 122.199C62.3968 122.199 62.2197 122.08 61.8875 121.891C61.559 121.701 61.0571 121.456 60.3927 121.312C59.7358 121.167 58.9091 121.122 58.0454 121.352C57.1744 121.571 56.2849 122.028 55.2958 122.396C54.8013 122.578 54.2956 122.715 53.7974 122.778C53.2991 122.842 52.8156 122.845 52.358 122.804C51.4427 122.723 50.6455 122.459 50.0217 122.162C49.3943 121.865 48.9403 121.523 48.6525 121.267C48.5011 121.144 48.4015 121.033 48.3314 120.959C48.2612 120.884 48.228 120.844 48.2317 120.84C48.2428 120.825 48.3978 120.974 48.7004 121.208C48.9994 121.441 49.457 121.761 50.0808 122.036C50.7008 122.314 51.4833 122.556 52.3764 122.626C53.2696 122.7 54.2624 122.585 55.2331 122.214C56.2037 121.854 57.1043 121.393 58.0048 121.178C58.9017 120.948 59.7542 121.007 60.426 121.178C61.1014 121.345 61.607 121.612 61.9281 121.824C62.0905 121.932 62.2086 122.021 62.2861 122.088C62.3636 122.155 62.4005 122.192 62.3968 122.195V122.199Z" fill="#FAFAFA"/>
<path d="M65.3044 128.442C65.2933 128.464 65.0608 128.315 64.5921 128.215C64.1234 128.115 63.411 128.122 62.5917 128.397C62.182 128.531 61.7465 128.713 61.2962 128.954C60.846 129.192 60.3772 129.474 59.8716 129.749C59.3623 130.024 58.8124 130.295 58.1997 130.473C57.587 130.648 56.9043 130.7 56.2399 130.555C54.9039 130.261 53.8446 129.485 52.8703 128.898C51.8996 128.297 50.9437 127.859 50.0874 127.799C49.2312 127.729 48.541 127.963 48.1424 128.219C47.7327 128.475 47.5851 128.716 47.5667 128.698C47.563 128.694 47.5999 128.638 47.6774 128.534C47.7623 128.438 47.8951 128.293 48.0981 128.156C48.4967 127.87 49.2053 127.606 50.0948 127.662C50.988 127.706 51.9771 128.148 52.9588 128.746C53.948 129.329 54.9961 130.087 56.2768 130.365C56.9116 130.503 57.5575 130.458 58.148 130.291C58.7386 130.124 59.2811 129.86 59.7867 129.593C60.2924 129.325 60.7648 129.047 61.2224 128.809C61.6801 128.572 62.1267 128.393 62.5511 128.263C63.3926 128 64.1344 128.015 64.6105 128.141C64.8504 128.204 65.0276 128.278 65.1383 128.338C65.2527 128.401 65.3081 128.434 65.3044 128.442Z" fill="#FAFAFA"/>
<path d="M66.2457 135.538C66.2457 135.538 66.1867 135.575 66.0575 135.616C65.932 135.657 65.7364 135.702 65.4854 135.713C64.9798 135.75 64.2453 135.601 63.4075 135.275C62.9868 135.122 62.5328 134.94 62.0272 134.822C61.5215 134.714 60.9679 134.673 60.3848 134.729C59.2185 134.829 57.9895 135.271 56.6756 135.65C56.0186 135.839 55.3617 135.991 54.7121 136.055C54.0626 136.121 53.4351 136.099 52.8409 136.029C51.6562 135.876 50.6302 135.538 49.796 135.212C48.9619 134.881 48.3087 134.558 47.8658 134.331C47.6443 134.216 47.4709 134.123 47.3565 134.06C47.242 133.997 47.183 133.96 47.1867 133.953C47.1867 133.945 47.2531 133.971 47.3749 134.027C47.5152 134.09 47.6886 134.168 47.899 134.265C48.353 134.473 49.0099 134.773 49.8477 135.085C50.6818 135.397 51.7005 135.713 52.8631 135.854C53.4462 135.921 54.0625 135.936 54.6937 135.869C55.3248 135.806 55.9707 135.653 56.6239 135.468C57.9268 135.093 59.1705 134.647 60.37 134.554C60.9679 134.502 61.5437 134.554 62.0641 134.669C62.5845 134.799 63.0385 134.989 63.4555 135.148C64.2822 135.486 64.9872 135.65 65.4817 135.639C65.9763 135.635 66.2383 135.516 66.242 135.538H66.2457Z" fill="#FAFAFA"/>
<path d="M70.0288 117.539C70.0288 117.539 69.9661 117.643 69.8037 117.78C69.645 117.917 69.3903 118.099 69.0434 118.248C68.6928 118.393 68.2462 118.512 67.7406 118.5C67.2349 118.5 66.685 118.337 66.172 118.085C65.6553 117.836 65.1903 117.565 64.7363 117.401C64.286 117.242 63.8468 117.212 63.4888 117.26C63.1308 117.312 62.8688 117.457 62.7138 117.583C62.5587 117.713 62.496 117.813 62.4812 117.802C62.4739 117.802 62.5181 117.684 62.6658 117.528C62.8134 117.375 63.0902 117.197 63.4704 117.123C63.8468 117.048 64.3155 117.067 64.799 117.23C65.2751 117.39 65.7549 117.661 66.2606 117.906C66.7662 118.155 67.2718 118.311 67.7516 118.322C68.2314 118.341 68.6595 118.244 68.9991 118.118C69.6856 117.854 70.0104 117.505 70.0325 117.539H70.0288Z" fill="#FAFAFA"/>
<path d="M48.5973 117.357C48.5973 117.357 48.5714 117.42 48.4792 117.487C48.3869 117.553 48.2208 117.613 48.0141 117.609C47.8111 117.609 47.5639 117.546 47.3313 117.412C47.0988 117.282 46.8774 117.104 46.6338 116.948C46.1614 116.621 45.6188 116.595 45.2534 116.67C44.8844 116.736 44.6814 116.874 44.6629 116.844C44.6482 116.829 44.8327 116.647 45.2239 116.536C45.6004 116.421 46.2204 116.432 46.7371 116.785C46.9918 116.952 47.2059 117.13 47.4199 117.26C47.6266 117.39 47.8407 117.457 48.0215 117.475C48.3943 117.52 48.5825 117.331 48.601 117.36L48.5973 117.357Z" fill="#FAFAFA"/>
<path d="M38.5689 129.348L43.939 128.698L47.722 131.193L62.1934 127.703L62.6178 119.577L69.1136 119.418L68.9622 128.95C68.8995 132.022 66.3603 134.45 63.3117 134.365L42.1194 133.774L41.2189 131.958L36.6719 131.821L38.5726 129.34L38.5689 129.348Z" fill="#FFBE9D"/>
<path d="M62.0088 127.706C62.0088 127.706 61.9166 127.74 61.7357 127.788C61.5401 127.84 61.2781 127.907 60.9496 127.996C60.2484 128.17 59.2592 128.419 58.045 128.724C55.5759 129.325 52.1915 130.15 48.449 131.063C48.1501 131.134 47.8511 131.208 47.5559 131.279L47.519 131.286L47.4894 131.268C46.1497 130.384 44.8764 129.537 43.7101 128.765L43.7618 128.776C41.6359 129.021 39.7979 129.236 38.3881 129.4L38.425 129.381C37.8234 130.15 37.3473 130.759 37.0077 131.193C36.849 131.394 36.7198 131.55 36.6239 131.669C36.5353 131.776 36.4873 131.828 36.4836 131.828C36.4799 131.828 36.5205 131.765 36.6017 131.654C36.6903 131.531 36.8121 131.368 36.9634 131.16C37.2919 130.718 37.7606 130.098 38.3438 129.318L38.3585 129.299H38.3807C39.7868 129.121 41.6248 128.887 43.747 128.624H43.7765L43.7987 128.635C44.9687 129.403 46.2457 130.243 47.5854 131.127L47.519 131.115C47.8142 131.045 48.1095 130.974 48.4121 130.9C52.1582 130.009 55.5463 129.199 58.0191 128.609C59.2371 128.326 60.2299 128.096 60.9348 127.933C61.267 127.859 61.5327 127.799 61.7283 127.758C61.9092 127.721 62.0052 127.703 62.0088 127.71V127.706Z" fill="#EB996E"/>
<path d="M41.503 130.896C41.503 130.945 40.5692 130.982 39.4177 130.982C39.2885 130.982 39.1594 130.982 39.0376 130.982L39.0929 130.963C38.3474 131.591 37.7679 132.044 37.7421 132.01C37.7163 131.981 38.2514 131.476 38.9859 130.837L39.008 130.818H39.0376C39.163 130.818 39.2885 130.818 39.4177 130.818C40.5692 130.818 41.503 130.855 41.503 130.904V130.896Z" fill="#EB996E"/>
<path d="M64.6733 129.333C64.629 129.359 64.3485 128.679 63.6177 128.226C62.8943 127.758 62.1636 127.803 62.171 127.747C62.171 127.729 62.3481 127.688 62.6397 127.71C62.9312 127.732 63.3299 127.84 63.71 128.081C64.0901 128.323 64.3596 128.638 64.5072 128.891C64.6548 129.144 64.6954 129.326 64.677 129.329L64.6733 129.333Z" fill="#EB996E"/>
</g>
<defs>
<clipPath id="clip0_46_1403">
<rect width="249" height="149" fill="white" transform="translate(0.849609)"/>
</clipPath>
</defs>
</svg>
