<?xml version="1.0" encoding="utf-8"?>
<!-- Generator: Adobe Illustrator 21.1.0, SVG Export Plug-In . SVG Version: 6.00 Build 0)  -->
<svg version="1.1" id="Capa_1" xmlns="http://www.w3.org/2000/svg" xmlns:xlink="http://www.w3.org/1999/xlink" x="0px" y="0px"
	 viewBox="0 0 82.3 64.4" style="enable-background:new 0 0 82.3 64.4;" xml:space="preserve">
<style type="text/css">
	.st0{fill:#FB6C5A;}
</style>
<g>
	<g>
		<circle class="st0" cx="27.2" cy="27.2" r="27"/>
		<circle class="st0" cx="68.2" cy="50.2" r="14"/>
	</g>
</g>
<g>
	<g>
		<g>
			<path d="M55.2,27.2C55.2,27.2,55.2,27.2,55.2,27.2H21.4c-0.3,0-0.6,0.3-0.6,0.6c0,0,0,0,0,0V44c0,0.3,0.3,0.6,0.6,0.6
				c0,0,0,0,0,0h22.9c0.3,0,0.6-0.3,0.6-0.6c0-0.3-0.3-0.6-0.6-0.6H22v-15h32.6v1.4c0,0.3,0.3,0.6,0.6,0.6c0,0,0,0,0,0
				c0.3,0,0.6-0.3,0.6-0.6c0,0,0,0,0,0v-2C55.7,27.5,55.5,27.2,55.2,27.2z"/>
		</g>
	</g>
	<g>
		<g>
			<path d="M51.2,24.5l-27-6.1c-0.1,0-0.3,0-0.4,0.1c-0.1,0.1-0.2,0.2-0.3,0.4L22.2,25c-0.1,0.3,0.1,0.6,0.4,0.7s0.6-0.1,0.7-0.4
				l1.2-5.5L51,25.6c0,0,0.1,0,0.1,0c0.3,0,0.6-0.3,0.6-0.6C51.7,24.8,51.5,24.6,51.2,24.5z"/>
		</g>
	</g>
	<g>
		<g>
			<path d="M48,21.2l-16.2-6.7c-0.3-0.1-0.6,0-0.7,0.3l-1.3,2.7c-0.2,0.3,0,0.6,0.2,0.8c0.3,0.2,0.6,0,0.8-0.2c0,0,0,0,0,0v0
				l1.1-2.2l15.7,6.5c0.3,0.1,0.6,0,0.8-0.3C48.4,21.6,48.2,21.3,48,21.2z"/>
		</g>
	</g>
	<g>
		<g>
			<path d="M48.4,29.9H43c-0.3,0-0.6,0.3-0.6,0.6c0,0.3,0.3,0.6,0.6,0.6h5.4c0.3,0,0.6-0.3,0.6-0.6C48.9,30.2,48.7,29.9,48.4,29.9z"
				/>
		</g>
	</g>
	<g>
		<g>
			<path d="M37.6,29.9c-3.3,0-5.9,2.7-5.9,5.9c0,3.3,2.7,5.9,5.9,5.9c3.3,0,5.9-2.7,5.9-5.9S40.9,29.9,37.6,29.9z M37.6,40.7
				c-2.7,0-4.9-2.2-4.9-4.9c0-2.7,2.2-4.9,4.9-4.9c2.7,0,4.9,2.2,4.9,4.9C42.5,38.6,40.3,40.7,37.6,40.7z"/>
		</g>
	</g>
	<g>
		<g>
			<path d="M53.8,31.8c-3.6,0-7.4,0.8-7.4,2.7v16.2c0,1.9,3.8,2.7,7.4,2.7c3.6,0,7.4-0.8,7.4-2.7V34.5
				C61.2,32.7,57.4,31.8,53.8,31.8z M59.9,50.7c-0.1,0.4-2.1,1.4-6.1,1.4s-6-1-6.1-1.3v-1.1c1.4,0.7,3.8,1.1,6.1,1.1
				c2.3,0,4.6-0.3,6.1-1.1V50.7z M59.9,48c-0.1,0.4-2.1,1.4-6.1,1.4s-6-1-6.1-1.3V47c1.4,0.7,3.8,1.1,6.1,1.1c2.3,0,4.6-0.3,6.1-1.1
				V48z M59.9,45.3c-0.1,0.4-2.1,1.4-6.1,1.4s-6-1-6.1-1.3v-1.1c1.4,0.7,3.8,1.1,6.1,1.1c2.3,0,4.6-0.3,6.1-1.1V45.3z M59.9,42.6
				C59.8,43,57.7,44,53.8,44s-6-1-6.1-1.3v-1.1c1.4,0.7,3.8,1.1,6.1,1.1c2.3,0,4.6-0.3,6.1-1.1V42.6z M59.9,39.9
				c-0.1,0.4-2.1,1.4-6.1,1.4s-6-1-6.1-1.3v-1.1c1.4,0.7,3.8,1.1,6.1,1.1c2.3,0,4.6-0.3,6.1-1.1V39.9z M59.9,37.2
				c-0.1,0.4-2.1,1.4-6.1,1.4s-6-1-6.1-1.3v-1.1c1.4,0.7,3.8,1.1,6.1,1.1c2.3,0,4.6-0.3,6.1-1.1V37.2z M53.8,35.9
				c-3.9,0-6-1-6.1-1.3v0c0.1-0.4,2.1-1.4,6.1-1.4c3.9,0,5.9,1,6.1,1.3C59.7,34.9,57.7,35.9,53.8,35.9z"/>
		</g>
	</g>
	<g>
		<g>
			<path d="M32.2,40.7h-5.1l-2.4-2.6v-4.4l2.7-2.6h4.8c0.3,0,0.6-0.3,0.6-0.6s-0.3-0.6-0.6-0.6h-5.1c-0.2,0-0.3,0.1-0.4,0.2l-3,2.9
				c-0.1,0.1-0.2,0.3-0.2,0.5v4.8c0,0.1,0.1,0.3,0.2,0.4l2.7,3c0.1,0.1,0.3,0.2,0.4,0.2h5.4c0.3,0,0.6-0.3,0.6-0.6
				C32.8,41,32.5,40.7,32.2,40.7z"/>
		</g>
	</g>
	<g>
		<g>
			<path d="M37.9,35.2h-0.7c-0.2,0-0.3-0.1-0.3-0.2c0-0.1,0.1-0.2,0.3-0.2H39c0.4,0,0.7-0.3,0.7-0.7s-0.3-0.7-0.7-0.7h-0.7
				c0-0.4-0.3-0.7-0.7-0.7c-0.4,0-0.7,0.3-0.7,0.7v0c-0.7,0.1-1.3,0.7-1.3,1.5c0,0.9,0.8,1.6,1.7,1.5h0.7c0.2,0,0.3,0.1,0.3,0.2
				c0,0.1-0.1,0.2-0.3,0.2h-1.7c-0.4,0-0.7,0.3-0.7,0.7s0.3,0.7,0.7,0.7h0.7c0,0.4,0.3,0.7,0.7,0.7c0.4,0,0.7-0.3,0.7-0.7v0
				c0.7-0.1,1.3-0.7,1.3-1.5C39.6,35.8,38.8,35.2,37.9,35.2z"/>
		</g>
	</g>
</g>
</svg>
