<svg width="62" height="49" viewBox="0 0 62 49" fill="none" xmlns="http://www.w3.org/2000/svg">
<g clip-path="url(#clip0_46_2221)">
<path d="M20.2973 40.5242C31.416 40.5242 40.4295 31.5107 40.4295 20.392C40.4295 9.27322 31.416 0.259705 20.2973 0.259705C9.17856 0.259705 0.165039 9.27322 0.165039 20.392C0.165039 31.5107 9.17856 40.5242 20.2973 40.5242Z" fill="#FB6C5A"/>
<path d="M50.8686 47.9805C56.6339 47.9805 61.3076 43.3068 61.3076 37.5415C61.3076 31.7763 56.6339 27.1026 50.8686 27.1026C45.1034 27.1026 40.4297 31.7763 40.4297 37.5415C40.4297 43.3068 45.1034 47.9805 50.8686 47.9805Z" fill="#FB6C5A"/>
<path d="M41.1754 20.3919H15.9728C15.7491 20.3919 15.5254 20.6156 15.5254 20.8393V32.9186C15.5254 33.1423 15.7491 33.366 15.9728 33.366H33.0479C33.2716 33.366 33.4953 33.1423 33.4953 32.9186C33.4953 32.6949 33.2716 32.4713 33.0479 32.4713H16.4202V21.2867H40.728V22.3306C40.728 22.5543 40.9517 22.778 41.1754 22.778C41.3991 22.778 41.6228 22.5543 41.6228 22.3306V20.8393C41.5482 20.6156 41.3991 20.3919 41.1754 20.3919Z" fill="black"/>
<path d="M38.1927 18.3787L18.0605 13.8303C17.9859 13.8303 17.8368 13.8303 17.7622 13.9049C17.6877 13.9795 17.6131 14.054 17.5385 14.2031L16.5692 18.7515C16.4946 18.9752 16.6438 19.1989 16.8675 19.2735C17.0911 19.3481 17.3148 19.1989 17.3894 18.9752L18.2842 14.8742L38.0436 19.1989H38.1182C38.3419 19.1989 38.5655 18.9752 38.5655 18.7515C38.5655 18.6024 38.4164 18.4533 38.1927 18.3787Z" fill="black"/>
<path d="M35.8072 15.918L23.7279 10.9222C23.5042 10.8477 23.2805 10.9222 23.2059 11.1459L22.2366 13.1592C22.0874 13.3829 22.2366 13.6065 22.3857 13.7557C22.6094 13.9048 22.8331 13.7557 22.9822 13.6065L23.8024 11.9661L35.5089 16.8128C35.7326 16.8874 35.9563 16.8128 36.1055 16.5891C36.1055 16.2163 35.9563 15.9926 35.8072 15.918Z" fill="black"/>
<path d="M36.1047 22.4051H32.0782C31.8545 22.4051 31.6309 22.6288 31.6309 22.8525C31.6309 23.0762 31.8545 23.2999 32.0782 23.2999H36.1047C36.3284 23.2999 36.5521 23.0762 36.5521 22.8525C36.4775 22.6288 36.3284 22.4051 36.1047 22.4051Z" fill="black"/>
<path d="M28.0526 22.4051C25.592 22.4051 23.6533 24.4183 23.6533 26.8044C23.6533 29.265 25.6665 31.2036 28.0526 31.2036C30.5132 31.2036 32.4519 29.1904 32.4519 26.8044C32.4519 24.4183 30.5132 22.4051 28.0526 22.4051ZM28.0526 30.458C26.0394 30.458 24.399 28.8176 24.399 26.8044C24.399 24.7911 26.0394 23.1507 28.0526 23.1507C30.0658 23.1507 31.7062 24.7911 31.7062 26.8044C31.7062 28.8921 30.0658 30.458 28.0526 30.458Z" fill="black"/>
<path d="M40.131 23.8218C37.4467 23.8218 34.6133 24.4183 34.6133 25.835V37.9144C34.6133 39.3311 37.4467 39.9276 40.131 39.9276C42.8153 39.9276 45.6487 39.3311 45.6487 37.9144V25.835C45.6487 24.4929 42.8153 23.8218 40.131 23.8218ZM44.6794 37.9144C44.6048 38.2126 43.1136 38.9582 40.131 38.9582C37.1485 38.9582 35.6572 38.2126 35.5826 37.9889V37.1687C36.6265 37.6907 38.416 37.9889 40.131 37.9889C41.846 37.9889 43.5609 37.7652 44.6794 37.1687V37.9144ZM44.6794 35.9011C44.6048 36.1994 43.1136 36.945 40.131 36.945C37.1485 36.945 35.6572 36.1994 35.5826 35.9757V35.1555C36.6265 35.6774 38.416 35.9757 40.131 35.9757C41.846 35.9757 43.5609 35.752 44.6794 35.1555V35.9011ZM44.6794 33.8879C44.6048 34.1862 43.1136 34.9318 40.131 34.9318C37.1485 34.9318 35.6572 34.1862 35.5826 33.9625V33.1423C36.6265 33.6642 38.416 33.9625 40.131 33.9625C41.846 33.9625 43.5609 33.7388 44.6794 33.1423V33.8879ZM44.6794 31.8747C44.6048 32.1729 43.039 32.9186 40.131 32.9186C37.223 32.9186 35.6572 32.1729 35.5826 31.9492V31.129C36.6265 31.651 38.416 31.9492 40.131 31.9492C41.846 31.9492 43.5609 31.7255 44.6794 31.129V31.8747ZM44.6794 29.8615C44.6048 30.1597 43.1136 30.9053 40.131 30.9053C37.1485 30.9053 35.6572 30.1597 35.5826 29.936V29.1158C36.6265 29.6378 38.416 29.936 40.131 29.936C41.846 29.936 43.5609 29.7123 44.6794 29.1158V29.8615ZM44.6794 27.8482C44.6048 28.1465 43.1136 28.8921 40.131 28.8921C37.1485 28.8921 35.6572 28.1465 35.5826 27.9228V27.1026C36.6265 27.6245 38.416 27.9228 40.131 27.9228C41.846 27.9228 43.5609 27.6991 44.6794 27.1026V27.8482ZM40.131 26.8789C37.223 26.8789 35.6572 26.1333 35.5826 25.9096C35.6572 25.6113 37.1485 24.8657 40.131 24.8657C43.039 24.8657 44.5303 25.6113 44.6794 25.835C44.5303 26.1333 43.039 26.8789 40.131 26.8789Z" fill="black"/>
<path d="M24.0261 30.458H20.2234L18.4338 28.5193V25.2385L20.4471 23.2999H24.0261C24.2498 23.2999 24.4735 23.0762 24.4735 22.8525C24.4735 22.6288 24.2498 22.4051 24.0261 22.4051H20.2234C20.0742 22.4051 19.9997 22.4797 19.9251 22.5542L17.6882 24.7166C17.6136 24.7911 17.5391 24.9403 17.5391 25.0894V28.6685C17.5391 28.743 17.6136 28.8922 17.6882 28.9667L19.7014 31.2036C19.776 31.2782 19.9251 31.3528 19.9997 31.3528H24.0261C24.2498 31.3528 24.4735 31.1291 24.4735 30.9054C24.4735 30.6817 24.2498 30.458 24.0261 30.458Z" fill="black"/>
<path d="M28.2755 26.357H27.7536C27.6044 26.357 27.5299 26.2825 27.5299 26.2079C27.5299 26.1333 27.6044 26.0588 27.7536 26.0588H29.0957C29.394 26.0588 29.6177 25.8351 29.6177 25.5368C29.6177 25.2386 29.394 25.0149 29.0957 25.0149H28.5738C28.5738 24.7166 28.3501 24.4929 28.0518 24.4929C27.7536 24.4929 27.5299 24.7166 27.5299 25.0149C27.0079 25.0894 26.5605 25.5368 26.5605 26.1333C26.5605 26.8044 27.1571 27.3263 27.8281 27.2518H28.3501C28.4992 27.2518 28.5738 27.3263 28.5738 27.4009C28.5738 27.4755 28.4992 27.55 28.3501 27.55H27.0825C26.7842 27.55 26.5605 27.7737 26.5605 28.072C26.5605 28.3702 26.7842 28.5939 27.0825 28.5939H27.6044C27.6044 28.8922 27.8281 29.1159 28.1264 29.1159C28.4246 29.1159 28.6483 28.8922 28.6483 28.5939C29.1703 28.5194 29.6177 28.072 29.6177 27.4755C29.5431 26.8044 28.9466 26.357 28.2755 26.357Z" fill="black"/>
</g>
<defs>
<clipPath id="clip0_46_2221">
<rect width="61.3661" height="48.0191" fill="white" transform="translate(0.015625 0.110596)"/>
</clipPath>
</defs>
</svg>
