<?xml version="1.0" encoding="utf-8"?>
<!-- Generator: Adobe Illustrator 21.1.0, SVG Export Plug-In . SVG Version: 6.00 Build 0)  -->
<svg version="1.1" id="Layer_1" xmlns="http://www.w3.org/2000/svg" xmlns:xlink="http://www.w3.org/1999/xlink" x="0px" y="0px"
	 viewBox="0 0 24 24" style="enable-background:new 0 0 24 24;" xml:space="preserve">
<style type="text/css">
	.st0{fill:#848484;}
</style>
<path class="st0" d="M12,6.5c1.4,0,2.5,1.1,2.5,2.5s-1.1,2.5-2.5,2.5S9.5,10.4,9.5,9S10.6,6.5,12,6.5 M12,2c3.9,0,7,3.1,7,7
	c0,5.3-7,13-7,13S5,14.3,5,9C5,5.1,8.1,2,12,2 M12,4C9.2,4,7,6.2,7,9c0,1,0,3,5,9.7C17,12,17,10,17,9C17,6.2,14.8,4,12,4z"/>
</svg>
