<svg width="63" height="49" viewBox="0 0 63 49" fill="none" xmlns="http://www.w3.org/2000/svg">
<g clip-path="url(#clip0_46_2173)">
<path d="M21.3453 41.1202C32.4523 41.1202 41.4562 32.1162 41.4562 21.0093C41.4562 9.90231 32.4523 0.898346 21.3453 0.898346C10.2383 0.898346 1.23438 9.90231 1.23438 21.0093C1.23438 32.1162 10.2383 41.1202 21.3453 41.1202Z" fill="#FB6C5A"/>
<path d="M51.8839 48.5686C57.6431 48.5686 62.3118 43.8999 62.3118 38.1407C62.3118 32.3816 57.6431 27.7129 51.8839 27.7129C46.1248 27.7129 41.4561 32.3816 41.4561 38.1407C41.4561 43.8999 46.1248 48.5686 51.8839 48.5686Z" fill="#FB6C5A"/>
<path d="M7.71493 42.3118H28.3472C29.39 42.3118 30.2094 41.4925 30.2094 40.4497C30.2094 34.4164 30.2094 34.7888 30.2094 34.5654C30.0604 31.586 27.4534 30.4687 27.3045 30.3942L21.2712 28.0852V26.8934C22.2395 26.1486 22.9099 25.0313 23.0588 23.7651C24.3251 23.5416 25.1444 22.4988 25.1444 21.3815C25.1444 20.7857 24.9209 20.2643 24.623 19.8918V18.0297C24.623 14.38 21.6436 11.3261 17.9194 11.3261C14.2696 11.3261 11.2157 14.3055 11.2157 18.0297V19.8918C10.8433 20.3388 10.6943 20.8602 10.6943 21.3815C10.6943 22.5733 11.5881 23.6161 12.7799 23.8395C13.0034 25.1058 13.6737 26.2231 14.7165 27.0424V28.1597C14.1206 28.3831 9.42808 30.1708 8.68323 30.4687C8.53426 30.5432 5.77832 31.6605 5.77832 34.9378V40.5242C5.85281 41.4925 6.67214 42.3118 7.71493 42.3118ZM23.1333 22.2009V20.4877C23.5057 20.6367 23.6547 21.0091 23.6547 21.3071C23.6547 21.6795 23.4312 22.0519 23.1333 22.2009ZM12.7799 17.9552C12.7799 15.1248 15.0889 12.8158 17.9194 12.8158C20.7498 12.8158 23.0588 15.1248 23.0588 17.9552V18.9235C23.0588 18.6256 22.8354 18.4021 22.6864 18.2532C22.4629 18.0297 22.0905 17.5828 21.3457 16.838C20.9732 16.3911 20.3029 16.3166 19.856 16.689C18.0683 17.8808 15.9083 18.4021 13.9717 18.2532C13.4503 18.1787 13.0034 18.5511 12.7799 18.998H12.7054V17.9552H12.7799ZM12.2585 21.3815C12.2585 21.0091 12.482 20.7857 12.7799 20.5622V22.2009C12.482 22.0519 12.2585 21.6795 12.2585 21.3815ZM14.3441 22.9457C14.3441 22.9457 14.3441 19.8174 14.3441 19.7429C16.3552 19.8174 18.6642 19.2215 20.5263 18.0297C21.1222 18.6256 21.4946 18.998 21.6436 19.2215C21.6436 19.296 21.6436 22.8712 21.6436 22.9457C21.5691 25.0313 19.9305 26.521 18.0683 26.521C15.7593 26.521 14.3441 24.8078 14.3441 22.9457ZM17.9938 28.0107C18.5897 28.0107 19.1856 27.9362 19.707 27.7128V28.1597C19.707 28.6066 20.0049 29.0535 20.3774 29.3514C19.707 30.0218 18.8132 30.3942 17.9194 30.3942C17.0255 30.3942 16.1317 30.0218 15.5358 29.4259C15.9828 29.2025 16.2807 28.7556 16.2807 28.2342V27.8617C16.8766 27.9362 17.4725 28.0107 17.9938 28.0107ZM7.3425 34.8633C7.3425 33.2991 8.31081 32.2563 9.27911 31.8094L14.0461 29.9473L14.3441 30.2452C15.3124 31.288 16.5786 31.8094 17.9938 31.8094C19.3346 31.8094 20.6753 31.2136 21.6436 30.2452L22.016 29.8728L26.8575 31.7349C27.8259 32.1819 28.7942 33.2246 28.7942 34.7888V40.3752C28.7942 40.5987 28.6452 40.7476 28.4217 40.7476H26.1872V35.7571C26.1872 35.3102 25.8148 35.0123 25.4423 35.0123C24.9954 35.0123 24.6975 35.3847 24.6975 35.7571V40.7476H11.4392V35.7571C11.4392 35.3102 11.0667 35.0123 10.6943 35.0123C10.2474 35.0123 9.94948 35.3847 9.94948 35.7571V40.7476H7.71493C7.49147 40.7476 7.3425 40.5987 7.3425 40.3752V34.8633Z" fill="black"/>
<path d="M37.8816 6.26118L34.3063 4.10112C33.636 3.7287 32.8167 4.17561 32.8167 4.99494V5.36736H26.3365C25.3682 5.36736 24.5488 6.1867 24.5488 7.155C24.5488 8.12331 25.3682 8.94264 26.3365 8.94264H32.8167V9.31506C32.8167 10.1344 33.636 10.5813 34.3063 10.2089L37.8816 8.04882C38.552 7.6764 38.552 6.70809 37.8816 6.26118ZM34.3808 8.42125V8.19779C34.3808 7.75088 34.0084 7.45294 33.636 7.45294H26.411C26.262 7.45294 26.113 7.30397 26.113 7.155C26.113 7.00603 26.262 6.85706 26.411 6.85706H33.636C34.0829 6.85706 34.3808 6.48464 34.3808 6.11221V5.88876L36.4664 7.155L34.3808 8.42125Z" fill="black"/>
<path d="M36.6153 13.4117H34.4553C34.0083 13.4117 33.7104 13.7842 33.7104 14.1566C33.7104 14.6035 34.0828 14.9014 34.4553 14.9014H36.6153C37.5836 14.9014 38.403 14.0821 38.403 13.1138C38.403 12.1455 37.5836 11.3262 36.6153 11.3262H30.1351V10.9537C30.1351 10.1344 29.3158 9.6875 28.6454 10.0599L25.0702 12.22C24.3998 12.5924 24.3998 13.6352 25.0702 14.0076L28.6454 16.1677C29.3158 16.5401 30.1351 16.0932 30.1351 15.2739V14.9014H30.9545C31.4014 14.9014 31.6993 14.529 31.6993 14.1566C31.6993 13.7097 31.3269 13.4117 30.9545 13.4117H29.3903C28.9434 13.4117 28.6454 13.7842 28.6454 14.1566V14.38L26.5599 13.1138L28.6454 11.8476V12.071C28.6454 12.5179 29.0179 12.8159 29.3903 12.8159H36.6153C36.7643 12.8159 36.9133 12.9648 36.9133 13.1138C36.9133 13.3373 36.7643 13.4117 36.6153 13.4117Z" fill="black"/>
<path d="M54.491 30.3942L49.7984 28.6066L48.4577 28.0852V26.8934C49.426 26.1486 50.0964 25.0313 50.2453 23.7651C51.5116 23.5416 52.3309 22.4988 52.3309 21.3815C52.3309 20.7857 52.1075 20.2643 51.8095 19.8918V18.0297C51.8095 14.38 48.8301 11.3261 45.1059 11.3261C41.4561 11.3261 38.4022 14.3055 38.4022 18.0297V19.8918C38.0298 20.3388 37.8808 20.8601 37.8808 21.3815C37.8808 22.5733 38.7747 23.6161 39.9664 23.8395C40.1899 25.1058 40.8602 26.2231 41.903 27.0424V28.1597L35.8698 30.5432C35.8698 30.5432 35.8698 30.5432 35.7953 30.5432C35.4228 30.6922 32.9648 31.9584 32.9648 34.9378V40.5242C32.9648 41.567 33.7842 42.3863 34.827 42.3863H55.4593C56.5021 42.3863 57.3214 41.567 57.3214 40.5242V38.8855C57.3214 38.4386 56.949 38.1406 56.5766 38.1406C56.2041 38.1406 55.8317 38.5131 55.8317 38.8855V40.5242C55.8317 40.7476 55.6827 40.8966 55.4593 40.8966H53.2247V35.9061C53.2247 35.4592 52.8523 35.1613 52.4799 35.1613C52.033 35.1613 51.735 35.5337 51.735 35.9061V40.8966H38.6257V35.9061C38.6257 35.4592 38.2533 35.1613 37.8808 35.1613C37.4339 35.1613 37.136 35.5337 37.136 35.9061V40.8966H34.9015C34.678 40.8966 34.529 40.7476 34.529 40.5242V34.9378C34.529 32.8522 36.1677 32.0329 36.4656 31.8839L41.2327 30.0218L41.5306 30.3197C42.4989 31.3625 43.7652 31.8839 45.1804 31.8839C46.5956 31.8839 47.8618 31.288 48.8301 30.3197L49.2026 29.9473L54.0441 31.8094C55.0124 32.2563 55.9807 33.3736 55.9807 34.8633V35.3102C55.9807 35.7571 56.3531 36.0551 56.7255 36.0551C57.098 36.0551 57.4704 35.6826 57.4704 35.3102V34.8633C57.3959 31.6605 54.5655 30.4687 54.491 30.3942ZM50.3198 22.2009V20.4877C50.6923 20.6367 50.8412 21.0091 50.8412 21.3071C50.8412 21.6795 50.6178 22.0519 50.3198 22.2009ZM39.9664 17.9552C39.9664 15.1248 42.2755 12.8158 45.1059 12.8158C47.9363 12.8158 50.2453 15.1248 50.2453 17.9552V18.9235C50.2453 18.6256 50.0219 18.4021 49.8729 18.2532C49.6495 18.0297 49.3515 17.6573 48.5322 16.838C48.1598 16.3911 47.4894 16.3166 47.0425 16.689C45.2549 17.8808 43.0948 18.4021 41.1582 18.2532C40.6368 18.1787 40.1899 18.5511 39.9664 18.998H39.8919V17.9552H39.9664ZM39.445 21.3815C39.445 21.0091 39.6685 20.7857 39.9664 20.5622V22.2009C39.594 22.0519 39.445 21.6795 39.445 21.3815ZM41.4561 22.9457V19.7429C43.5417 19.8174 45.7762 19.2215 47.6384 18.0297C48.2343 18.6256 48.6067 18.998 48.7556 19.2215V22.8712C48.7556 24.8823 47.117 26.4465 45.1804 26.4465C42.8713 26.521 41.4561 24.7334 41.4561 22.9457ZM42.7224 29.3514C43.1693 29.128 43.4672 28.6811 43.4672 28.1597V27.7872C43.9886 27.9362 44.5845 28.0852 45.1804 28.0852C45.7762 28.0852 46.3721 28.0107 46.8935 27.7872V28.2342C46.8935 28.6811 47.1915 29.128 47.5639 29.4259C46.2232 30.6922 44.0631 30.6922 42.7224 29.3514Z" fill="black"/>
</g>
<defs>
<clipPath id="clip0_46_2173">
<rect width="61.5245" height="47.8938" fill="white" transform="translate(0.936523 0.749481)"/>
</clipPath>
</defs>
</svg>
