<svg width="30" height="234" viewBox="0 0 30 234" fill="none" xmlns="http://www.w3.org/2000/svg">
<path d="M14.5705 29.9617C14.3898 29.9617 14.2087 29.9585 14.0273 29.952C11.8808 29.8714 9.77868 29.3174 7.87133 28.3296C5.96398 27.3417 4.29857 25.9445 2.9943 24.2379C1.69003 22.5314 0.779134 20.5576 0.326805 18.4579C-0.125524 16.3582 -0.108103 14.1844 0.37782 12.0922C0.863742 10 1.80615 8.04112 3.13761 6.35565C4.46907 4.67019 6.15665 3.29985 8.07959 2.34271C10.0025 1.38557 12.1133 0.865289 14.2608 0.819105C16.4083 0.77292 18.5395 1.20197 20.5018 2.07556C20.663 2.14485 20.8088 2.24548 20.9308 2.37158C21.0528 2.49769 21.1485 2.64677 21.2124 2.81017C21.2763 2.97357 21.3071 3.14803 21.303 3.32343C21.2989 3.49883 21.2601 3.67168 21.1887 3.83193C21.1172 3.99219 21.0147 4.13667 20.887 4.25698C20.7593 4.37729 20.6089 4.47103 20.4447 4.53278C20.2805 4.59452 20.1056 4.62303 19.9303 4.61664C19.7549 4.61026 19.5826 4.56912 19.4233 4.4956C17.0745 3.44936 14.4505 3.1903 11.9425 3.75706C9.43449 4.32381 7.17687 5.68602 5.50631 7.64053C3.83575 9.59504 2.84175 12.0372 2.67254 14.6027C2.50333 17.1682 3.16797 19.7197 4.56735 21.8767C5.96689 24.0335 8.02616 25.6803 10.4381 26.5713C12.85 27.4623 15.4853 27.5499 17.9511 26.821C20.4168 26.0921 22.5809 24.5858 24.1206 22.5266C25.6603 20.4674 26.4931 17.9657 26.4948 15.3947V14.1758C26.4948 13.8244 26.6344 13.4874 26.8829 13.239C27.1314 12.9905 27.4684 12.851 27.8198 12.851C28.1712 12.851 28.5082 12.9905 28.7566 13.239C29.0051 13.4874 29.1447 13.8244 29.1447 14.1758V15.3947C29.1431 19.2587 27.6068 22.9638 24.8738 25.6955C22.1408 28.4272 18.4348 29.9617 14.5705 29.9617Z" fill="#34A853"/>
<path d="M14.57 19.3825C14.396 19.3825 14.2236 19.3483 14.0628 19.2818C13.902 19.2153 13.7559 19.1177 13.6328 18.9947L9.65805 15.0202C9.41671 14.7703 9.28316 14.4357 9.28618 14.0883C9.2892 13.7409 9.42854 13.4086 9.67419 13.163C9.91985 12.9174 10.2522 12.778 10.5995 12.775C10.9469 12.772 11.2816 12.9055 11.5315 13.1469L14.57 16.1834L26.8821 3.85971C27.1318 3.61825 27.4664 3.48456 27.8138 3.48741C28.1612 3.49026 28.4936 3.62944 28.7394 3.87496C28.9851 4.12048 29.1246 4.45271 29.1278 4.80008C29.131 5.14745 28.9976 5.48217 28.7564 5.73215L15.5072 18.9938C15.3841 19.117 15.238 19.2147 15.0772 19.2814C14.9164 19.3481 14.7441 19.3824 14.57 19.3825Z" fill="#34A853"/>
</svg>
