<svg width="46" height="782" viewBox="0 0 46 782" fill="none" xmlns="http://www.w3.org/2000/svg">
<rect x="22.2607" y="0.962906" width="2.2509" height="780.311" fill="#E0E0DF"/>
<rect x="0.876953" y="75.9928" width="45.018" height="45.018" rx="22.509" fill="#F24026"/>
<path d="M19.0896 106.017C17.7991 106.017 16.6436 105.702 15.6232 105.071C14.6028 104.426 13.8 103.496 13.2147 102.28C12.6295 101.065 12.3369 99.5942 12.3369 97.8685C12.3369 96.1428 12.6295 94.6722 13.2147 93.4568C13.8 92.2413 14.6028 91.3184 15.6232 90.6881C16.6436 90.0429 17.7991 89.7203 19.0896 89.7203C20.3951 89.7203 21.5506 90.0429 22.556 90.6881C23.5764 91.3184 24.3792 92.2413 24.9644 93.4568C25.5496 94.6722 25.8423 96.1428 25.8423 97.8685C25.8423 99.5942 25.5496 101.065 24.9644 102.28C24.3792 103.496 23.5764 104.426 22.556 105.071C21.5506 105.702 20.3951 106.017 19.0896 106.017ZM19.0896 102.933C19.7048 102.933 20.2375 102.76 20.6877 102.415C21.1529 102.07 21.513 101.522 21.7681 100.772C22.0382 100.022 22.1733 99.054 22.1733 97.8685C22.1733 96.683 22.0382 95.7152 21.7681 94.9649C21.513 94.2146 21.1529 93.6668 20.6877 93.3217C20.2375 92.9766 19.7048 92.804 19.0896 92.804C18.4893 92.804 17.9566 92.9766 17.4914 93.3217C17.0413 93.6668 16.6811 94.2146 16.411 94.9649C16.1559 95.7152 16.0283 96.683 16.0283 97.8685C16.0283 99.054 16.1559 100.022 16.411 100.772C16.6811 101.522 17.0413 102.07 17.4914 102.415C17.9566 102.76 18.4893 102.933 19.0896 102.933ZM29.957 105.747V91.3409L31.5326 92.9165H26.8058V89.9904H33.6035V105.747H29.957Z" fill="white"/>
<rect x="17.3838" y="0.962921" width="12.0048" height="12.0048" rx="6.00239" fill="#E0E0DF"/>
<rect x="0.876953" y="263.568" width="45.018" height="45.018" rx="22.509" fill="#F24026"/>
<path d="M17.7388 292.556C16.6203 292.556 15.6189 292.283 14.7346 291.736C13.8502 291.177 13.1545 290.371 12.6472 289.317C12.14 288.264 11.8864 286.989 11.8864 285.494C11.8864 283.998 12.14 282.724 12.6472 281.67C13.1545 280.617 13.8502 279.817 14.7346 279.271C15.6189 278.712 16.6203 278.432 17.7388 278.432C18.8702 278.432 19.8716 278.712 20.743 279.271C21.6273 279.817 22.3231 280.617 22.8303 281.67C23.3375 282.724 23.5911 283.998 23.5911 285.494C23.5911 286.989 23.3375 288.264 22.8303 289.317C22.3231 290.371 21.6273 291.177 20.743 291.736C19.8716 292.283 18.8702 292.556 17.7388 292.556ZM17.7388 289.883C18.272 289.883 18.7337 289.734 19.1238 289.434C19.527 289.135 19.8391 288.661 20.0602 288.01C20.2943 287.36 20.4113 286.521 20.4113 285.494C20.4113 284.466 20.2943 283.628 20.0602 282.977C19.8391 282.327 19.527 281.852 19.1238 281.553C18.7337 281.254 18.272 281.105 17.7388 281.105C17.2186 281.105 16.7569 281.254 16.3537 281.553C15.9636 281.852 15.6514 282.327 15.4174 282.977C15.1963 283.628 15.0857 284.466 15.0857 285.494C15.0857 286.521 15.1963 287.36 15.4174 288.01C15.6514 288.661 15.9636 289.135 16.3537 289.434C16.7569 289.734 17.2186 289.883 17.7388 289.883ZM24.9333 292.322V290.273L30.2004 285.299C30.6166 284.922 30.9222 284.583 31.1173 284.284C31.3124 283.985 31.4424 283.712 31.5075 283.465C31.5855 283.218 31.6245 282.99 31.6245 282.782C31.6245 282.236 31.4359 281.82 31.0588 281.534C30.6946 281.235 30.1549 281.085 29.4396 281.085C28.8674 281.085 28.3342 281.196 27.84 281.417C27.3588 281.638 26.9491 281.982 26.611 282.451L24.3091 280.968C24.8293 280.188 25.5576 279.57 26.494 279.115C27.4303 278.66 28.5098 278.432 29.7323 278.432C30.7467 278.432 31.631 278.601 32.3853 278.939C33.1526 279.264 33.7444 279.726 34.1605 280.324C34.5897 280.923 34.8043 281.638 34.8043 282.47C34.8043 282.912 34.7458 283.354 34.6287 283.797C34.5247 284.226 34.3036 284.681 33.9654 285.162C33.6403 285.643 33.1591 286.183 32.5219 286.781L28.1521 290.897L27.5474 289.747H35.253V292.322H24.9333Z" fill="white"/>
<rect x="0.876953" y="451.142" width="45.018" height="45.018" rx="22.509" fill="#F24026"/>
<path d="M17.7769 480.131C16.6584 480.131 15.657 479.857 14.7727 479.311C13.8883 478.752 13.1926 477.946 12.6853 476.892C12.1781 475.839 11.9245 474.564 11.9245 473.069C11.9245 471.573 12.1781 470.299 12.6853 469.245C13.1926 468.192 13.8883 467.392 14.7727 466.846C15.657 466.287 16.6584 466.007 17.7769 466.007C18.9083 466.007 19.9097 466.287 20.7811 466.846C21.6654 467.392 22.3612 468.192 22.8684 469.245C23.3756 470.299 23.6292 471.573 23.6292 473.069C23.6292 474.564 23.3756 475.839 22.8684 476.892C22.3612 477.946 21.6654 478.752 20.7811 479.311C19.9097 479.857 18.9083 480.131 17.7769 480.131ZM17.7769 477.458C18.3101 477.458 18.7718 477.308 19.1619 477.009C19.5651 476.71 19.8772 476.235 20.0983 475.585C20.3324 474.935 20.4494 474.096 20.4494 473.069C20.4494 472.041 20.3324 471.202 20.0983 470.552C19.8772 469.902 19.5651 469.427 19.1619 469.128C18.7718 468.829 18.3101 468.679 17.7769 468.679C17.2567 468.679 16.795 468.829 16.3918 469.128C16.0017 469.427 15.6895 469.902 15.4555 470.552C15.2344 471.202 15.1238 472.041 15.1238 473.069C15.1238 474.096 15.2344 474.935 15.4555 475.585C15.6895 476.235 16.0017 476.71 16.3918 477.009C16.795 477.308 17.2567 477.458 17.7769 477.458ZM29.4025 480.131C28.4531 480.131 27.5102 480.007 26.5738 479.76C25.6374 479.5 24.8441 479.136 24.1939 478.667L25.4229 476.248C25.9431 476.626 26.5478 476.925 27.2371 477.146C27.9264 477.367 28.6221 477.477 29.3244 477.477C30.1177 477.477 30.742 477.321 31.1972 477.009C31.6523 476.697 31.8799 476.268 31.8799 475.722C31.8799 475.202 31.6784 474.792 31.2752 474.493C30.872 474.194 30.2218 474.044 29.3244 474.044H27.8808V471.957L31.6849 467.646L32.036 468.777H24.8766V466.241H34.4355V468.289L30.6509 472.601L29.0513 471.684H29.9682C31.6458 471.684 32.9139 472.061 33.7722 472.815C34.6305 473.569 35.0597 474.538 35.0597 475.722C35.0597 476.489 34.8581 477.211 34.455 477.887C34.0518 478.55 33.4341 479.09 32.6017 479.506C31.7694 479.922 30.703 480.131 29.4025 480.131Z" fill="white"/>
<rect x="0.876953" y="646.22" width="45.018" height="45.018" rx="22.509" fill="#F24026"/>
<path d="M17.2469 675.19C16.2145 675.19 15.2901 674.938 14.4738 674.434C13.6575 673.918 13.0152 673.174 12.5471 672.201C12.0789 671.229 11.8448 670.052 11.8448 668.672C11.8448 667.291 12.0789 666.115 12.5471 665.142C13.0152 664.17 13.6575 663.432 14.4738 662.927C15.2901 662.411 16.2145 662.153 17.2469 662.153C18.2913 662.153 19.2157 662.411 20.02 662.927C20.8364 663.432 21.4786 664.17 21.9468 665.142C22.415 666.115 22.6491 667.291 22.6491 668.672C22.6491 670.052 22.415 671.229 21.9468 672.201C21.4786 673.174 20.8364 673.918 20.02 674.434C19.2157 674.938 18.2913 675.19 17.2469 675.19ZM17.2469 672.723C17.7391 672.723 18.1653 672.585 18.5254 672.309C18.8976 672.033 19.1857 671.595 19.3898 670.995C19.6059 670.394 19.7139 669.62 19.7139 668.672C19.7139 667.723 19.6059 666.949 19.3898 666.349C19.1857 665.749 18.8976 665.31 18.5254 665.034C18.1653 664.758 17.7391 664.62 17.2469 664.62C16.7667 664.62 16.3406 664.758 15.9684 665.034C15.6083 665.31 15.3202 665.749 15.1041 666.349C14.9 666.949 14.798 667.723 14.798 668.672C14.798 669.62 14.9 670.394 15.1041 670.995C15.3202 671.595 15.6083 672.033 15.9684 672.309C16.3406 672.585 16.7667 672.723 17.2469 672.723ZM23.9224 672.327V670.364L29.8648 662.369H32.926L27.1097 670.364L25.6871 669.95H35.609V672.327H23.9224ZM30.7111 674.974V672.327L30.8011 669.95V667.591H33.5562V674.974H30.7111Z" fill="white"/>
<rect x="17.3838" y="769.269" width="12.0048" height="12.0048" rx="6.00239" fill="#E0E0DF"/>
</svg>
