<svg height="436pt" viewBox="-6 0 436 436" width="436pt" xmlns="http://www.w3.org/2000/svg"><path d="m405.269531 95.183594c-15.378906-15.332032-38.886719-19.011719-58.214843-9.109375v-36.074219c-.03125-27.601562-22.398438-49.96875-50-50h-247.054688c-27.601562.03125-49.96875 22.398438-50 50v336c.03125 27.601562 22.398438 49.96875 50 50h247.054688c27.601562-.03125 49.96875-22.398438 50-50v-153.125l62.601562-62.601562c19.527344-19.527344 19.527344-51.183594 0-70.710938zm-220.289062 187.9375 36.425781 36.761718-49.578125 13.152344zm55.722656 27.820312-46.8125-47.242187 135.117187-134.730469 46.835938 46.832031zm86.351563 75.058594c-.019532 16.5625-13.4375 29.980469-30 30h-247.054688c-16.5625-.019531-29.980469-13.4375-30-30v-336c.019531-16.5625 13.4375-29.980469 30-30h247.054688c16.5625.019531 29.984374 13.4375 30 30v52.664062l-154.34375 153.90625c-1.257813 1.253907-2.160157 2.820313-2.609376 4.535157l-21.992187 83.457031c-.90625 3.441406.085937 7.105469 2.605469 9.625 2.519531 2.515625 6.183594 3.5 9.628906 2.585938l82.890625-21.992188c1.703125-.449219 3.257813-1.34375 4.507813-2.59375l79.3125-79.3125zm68.457031-229.867188-5.527344 5.527344-46.816406-46.816406 5.574219-5.558594c11.730468-11.65625 30.675781-11.636718 42.386718.039063l4.382813 4.382812c11.699219 11.722657 11.695312 30.703125 0 42.425781zm0 0"/></svg>