<svg height="512.00002pt" viewBox="0 0 512.00002 512.00002" width="512.00002pt" xmlns="http://www.w3.org/2000/svg"><path d="m473.046875 47.246094h-46.664063v-9.988282c0-20.542968-16.710937-37.257812-37.253906-37.257812-20.546875 0-37.261718 16.714844-37.261718 37.257812v9.988282h-191.742188v-9.988282c0-20.542968-16.714844-37.257812-37.257812-37.257812-20.542969 0-37.257813 16.714844-37.257813 37.257812v9.988282h-46.667969c-21.472656 0-38.941406 17.46875-38.941406 38.941406v361.683594c0 35.359375 28.765625 64.128906 64.125 64.128906h309.484375c4.199219 0 7.605469-3.40625 7.605469-7.605469s-3.40625-7.601562-7.605469-7.601562h-309.484375c-26.972656 0-48.917969-21.945313-48.917969-48.917969v-265.789062c6.578125 5.074218 14.808594 8.101562 23.734375 8.101562h19.90625c4.199219 0 7.605469-3.402344 7.605469-7.601562 0-4.199219-3.40625-7.605469-7.605469-7.605469h-19.90625c-13.085937 0-23.734375-10.652344-23.734375-23.742188v-65.050781c0-13.085938 10.648438-23.734375 23.734375-23.734375h46.667969v31.171875c0 20.542969 16.714844 37.257812 37.257813 37.257812 20.546874 0 37.257812-16.714843 37.257812-37.257812v-31.171875h191.746094v31.171875c0 20.542969 16.714844 37.257812 37.257812 37.257812 20.546875 0 37.257813-16.714843 37.257813-37.257812v-31.171875h46.664062c13.09375 0 23.746094 10.648437 23.746094 23.734375v65.050781c0 13.09375-10.652344 23.742188-23.746094 23.742188h-383.785156c-4.199219 0-7.601563 3.40625-7.601563 7.605469 0 4.199218 3.402344 7.605468 7.601563 7.605468h383.78125c8.933594 0 17.167969-3.03125 23.746094-8.105468v265.789062c0 26.972656-21.949219 48.917969-48.929688 48.917969h-43.835937c-4.199219 0-7.601563 3.402343-7.601563 7.601562s3.402344 7.605469 7.601563 7.605469h43.835937c35.367188 0 64.136719-28.765625 64.136719-64.125v-361.6875c0-21.472656-17.472656-38.941406-38.953125-38.941406zm-328.128906 46.378906c0 12.15625-9.890625 22.050781-22.050781 22.050781-12.160157 0-22.050782-9.890625-22.050782-22.050781v-38.746094c0-.007812 0-.019531 0-.027344 0-.011718 0-.019531 0-.03125v-17.5625c0-12.15625 9.890625-22.050781 22.050782-22.050781 12.160156 0 22.050781 9.890625 22.050781 22.050781zm266.257812 0c0 12.15625-9.890625 22.050781-22.050781 22.050781-12.15625 0-22.050781-9.890625-22.050781-22.050781v-38.738281c0-.011719.003906-.023438.003906-.039063 0-.011718-.003906-.023437-.003906-.039062v-17.550782c0-12.15625 9.894531-22.050781 22.050781-22.050781 12.160156 0 22.050781 9.890625 22.050781 22.050781zm0 0"/><path d="m218.210938 228.390625c-16.492188 0-29.910157 13.417969-29.910157 29.910156 0 16.492188 13.417969 29.910157 29.910157 29.910157 16.492187 0 29.910156-13.417969 29.910156-29.910157 0-16.492187-13.417969-29.910156-29.910156-29.910156zm0 44.609375c-8.105469 0-14.703126-6.59375-14.703126-14.699219s6.597657-14.703125 14.703126-14.703125c8.105468 0 14.699218 6.597656 14.699218 14.703125s-6.59375 14.699219-14.699218 14.699219zm0 0"/><path d="m369.363281 288.210938c16.488281 0 29.90625-13.417969 29.90625-29.910157 0-16.492187-13.417969-29.910156-29.90625-29.910156-16.492187 0-29.910156 13.417969-29.910156 29.910156 0 16.492188 13.417969 29.910157 29.910156 29.910157zm0-44.613282c8.105469 0 14.699219 6.597656 14.699219 14.703125s-6.59375 14.699219-14.699219 14.699219-14.703125-6.59375-14.703125-14.699219 6.59375-14.703125 14.703125-14.703125zm0 0"/><path d="m142.636719 228.390625c-16.492188 0-29.910157 13.417969-29.910157 29.910156 0 16.492188 13.417969 29.910157 29.910157 29.910157 16.488281 0 29.90625-13.417969 29.90625-29.910157 0-16.492187-13.417969-29.910156-29.90625-29.910156zm0 44.609375c-8.109375 0-14.703125-6.59375-14.703125-14.699219s6.59375-14.703125 14.703125-14.703125c8.105469 0 14.699219 6.597656 14.699219 14.703125s-6.59375 14.699219-14.699219 14.699219zm0 0"/><path d="m293.785156 228.390625c-16.488281 0-29.90625 13.417969-29.90625 29.910156 0 16.492188 13.417969 29.910157 29.90625 29.910157 16.492188 0 29.910156-13.417969 29.910156-29.910157 0-16.492187-13.417968-29.910156-29.910156-29.910156zm0 44.609375c-8.105468 0-14.699218-6.59375-14.699218-14.699219s6.59375-14.703125 14.699218-14.703125c8.105469 0 14.703125 6.597656 14.703125 14.703125s-6.597656 14.699219-14.703125 14.699219zm0 0"/><path d="m444.9375 288.210938c16.492188 0 29.910156-13.417969 29.910156-29.910157 0-16.492187-13.417968-29.910156-29.910156-29.910156s-29.910156 13.417969-29.910156 29.910156c0 16.492188 13.417968 29.910157 29.910156 29.910157zm0-44.613282c8.105469 0 14.699219 6.597656 14.699219 14.703125s-6.59375 14.699219-14.699219 14.699219-14.703125-6.59375-14.703125-14.699219 6.597656-14.703125 14.703125-14.703125zm0 0"/><path d="m67.058594 312.542969c-16.488282 0-29.90625 13.417969-29.90625 29.910156s13.417968 29.90625 29.90625 29.90625c16.492187 0 29.910156-13.414063 29.910156-29.90625s-13.417969-29.910156-29.910156-29.910156zm0 44.609375c-8.105469 0-14.699219-6.59375-14.699219-14.699219s6.59375-14.703125 14.699219-14.703125c8.105468 0 14.703125 6.597656 14.703125 14.703125s-6.597657 14.699219-14.703125 14.699219zm0 0"/><path d="m218.210938 312.542969c-16.492188 0-29.910157 13.417969-29.910157 29.910156s13.417969 29.90625 29.910157 29.90625c16.492187 0 29.910156-13.414063 29.910156-29.90625s-13.417969-29.910156-29.910156-29.910156zm0 44.609375c-8.105469 0-14.703126-6.59375-14.703126-14.699219s6.597657-14.703125 14.703126-14.703125c8.105468 0 14.699218 6.597656 14.699218 14.703125s-6.59375 14.699219-14.699218 14.699219zm0 0"/><path d="m369.363281 372.359375c16.488281 0 29.90625-13.414063 29.90625-29.90625s-13.417969-29.910156-29.90625-29.910156c-16.492187 0-29.910156 13.417969-29.910156 29.910156s13.417969 29.90625 29.910156 29.90625zm0-44.609375c8.105469 0 14.699219 6.597656 14.699219 14.703125s-6.59375 14.699219-14.699219 14.699219-14.703125-6.59375-14.703125-14.699219 6.59375-14.703125 14.703125-14.703125zm0 0"/><path d="m142.636719 312.542969c-16.492188 0-29.910157 13.417969-29.910157 29.910156s13.417969 29.90625 29.910157 29.90625c16.488281 0 29.90625-13.414063 29.90625-29.90625s-13.417969-29.910156-29.90625-29.910156zm0 44.609375c-8.109375 0-14.703125-6.59375-14.703125-14.699219s6.59375-14.703125 14.703125-14.703125c8.105469 0 14.699219 6.597656 14.699219 14.703125s-6.59375 14.699219-14.699219 14.699219zm0 0"/><path d="m293.785156 312.542969c-16.488281 0-29.90625 13.417969-29.90625 29.910156s13.417969 29.90625 29.90625 29.90625c16.492188 0 29.910156-13.414063 29.910156-29.90625s-13.417968-29.910156-29.910156-29.910156zm0 44.609375c-8.105468 0-14.699218-6.59375-14.699218-14.699219s6.59375-14.703125 14.699218-14.703125c8.105469 0 14.703125 6.597656 14.703125 14.703125s-6.597656 14.699219-14.703125 14.699219zm0 0"/><path d="m444.9375 372.359375c16.492188 0 29.910156-13.414063 29.910156-29.90625s-13.417968-29.910156-29.910156-29.910156-29.910156 13.417969-29.910156 29.910156 13.417968 29.90625 29.910156 29.90625zm0-44.609375c8.105469 0 14.699219 6.597656 14.699219 14.703125s-6.59375 14.699219-14.699219 14.699219-14.703125-6.59375-14.703125-14.699219 6.597656-14.703125 14.703125-14.703125zm0 0"/><path d="m67.058594 396.695312c-16.488282 0-29.90625 13.417969-29.90625 29.90625 0 16.492188 13.417968 29.910157 29.90625 29.910157 16.492187 0 29.910156-13.417969 29.910156-29.910157 0-16.488281-13.417969-29.90625-29.910156-29.90625zm0 44.609376c-8.105469 0-14.699219-6.59375-14.699219-14.703126 0-8.105468 6.59375-14.699218 14.699219-14.699218 8.105468 0 14.703125 6.59375 14.703125 14.699218 0 8.109376-6.597657 14.703126-14.703125 14.703126zm0 0"/><path d="m218.210938 396.695312c-16.492188 0-29.910157 13.417969-29.910157 29.90625 0 16.492188 13.417969 29.910157 29.910157 29.910157 16.492187 0 29.910156-13.417969 29.910156-29.910157 0-16.488281-13.417969-29.90625-29.910156-29.90625zm0 44.609376c-8.105469 0-14.703126-6.59375-14.703126-14.703126 0-8.105468 6.597657-14.699218 14.703126-14.699218 8.105468 0 14.699218 6.59375 14.699218 14.699218 0 8.109376-6.59375 14.703126-14.699218 14.703126zm0 0"/><path d="m142.636719 396.695312c-16.492188 0-29.910157 13.417969-29.910157 29.90625 0 16.492188 13.417969 29.910157 29.910157 29.910157 16.488281 0 29.90625-13.417969 29.90625-29.910157 0-16.488281-13.417969-29.90625-29.90625-29.90625zm0 44.609376c-8.109375 0-14.703125-6.59375-14.703125-14.703126 0-8.105468 6.59375-14.699218 14.703125-14.699218 8.105469 0 14.699219 6.59375 14.699219 14.699218 0 8.109376-6.59375 14.703126-14.699219 14.703126zm0 0"/><path d="m293.785156 396.695312c-16.488281 0-29.90625 13.417969-29.90625 29.90625 0 16.492188 13.417969 29.910157 29.90625 29.910157 16.492188 0 29.910156-13.417969 29.910156-29.910157 0-16.488281-13.417968-29.90625-29.910156-29.90625zm0 44.609376c-8.105468 0-14.699218-6.59375-14.699218-14.703126 0-8.105468 6.59375-14.699218 14.699218-14.699218 8.105469 0 14.703125 6.59375 14.703125 14.699218 0 8.109376-6.597656 14.703126-14.703125 14.703126zm0 0"/></svg>