<?xml version="1.0" encoding="utf-8"?>
<!-- Generator: Adobe Illustrator 22.1.0, SVG Export Plug-In . SVG Version: 6.00 Build 0)  -->
<svg version="1.1" id="Layer_1" xmlns="http://www.w3.org/2000/svg" xmlns:xlink="http://www.w3.org/1999/xlink" x="0px" y="0px"
	 viewBox="0 0 19 26.7" style="enable-background:new 0 0 19 26.7;" xml:space="preserve">
<path d="M17.7,13.3h-1.4V8.6l0,0c0.7,0,1.3-0.5,1.3-1.3V3.9c0-1.6-1.4-3-3-3H4.4c-1.7-0.1-3,1.3-3,3v3.4c0,0.7,0.5,1.3,1.3,1.3l0,0
	v4.8H1.3c-0.4,0-0.8,0.4-0.8,0.8V15c0,0.4,0.4,0.8,0.8,0.8h0.5l-0.8,9c0,0.3,0.1,0.5,0.2,0.6s0.4,0.3,0.6,0.3h0.5
	c0.4,0,0.7-0.3,0.8-0.6l1.1-5h10.7l1.1,5c0.1,0.4,0.4,0.6,0.8,0.6h0.4c0.3,0,0.5-0.1,0.6-0.3c0.2-0.2,0.3-0.4,0.2-0.6l-0.8-9h0.5
	c0.5,0,0.8-0.4,0.8-0.8v-0.9C18.5,13.7,18.1,13.3,17.7,13.3L17.7,13.3z M15.5,13.3h-0.9V8.6h0.9V13.3z M5.2,13.3V8.6h8.6v4.8H5.2z
	 M2.2,7.3V3.9c0-1.3,0.9-2.2,2.2-2.2h10.3c1.2,0,2.2,1,2.2,2.2v3.4c0,0.3-0.2,0.4-0.4,0.4H2.7C2.4,7.8,2.2,7.6,2.2,7.3z M3.5,8.6
	h0.9v4.8H3.5V8.6z M2.3,24.9L2.3,24.9H1.8l0,0l0,0l0.8-9.1h1.7L2.3,24.9z M13.9,15.9l0.4,1.8H4.7l0.4-1.8H13.9L13.9,15.9z M4.4,19.4
	l0.2-0.9h9.9l0.2,0.9H4.4L4.4,19.4z M17.2,24.9L17.2,24.9L17.2,24.9h-0.5l0,0l-2-9.1h1.7L17.2,24.9L17.2,24.9z M17.7,15L17.7,15H1.3
	l0,0v-0.9l0,0h16.3l0,0L17.7,15L17.7,15z"/>
</svg>
