<?xml version="1.0" encoding="utf-8"?>
<!-- Generator: Adobe Illustrator 21.1.0, SVG Export Plug-In . SVG Version: 6.00 Build 0)  -->
<svg version="1.1" id="Layer_1" xmlns="http://www.w3.org/2000/svg" xmlns:xlink="http://www.w3.org/1999/xlink" x="0px" y="0px"
	 viewBox="0 0 24 24" style="enable-background:new 0 0 24 24;" xml:space="preserve">
<style type="text/css">
	.st0{fill:#0C0B0C;}
	.st1{fill:#FFFFFF;}
</style>
<circle class="st0" cx="12" cy="12" r="12"/>
<g>
	<g>
		<path class="st1" d="M15,13.8c-0.4-0.4-0.8-0.4-1.2,0c-0.3,0.3-0.6,0.6-0.8,0.8c-0.1,0.1-0.1,0.1-0.2,0c-0.2-0.1-0.4-0.2-0.6-0.3
			c-0.8-0.5-1.5-1.2-2.1-1.9c-0.3-0.4-0.6-0.8-0.8-1.2c0-0.1,0-0.1,0-0.2c0.3-0.3,0.6-0.6,0.8-0.8c0.4-0.4,0.4-0.8,0-1.2
			C9.9,8.8,9.7,8.6,9.5,8.3C9.2,8.1,9,7.9,8.8,7.7c-0.4-0.4-0.8-0.4-1.2,0C7.3,7.9,7,8.2,6.7,8.5C6.5,8.8,6.3,9.1,6.3,9.4
			c0,0.6,0.1,1.2,0.3,1.7c0.4,1.1,1.1,2.1,1.8,3c1,1.2,2.3,2.2,3.7,2.9c0.7,0.3,1.3,0.6,2.1,0.6c0.5,0,1-0.1,1.3-0.5
			c0.2-0.3,0.5-0.5,0.8-0.8c0.4-0.4,0.4-0.9,0-1.2C15.9,14.7,15.4,14.3,15,13.8z"/>
		<path class="st1" d="M14.5,12l0.9-0.1c-0.1-0.8-0.5-1.5-1.1-2.1c-0.6-0.6-1.4-1-2.2-1.1l-0.1,0.9c0.7,0.1,1.3,0.4,1.7,0.9
			C14.1,10.8,14.4,11.3,14.5,12z"/>
		<path class="st1" d="M15.9,8.1c-1-1-2.3-1.7-3.7-1.9l-0.1,0.9c1.2,0.2,2.3,0.7,3.2,1.6c0.8,0.8,1.4,1.9,1.6,3l0.9-0.1
			C17.5,10.3,16.9,9.1,15.9,8.1z"/>
	</g>
</g>
</svg>
