<?xml version="1.0" encoding="utf-8"?>
<!-- Generator: Adobe Illustrator 21.1.0, SVG Export Plug-In . SVG Version: 6.00 Build 0)  -->
<svg version="1.1" id="Layer_1" xmlns="http://www.w3.org/2000/svg" xmlns:xlink="http://www.w3.org/1999/xlink" x="0px" y="0px"
	 viewBox="0 0 512 512" style="enable-background:new 0 0 512 512;" xml:space="preserve">
<style type="text/css">
	.st0{display:none;fill:#3498DB;}
	.st1{fill:#BFBEBE;}
	.st2{fill:#F24026;}
</style>
<path class="st0" d="M197.7,457.7h-140v-12c0-33.7,27.6-61.3,61.3-61.3h17.3c33.7,0,61.3,27.6,61.3,61.3L197.7,457.7L197.7,457.7z"
	/>
<path class="st1" d="M300,231v30h180v-30c0-49.9-40.4-91-90-91S300,181.1,300,231z M390,167c38.7,0,63,33.4,63,67H327
	C327,200.4,351.3,167,390,167z"/>
<path class="st2" d="M256,452v27h128.3c11.4,0,18.7-6.3,18.7-17.7V352.2l19.4,19.4l21.2-21.2L391,294.8l-55.6,55.6l21.2,21.2
	l19.4-19.4V443c0,5-4,9-9,9H256z"/>
<path class="st2" d="M106,159.8l-19.4-19.4l-21.2,21.2l55.6,52.6l52.6-52.6l-21.2-21.2L133,159.8V70.6c0-5.9,7.8-13.6,13.6-13.6H256
	V30H133.4C118.3,30,106,42.3,106,57.4V159.8z"/>
<path class="st1" d="M390.2,20c-33.1,0-60,26.9-60,60s26.9,60,60,60s60-26.9,60-60S423.3,20,390.2,20z M391.2,115
	c-19.4,0-35-15.7-35-35c0-19.4,15.7-35,35-35c19.4,0,35,15.7,35,35C426.3,99.3,410.6,115,391.2,115z"/>
<path class="st1" d="M35.5,451v30h180v-30c0-49.9-40.4-91-90-91S35.5,401.1,35.5,451z M125.5,387c38.7,0,63,33.4,63,67h-126
	C62.5,420.4,86.8,387,125.5,387z"/>
<path class="st1" d="M125.7,240c-33.1,0-60,26.9-60,60s26.9,60,60,60s60-26.9,60-60S158.8,240,125.7,240z M126.7,335
	c-19.4,0-35-15.7-35-35c0-19.4,15.7-35,35-35c19.4,0,35,15.7,35,35C161.8,319.3,146.1,335,126.7,335z"/>
</svg>
