<?xml version="1.0" encoding="utf-8"?>
<!-- Generator: Adobe Illustrator 22.1.0, SVG Export Plug-In . SVG Version: 6.00 Build 0)  -->
<svg version="1.1" id="Layer_1" xmlns="http://www.w3.org/2000/svg" xmlns:xlink="http://www.w3.org/1999/xlink" x="0px" y="0px"
	 viewBox="0 0 16 16" style="enable-background:new 0 0 16 16;" xml:space="preserve">
<g>
	<path d="M15.2,12.7c0-0.3-0.2-0.6-0.6-0.8l-3.6-2.1c-0.4-0.3-1-0.2-1.4,0.2l-0.7,0.7c-0.2,0.2-0.5,0.2-0.7,0
		c-0.6-0.4-1.1-0.9-1.6-1.5c-0.5-0.5-1-1.1-1.5-1.6c-0.2-0.2-0.1-0.5,0-0.7L6,6.2c0.4-0.4,0.4-0.9,0.2-1.4L4.1,1.3
		C4,1,3.7,0.8,3.3,0.8C3,0.7,2.6,0.8,2.4,1.1L1.3,2.1C0.6,2.9,0.6,4.2,1.3,6c0.7,1.7,2,3.5,3.6,5.1c1.7,1.7,3.5,2.9,5.1,3.6
		c0.8,0.4,1.6,0.5,2.2,0.5c0.7,0,1.2-0.2,1.6-0.6l1.1-1.1C15.2,13.4,15.3,13,15.2,12.7L15.2,12.7z M10.9,10.2l3.6,2.1
		c0.2,0.1,0.3,0.3,0.3,0.5c0,0.2,0,0.3-0.1,0.5l-4.8-2.7l0.2-0.2C10.3,10.1,10.6,10.1,10.9,10.2L10.9,10.2z M3.3,1.2
		c0.2,0,0.4,0.1,0.5,0.3l2.1,3.6c0.1,0.3,0.1,0.6-0.1,0.8L5.5,6.1L2.8,1.3C2.9,1.3,3,1.2,3.3,1.2C3.2,1.2,3.2,1.2,3.3,1.2L3.3,1.2z
		 M13.5,14.4c-0.6,0.6-1.8,0.6-3.3-0.1c-1.6-0.7-3.4-1.9-5-3.5c-1.6-1.6-2.9-3.4-3.5-5C1.1,4.3,1.1,3.1,1.6,2.5l0.8-0.8l2.7,4.7
		L5,6.6C4.6,7,4.6,7.5,4.9,7.9c0.5,0.6,1,1.1,1.5,1.7c0.5,0.5,1.1,1,1.7,1.5c0.4,0.3,1,0.3,1.3-0.1l0.2-0.2l4.8,2.7L13.5,14.4
		L13.5,14.4z"/>
</g>
</svg>
