<?xml version="1.0" encoding="utf-8"?>
<!-- Generator: Adobe Illustrator 22.1.0, SVG Export Plug-In . SVG Version: 6.00 Build 0)  -->
<svg version="1.1" id="Layer_2" xmlns="http://www.w3.org/2000/svg" xmlns:xlink="http://www.w3.org/1999/xlink" x="0px" y="0px"
	 viewBox="0 0 53.7 53.7" style="enable-background:new 0 0 53.7 53.7;" xml:space="preserve">
<style type="text/css">
	.st0{fill:#2F4859;}
	.st1{fill:#64798A;}
	.st2{fill:#EBF0F3;}
</style>
<path class="st0" d="M53.7,26.9c0,14.9-12,26.9-26.9,26.9C12,53.7,0,41.7,0,26.9S12,0,26.9,0C41.7-0.1,53.7,12,53.7,26.9z"/>
<path class="st1" d="M44,26.7C44,36.2,36.3,44,26.8,44c-9.3,0-17-7.7-17-17.2s7.7-17.1,17-17.1C36.3,9.7,44,17.2,44,26.7z"/>
<path class="st2" d="M44,26.7c0,1.3-0.1,2.6-0.5,3.9c-2.4-0.5-4.7,0.2-6,2.4c-1.2,2.2-0.7,4.7,1,6.4c-1.9,1.7-4,3-6.5,3.8
	c-0.7-2.3-2.6-4-5.1-4c-2.5,0-4.4,1.8-5.1,4.1c-2.4-0.8-4.7-2.1-6.5-3.9c1.7-1.7,2.2-4.2,1-6.4c-1.3-2.2-3.7-2.9-6-2.4
	c-0.3-1.2-0.5-2.5-0.5-3.9c0-1.3,0.1-2.5,0.4-3.7c2.4,0.6,4.8-0.2,6.1-2.4c1.3-2.2,0.7-4.8-1-6.5c1.9-1.7,4-3,6.5-3.7
	c0.8,2.4,2.6,4.1,5.1,4.1c2.5,0,4.4-1.8,5.1-4c2.5,0.8,4.7,2.1,6.6,3.7c-1.7,1.8-2.3,4.3-1,6.5c1.2,2.1,3.7,2.8,6.1,2.4
	C43.9,24.2,44,25.4,44,26.7z"/>
</svg>
