<?xml version="1.0" encoding="utf-8"?>
<!-- Generator: Adobe Illustrator 21.1.0, SVG Export Plug-In . SVG Version: 6.00 Build 0)  -->
<svg version="1.1" id="Layer_1" xmlns="http://www.w3.org/2000/svg" xmlns:xlink="http://www.w3.org/1999/xlink" x="0px" y="0px"
	 viewBox="0 0 83.3 64.7" style="enable-background:new 0 0 83.3 64.7;" xml:space="preserve">
<style type="text/css">
	.st0{fill:#FB6C5A;}
</style>
<circle class="st0" cx="27.2" cy="27" r="27"/>
<circle class="st0" cx="68.2" cy="50" r="14"/>
<path d="M65.6,25.8c-1.4-1.4-3.5-1.7-5.2-0.8v-3.2c0-2.5-2-4.5-4.5-4.5H33.9c-2.5,0-4.5,2-4.5,4.5v30c0,2.5,2,4.5,4.5,4.5H56
	c2.5,0,4.5-2,4.5-4.5V38.1l5.6-5.6c1.7-1.7,1.7-4.6,0-6.3L65.6,25.8z M46,42.6l3.3,3.3l-4.4,1.2L46,42.6z M50.9,45.1l-4.2-4.2
	l12.1-12L63,33L50.9,45.1z M58.6,51.8c0,1.5-1.2,2.7-2.7,2.7H33.9c-1.5,0-2.7-1.2-2.7-2.7v-30c0-1.5,1.2-2.7,2.7-2.7H56
	c1.5,0,2.7,1.2,2.7,2.7v4.7L44.9,40.2c-0.1,0.1-0.2,0.3-0.2,0.4l-2,7.5c-0.1,0.3,0,0.6,0.2,0.9c0.2,0.2,0.6,0.3,0.9,0.2l7.4-2
	c0.2,0,0.3-0.1,0.4-0.2l7.1-7.1V51.8z M64.8,31.3l-0.5,0.5l-4.2-4.2l0.5-0.5c1-1,2.7-1,3.8,0l0.4,0.4C65.8,28.5,65.8,30.2,64.8,31.3
	z"/>
</svg>
