<?xml version="1.0" encoding="utf-8"?>
<!-- Generator: Adobe Illustrator 21.1.0, SVG Export Plug-In . SVG Version: 6.00 Build 0)  -->
<svg version="1.1" id="Layer_1" xmlns="http://www.w3.org/2000/svg" xmlns:xlink="http://www.w3.org/1999/xlink" x="0px" y="0px"
	 viewBox="0 0 82.2 64.7" style="enable-background:new 0 0 82.2 64.7;" xml:space="preserve">
<style type="text/css">
	.st0{fill:#FB6C5A;}
</style>
<circle class="st0" cx="27.1" cy="27" r="27"/>
<circle class="st0" cx="68.1" cy="50" r="14"/>
<g>
	<g>
		<g>
			<path d="M49.7,32.8h-1.5c-0.4,0-0.7,0.3-0.7,0.7c0,0.4,0.3,0.7,0.7,0.7h1.5c0.4,0,0.7-0.3,0.7-0.7C50.4,33.1,50.1,32.8,49.7,32.8
				z"/>
		</g>
	</g>
	<g>
		<g>
			<path d="M49.9,38.7c-0.3-0.4-0.7-0.6-1.2-0.6H32.2c-0.5,0-0.9,0.2-1.2,0.6c-0.3,0.4-0.4,0.8-0.3,1.3l0.4,1.5
				c0.2,0.7,0.8,1.1,1.4,1.1h15.7c0.7,0,1.3-0.5,1.4-1.1l0.4-1.5C50.2,39.5,50.1,39.1,49.9,38.7z M48.7,39.6l-0.4,1.5c0,0,0,0,0,0
				H32.6c0,0,0,0,0,0l-0.4-1.5c0,0,0,0,0,0c0,0,0,0,0,0L48.7,39.6C48.7,39.6,48.7,39.6,48.7,39.6C48.7,39.6,48.7,39.6,48.7,39.6z"/>
		</g>
	</g>
	<g>
		<g>
			<path d="M59.6,34.2c1.2,0,2.3-1,2.3-2.3s-1-2.3-2.3-2.3h-0.8c-1.1,0-2.1,0.8-2.2,1.9l-1.9-5.3c-0.4-1.2-1.6-2-2.8-2h-5.5l-0.4-2
				c-0.2-1.1-1.1-1.8-2.2-1.8h-6.7c-1.1,0-2,0.8-2.2,1.8l-0.4,2H29c-1.3,0-2.4,0.8-2.8,2l-1.9,5.3c-0.2-1.1-1.1-1.9-2.2-1.9h-0.8
				c-1.2,0-2.3,1-2.3,2.3s1,2.3,2.3,2.3H22c0.4,0,0.7-0.1,1-0.2L21.4,36c-0.5,0.7-0.8,1.5-0.8,2.4v14.3c0,0.8,0.7,1.5,1.5,1.5h2.3
				c0.8,0,1.5-0.7,1.5-1.5v-3.1h29.3v3.1c0,0.8,0.7,1.5,1.5,1.5h2.3c0.8,0,1.5-0.7,1.5-1.5V38.4c0-0.9-0.3-1.7-0.8-2.4L57.9,34
				c0.3,0.1,0.6,0.2,1,0.2H59.6z M22,32.8h-0.8c-0.4,0-0.8-0.4-0.8-0.8c0-0.4,0.4-0.8,0.8-0.8H22c0.4,0,0.8,0.4,0.8,0.8
				C22.8,32.4,22.5,32.8,22,32.8z M36.3,22.6c0.1-0.4,0.4-0.7,0.8-0.7h6.7c0.4,0,0.7,0.3,0.8,0.7l0.3,1.7h-9L36.3,22.6z M24.4,52.7
				C24.4,52.7,24.4,52.7,24.4,52.7l-2.4,0c0,0,0,0,0,0v-3.6c0.5,0.3,1,0.4,1.6,0.4h0.8L24.4,52.7L24.4,52.7z M48.9,48.1H32v-1.6
				c0,0,0,0,0,0h16.9c0,0,0,0,0,0L48.9,48.1L48.9,48.1z M58.9,52.7C58.9,52.7,58.9,52.7,58.9,52.7l-2.4,0c0,0,0,0,0,0v-3.1h0.8
				c0.6,0,1.1-0.2,1.6-0.4L58.9,52.7L58.9,52.7z M58.4,36.9c0.3,0.4,0.5,0.9,0.5,1.5v8.1c0,0.9-0.7,1.6-1.6,1.6h-7v-1.6
				c0-0.8-0.7-1.5-1.5-1.5H32c-0.8,0-1.5,0.7-1.5,1.5v1.6h-7c-0.9,0-1.6-0.7-1.6-1.6v-8.1c0-0.5,0.2-1.1,0.5-1.5l2.2-2.7h30.6
				c0.4,0,0.7-0.3,0.7-0.7c0-0.4-0.3-0.7-0.7-0.7H25.4l2.2-6c0.2-0.6,0.8-1,1.5-1h22.9c0.7,0,1.3,0.4,1.5,1l2.2,6h-2.8
				c-0.4,0-0.7,0.3-0.7,0.7c0,0.4,0.3,0.7,0.7,0.7h3.5L58.4,36.9z M58.1,31.9c0-0.4,0.4-0.8,0.8-0.8h0.8c0.4,0,0.8,0.4,0.8,0.8
				c0,0.4-0.4,0.8-0.8,0.8h-0.8C58.4,32.8,58.1,32.4,58.1,31.9z"/>
		</g>
	</g>
	<g>
		<g>
			<path d="M26.6,43.5c-0.8,0-1.5,0.7-1.5,1.5s0.7,1.5,1.5,1.5c0.8,0,1.5-0.7,1.5-1.5S27.5,43.5,26.6,43.5z"/>
		</g>
	</g>
	<g>
		<g>
			<path d="M54.3,43.5c-0.8,0-1.5,0.7-1.5,1.5s0.7,1.5,1.5,1.5s1.5-0.7,1.5-1.5S55.1,43.5,54.3,43.5z"/>
		</g>
	</g>
	<g>
		<g>
			<path d="M26.2,37.4c-1.5,0-2.6,1.2-2.6,2.6c0,1.5,1.2,2.6,2.6,2.6c1.5,0,2.6-1.2,2.6-2.6C28.9,38.6,27.7,37.4,26.2,37.4z
				 M26.2,41.2c-0.7,0-1.2-0.5-1.2-1.2s0.5-1.2,1.2-1.2s1.2,0.5,1.2,1.2S26.9,41.2,26.2,41.2z"/>
		</g>
	</g>
	<g>
		<g>
			<path d="M54.7,37.4c-1.5,0-2.6,1.2-2.6,2.6c0,1.5,1.2,2.6,2.6,2.6s2.6-1.2,2.6-2.6C57.3,38.6,56.1,37.4,54.7,37.4z M54.7,41.2
				c-0.7,0-1.2-0.5-1.2-1.2s0.5-1.2,1.2-1.2c0.7,0,1.2,0.5,1.2,1.2S55.3,41.2,54.7,41.2z"/>
		</g>
	</g>
</g>
</svg>
