<?xml version="1.0" encoding="utf-8"?>
<!-- Generator: Adobe Illustrator 21.1.0, SVG Export Plug-In . SVG Version: 6.00 Build 0)  -->
<svg version="1.1" id="Layer_1" xmlns="http://www.w3.org/2000/svg" xmlns:xlink="http://www.w3.org/1999/xlink" x="0px" y="0px"
	 viewBox="0 0 24 24" style="enable-background:new 0 0 24 24;" xml:space="preserve">
<style type="text/css">
	.st0{fill:#0C0B0C;}
	.st1{fill:#FFFFFF;}
</style>
<circle class="st0" cx="12" cy="12" r="12"/>
<g>
	<g>
		<path class="st1" d="M16.8,8.8l0.5,0.5l0.2-0.2c0.3-0.3,0.3-0.9,0-1.2l-1.2-1.2c-0.2-0.2-0.4-0.3-0.6-0.3c-0.2,0-0.4,0.1-0.6,0.3
			l-0.2,0.2l0.5,0.5l0.2-0.2c0,0,0.1-0.1,0.2-0.1c0.1,0,0.1,0,0.2,0.1L17,8.3c0.1,0.1,0.1,0.2,0,0.3L16.8,8.8z"/>
		<path class="st1" d="M6.8,15.6c-0.5,0.5-1,1.8-0.5,2.2c0.4,0.4,1.2,0.1,1.8-0.2c0,0,0.1-0.1,0.1-0.1c0-0.4,0.1-1,0.1-1
			c0,0,0,0,0,0l1,0c0,0,0,0,0,0l0-1c0,0,0,0,0,0c0,0,0.7,0,1,0c0.1,0,0.2,0,0.2-0.1c0.2-0.2,0.8-0.8,1.4-1.4l-1.7-1.7L6.8,15.6z"/>
		<path class="st1" d="M17,9.5L16.6,9l-1.5-1.5l-0.5-0.5l-0.8-0.8c-0.1-0.1-0.3-0.2-0.4-0.2c-0.1,0-0.3,0.1-0.4,0.2l-3,3
			c-0.6,0.6-0.6,1.6,0,2.2l0.5,0.5l1.7,1.7l0.5,0.5c0.3,0.3,0.7,0.5,1.1,0.5s0.8-0.2,1.1-0.5l3-3c0.2-0.2,0.2-0.6,0-0.8L17,9.5z
			 M13.5,12.4c-0.1,0.1-0.2,0.1-0.3,0.2c0,0-0.1,0-0.1,0c-0.2,0-0.3-0.1-0.4-0.2l-1-1c-0.1-0.1-0.2-0.3-0.2-0.4c0,0,0-0.1,0-0.1
			c0-0.1,0.1-0.2,0.2-0.3c0.1-0.1,0.3-0.2,0.4-0.2c0.2,0,0.3,0.1,0.4,0.2l0,0l0.9,0.9l0,0c0.1,0.1,0.2,0.3,0.2,0.4
			C13.7,12.2,13.6,12.3,13.5,12.4z M16.4,10.7l-0.6,0.6c-0.4,0.4-1,0.4-1.4,0l-1.6-1.6c-0.4-0.4-0.4-1,0-1.4l0.6-0.6
			c0.1-0.1,0.4-0.1,0.5,0l0.1,0.1l2.2,2.2l0.1,0.1C16.6,10.3,16.6,10.5,16.4,10.7z"/>
		<path class="st1" d="M12.2,10.9c0,0-0.1-0.1-0.2-0.1c-0.1,0-0.1,0-0.2,0.1c0,0-0.1,0.1-0.1,0.2c0,0.1,0,0.1,0.1,0.2l1,1
			c0,0,0.1,0.1,0.2,0.1c0.1,0,0.1,0,0.2-0.1c0,0,0.1-0.1,0.1-0.2c0-0.1,0-0.1-0.1-0.2L12.2,10.9z"/>
	</g>
</g>
</svg>
