<?xml version="1.0" encoding="utf-8"?>
<!-- Generator: Adobe Illustrator 21.1.0, SVG Export Plug-In . SVG Version: 6.00 Build 0)  -->
<svg version="1.1" id="Capa_1" xmlns="http://www.w3.org/2000/svg" xmlns:xlink="http://www.w3.org/1999/xlink" x="0px" y="0px"
	 viewBox="0 0 82.2 64.2" style="enable-background:new 0 0 82.2 64.2;" xml:space="preserve">
<style type="text/css">
	.st0{fill:#FB6C5A;}
</style>
<g>
	<g>
		<circle class="st0" cx="27.1" cy="27" r="27"/>
		<circle class="st0" cx="68.1" cy="50" r="14"/>
	</g>
	<g>
		<path d="M58.3,46.9C58.3,46.9,58.3,46.9,58.3,46.9C58.3,46.9,58.3,46.9,58.3,46.9C58.3,46.9,58.3,46.8,58.3,46.9L58.3,46.9
			c0.1-0.1,0.1-0.1,0.1-0.1c0,0,0,0,0,0c0,0,0,0,0-0.1v0c0,0,0,0,0-0.1c0,0,0,0,0,0c0,0,0,0,0,0c0,0,0,0,0-0.1V16.1
			c0-0.3-0.3-0.6-0.6-0.6H28.6c-0.3,0-0.6,0.3-0.6,0.6v38.5c0,0.3,0.3,0.6,0.6,0.6h21.1c0,0,0,0,0.1,0c0,0,0,0,0,0c0,0,0,0,0,0
			c0,0,0,0,0.1,0h0c0,0,0,0,0.1,0h0c0,0,0,0,0.1,0c0,0,0,0,0,0c0,0,0,0,0,0c0,0,0,0,0,0c0,0,0,0,0,0c0,0,0,0,0,0c0,0,0,0,0,0
			c0,0,0,0,0,0L58.3,46.9L58.3,46.9C58.3,47,58.3,46.9,58.3,46.9C58.3,46.9,58.3,46.9,58.3,46.9z M29.3,16.7h27.9v29.2h-7.4
			c-0.3,0-0.6,0.3-0.6,0.6v7.4H29.3V16.7z M56.3,47.2L50.4,53v-5.9H56.3z"/>
		<path d="M40.6,23.5h12.2c0.3,0,0.6-0.3,0.6-0.6c0-0.3-0.3-0.6-0.6-0.6H40.6c-0.3,0-0.6,0.3-0.6,0.6C39.9,23.2,40.2,23.5,40.6,23.5
			z"/>
		<path d="M35,25c0.1,0.1,0.3,0.2,0.4,0.2s0.3-0.1,0.4-0.2l3.4-3.4c0.2-0.2,0.2-0.7,0-0.9c-0.2-0.2-0.7-0.2-0.9,0l-2.9,2.9l-0.8-0.8
			c-0.2-0.2-0.7-0.2-0.9,0c-0.2,0.2-0.2,0.7,0,0.9L35,25z"/>
		<path d="M35,30.7c0.1,0.1,0.3,0.2,0.4,0.2s0.3-0.1,0.4-0.2l3.4-3.4c0.2-0.2,0.2-0.7,0-0.9s-0.7-0.2-0.9,0l-2.9,2.9l-0.8-0.8
			c-0.2-0.2-0.7-0.2-0.9,0c-0.2,0.2-0.2,0.7,0,0.9L35,30.7z"/>
		<path d="M35,36.3c0.1,0.1,0.3,0.2,0.4,0.2s0.3-0.1,0.4-0.2l3.4-3.4c0.2-0.2,0.2-0.7,0-0.9c-0.2-0.2-0.7-0.2-0.9,0L35.4,35
			l-0.8-0.8c-0.2-0.2-0.7-0.2-0.9,0c-0.2,0.2-0.2,0.7,0,0.9L35,36.3z"/>
		<path d="M39.9,28.8c0,0.3,0.3,0.6,0.6,0.6h12.3c0.3,0,0.6-0.3,0.6-0.6s-0.3-0.6-0.6-0.6H40.5C40.2,28.1,39.9,28.4,39.9,28.8z"/>
		<path d="M52.8,34.1H40.5c-0.3,0-0.6,0.3-0.6,0.6c0,0.3,0.3,0.6,0.6,0.6h12.3c0.3,0,0.6-0.3,0.6-0.6C53.4,34.3,53.1,34.1,52.8,34.1
			z"/>
	</g>
</g>
</svg>
