<svg height="487pt" viewBox="0 -49 487.51 487" width="487pt" xmlns="http://www.w3.org/2000/svg"><path d="m446.34375.253906h-405.175781c-22.726563.027344-41.1406252 18.441406-41.167969 41.167969v213.664063c.0234375 22.726562 18.441406 41.144531 41.167969 41.167968h194.585937v49.339844c0 28.320312 50.699219 43.140625 100.773438 43.140625 25.292968 0 49.273437-3.601563 67.523437-10.132813 27.386719-9.796874 33.734375-23.070312 34.238281-32.472656.007813-.179687.015626-.355468.015626-.535156v-49.339844h8.039062c22.722656-.023437 41.140625-18.441406 41.167969-41.164062v-213.667969c-.027344-22.726563-18.445313-41.140625-41.167969-41.167969zm-190.589844 272.335938c19.484375 10.878906 50.609375 16.472656 81.5 16.472656 30.65625 0 61.535156-5.507812 81.050782-16.222656v21.578125h-.550782c0 1.867187-3.617187 8.042969-20.140625 14.128906-16.253906 5.980469-38.042969 9.277344-61.359375 9.277344-52.085937 0-80.5-15.460938-80.5-23.398438zm162.550782-28.574219v3.300781c-3.714844 7.628906-31.167969 21.742188-81.050782 21.742188-53.769531 0-81.5-16.398438-81.5-23.398438s27.730469-23.40625 81.5-23.40625c49.886719 0 77.339844 14.117188 81.050782 21.746094zm-46.886719-39.421875c-11.320313-1.570312-22.734375-2.351562-34.164063-2.335938-36.566406 0-73.457031 7.839844-90.980468 23.007813l-119.984376.277344c-5.285156-23.832031-26.082031-40.390625-55.203124-43.828125v-66.914063c14.742187-1.734375 27.511718-6.863281 37.320312-15.058593 8.949219-7.378907 15.214844-17.496094 17.835938-28.792969h235.601562c4.8125 20.929687 22.4375 40.140625 54.585938 43.859375v66.910156c-19.125 2.273438-34.941407 10.308594-45.011719 22.875zm-34.890625 164.140625c-23.117188 0-44.726563-3.269531-60.84375-9.203125-14.519532-5.34375-19.929688-11.386719-19.929688-13.9375v-23.878906c4.179688 2.296875 8.535156 4.261718 13.023438 5.878906 18.019531 6.597656 41.980468 10.230469 67.476562 10.230469 25.613282 0 49.859375-3.730469 68.269532-10.507813 4.753906-1.722656 9.363281-3.832031 13.78125-6.300781v24.222656c-.851563 8.085938-30.058594 23.496094-81.777344 23.496094zm130.984375-113.648437c-.015625 11.6875-9.484375 21.15625-21.167969 21.167968h-8.039062v-26.074218c.296874-1.488282.449218-3.003907.449218-4.519532 0-16.941406-18.042968-29.078125-43.269531-36.136718 8.039063-5.277344 18.738281-8.261719 31.105469-8.460938 5.457031-.089844 9.835937-4.539062 9.835937-10v-85.617188c0-5.460937-4.378906-9.910156-9.835937-10-27.019532-.433593-45.105469-14.160156-46.082032-34.964843-.25-5.335938-4.648437-9.535157-9.988281-9.535157h-252.964843c-5.339844 0-9.738282 4.199219-9.988282 9.53125-.972656 20.800782-19.285156 34.527344-46.644531 34.96875-5.460937.085938-9.839844 4.539063-9.839844 10v85.617188c0 5.460938 4.378907 9.910156 9.839844 10 27.804687.449219 45.675781 13.839844 46.644531 34.957031.242188 5.335938 4.644532 9.542969 9.988282 9.542969h.023437l118.183594-.277344c0 .125-.007813.25-.007813.375 0 .292969.011719.582032.023438.871094-.007813.160156-.023438.320312-.023438.484375v29.238281h-194.585937c-11.683594-.015625-21.152344-9.480468-21.167969-21.167968v-213.664063c.011719-11.683594 9.480469-21.152344 21.167969-21.167969h405.175781c11.683594.015625 21.152344 9.484375 21.167969 21.167969zm0 0"/><path d="m243.753906 88.113281c-33.214844 0-60.140625 26.925781-60.140625 60.140625s26.925781 60.140625 60.140625 60.140625 60.140625-26.925781 60.140625-60.140625c-.035156-33.199218-26.941406-60.101562-60.140625-60.140625zm0 100.28125c-22.167968 0-40.140625-17.972656-40.140625-40.140625 0-22.171875 17.972657-40.140625 40.140625-40.140625 22.171875 0 40.144532 17.972657 40.140625 40.140625-.023437 22.160156-17.980469 40.117188-40.140625 40.140625zm0 0"/></svg>