<?xml version="1.0" encoding="utf-8"?>
<!-- Generator: Adobe Illustrator 21.1.0, SVG Export Plug-In . SVG Version: 6.00 Build 0)  -->
<svg version="1.1" id="Layer_1" xmlns="http://www.w3.org/2000/svg" xmlns:xlink="http://www.w3.org/1999/xlink" x="0px" y="0px"
	 viewBox="0 0 1460.4 589.5" style="enable-background:new 0 0 1460.4 589.5;" xml:space="preserve">
<style type="text/css">
	.st0{opacity:0.17;}
	.st1{fill:#606060;}
</style>
<image style="display:none;overflow:visible;enable-background:new    ;" width="1920" height="1200" xlink:href="192A9B11.jpg"  transform="matrix(1 0 0 1 -114.6298 -258.106)">
</image>
<g class="st0">
	<g>
		<g>
			<path class="st1" d="M460.9,586c1.2-13.8,6.7-90.1-11.1-148.3c-3.3-10.8-6.5-20.7-9.5-29.9h1.7c1.1,0,2-0.9,2-2s-0.9-2-2-2h-3
				c-1-3.2-2.1-6.2-3.1-9.3h6.1c1.1,0,2-0.9,2-2s-0.9-2-2-2h-7.4c-0.9-2.7-1.8-5.3-2.6-7.8c-0.2-0.5-0.3-0.9-0.5-1.4h10.6
				c1.1,0,2-0.9,2-2s-0.9-2-2-2h-11.9c-1.1-3.2-2.1-6.2-3.1-9.3H448c1.1,0,2-0.9,2-2s-0.9-2-2-2h-22.2c-1-3.2-2-6.2-3-9.3h14.9
				c1.1,0,2-0.9,2-2s-0.9-2-2-2h-16.1c-1-3.1-1.9-6.2-2.8-9.3h23.3c1.1,0,2-0.9,2-2s-0.9-2-2-2h-24.4c-0.9-3.1-1.6-6.2-2.4-9.3h19.3
				c1.1,0,2-0.9,2-2s-0.9-2-2-2h-20.2c-0.7-3.1-1.3-6.2-1.9-9.3h8.3c1.1,0,2-0.9,2-2s-0.9-2-2-2h-8.9c-0.4-2.8-0.8-5.6-1.2-8.4
				c0-0.3-0.1-0.5-0.1-0.8h39.3c1.1,0,2-0.9,2-2s-0.9-2-2-2h-39.7c-0.4-3.3-0.7-6.4-1-9.3H432c1.1,0,2-0.9,2-2s-0.9-2-2-2h-23.3
				c-0.3-3.5-0.6-6.6-0.8-9.3H442c1.1,0,2-0.9,2-2s-0.9-2-2-2h-34.4c-0.3-4-0.4-6.7-0.4-8.4h81.3c-0.5,11.1-2.2,64.1,7,99.1
				c3.7,14,9.2,30.8,14.9,48.4c3.6,11,7.3,22.2,10.5,32.9h-4.4c-1.1,0-2,0.9-2,2s0.9,2,2,2h5.6c0.9,3.1,1.8,6.2,2.7,9.3h-9.6
				c-1.1,0-2,0.9-2,2s0.9,2,2,2h10.6c0.9,3.2,1.7,6.3,2.4,9.3h-22.1c-1.1,0-2,0.9-2,2s0.9,2,2,2h23.1c0.7,3.2,1.4,6.3,1.9,9.3h-12.7
				c-1.1,0-2,0.9-2,2s0.9,2,2,2H532c0.4,2.8,0.7,5.4,0.9,7.9c0,0.4,0.1,0.9,0.1,1.4h-18.5c-1.1,0-2,0.9-2,2s0.9,2,2,2h18.7
				c0.1,2.9,0.3,6,0.4,9.3h-12.4c-1.1,0-2,0.9-2,2s0.9,2,2,2h12.5c0.1,3,0.2,6.1,0.3,9.3h-21.7c-1.1,0-2,0.9-2,2s0.9,2,2,2h21.8
				c0.1,3.1,0.1,6.2,0.2,9.3h-13.1c-1.1,0-2,0.9-2,2s0.9,2,2,2h13.2c0.1,3.1,0.1,6.2,0.1,9.3h-17.8c-1.1,0-2,0.9-2,2s0.9,2,2,2h17.8
				c0,3.2,0.1,6.3,0.1,9.3h-25.3c-1.1,0-2,0.9-2,2s0.9,2,2,2h25.3c0,3.4,0.1,6.5,0.1,9.3h-34.2c-1.1,0-2,0.9-2,2s0.9,2,2,2h34.2
				c0,2.6,0,4.7,0,6.1h-73.8V586z"/>
		</g>
		<g>
			<path class="st1" d="M381.7,388.2h5.3V428h-5.3V388.2z M356.9,496.4c2.8,0,5.2,3.5,5.2,6.3c0,0.5-0.1,1.1-0.3,1.6H352
				c-0.2-0.5-0.3-1-0.3-1.6C351.8,499.9,354.1,496.4,356.9,496.4z M352.7,508.2h8.4v11.7h-8.4V508.2z M323.1,465.4
				c9.5,0,20.6,10.6,20.6,24.2c0,3.2-0.8,6.4-2.2,9.3h-36.7c-1.5-2.9-2.2-6.1-2.2-9.3C302.5,476,313.5,465.4,323.1,465.4z
				 M289.2,496.4c2.8,0,5.2,3.5,5.2,6.3c0,0.5-0.1,1.1-0.3,1.6h-9.8c-0.2-0.5-0.3-1-0.3-1.6C284.1,499.9,286.4,496.4,289.2,496.4z
				 M285,508.2h8.4v11.7H285V508.2z M349.2,543.8c-0.5-0.9-0.8-2-0.8-3c0-3.4,2.7-7.4,6.1-7.4s6.1,4.1,6.1,7.4c0,1.1-0.3,2.1-0.8,3
				c-0.2,0.3-0.3,0.6-0.3,1v0.9h-10.1v-0.9C349.5,544.5,349.4,544.1,349.2,543.8z M317.8,543.8c-0.5-0.9-0.8-2-0.8-3
				c0-3.4,2.7-7.4,6.1-7.4s6.1,4.1,6.1,7.4c0,1.1-0.3,2.1-0.8,3c-0.2,0.3-0.3,0.6-0.3,1v0.9H318v-0.9
				C318,544.5,317.9,544.1,317.8,543.8z M286.3,543.8c-0.5-0.9-0.8-2-0.8-3c0-3.4,2.7-7.4,6.1-7.4s6.1,4.1,6.1,7.4
				c0,1.1-0.3,2.1-0.8,3c-0.2,0.3-0.3,0.6-0.3,1v0.9h-10.1v-0.9C286.6,544.5,286.5,544.1,286.3,543.8z M236.3,497.6
				c3.5,0,6.3,4.2,6.3,7.6c0,0.7-0.1,1.5-0.4,2.1h-11.7c-0.3-0.7-0.4-1.4-0.4-2.1C230,501.8,232.8,497.6,236.3,497.6z M169.9,473.7
				c0-20.4,16.6-36.1,30.9-36.1c14.3,0,30.9,15.8,30.9,36.1c0,5.4-1.4,10.7-4.1,15.4c-0.2,0.3-0.3,0.6-0.3,1v10.2
				c-0.7,1.6-1.1,3.3-1.1,4.9s0.4,3.2,1.1,4.6v10.1h-4.9v-5.4c2-3.6,3-7.7,3-11.8c0-12.4-9.7-26.7-22.6-28.1v-11c0-1.1-0.9-2-2-2
				s-2,0.9-2,2v11c-12.9,1.3-22.6,15.7-22.6,28.1c0,4.1,1,8.2,3,11.8v5.4h-5v-10.1c0.7-1.4,1.1-3,1.1-4.6s-0.4-3.3-1.1-4.8v-10.3
				c0-0.3-0.1-0.7-0.3-1C171.3,484.4,169.9,479.1,169.9,473.7z M165.2,497.6c3.5,0,6.3,4.2,6.3,7.6c0,0.7-0.1,1.5-0.4,2.1h-11.7
				c-0.3-0.7-0.4-1.4-0.4-2.1C158.9,501.8,161.7,497.6,165.2,497.6z M112.3,496.4c2.8,0,5.2,3.5,5.2,6.3c0,0.5-0.1,1.1-0.3,1.6h-9.8
				c-0.2-0.5-0.3-1-0.3-1.6C107.1,499.9,109.5,496.4,112.3,496.4z M108.1,508.2h8.4v11.7h-8.4V508.2z M78.4,465.4
				C88,465.4,99,476,99,489.6c0,3.2-0.8,6.4-2.2,9.3H60.1c-1.5-2.9-2.2-6.1-2.2-9.3C57.8,476,68.9,465.4,78.4,465.4z M44.6,496.4
				c2.8,0,5.2,3.5,5.2,6.3c0,0.5-0.1,1.1-0.3,1.6h-9.8c-0.2-0.5-0.3-1-0.3-1.6C39.4,499.9,41.8,496.4,44.6,496.4z M40.4,508.2h8.4
				v11.7h-8.4V508.2z M104.6,543.8c-0.5-0.9-0.8-2-0.8-3c0-3.4,2.7-7.4,6.1-7.4s6.1,4.1,6.1,7.4c0,1.1-0.3,2.1-0.8,3
				c-0.2,0.3-0.3,0.6-0.3,1v0.9h-10.1v-0.9C104.8,544.5,104.7,544.1,104.6,543.8z M73.1,543.8c-0.5-0.9-0.8-2-0.8-3
				c0-3.4,2.7-7.4,6.1-7.4s6.1,4.1,6.1,7.4c0,1.1-0.3,2.1-0.8,3c-0.2,0.3-0.3,0.6-0.3,1v0.9h-10v-0.9
				C73.4,544.5,73.3,544.1,73.1,543.8z M41.7,543.8c-0.5-0.9-0.8-2-0.8-3c0-3.4,2.7-7.4,6.1-7.4s6.1,4.1,6.1,7.4
				c0,1.1-0.3,2.1-0.8,3c-0.2,0.3-0.3,0.6-0.3,1v0.9H42v-0.9C42,544.5,41.9,544.1,41.7,543.8z M14.5,388.2h5.3V428h-5.3
				C14.5,428,14.5,388.2,14.5,388.2z M8.1,487.7h18.2v59.9V586H8.1V487.7z M30.2,549.6H40h14h17.4h14h17.4h14h9.8V586h-4.7v-6.9
				c0.7-1.2,1.1-2.6,1.1-4c0-4-5.6-9.3-6.7-10.4c-0.7-0.7-1.9-0.7-2.6,0c-1.1,1-6.7,6.3-6.7,10.4c0,1.4,0.4,2.8,1.1,4v6.9h-4.2v-6.9
				c0.7-1.2,1.1-2.6,1.1-4c0-4-5.6-9.3-6.7-10.4c-0.7-0.7-1.9-0.7-2.6,0c-1.1,1-6.7,6.3-6.7,10.4c0,1.4,0.4,2.8,1.1,4v6.9h-4.2v-6.9
				c0.7-1.2,1.1-2.6,1.1-4c0-4-5.6-9.3-6.7-10.4c-0.7-0.7-1.9-0.7-2.6,0c-1.1,1-6.7,6.3-6.7,10.4c0,1.4,0.4,2.8,1.1,4v6.9h-4.2v-6.9
				c0.7-1.2,1.1-2.6,1.1-4c0-4-5.6-9.3-6.7-10.4c-0.7-0.7-1.9-0.7-2.6,0c-1.1,1-6.7,6.3-6.7,10.4c0,1.4,0.4,2.8,1.1,4v6.9H49v-6.9
				c0.7-1.2,1.1-2.6,1.1-4c0-4-5.6-9.3-6.7-10.4c-0.7-0.7-1.9-0.7-2.6,0c-1.1,1-6.7,6.3-6.7,10.4c0,1.4,0.4,2.8,1.1,4v6.9h-4.7
				v-36.4H30.2z M130.6,547.6v-33.5h17v7.7V586h-17V547.6z M151.5,523.8h6.5h14.3l0,0h8.9h39.1h8.9l0,0h14.2h6.6V586h-9.4v-11.8
				c1-1.7,1.6-3.7,1.6-5.8c0-5.8-8.9-14.1-9.9-15c-0.7-0.7-1.9-0.7-2.6,0c-1,0.9-9.9,9.2-9.9,15c0,2,0.6,4,1.6,5.8V586h-7.7v-17.8
				c1.5-2.4,2.3-5.1,2.3-8c0-7.9-12.4-19.4-13.8-20.6c-0.7-0.7-1.9-0.7-2.6,0c-1.4,1.3-13.8,12.7-13.8,20.6c0,2.8,0.8,5.6,2.3,8V586
				h-10.3v-11.8c1-1.7,1.6-3.7,1.6-5.8c0-5.8-8.9-14.1-9.9-15c-0.7-0.7-1.9-0.7-2.6,0c-1,0.9-9.9,9.2-9.9,15c0,2.1,0.6,4,1.6,5.8
				V586h-6.8v-62.2H151.5z M253.9,521.9v-7.7h17v33.5V586h-17V521.9z M274.9,549.6h9.8h14h17.4h14h17.4h14h9.8V586h-4.7v-6.9
				c0.7-1.2,1.1-2.6,1.1-4c0-4-5.6-9.3-6.7-10.4c-0.7-0.7-1.9-0.7-2.6,0c-1.1,1-6.7,6.3-6.7,10.4c0,1.4,0.4,2.8,1.1,4v6.9h-4.2v-6.9
				c0.7-1.2,1.1-2.6,1.1-4c0-4-5.6-9.3-6.7-10.4c-0.7-0.7-1.9-0.7-2.6,0c-1.1,1-6.7,6.3-6.7,10.4c0,1.4,0.4,2.8,1.1,4v6.9h-4.2v-6.9
				c0.7-1.2,1.1-2.6,1.1-4c0-4-5.6-9.3-6.7-10.4c-0.7-0.7-1.9-0.7-2.6,0c-1.1,1-6.7,6.3-6.7,10.4c0,1.4,0.4,2.8,1.1,4v6.9h-4.2v-6.9
				c0.7-1.2,1.1-2.6,1.1-4c0-4-5.6-9.3-6.7-10.4c-0.7-0.7-1.9-0.7-2.6,0c-1.1,1-6.7,6.3-6.7,10.4c0,1.4,0.4,2.8,1.1,4v6.9h-4.2v-6.9
				c0.7-1.2,1.1-2.6,1.1-4c0-4-5.6-9.3-6.7-10.4c-0.7-0.7-1.9-0.7-2.6,0c-1.1,1-6.7,6.3-6.7,10.4c0,1.4,0.4,2.8,1.1,4v6.9h-4.7
				v-36.4H274.9z M393.4,586h-18.2v-38.3v-59.9h18.2V586z"/>
		</g>
		<g>
			<path class="st1" d="M826.7,586h-49.9c9.7-10.6,17.1-22.7,22.1-35.8l0,0c3.5-9.2,5.7-18.9,6.6-28.9v-0.1
				c0.3-3.4,0.5-6.8,0.5-10.3c0-0.7,0-1.4-0.1-2.1c0-0.2,0-0.5,0-0.7c-0.3-10.6-2-20.8-5-30.4c0-0.2-0.1-0.4-0.2-0.6
				c-0.3-1.1-0.7-2.2-1.1-3.2c0-0.2-0.1-0.4-0.2-0.7c-2.3-6.5-5.3-12.6-8.7-18.5c-0.1-0.3-0.2-0.6-0.5-0.8
				c-3.8-6.3-8.1-12.1-13-17.5c-0.1-0.3-0.4-0.5-0.6-0.7l0,0c-1.8-1.9-3.6-3.8-5.5-5.5l-0.1-0.1c-0.2-0.3-0.4-0.5-0.7-0.6
				c-2.9-2.7-5.9-5.2-9.1-7.6c-0.1-0.1-0.2-0.2-0.4-0.3c-0.1-0.1-0.2-0.1-0.4-0.2c-5.5-4-11.4-7.6-17.6-10.6c0,0,0,0-0.1,0
				c-0.2-0.1-0.4-0.2-0.6-0.3c-4.2-2-8.5-3.7-12.9-5.1c-0.2-0.1-0.4-0.2-0.7-0.2c-2.1-0.7-4.3-1.3-6.4-1.9c-0.2-0.1-0.4-0.1-0.6-0.1
				c-7-1.7-14.2-2.8-21.6-3.2c-0.1,0-0.2,0-0.2,0c-0.3,0-0.6,0-0.9,0c-0.2,0-0.4,0-0.7,0c-1.1,0-2.3-0.1-3.4-0.1
				c-6.5,0-12.8,0.6-19,1.7c-0.3,0-0.5,0-0.8,0.1c-1.1,0.2-2.2,0.4-3.3,0.6c-0.2,0-0.4,0.1-0.6,0.1c-5.8,1.3-11.3,3-16.7,5.1
				c-0.3,0-0.5,0.1-0.8,0.3l0,0c-5.7,2.3-11.2,5-16.5,8.2c-0.3,0.1-0.5,0.3-0.7,0.5c-0.4,0.2-0.7,0.4-1,0.7
				c-0.2,0.1-0.3,0.1-0.5,0.2c-0.1,0.1-0.3,0.2-0.4,0.3c-5.7,3.7-11.1,7.9-16,12.6c-0.1,0-0.1,0.1-0.2,0.1c-0.3,0.2-0.5,0.4-0.6,0.7
				c-5.1,4.9-9.7,10.3-13.8,16.1c-0.3,0.2-0.4,0.5-0.6,0.8c-4.4,6.4-8.2,13.2-11.2,20.4c-0.2,0.2-0.3,0.5-0.3,0.8
				c-3.3,8.1-5.7,16.7-7,25.6c0,0.2-0.1,0.4-0.1,0.6s-0.1,0.5-0.1,0.7c-0.1,0.2-0.1,0.4-0.1,0.7c-0.6,4.6-0.9,9.4-0.9,14.2
				c0,24.7,8,48.1,22.8,67.4c0.1,0.1,0.2,0.3,0.3,0.4c1.9,2.5,4,5,6.2,7.3h-45.3v-34.9h13.9c1.1,0,2-0.9,2-2c0-5.5-4.4-9.9-9.9-9.9
				c-3.3,0-6.1,1.6-7.9,4c-1.8-2.4-4.7-4-7.9-4c-5.5,0-9.9,4.4-9.9,9.9c0,1.1,0.9,2,2,2h13.9V586h-25c0-1.7,0-4.3,0-7.8
				c0-0.1,0-0.2,0-0.3s0-0.2,0-0.3c0-6.6-0.1-15.8-0.2-26l0,0l0,0c-0.1-4.3-0.1-8.7-0.2-13.1l0,0l0,0c-0.1-4.4-0.2-8.8-0.3-13.2l0,0
				l0,0c-0.3-11-0.7-21.6-1.2-29.9c-0.2-3-0.6-6.3-1.2-9.8c0-0.1,0-0.2-0.1-0.3c-3.3-20.3-12.4-48.1-21.3-75.1
				c-5.8-17.6-11.2-34.3-14.9-48.2c-10.1-38.5-6.8-99.4-6.8-100c0-0.5-0.2-1.1-0.5-1.5c-0.4-0.4-0.9-0.6-1.4-0.6h-85.4
				c-1.1,0-2,0.9-2,1.9c0,0.5-0.1,12.2,3.4,41.9c0.4,3.5,0.9,6.9,1.5,10.3v0.1c3.7,22,10.7,42.8,20,70.1
				c5.3,15.7,11.3,33.4,17.8,54.7c17.7,58.1,12,134.6,10.9,147.2h-25.4v-19h17.3c1.1,0,2-0.9,2-2c0-6.4-5.2-11.6-11.6-11.6
				c-4,0-7.5,2-9.6,5.1c-2.1-3.1-5.6-5.1-9.6-5.1c-6.4,0-11.6,5.2-11.6,11.6c0,1.1,0.9,2,2,2h17.3v19h-30.2v-98.2h1.4
				c1.1,0,2-0.9,2-2s-0.9-2-2-2h-2l-2.2-6v-45.8h4.2c1.1,0,2-0.9,2-2s-0.9-2-2-2H391v-39.8h3.1c1.1,0,2-0.9,2-2s-0.9-2-2-2h-4.7
				v-25.5h1.7c1.1,0,2-0.9,2-2s-0.9-2-2-2h-4.7v-33.7c0-1.1-0.9-2-2-2s-2,0.9-2,2v33.7h-4.7c-1.1,0-2,0.9-2,2s0.9,2,2,2h1.7v25.5
				h-4.7c-1.1,0-2,0.9-2,2s0.9,2,2,2h3.1V428H370c-1.1,0-2,0.9-2,2s0.9,2,2,2h4.2v45.8l-2.2,6h-2c-1.1,0-2,0.9-2,2s0.9,2,2,2h1.4
				v32.1h-6.2v-13.1c0.6-1.3,1-2.6,1-4c0-4.2-2.9-8.8-7.1-10v-1.6c0-1.1-0.9-2-2-2s-2,0.9-2,2v1.6c-4.2,1.1-7.1,5.8-7.1,10
				c0,1.4,0.3,2.8,1,4v13.1h-4.2v-18.5c2-3.6,3-7.7,3-11.8c0-12.4-9.7-26.7-22.6-28v-11c0-1.1-0.9-2-2-2s-2,0.9-2,2v11
				c-12.9,1.3-22.6,15.7-22.6,28c0,4.1,1,8.2,3,11.8v18.5h-4.2v-13.1c0.6-1.3,1-2.6,1-4c0-4.2-2.9-8.8-7.1-10v-1.6c0-1.1-0.9-2-2-2
				s-2,0.9-2,2v1.6c-4.2,1.1-7.1,5.8-7.1,10c0,1.4,0.3,2.8,1,4v13.1H275v-7.7c0-1.1-0.9-2-2-2h-21c-1.1,0-2,0.9-2,2v7.7h-4.6v-10.1
				c0.7-1.4,1.1-3,1.1-4.6c0-4.8-3.4-10.1-8.2-11.3v-5.7c0-1.1-0.9-2-2-2s-2,0.9-2,2v5.7c-1.1,0.3-2.2,0.8-3.2,1.5v-4.8
				c2.9-5.2,4.4-11,4.4-16.9c0-17.9-14.2-38.6-32.8-40v-13.4c0-1.1-0.9-2-2-2s-2,0.9-2,2v13.4c-18.6,1.4-32.8,22.1-32.8,40
				c0,5.9,1.5,11.7,4.4,16.9v4.8c-1-0.7-2.1-1.2-3.2-1.5v-5.7c0-1.1-0.9-2-2-2s-2,0.9-2,2v5.7c-4.8,1.2-8.2,6.5-8.2,11.3
				c0,1.6,0.4,3.2,1.1,4.6v10.1h-4.5v-7.7c0-1.1-0.9-2-2-2h-21c-1.1,0-2,0.9-2,2v7.7h-6.2v-13.1c0.6-1.3,1-2.6,1-4
				c0-4.2-2.9-8.8-7.1-10v-1.6c0-1.1-0.9-2-2-2s-2,0.9-2,2v1.6c-4.2,1.1-7.1,5.8-7.1,10c0,1.4,0.3,2.8,1,4v13.1h-4.2v-18.5
				c2-3.6,3-7.7,3-11.8c0-12.4-9.7-26.7-22.6-28v-11c0-1.1-0.9-2-2-2s-2,0.9-2,2v11c-12.9,1.3-22.6,15.7-22.6,28c0,4.1,1,8.2,3,11.8
				v18.5h-4.2v-13.1c0.6-1.3,1-2.6,1-4c0-4.2-2.9-8.8-7.1-10v-1.6c0-1.1-0.9-2-2-2s-2,0.9-2,2v1.6c-4.2,1.1-7.1,5.8-7.1,10
				c0,1.4,0.3,2.8,1,4v13.1h-6.2v-32.1h1.4c1.1,0,2-0.9,2-2s-0.9-2-2-2h-2l-2.2-6V432h4.2c1.1,0,2-0.9,2-2s-0.9-2-2-2h-7.8v-39.8
				h3.1c1.1,0,2-0.9,2-2s-0.9-2-2-2h-4.7v-25.5h1.7c1.1,0,2-0.9,2-2s-0.9-2-2-2h-4.7V321c0-1.1-0.9-2-2-2s-2,0.9-2,2v33.7h-4.7
				c-1.1,0-2,0.9-2,2s0.9,2,2,2h1.7v25.5H7.5c-1.1,0-2,0.9-2,2s0.9,2,2,2h3.1V428H2.8c-0.5,0-1,0.2-1.4,0.6v2.8
				c0.4,0.4,0.8,0.6,1.4,0.6H7v45.8l-2.2,6h-2c-0.5,0-1,0.2-1.4,0.6v2.8c0.4,0.4,0.8,0.6,1.4,0.6h1.4V586H1.4v3.9h825.3
				c1.1,0,2-0.9,2-2S827.8,586,826.7,586z M573.6,543.1c2.6,0,4.8,1.7,5.6,4h-11.3C568.8,544.8,571,543.1,573.6,543.1z M552.1,547.1
				c0.8-2.3,3-4,5.6-4s4.8,1.7,5.6,4H552.1z M439.2,557.3c3.5,0,6.5,2.4,7.4,5.7h-14.8C432.7,559.8,435.6,557.3,439.2,557.3z
				 M412.5,563c0.9-3.3,3.9-5.7,7.4-5.7s6.5,2.4,7.4,5.7H412.5z M16.1,358.8h2.1v25.5h-2.1V358.8z M14.5,388.2h5.3V428h-5.3
				C14.5,428,14.5,388.2,14.5,388.2z M10.9,431.9h12.6v44.2H10.9V431.9z M10.3,480.1h13.8l1.4,3.7H8.9L10.3,480.1z M26.3,586H8.1
				v-98.2h18.2C26.3,487.8,26.3,586,26.3,586z M112.3,496.4c2.8,0,5.2,3.5,5.2,6.3c0,0.5-0.1,1.1-0.3,1.6h-9.8
				c-0.2-0.5-0.3-1-0.3-1.6C107.1,499.9,109.5,496.4,112.3,496.4z M116.5,508.2v11.7h-8.4v-11.7H116.5z M78.4,465.4
				C88,465.4,99,476,99,489.6c0,3.2-0.8,6.4-2.2,9.3H60.1c-1.5-2.9-2.2-6.1-2.2-9.3C57.8,476,68.9,465.4,78.4,465.4z M96,502.8v17.1
				H60.8v-17.1L96,502.8L96,502.8z M44.6,496.4c2.8,0,5.2,3.5,5.2,6.3c0,0.5-0.1,1.1-0.3,1.6h-9.8c-0.2-0.5-0.3-1-0.3-1.6
				C39.4,499.9,41.8,496.4,44.6,496.4z M48.8,508.2v11.7h-8.4v-11.7H48.8z M45.4,577.4c-0.2,0.3-0.3,0.7-0.3,1.1v7.5h-6.2v-7.5
				c0-0.4-0.1-0.8-0.3-1.1c-0.5-0.7-0.7-1.5-0.7-2.3c0-1.2,2-3.9,4.1-6.2c2,2.1,4.1,4.8,4.1,6.2C46.1,575.9,45.9,576.7,45.4,577.4z
				 M63.6,577.4c-0.2,0.3-0.3,0.7-0.3,1.1v7.5h-6.2v-7.5c0-0.4-0.1-0.8-0.3-1.1c-0.5-0.7-0.7-1.5-0.7-2.3c0-1.2,2-3.9,4.1-6.2
				c2,2.1,4.1,4.8,4.1,6.2C64.3,575.9,64.1,576.7,63.6,577.4z M81.9,577.4c-0.2,0.3-0.3,0.7-0.3,1.1v7.5h-6.2v-7.5
				c0-0.4-0.1-0.8-0.3-1.1c-0.5-0.7-0.7-1.5-0.7-2.3c0-1.2,2-3.9,4.1-6.2c2,2.1,4.1,4.8,4.1,6.2C82.6,575.9,82.3,576.7,81.9,577.4z
				 M100.1,577.4c-0.2,0.3-0.3,0.7-0.3,1.1v7.5h-6.2v-7.5c0-0.4-0.1-0.8-0.3-1.1c-0.5-0.7-0.7-1.5-0.7-2.3c0-1.2,2-3.9,4.1-6.2
				c2,2.1,4.1,4.8,4.1,6.2C100.8,575.9,100.6,576.7,100.1,577.4z M118.3,577.4c-0.2,0.3-0.3,0.7-0.3,1.1v7.5h-6.2v-7.5
				c0-0.4-0.1-0.8-0.3-1.1c-0.5-0.7-0.7-1.5-0.7-2.3c0-1.2,2-3.9,4.1-6.2c2,2.1,4.1,4.8,4.1,6.2C119,575.9,118.8,576.7,118.3,577.4z
				 M126.6,586h-4.7v-6.9c0.7-1.2,1.1-2.6,1.1-4c0-4-5.6-9.3-6.7-10.4c-0.7-0.7-1.9-0.7-2.6,0c-1.1,1-6.7,6.3-6.7,10.4
				c0,1.4,0.4,2.8,1.1,4v6.9h-4.2v-6.9c0.7-1.2,1.1-2.6,1.1-4c0-4-5.6-9.3-6.7-10.4c-0.7-0.7-1.9-0.7-2.6,0c-1.1,1-6.7,6.3-6.7,10.4
				c0,1.4,0.4,2.8,1.1,4v6.9h-4.2v-6.9c0.7-1.2,1.1-2.6,1.1-4c0-4-5.6-9.3-6.7-10.4c-0.7-0.7-1.9-0.7-2.6,0c-1.1,1-6.7,6.3-6.7,10.4
				c0,1.4,0.4,2.8,1.1,4v6.9h-4.2v-6.9c0.7-1.2,1.1-2.6,1.1-4c0-4-5.6-9.3-6.7-10.4c-0.7-0.7-1.9-0.7-2.6,0c-1.1,1-6.7,6.3-6.7,10.4
				c0,1.4,0.4,2.8,1.1,4v6.9H49v-6.9c0.7-1.2,1.1-2.6,1.1-4c0-4-5.6-9.3-6.7-10.4c-0.7-0.7-1.9-0.7-2.6,0c-1.1,1-6.7,6.3-6.7,10.4
				c0,1.4,0.4,2.8,1.1,4v6.9h-4.7v-36.4h96.4V586H126.6z M41.7,543.8c-0.5-0.9-0.8-2-0.8-3c0-3.4,2.7-7.4,6.1-7.4s6.1,4.1,6.1,7.4
				c0,1.1-0.3,2.1-0.8,3c-0.2,0.3-0.3,0.6-0.3,1v0.9H42v-0.9C42,544.5,41.9,544.1,41.7,543.8z M73.1,543.8c-0.5-0.9-0.8-2-0.8-3
				c0-3.4,2.7-7.4,6.1-7.4s6.1,4.1,6.1,7.4c0,1.1-0.3,2.1-0.8,3c-0.2,0.3-0.3,0.6-0.3,1v0.9h-10v-0.9
				C73.4,544.5,73.3,544.1,73.1,543.8z M104.6,543.8c-0.5-0.9-0.8-2-0.8-3c0-3.4,2.7-7.4,6.1-7.4s6.1,4.1,6.1,7.4
				c0,1.1-0.3,2.1-0.8,3c-0.2,0.3-0.3,0.6-0.3,1v0.9h-10.1v-0.9C104.8,544.5,104.7,544.1,104.6,543.8z M126.6,545.7h-7.8v-0.4
				c0.7-1.4,1.1-3,1.1-4.5c0-4.7-3.3-9.9-8.1-11.1v-2c0-1.1-0.9-2-2-2s-2,0.9-2,2v2c-4.7,1.2-8.1,6.4-8.1,11.1
				c0,1.6,0.4,3.1,1.1,4.5v0.4H87.4v-0.4c0.7-1.4,1.1-3,1.1-4.5c0-4.7-3.3-9.9-8.1-11.1v-2c0-1.1-0.9-2-2-2s-2,0.9-2,2v2
				c-4.7,1.2-8.1,6.4-8.1,11.1c0,1.6,0.4,3.1,1.1,4.5v0.4H56v-0.4c0.7-1.4,1.1-3,1.1-4.5c0-4.7-3.3-9.9-8.1-11.1v-2c0-1.1-0.9-2-2-2
				s-2,0.9-2,2v2c-4.7,1.2-8.1,6.4-8.1,11.1c0,1.6,0.4,3.1,1.1,4.5v0.4h-7.8v-21.9h96.4C126.6,523.8,126.6,545.7,126.6,545.7z
				 M147.6,586h-17v-71.8h17V586z M236.3,497.6c3.5,0,6.3,4.2,6.3,7.6c0,0.7-0.1,1.5-0.4,2.1h-11.7c-0.3-0.7-0.4-1.4-0.4-2.1
				C230,501.8,232.8,497.6,236.3,497.6z M241.5,511.3v8.6h-10.3v-8.6L241.5,511.3L241.5,511.3z M169.9,473.7
				c0-20.4,16.6-36.1,30.9-36.1c14.3,0,30.9,15.8,30.9,36.1c0,5.4-1.4,10.7-4.1,15.4c-0.2,0.3-0.3,0.6-0.3,1v10.2
				c-0.7,1.6-1.1,3.3-1.1,4.9s0.4,3.2,1.1,4.6v10.1h-4.9v-5.4c2-3.6,3-7.7,3-11.8c0-12.4-9.7-26.7-22.6-28.1v-11c0-1.1-0.9-2-2-2
				s-2,0.9-2,2v11c-12.9,1.3-22.6,15.7-22.6,28.1c0,4.1,1,8.2,3,11.8v5.4h-5v-10.1c0.7-1.4,1.1-3,1.1-4.6s-0.4-3.3-1.1-4.8v-10.3
				c0-0.3-0.1-0.7-0.3-1C171.3,484.4,169.9,479.1,169.9,473.7z M182.4,512c-1.5-2.9-2.2-6.1-2.2-9.3c0-13.6,11.1-24.2,20.6-24.2
				s20.6,10.6,20.6,24.2c0,3.2-0.8,6.4-2.2,9.3H182.4z M218.3,515.9v4h-35.2v-4H218.3z M165.2,497.6c3.5,0,6.3,4.2,6.3,7.6
				c0,0.7-0.1,1.5-0.4,2.1h-11.7c-0.3-0.7-0.4-1.4-0.4-2.1C158.9,501.8,161.7,497.6,165.2,497.6z M170.3,511.3v8.6H160v-8.6
				L170.3,511.3L170.3,511.3z M174,572.5c-0.2,0.3-0.3,0.7-0.3,1.1V586h-11.4v-12.4c0-0.4-0.1-0.8-0.3-1.1c-0.8-1.2-1.3-2.6-1.3-4.1
				c0-2.7,4.1-7.6,7.3-10.8c3.4,3.4,7.3,8.2,7.3,10.8C175.2,569.9,174.8,571.3,174,572.5z M210,566.5c-0.2,0.3-0.3,0.7-0.3,1.1V586
				h-17.8v-18.3c0-0.4-0.1-0.8-0.3-1.1c-1.3-1.9-1.9-4-1.9-6.3c0-4.2,6.4-11.9,11.2-16.5c4.8,4.6,11.2,12.3,11.2,16.5
				C211.9,562.5,211.3,564.7,210,566.5z M237,572.5c-0.2,0.3-0.3,0.7-0.3,1.1V586h-11.4v-12.4c0-0.4-0.1-0.8-0.3-1.1
				c-0.8-1.2-1.3-2.6-1.3-4.1c0-2.7,4.1-7.6,7.3-10.8c3.4,3.4,7.3,8.2,7.3,10.8C238.3,569.9,237.8,571.3,237,572.5z M250,586h-9.4
				v-11.8c1-1.7,1.6-3.7,1.6-5.8c0-5.8-8.9-14.1-9.9-15c-0.7-0.7-1.9-0.7-2.6,0c-1,0.9-9.9,9.2-9.9,15c0,2,0.6,4,1.6,5.8V586h-7.7
				v-17.8c1.5-2.4,2.3-5.1,2.3-8c0-7.9-12.4-19.4-13.8-20.6c-0.7-0.7-1.9-0.7-2.6,0c-1.4,1.3-13.8,12.7-13.8,20.6
				c0,2.8,0.8,5.6,2.3,8V586h-10.3v-11.8c1-1.7,1.6-3.7,1.6-5.8c0-5.8-8.9-14.1-9.9-15c-0.7-0.7-1.9-0.7-2.6,0
				c-1,0.9-9.9,9.2-9.9,15c0,2.1,0.6,4,1.6,5.8V586h-6.8v-62.2H250V586z M270.9,586h-17v-71.8h17V586z M356.9,496.4
				c2.8,0,5.2,3.5,5.2,6.3c0,0.5-0.1,1.1-0.3,1.6H352c-0.2-0.5-0.3-1-0.3-1.6C351.8,499.9,354.1,496.4,356.9,496.4z M361.1,508.2
				v11.7h-8.4v-11.7H361.1z M323.1,465.4c9.5,0,20.6,10.6,20.6,24.2c0,3.2-0.8,6.4-2.2,9.3h-36.7c-1.5-2.9-2.2-6.1-2.2-9.3
				C302.5,476,313.5,465.4,323.1,465.4z M340.7,502.8v17.1h-35.2v-17.1L340.7,502.8L340.7,502.8z M289.2,496.4
				c2.8,0,5.2,3.5,5.2,6.3c0,0.5-0.1,1.1-0.3,1.6h-9.8c-0.2-0.5-0.3-1-0.3-1.6C284.1,499.9,286.4,496.4,289.2,496.4z M293.4,508.2
				v11.7H285v-11.7H293.4z M290,577.4c-0.2,0.3-0.3,0.7-0.3,1.1v7.5h-6.2v-7.5c0-0.4-0.1-0.8-0.3-1.1c-0.5-0.7-0.7-1.5-0.7-2.3
				c0-1.2,2-3.9,4.1-6.2c2,2.1,4.1,4.8,4.1,6.2C290.7,575.9,290.5,576.7,290,577.4z M308.3,577.4c-0.2,0.3-0.3,0.7-0.3,1.1v7.5h-6.2
				v-7.5c0-0.4-0.1-0.8-0.3-1.1c-0.5-0.7-0.7-1.5-0.7-2.3c0-1.2,2-3.9,4.1-6.2c2,2.1,4.1,4.8,4.1,6.2
				C309,575.9,308.7,576.7,308.3,577.4z M326.5,577.4c-0.2,0.3-0.3,0.7-0.3,1.1v7.5H320v-7.5c0-0.4-0.1-0.8-0.3-1.1
				c-0.5-0.7-0.7-1.5-0.7-2.3c0-1.2,2-3.9,4.1-6.2c2.2,2.2,4.1,4.9,4.1,6.2C327.2,575.9,327,576.7,326.5,577.4z M344.7,577.4
				c-0.2,0.3-0.3,0.7-0.3,1.1v7.5h-6.2v-7.5c0-0.4-0.1-0.8-0.3-1.1c-0.5-0.7-0.7-1.5-0.7-2.3c0-1.2,2-3.9,4.1-6.2
				c2.2,2.2,4.1,4.9,4.1,6.2C345.4,575.9,345.2,576.7,344.7,577.4z M363,577.4c-0.2,0.3-0.3,0.7-0.3,1.1v7.5h-6.2v-7.5
				c0-0.4-0.1-0.8-0.3-1.1c-0.5-0.7-0.7-1.5-0.7-2.3c0-1.2,2-3.9,4.1-6.2c2,2.1,4.1,4.8,4.1,6.2C363.7,575.9,363.4,576.7,363,577.4z
				 M371.3,586h-4.7v-6.9c0.7-1.2,1.1-2.6,1.1-4c0-4-5.6-9.3-6.7-10.4c-0.7-0.7-1.9-0.7-2.6,0c-1.1,1-6.7,6.3-6.7,10.4
				c0,1.4,0.4,2.8,1.1,4v6.9h-4.2v-6.9c0.7-1.2,1.1-2.6,1.1-4c0-4-5.6-9.3-6.7-10.4c-0.7-0.7-1.9-0.7-2.6,0c-1.1,1-6.7,6.3-6.7,10.4
				c0,1.4,0.4,2.8,1.1,4v6.9h-4.2v-6.9c0.7-1.2,1.1-2.6,1.1-4c0-4-5.6-9.3-6.7-10.4c-0.7-0.7-1.9-0.7-2.6,0c-1.1,1-6.7,6.3-6.7,10.4
				c0,1.4,0.4,2.8,1.1,4v6.9h-4.2v-6.9c0.7-1.2,1.1-2.6,1.1-4c0-4-5.6-9.3-6.7-10.4c-0.7-0.7-1.9-0.7-2.6,0c-1.1,1-6.7,6.3-6.7,10.4
				c0,1.4,0.4,2.8,1.1,4v6.9h-4.2v-6.9c0.7-1.2,1.1-2.6,1.1-4c0-4-5.6-9.3-6.7-10.4c-0.7-0.7-1.9-0.7-2.6,0c-1.1,1-6.7,6.3-6.7,10.4
				c0,1.4,0.4,2.8,1.1,4v6.9h-4.7v-36.4h96.4V586H371.3z M286.3,543.8c-0.5-0.9-0.8-2-0.8-3c0-3.4,2.7-7.4,6.1-7.4s6.1,4.1,6.1,7.4
				c0,1.1-0.3,2.1-0.8,3c-0.2,0.3-0.3,0.6-0.3,1v0.9h-10.1v-0.9C286.6,544.5,286.5,544.1,286.3,543.8z M317.8,543.8
				c-0.5-0.9-0.8-2-0.8-3c0-3.4,2.7-7.4,6.1-7.4s6.1,4.1,6.1,7.4c0,1.1-0.3,2.1-0.8,3c-0.2,0.3-0.3,0.6-0.3,1v0.9H318v-0.9
				C318,544.5,317.9,544.1,317.8,543.8z M349.2,543.8c-0.5-0.9-0.8-2-0.8-3c0-3.4,2.7-7.4,6.1-7.4s6.1,4.1,6.1,7.4
				c0,1.1-0.3,2.1-0.8,3c-0.2,0.3-0.3,0.6-0.3,1v0.9h-10.1v-0.9C349.5,544.5,349.4,544.1,349.2,543.8z M371.3,545.7h-7.8v-0.4
				c0.7-1.4,1.1-3,1.1-4.5c0-4.7-3.3-9.9-8.1-11.1v-2c0-1.1-0.9-2-2-2s-2,0.9-2,2v2c-4.7,1.2-8.1,6.4-8.1,11.1
				c0,1.6,0.4,3.1,1.1,4.5v0.4H332v-0.4c0.7-1.4,1.1-3,1.1-4.5c0-4.7-3.3-9.9-8.1-11.1v-2c0-1.1-0.9-2-2-2s-2,0.9-2,2v2
				c-4.7,1.2-8.1,6.4-8.1,11.1c0,1.6,0.4,3.1,1.1,4.5v0.4h-13.5v-0.4c0.7-1.4,1.1-3,1.1-4.5c0-4.7-3.3-9.9-8.1-11.1v-2
				c0-1.1-0.9-2-2-2s-2,0.9-2,2v2c-4.7,1.2-8.1,6.4-8.1,11.1c0,1.6,0.4,3.1,1.1,4.5v0.4h-7.8v-21.9h96.4v21.9H371.3z M383.3,358.8
				h2.1v25.5h-2.1V358.8z M381.7,388.2h5.3V428h-5.3V388.2z M378,431.9h12.6v44.2H378V431.9z M377.4,480.1h13.8l1.4,3.7h-16.5
				L377.4,480.1z M393.4,586h-18.2v-98.2h18.2V586z M460.9,586c1.2-13.8,6.7-90.1-11.1-148.3c-3.3-10.8-6.5-20.7-9.5-29.9h1.7
				c1.1,0,2-0.9,2-2s-0.9-2-2-2h-3c-1-3.2-2.1-6.2-3.1-9.3h6.1c1.1,0,2-0.9,2-2s-0.9-2-2-2h-7.4c-0.9-2.7-1.8-5.3-2.6-7.8
				c-0.2-0.5-0.3-0.9-0.5-1.4h10.6c1.1,0,2-0.9,2-2s-0.9-2-2-2h-11.9c-1.1-3.2-2.1-6.2-3.1-9.3H448c1.1,0,2-0.9,2-2s-0.9-2-2-2
				h-22.2c-1-3.2-2-6.2-3-9.2h14.9c1.1,0,2-0.9,2-2s-0.9-2-2-2h-16.1c-1-3.1-1.9-6.2-2.8-9.3h23.3c1.1,0,2-0.9,2-2s-0.9-2-2-2h-24.4
				c-0.9-3.1-1.6-6.2-2.4-9.3h19.3c1.1,0,2-0.9,2-2s-0.9-2-2-2h-20.2c-0.7-3.1-1.3-6.2-1.9-9.3h8.3c1.1,0,2-0.9,2-2s-0.9-2-2-2h-8.9
				c-0.4-2.8-0.8-5.6-1.2-8.4c0-0.3-0.1-0.5-0.1-0.8h39.3c1.1,0,2-0.9,2-2s-0.9-2-2-2h-39.7c-0.4-3.3-0.7-6.4-1-9.3H432
				c1.1,0,2-0.9,2-2s-0.9-2-2-2h-23.3c-0.3-3.5-0.6-6.6-0.8-9.3H442c1.1,0,2-0.9,2-2s-0.9-2-2-2h-34.4c-0.3-4-0.4-6.7-0.4-8.4h81.3
				c-0.5,11.1-2.2,64.1,7,99.1c3.7,14,9.2,30.8,14.9,48.4c3.6,11,7.3,22.2,10.5,32.9h-4.4c-1.1,0-2,0.9-2,2s0.9,2,2,2h5.6
				c0.9,3.1,1.8,6.2,2.7,9.3h-9.6c-1.1,0-2,0.9-2,2s0.9,2,2,2h10.6c0.9,3.2,1.7,6.3,2.4,9.3h-22.1c-1.1,0-2,0.9-2,2s0.9,2,2,2h23.1
				c0.7,3.2,1.4,6.3,1.9,9.3h-12.7c-1.1,0-2,0.9-2,2s0.9,2,2,2H532c0.4,2.8,0.7,5.4,0.9,7.9c0,0.4,0.1,0.9,0.1,1.4h-18.5
				c-1.1,0-2,0.9-2,2s0.9,2,2,2h18.7c0.1,2.9,0.3,6,0.4,9.3h-12.4c-1.1,0-2,0.9-2,2s0.9,2,2,2h12.5c0.1,3,0.2,6.1,0.3,9.3h-21.7
				c-1.1,0-2,0.9-2,2s0.9,2,2,2h21.8c0.1,3.1,0.1,6.2,0.2,9.3h-13.1c-1.1,0-2,0.9-2,2s0.9,2,2,2h13.2c0.1,3.1,0.1,6.2,0.1,9.3h-17.8
				c-1.1,0-2,0.9-2,2s0.9,2,2,2h17.8c0,3.2,0.1,6.3,0.1,9.3h-25.3c-1.1,0-2,0.9-2,2s0.9,2,2,2h25.3c0,3.4,0.1,6.5,0.1,9.3h-34.2
				c-1.1,0-2,0.9-2,2s0.9,2,2,2h34.2c0,2.6,0,4.7,0,6.1h-73.8V586z M786.1,567.3l-9.2-14l10.2-15.5l7.8,11.9
				C792.5,555.8,789.6,561.7,786.1,567.3z M774.5,511.6l-10.2-15.5l10.2-15.5l10.2,15.5L774.5,511.6z M787.1,499.7l10.2,15.5
				l-10.2,15.5l-10.2-15.5L787.1,499.7z M636.5,499.7l10.2,15.5l-10.2,15.5l-10.2-15.5L636.5,499.7z M623.9,511.6l-10.2-15.5
				l10.2-15.5l10.2,15.5L623.9,511.6z M638.8,496.1l10.2-15.5l10.2,15.5L649,511.6L638.8,496.1z M651.4,477l10.2-15.5l10.2,15.5
				l-10.2,15.5L651.4,477z M661.6,499.7l10.2,15.5l-10.2,15.5l-10.2-15.5L661.6,499.7z M663.9,496.1l10.2-15.5l10.2,15.5l-10.2,15.5
				L663.9,496.1z M676.5,477l10.2-15.5l10.2,15.5l-10.2,15.5L676.5,477z M686.7,499.7l10.2,15.5l-10.2,15.5l-10.2-15.5L686.7,499.7z
				 M689,496.1l10.2-15.5l10.2,15.5l-10.2,15.5L689,496.1z M701.6,477l10.2-15.5L722,477l-10.2,15.5L701.6,477z M711.8,499.7
				l10.2,15.5l-10.2,15.5l-10.2-15.5L711.8,499.7z M714.1,496.1l10.2-15.5l10.2,15.5l-10.2,15.5L714.1,496.1z M726.7,477l10.2-15.5
				l10.2,15.5l-10.2,15.5L726.7,477z M736.9,499.7l10.2,15.5l-10.2,15.5l-10.2-15.5L736.9,499.7z M739.2,496.1l10.2-15.5l10.2,15.5
				l-10.2,15.5L739.2,496.1z M762,499.7l10.2,15.5L762,530.7l-10.2-15.5L762,499.7z M762,492.5L751.8,477l10.2-15.5l10.2,15.5
				L762,492.5z M749.4,473.5L739.2,458l10.2-15.5l10.2,15.5L749.4,473.5z M736.9,454.4l-10.2-15.5l10.2-15.5l10.2,15.5L736.9,454.4z
				 M734.5,458l-10.2,15.5L714.1,458l10.2-15.5L734.5,458z M711.8,454.4l-10.2-15.5l10.2-15.5l10.2,15.5L711.8,454.4z M709.4,458
				l-10.2,15.5L689,458l10.2-15.5L709.4,458z M686.7,454.4l-10.2-15.5l10.2-15.5l10.2,15.5L686.7,454.4z M684.3,458l-10.2,15.5
				L663.9,458l10.2-15.5L684.3,458z M661.6,454.4l-10.2-15.5l10.2-15.5l10.2,15.5L661.6,454.4z M659.2,458L649,473.5L638.8,458
				l10.2-15.5L659.2,458z M646.7,477l-10.2,15.5L626.3,477l10.2-15.5L646.7,477z M623.9,473.5L613.7,458l10.2-15.5l10.2,15.5
				L623.9,473.5z M621.6,477l-10.2,15.5L601.2,477l10.2-15.5L621.6,477z M621.6,515.2l-10.2,15.5l-10.2-15.5l10.2-15.5L621.6,515.2z
				 M623.9,518.8l10.2,15.5l-10.2,15.5l-10.2-15.5L623.9,518.8z M636.5,537.8l10.2,15.5l-10.2,15.5l-10.2-15.5L636.5,537.8z
				 M638.8,534.3l10.2-15.5l10.2,15.5L649,549.7L638.8,534.3z M661.6,537.8l10.2,15.5l-10.2,15.5l-10.2-15.5L661.6,537.8z
				 M663.9,534.3l10.2-15.5l10.2,15.5l-10.2,15.5L663.9,534.3z M686.7,537.8l10.2,15.5l-10.2,15.5l-10.2-15.5L686.7,537.8z
				 M689,534.3l10.2-15.5l10.2,15.5l-10.2,15.5L689,534.3z M711.8,537.8l10.2,15.5l-10.2,15.5l-10.2-15.5L711.8,537.8z M714.1,534.3
				l10.2-15.5l10.2,15.5l-10.2,15.5L714.1,534.3z M736.9,537.8l10.2,15.5l-10.2,15.5l-10.2-15.5L736.9,537.8z M739.2,534.3
				l10.2-15.5l10.2,15.5l-10.2,15.5L739.2,534.3z M762,537.8l10.2,15.5L762,568.8l-10.2-15.5L762,537.8z M764.3,534.3l10.2-15.5
				l10.2,15.5l-10.2,15.5L764.3,534.3z M796.5,545.1l-7.1-10.8l10.2-15.5l1.9,2.9C800.8,529.7,799.1,537.5,796.5,545.1z M802,508
				l-2.4,3.6l-10.2-15.5l8.9-13.5C800.5,490.7,801.8,499.2,802,508z M795.9,474.9c0.3,0.9,0.7,1.9,1,2.9l-9.7,14.8L776.9,477
				l10.2-15.5L795.9,474.9z M774.5,442.5l10.2,15.5l-10.2,15.5L764.3,458L774.5,442.5z M768.1,432.7l4.1,6.2L762,454.4l-10.2-15.5
				l8.5-12.9C763,428.1,765.6,430.3,768.1,432.7z M742.5,414.9c5.1,2.5,10,5.5,14.6,8.8l-7.7,11.7l-10.2-15.5L742.5,414.9z
				 M738.9,413.2l-2,3.1l-3.6-5.4C735.2,411.6,737.1,412.4,738.9,413.2z M722.4,407.3c1.6,0.4,3.2,0.9,4.8,1.4l7.3,11.1l-10.2,15.5
				l-10.2-15.5L722.4,407.3z M718.3,406.3l-6.5,9.9l-8-12.2C708.7,404.5,713.6,405.3,718.3,406.3z M699.2,404.3l10.2,15.5
				l-10.2,15.5L689,419.8L699.2,404.3z M694.9,403.7L694.9,403.7l-8.2,12.6l-7.5-11.4C684.3,404.1,689.6,403.7,694.9,403.7z
				 M673.1,405.9c0.6-0.1,1.3-0.2,1.9-0.3l9.4,14.2l-10.2,15.5L664,419.8L673.1,405.9z M667.5,407.3l-5.9,9l-3.9-5.9
				C660.9,409.2,664.2,408.2,667.5,407.3z M639.1,419.4c4.7-2.9,9.7-5.4,14.8-7.5l5.3,8L649,435.3l-10.2-15.5L639.1,419.4z
				 M636.5,423.4l10.2,15.5l-10.2,15.5l-10.2-15.5L636.5,423.4z M630.6,425.2l-6.7,10.2l-1.9-2.9
				C624.8,429.8,627.6,427.4,630.6,425.2z M619.1,435.2l2.5,3.8l-10.2,15.5l-3.7-5.7C611.1,443.9,614.9,439.3,619.1,435.2z
				 M605.3,452.2l3.8,5.8l-10.2,15.5l-2.7-4.2C598.6,463.3,601.7,457.6,605.3,452.2z M594.3,473.8l2.2,3.3l-5.8,8.8
				C591.7,481.8,592.9,477.7,594.3,473.8z M588.8,495.9l10.1-15.3l10.2,15.5l-10.2,15.5l-10.1-15.4
				C588.7,496.1,588.7,496,588.8,495.9z M587.7,510.9c0-2.9,0.1-5.7,0.4-8.5l8.4,12.8l-7.6,11.6
				C588.1,521.6,587.7,516.3,587.7,510.9z M589.8,532.4l9-13.7l10.2,15.5l-12.6,19.1C593.5,546.7,591.3,539.7,589.8,532.4z
				 M598.4,557.6l13-19.8l10.2,15.5l-13.5,20.5C604.3,568.7,601.1,563.3,598.4,557.6z M618.3,585.9c-2.7-2.8-5.3-5.7-7.7-8.8
				l13.3-20.3l10.2,15.5l-8.9,13.5L618.3,585.9L618.3,585.9z M629.9,585.9l6.6-10l6.6,10H629.9z M647.7,585.9l-8.9-13.5l10.2-15.5
				l10.2,15.5l-8.9,13.5H647.7z M655,585.9l6.6-10l6.6,10H655z M672.8,585.9l-8.9-13.5l10.2-15.5l10.2,15.5l-8.9,13.5H672.8z
				 M680.1,585.9l6.6-10l6.6,10H680.1z M697.9,585.9l-8.9-13.5l10.2-15.5l10.2,15.5l-8.9,13.5H697.9z M705.2,585.9l6.6-10l6.6,10
				H705.2z M723,585.9l-8.9-13.5l10.2-15.5l10.2,15.5l-8.9,13.5H723z M730.3,585.9l6.6-10l6.5,10H730.3z M748.1,585.9l-8.9-13.5
				l10.2-15.5l10.2,15.5l-8.9,13.5H748.1z M755.4,585.9l6.6-10l6.5,10H755.4z M764.3,572.4l10.2-15.5l9.2,14
				c-3.3,4.9-7.1,9.6-11.2,13.9L764.3,572.4z"/>
			<path class="st1" d="M802,515.2L802,515.2L802,515.2L802,515.2z"/>
			<circle class="st1" cx="392.1" cy="189.4" r="2.6"/>
			<circle class="st1" cx="474" cy="146.1" r="2.1"/>
			<circle class="st1" cx="113.3" cy="211.7" r="2.1"/>
			<circle class="st1" cx="536.8" cy="357.4" r="2.1"/>
			<circle class="st1" cx="978.4" cy="171.5" r="2.1"/>
			<circle class="st1" cx="777.9" cy="355.9" r="2.3"/>
			<circle class="st1" cx="893.4" cy="212.6" r="2.3"/>
			<circle class="st1" cx="173.1" cy="312" r="3.1"/>
			<path class="st1" d="M210.1,172.6c0.7,0.6,1.8,0.6,2.5,0l11.4-9.4l11.4,9.4c0.7,0.6,1.8,0.6,2.5,0l11.4-9.4l11.4,9.4
				c0.4,0.3,0.8,0.4,1.2,0.4c0.6,0,1.1-0.2,1.5-0.7c0.7-0.8,0.6-2.1-0.3-2.8L250.4,159c-0.7-0.6-1.8-0.6-2.5,0l-11.4,9.4l-11.4-9.4
				c-0.7-0.6-1.8-0.6-2.5,0l-11.4,9.4l-11.4-9.4c-0.8-0.7-2.1-0.6-2.8,0.3c-0.7,0.8-0.6,2.1,0.3,2.8L210.1,172.6z"/>
			<path class="st1" d="M583.8,333c0.7,0.6,1.8,0.6,2.5,0l11.4-9.4l11.4,9.4c0.7,0.6,1.8,0.6,2.5,0l11.4-9.4l11.4,9.4
				c0.4,0.3,0.8,0.4,1.2,0.4c0.6,0,1.1-0.2,1.5-0.7c0.7-0.8,0.6-2.1-0.3-2.8l-12.7-10.5c-0.7-0.6-1.8-0.6-2.5,0l-11.4,9.4l-11.4-9.4
				c-0.7-0.6-1.8-0.6-2.5,0l-11.4,9.4l-11.4-9.4c-0.8-0.7-2.1-0.6-2.8,0.3c-0.7,0.8-0.6,2.1,0.3,2.8L583.8,333z"/>
			<path class="st1" d="M934.8,286.7c0.7,0.6,1.8,0.6,2.5,0l11.4-9.4l11.4,9.4c0.7,0.6,1.8,0.6,2.5,0l11.4-9.4l11.4,9.4
				c0.4,0.3,0.8,0.4,1.2,0.4c0.6,0,1.1-0.2,1.5-0.7c0.7-0.8,0.6-2.1-0.3-2.8l-12.7-10.5c-0.7-0.6-1.8-0.6-2.5,0l-11.4,9.4l-11.4-9.4
				c-0.7-0.6-1.8-0.6-2.5,0l-11.4,9.4l-11.4-9.4c-0.8-0.7-2.1-0.6-2.8,0.3c-0.7,0.8-0.6,2.1,0.3,2.8L934.8,286.7z"/>
			<path class="st1" d="M677.2,210.7h4.3c-1.4,1.8-2.3,4.1-2.3,6.7c0,6,4.9,10.8,10.8,10.8h27.6c6,0,10.8-4.9,10.8-10.8
				c0-5.3-3.8-9.7-8.9-10.7c-1.3-6.6-7.1-11.5-14.1-11.5c-6.9,0-12.7,4.8-14,11.4c-0.5-0.1-1-0.1-1.4-0.1c-0.8,0-1.6,0.1-2.3,0.3
				h-10.5c-1.1,0-2,0.9-2,2C675.2,209.8,676.1,210.7,677.2,210.7z M690,210.4c0.8,0,1.6,0.1,2.4,0.4c0.6,0.2,1.3,0.1,1.8-0.2
				s0.9-0.9,0.9-1.6c0.2-5.6,4.8-10,10.4-10c5.4,0,9.9,4.1,10.4,9.5c0.1,1,0.9,1.8,1.9,1.8c3.8,0.1,6.7,3.1,6.7,6.9
				c0,3.8-3.1,6.9-6.9,6.9H690c-3.8,0-6.9-3.1-6.9-6.9C683.1,213.5,686.2,210.4,690,210.4z"/>
			<path class="st1" d="M660.9,218.8h14.5c1.1,0,2-0.9,2-2s-0.9-2-2-2h-14.5c-1.1,0-2,0.9-2,2C659,218,659.9,218.8,660.9,218.8z"/>
			<path class="st1" d="M675.4,227.4c1.1,0,2-0.9,2-2s-0.9-2-2-2h-7.2c-1.1,0-2,0.9-2,2s0.9,2,2,2H675.4z"/>
			<path class="st1" d="M686.6,203.1h2.7c1.1,0,2-0.9,2-2s-0.9-2-2-2h-2.7c-1.1,0-2,0.9-2,2C684.6,202.2,685.5,203.1,686.6,203.1z"
				/>
			<path class="st1" d="M1255.5,192.2h4.3c-1.4,1.8-2.3,4.1-2.3,6.7c0,6,4.9,10.8,10.8,10.8h27.6c6,0,10.8-4.9,10.8-10.8
				c0-5.3-3.8-9.7-8.9-10.7c-1.3-6.6-7.1-11.5-14.1-11.5c-6.9,0-12.7,4.8-14,11.4c-0.5-0.1-1-0.1-1.4-0.1c-0.8,0-1.6,0.1-2.3,0.3
				h-10.5c-1.1,0-2,0.9-2,2C1253.5,191.3,1254.4,192.2,1255.5,192.2z M1268.3,191.9c0.8,0,1.6,0.1,2.4,0.4c0.6,0.2,1.3,0.1,1.8-0.2
				s0.9-0.9,0.9-1.6c0.2-5.6,4.8-10,10.4-10c5.4,0,9.9,4.1,10.4,9.5c0.1,1,0.9,1.8,1.9,1.8c3.8,0.1,6.7,3.1,6.7,6.9
				c0,3.8-3.1,6.9-6.9,6.9h-27.6c-3.8,0-6.9-3.1-6.9-6.9C1261.4,195,1264.5,191.9,1268.3,191.9z"/>
			<path class="st1" d="M1239.2,200.3h14.5c1.1,0,2-0.9,2-2s-0.9-2-2-2h-14.5c-1.1,0-2,0.9-2,2
				C1237.3,199.4,1238.1,200.3,1239.2,200.3z"/>
			<path class="st1" d="M1253.7,208.9c1.1,0,2-0.9,2-2s-0.9-2-2-2h-7.2c-1.1,0-2,0.9-2,2s0.9,2,2,2H1253.7z"/>
			<path class="st1" d="M1264.9,184.6h2.7c1.1,0,2-0.9,2-2s-0.9-2-2-2h-2.7c-1.1,0-2,0.9-2,2
				C1262.9,183.7,1263.8,184.6,1264.9,184.6z"/>
			<path class="st1" d="M66.8,304.6h8.6c-2.2,2.5-3.5,5.7-3.5,9.3c0,2.3,0.6,4.5,1.6,6.5h-6.7c-1.1,0-2,0.9-2,2s0.9,2,2,2H74
				c0.7,0,1.3-0.3,1.6-0.8c2.6,2.9,6.4,4.7,10.6,4.7h27.1c7.1,0,12.9-5.8,12.9-12.8c0-7.1-5.8-12.8-12.9-12.8
				c-1.3,0-2.6,0.2-3.9,0.6c-1.2-5.9-6.4-10.3-12.7-10.3c-4.9,0-9.3,2.7-11.5,6.9c-1.6,0.1-3,0.5-4.4,1h-14c-1.1,0-2,0.9-2,2
				S65.8,304.6,66.8,304.6z M86.3,303.6C86.4,303.6,86.4,303.6,86.3,303.6h0.2c0.8,0,1.6-0.5,1.9-1.2c1.4-3.5,4.7-5.7,8.4-5.7
				c5,0,9,4,9,9v0.2c0,0.7,0.3,1.4,1,1.8c0.6,0.4,1.4,0.4,2,0c1.4-0.8,3-1.3,4.6-1.3c5,0,9,4,9,8.9s-4,8.9-9,8.9H86.3
				c-5.8,0-10.4-4.6-10.4-10.3C75.8,308.2,80.5,303.6,86.3,303.6z"/>
			<path class="st1" d="M53.5,312.4H68c1.1,0,2-0.9,2-2s-0.9-2-2-2H53.5c-1.1,0-2,0.9-2,2C51.6,311.6,52.4,312.4,53.5,312.4z"/>
			<path class="st1" d="M58,320.4c-1.1,0-2,0.9-2,2s0.9,2,2,2h1.5c1.1,0,2-0.9,2-2s-0.9-2-2-2H58z"/>
			<path class="st1" d="M80.5,296.7H82c1.1,0,2-0.9,2-2s-0.9-2-2-2h-1.5c-1.1,0-2,0.9-2,2C78.6,295.8,79.5,296.7,80.5,296.7z"/>
			<path class="st1" d="M117.1,418.1c1.1,0,2-0.9,2-2v-1.9h1.9c1.1,0,2-0.9,2-2s-0.9-2-2-2h-1.9v-1.9c0-1.1-0.9-2-2-2s-2,0.9-2,2
				v1.9h-1.9c-1.1,0-2,0.9-2,2s0.9,2,2,2h1.9v1.9C115.1,417.2,116,418.1,117.1,418.1z"/>
			<path class="st1" d="M585.7,392.5c1.1,0,2-0.9,2-2v-1.9h1.9c1.1,0,2-0.9,2-2s-0.9-2-2-2h-1.9v-1.9c0-1.1-0.9-2-2-2s-2,0.9-2,2
				v1.9h-1.9c-1.1,0-2,0.9-2,2s0.9,2,2,2h1.9v1.9C583.8,391.6,584.6,392.5,585.7,392.5z"/>
			<path class="st1" d="M429,495.7c-1.1,0-2,0.9-2,2v1.9h-1.9c-1.1,0-2,0.9-2,2s0.9,2,2,2h1.9v1.9c0,1.1,0.9,2,2,2s2-0.9,2-2v-1.9
				h1.9c1.1,0,2-0.9,2-2s-0.9-2-2-2H431v-1.9C431,496.6,430.1,495.7,429,495.7z"/>
			<path class="st1" d="M327.5,263.7h0.4v0.4c0,1.1,0.9,2,2,2s2-0.9,2-2v-0.4h0.4c1.1,0,2-0.9,2-2s-0.9-2-2-2h-0.4v-0.4
				c0-1.1-0.9-2-2-2s-2,0.9-2,2v0.4h-0.4c-1.1,0-2,0.9-2,2S326.4,263.7,327.5,263.7z"/>
			<path class="st1" d="M262.4,375.1c-1.1,0-2,0.9-2,2v0.4H260c-1.1,0-2,0.9-2,2s0.9,2,2,2h0.4v0.4c0,1.1,0.9,2,2,2s2-0.9,2-2v-0.4
				h0.4c1.1,0,2-0.9,2-2s-0.9-2-2-2h-0.4v-0.4C264.3,376,263.5,375.1,262.4,375.1z"/>
			<path class="st1" d="M687.9,318.3c-1.1,0-2,0.9-2,2v0.4h-0.4c-1.1,0-2,0.9-2,2s0.9,2,2,2h0.4v0.4c0,1.1,0.9,2,2,2s2-0.9,2-2v-0.4
				h0.4c1.1,0,2-0.9,2-2s-0.9-2-2-2h-0.4v-0.4C689.9,319.2,689,318.3,687.9,318.3z"/>
			<path class="st1" d="M832.7,282c-1.1,0-2,0.9-2,2v0.4h-0.4c-1.1,0-2,0.9-2,2s0.9,2,2,2h0.4v0.4c0,1.1,0.9,2,2,2s2-0.9,2-2v-0.4
				h0.4c1.1,0,2-0.9,2-2s-0.9-2-2-2h-0.4V284C834.6,282.9,833.8,282,832.7,282z"/>
			<path class="st1" d="M1052.8,235.9c-1.1,0-2,0.9-2,2v0.4h-0.4c-1.1,0-2,0.9-2,2s0.9,2,2,2h0.4v0.4c0,1.1,0.9,2,2,2s2-0.9,2-2
				v-0.4h0.4c1.1,0,2-0.9,2-2s-0.9-2-2-2h-0.4v-0.4C1054.7,236.8,1053.8,235.9,1052.8,235.9z"/>
			<path class="st1" d="M548.3,218.8h0.4v0.4c0,1.1,0.9,2,2,2s2-0.9,2-2v-0.4h0.4c1.1,0,2-0.9,2-2s-0.9-2-2-2h-0.4v-0.4
				c0-1.1-0.9-2-2-2s-2,0.9-2,2v0.4h-0.4c-1.1,0-2,0.9-2,2C546.4,218,547.3,218.8,548.3,218.8z"/>
			<path class="st1" d="M76.5,442v0.8c0,1.1,0.9,2,2,2s2-0.9,2-2V442c0-1.1-0.9-2-2-2C77.3,440.1,76.5,441,76.5,442z"/>
			<path class="st1" d="M198.8,410.1v3.2c0,1.1,0.9,2,2,2s2-0.9,2-2v-3.2c0-1.1-0.9-2-2-2S198.8,409,198.8,410.1z"/>
			<path class="st1" d="M17.2,494.2c-1.1,0-2,0.9-2,2v9c0,1.1,0.9,2,2,2s2-0.9,2-2v-9C19.1,495.1,18.3,494.2,17.2,494.2z"/>
			<path class="st1" d="M17.2,519.9c-1.1,0-2,0.9-2,2v9c0,1.1,0.9,2,2,2s2-0.9,2-2v-9C19.1,520.8,18.3,519.9,17.2,519.9z"/>
			<path class="st1" d="M323.1,444.8c1.1,0,2-0.9,2-2V442c0-1.1-0.9-2-2-2s-2,0.9-2,2v0.8C321.1,443.9,322,444.8,323.1,444.8z"/>
			<path class="st1" d="M384.3,494.2c-1.1,0-2,0.9-2,2v9c0,1.1,0.9,2,2,2s2-0.9,2-2v-9C386.3,495.1,385.4,494.2,384.3,494.2z"/>
			<path class="st1" d="M384.3,519.9c-1.1,0-2,0.9-2,2v9c0,1.1,0.9,2,2,2s2-0.9,2-2v-9C386.3,520.8,385.4,519.9,384.3,519.9z"/>
			<path class="st1" d="M594.6,437.1c-0.6,0.9-0.5,2.1,0.4,2.7c0.4,0.3,0.8,0.4,1.2,0.4c0.6,0,1.2-0.3,1.6-0.8
				c22.7-30.7,59.1-49.1,97.1-49.1c31.4,0,61.2,12.1,83.9,34c0.8,0.8,2,0.7,2.8,0c0.8-0.8,0.7-2,0-2.8
				c-23.4-22.6-54.2-35.1-86.6-35.1C655.6,386.5,618.1,405.4,594.6,437.1z"/>
			<path class="st1" d="M572.1,513.2c1.1,0,2-0.9,2-2c0-19.8,4.9-39.5,14.2-56.9c0.5-1,0.2-2.1-0.8-2.7c-1-0.5-2.1-0.2-2.7,0.8
				c-9.6,18-14.7,38.3-14.7,58.7C570.2,512.3,571,513.2,572.1,513.2z"/>
			<path class="st1" d="M572.2,514.2c-1.1,0-1.9,1-1.9,2c0,0.9,0.1,1.8,0.1,2.8c0.1,1,0.9,1.8,2,1.8h0.1c1.1-0.1,1.9-1,1.8-2.1
				c-0.1-0.9-0.1-1.8-0.1-2.7C574.2,515,573.2,514.2,572.2,514.2z"/>
			<path class="st1" d="M809.6,555.2c0.2,0.1,0.5,0.1,0.7,0.1c0.8,0,1.6-0.5,1.8-1.3c0.2-0.5,0.3-1,0.5-1.5c0.4-1-0.2-2.1-1.2-2.5
				s-2.1,0.2-2.5,1.2c-0.2,0.5-0.3,0.9-0.5,1.4C808.1,553.7,808.6,554.8,809.6,555.2z"/>
			<path class="st1" d="M812,548.3c0.2,0.1,0.4,0.1,0.6,0.1c0.8,0,1.6-0.6,1.9-1.4c3.4-11.5,5.2-23.6,5.2-35.7c0-1.1-0.9-2-2-2
				s-2,0.9-2,2c0,11.8-1.7,23.4-5,34.6C810.4,546.9,811,548,812,548.3z"/>
			<path class="st1" d="M786.5,432.5c0.4,0.5,0.9,0.7,1.5,0.7c0.5,0,0.9-0.2,1.3-0.5c0.8-0.7,0.9-1.9,0.2-2.8
				c-0.9-1.1-1.8-2.1-2.8-3.1c-0.7-0.8-2-0.8-2.8-0.1c-0.8,0.7-0.8,2-0.1,2.8C784.7,430.5,785.6,431.5,786.5,432.5z"/>
			<path class="st1" d="M444.5,253.3h57.4c1.1,0,2-0.9,2-2s-0.9-2-2-2h-57.4c-1.1,0-2,0.9-2,2C442.6,252.5,443.5,253.3,444.5,253.3z
				"/>
			<path class="st1" d="M452.4,276h4.4c1.1,0,2-0.9,2-2s-0.9-2-2-2h-4.4c-1.1,0-2,0.9-2,2S451.3,276,452.4,276z"/>
			<path class="st1" d="M465.6,287.2c0-1.1-0.9-2-2-2h-23.4c-1.1,0-2,0.9-2,2s0.9,2,2,2h23.4C464.8,289.2,465.6,288.3,465.6,287.2z"
				/>
			<path class="st1" d="M461.8,298.4h-3.3c-1.1,0-2,0.9-2,2s0.9,2,2,2h3.3c1.1,0,2-0.9,2-2S462.9,298.4,461.8,298.4z"/>
			<path class="st1" d="M450.2,313.6c0-1.1-0.9-2-2-2h-19.1c-1.1,0-2,0.9-2,2s0.9,2,2,2h19.1C449.3,315.5,450.2,314.6,450.2,313.6z"
				/>
			<path class="st1" d="M447,326.7c0-1.1-0.9-2-2-2h-1.6c-1.1,0-2,0.9-2,2s0.9,2,2,2h1.6C446.1,328.7,447,327.8,447,326.7z"/>
			<path class="st1" d="M464.2,338h-11.8c-1.1,0-2,0.9-2,2s0.9,2,2,2h11.8c1.1,0,2-0.9,2-2S465.2,338,464.2,338z"/>
			<path class="st1" d="M458.8,353.1c0-1.1-0.9-2-2-2h-10.3c-1.1,0-2,0.9-2,2s0.9,2,2,2h10.3C457.9,355.1,458.8,354.2,458.8,353.1z"
				/>
			<path class="st1" d="M456.8,364.3h-1.5c-1.1,0-2,0.9-2,2s0.9,2,2,2h1.5c1.1,0,2-0.9,2-2C458.8,365.2,457.9,364.3,456.8,364.3z"/>
			<path class="st1" d="M459.7,377.5h-4.4c-1.1,0-2,0.9-2,2s0.9,2,2,2h4.4c1.1,0,2-0.9,2-2S460.8,377.5,459.7,377.5z"/>
			<path class="st1" d="M457.3,392.7c0-1.1-0.9-2-2-2h-4.8c-1.1,0-2,0.9-2,2s0.9,2,2,2h4.8C456.4,394.6,457.3,393.7,457.3,392.7z"/>
			<path class="st1" d="M456.8,403.9h-1.5c-1.1,0-2,0.9-2,2s0.9,2,2,2h1.5c1.1,0,2-0.9,2-2S457.9,403.9,456.8,403.9z"/>
			<path class="st1" d="M504.4,448h3.9c1.1,0,2-0.9,2-2s-0.9-2-2-2h-3.9c-1.1,0-2,0.9-2,2S503.3,448,504.4,448z"/>
			<path class="st1" d="M502,461.2h2.2c1.1,0,2-0.9,2-2s-0.9-2-2-2H502c-1.1,0-2,0.9-2,2S500.9,461.2,502,461.2z"/>
			<path class="st1" d="M491.7,474.4h7.5c1.1,0,2-0.9,2-2s-0.9-2-2-2h-7.5c-1.1,0-2,0.9-2,2C489.8,473.5,490.6,474.4,491.7,474.4z"
				/>
			<path class="st1" d="M495.1,485.6c0,1.1,0.9,2,2,2h13.2c1.1,0,2-0.9,2-2s-0.9-2-2-2H497C496,483.6,495.1,484.5,495.1,485.6z"/>
			<path class="st1" d="M502.8,496.8c-1.1,0-2,0.9-2,2s0.9,2,2,2h4.4c1.1,0,2-0.9,2-2s-0.9-2-2-2H502.8z"/>
			<path class="st1" d="M488.8,513.9h23.6c1.1,0,2-0.9,2-2c0-1.1-0.9-2-2-2h-23.6c-1.1,0-2,0.9-2,2
				C486.8,513.1,487.7,513.9,488.8,513.9z"/>
			<path class="st1" d="M498.1,525.2c0-1.1-0.9-2-2-2h-4.4c-1.1,0-2,0.9-2,2s0.9,2,2,2h4.4C497.2,527.1,498.1,526.2,498.1,525.2z"/>
			<path class="st1" d="M507.2,536.4h-4.4c-1.1,0-2,0.9-2,2s0.9,2,2,2h4.4c1.1,0,2-0.9,2-2C509.1,537.3,508.3,536.4,507.2,536.4z"/>
			<path class="st1" d="M505.9,549.6h-7.4c-1.1,0-2,0.9-2,2s0.9,2,2,2h7.4c1.1,0,2-0.9,2-2C507.8,550.4,507,549.6,505.9,549.6z"/>
			<path class="st1" d="M504,564.7c0-1.1-0.9-2-2-2h-16.2c-1.1,0-2,0.9-2,2s0.9,2,2,2H502C503.1,566.7,504,565.8,504,564.7z"/>
			<path class="st1" d="M491.7,575.9h-2.9c-1.1,0-2,0.9-2,2s0.9,2,2,2h2.9c1.1,0,2-0.9,2-2S492.8,575.9,491.7,575.9z"/>
		</g>
		<g>
			<path class="st1" d="M786.1,567.3l-9.2-14l10.2-15.5l7.8,11.9C792.5,555.8,789.6,561.7,786.1,567.3z M643,585.9h-13.1l6.6-10
				L643,585.9z M598.4,557.6l13-19.8l10.2,15.5l-13.5,20.5C604.3,568.7,601.1,563.3,598.4,557.6z M594.3,473.8l2.2,3.3l-5.8,8.8
				C591.7,481.8,592.9,477.7,594.3,473.8z M768.1,432.7l4.1,6.2L762,454.4l-10.2-15.5l8.5-12.9C763,428.1,765.6,430.3,768.1,432.7z
				 M611.4,499.7l10.2,15.5l-10.2,15.5l-10.2-15.5L611.4,499.7z M796.8,477.7l-9.7,14.8L776.9,477l10.2-15.5l8.8,13.3
				C796.2,475.8,796.5,476.8,796.8,477.7z M651.4,477l10.2-15.5l10.2,15.5l-10.2,15.5L651.4,477z M661.6,499.7l10.2,15.5l-10.2,15.5
				l-10.2-15.5L661.6,499.7z M686.7,499.7l10.2,15.5l-10.2,15.5l-10.2-15.5L686.7,499.7z M701.6,477l10.2-15.5L722,477l-10.2,15.5
				L701.6,477z M711.8,499.7l10.2,15.5l-10.2,15.5l-10.2-15.5L711.8,499.7z M726.7,477l10.2-15.5l10.2,15.5l-10.2,15.5L726.7,477z
				 M736.9,499.7l10.2,15.5l-10.2,15.5l-10.2-15.5L736.9,499.7z M762,499.7l10.2,15.5L762,530.7l-10.2-15.5L762,499.7z M772.2,477
				L762,492.5L751.8,477l10.2-15.5L772.2,477z M736.9,454.4l-10.2-15.5l10.2-15.5l10.2,15.5L736.9,454.4z M711.8,454.4l-10.2-15.5
				l10.2-15.5l10.2,15.5L711.8,454.4z M696.9,477l-10.2,15.5L676.5,477l10.2-15.5L696.9,477z M661.6,454.4l-10.2-15.5l10.2-15.5
				l10.2,15.5L661.6,454.4z M646.7,477l-10.2,15.5L626.3,477l10.2-15.5L646.7,477z M636.5,499.7l10.2,15.5l-10.2,15.5l-10.2-15.5
				L636.5,499.7z M661.6,537.8l10.2,15.5l-10.2,15.5l-10.2-15.5L661.6,537.8z M686.7,537.8l10.2,15.5l-10.2,15.5l-10.2-15.5
				L686.7,537.8z M711.8,537.8l10.2,15.5l-10.2,15.5l-10.2-15.5L711.8,537.8z M736.9,537.8l10.2,15.5l-10.2,15.5l-10.2-15.5
				L736.9,537.8z M762,537.8l10.2,15.5L762,568.8l-10.2-15.5L762,537.8z M776.9,515.2l10.2-15.5l10.2,15.5l-10.2,15.5L776.9,515.2z
				 M736.9,416.3l-3.6-5.4c1.9,0.7,3.7,1.5,5.6,2.3L736.9,416.3z M711.8,416.3l-8-12.2c5,0.4,9.8,1.2,14.5,2.2L711.8,416.3z
				 M696.9,438.9l-10.2,15.5l-10.2-15.5l10.2-15.5L696.9,438.9z M661.6,416.3l-3.9-5.9c3.2-1.2,6.5-2.2,9.8-3.1L661.6,416.3z
				 M636.5,423.4l10.2,15.5l-10.2,15.5l-10.2-15.5L636.5,423.4z M621.6,477l-10.2,15.5L601.2,477l10.2-15.5L621.6,477z M587.7,510.9
				c0-2.9,0.1-5.7,0.4-8.5l8.4,12.8l-7.6,11.6C588.1,521.6,587.7,516.3,587.7,510.9z M636.5,537.8l10.2,15.5l-10.2,15.5l-10.2-15.5
				L636.5,537.8z M661.6,576l6.6,10H655L661.6,576z M686.7,576l6.6,10h-13.1L686.7,576z M711.8,576l6.6,10h-13.1L711.8,576z
				 M736.9,576l6.5,10h-13.1L736.9,576z M762,576l6.5,10h-13.1L762,576z M802,515.2L802,515.2L802,515.2L802,515.2z M695,403.7
				l-8.3,12.6l-7.5-11.4C684.3,404.1,689.6,403.7,695,403.7C694.9,403.7,694.9,403.7,695,403.7z M619.1,435.2l2.5,3.8l-10.2,15.5
				l-3.7-5.7C611.1,443.9,614.9,439.3,619.1,435.2z"/>
		</g>
		<path class="st1" d="M690,210.4c0.8,0,1.6,0.1,2.4,0.4c0.6,0.2,1.3,0.1,1.8-0.2s0.9-0.9,0.9-1.6c0.2-5.6,4.8-10,10.4-10
			c5.4,0,9.9,4.1,10.4,9.5c0.1,1,0.9,1.8,1.9,1.8c3.8,0.1,6.7,3.1,6.7,6.9c0,3.8-3.1,6.9-6.9,6.9H690c-3.8,0-6.9-3.1-6.9-6.9
			C683.1,213.5,686.2,210.4,690,210.4z"/>
		<path class="st1" d="M86.3,303.6C86.4,303.6,86.4,303.6,86.3,303.6h0.2c0.8,0,1.6-0.5,1.9-1.2c1.4-3.5,4.7-5.7,8.4-5.7
			c5,0,9,4,9,9v0.2c0,0.7,0.3,1.4,1,1.8c0.6,0.4,1.4,0.4,2,0c1.4-0.8,3-1.3,4.6-1.3c5,0,9,4,9,8.9s-4,8.9-9,8.9H86.3
			c-5.8,0-10.4-4.6-10.4-10.3C75.8,308.2,80.5,303.6,86.3,303.6z"/>
		<path class="st1" d="M439.2,557.3c3.5,0,6.5,2.4,7.4,5.7h-14.8C432.7,559.8,435.6,557.3,439.2,557.3z"/>
		<path class="st1" d="M412.5,563c0.9-3.3,3.9-5.7,7.4-5.7s6.5,2.4,7.4,5.7H412.5z"/>
		<path class="st1" d="M573.6,543.1c2.6,0,4.8,1.7,5.6,4h-11.3C568.8,544.8,571,543.1,573.6,543.1z"/>
		<path class="st1" d="M552.1,547.1c0.8-2.3,3-4,5.6-4s4.8,1.7,5.6,4H552.1z"/>
	</g>
	<g>
		<g>
			<path class="st1" d="M1459.4,574.8c-0.9-1.6-1.3-3.4-1.3-5.2c0-1.4,0.5-3,1.3-4.5v-30.4h-6.4v49.8h6.4V574.8z"/>
			<rect x="1431.5" y="313.5" class="st1" width="7.3" height="54.5"/>
			<rect x="1422.6" y="449.9" class="st1" width="25" height="134.6"/>
		</g>
		<g>
			<path class="st1" d="M1459.4,584.5h-6.4v-49.8h6.4v-5.4h-6.4v-30h6.4v-5.4h-6.4v-44h1.9c1.5,0,2.7-1.2,2.7-2.7s-1.2-2.7-2.7-2.7
				h-2.7l-3.1-8.3v-62.8h5.7c1.5,0,2.7-1.2,2.7-2.7s-1.2-2.7-2.7-2.7h-10.7v-54.5h4.2c1.5,0,2.7-1.2,2.7-2.7s-1.2-2.7-2.7-2.7h-6.4
				v-34.9h2.3c1.5,0,2.7-1.2,2.7-2.7s-1.2-2.7-2.7-2.7h-6.4v-46.2c0-1.5-1.2-2.7-2.7-2.7s-2.7,1.2-2.7,2.7v46.2h-6.4
				c-1.5,0-2.7,1.2-2.7,2.7s1.2,2.7,2.7,2.7h2.3v34.9h-6.4c-1.5,0-2.7,1.2-2.7,2.7s1.2,2.7,2.7,2.7h4.2V368h-10.7
				c-1.5,0-2.7,1.2-2.7,2.7s1.2,2.7,2.7,2.7h5.7v62.8l-3.1,8.3h-2.7c-1.5,0-2.7,1.2-2.7,2.7s1.2,2.7,2.7,2.7h1.9v134.6h-32.1v-47.8
				h19.1c1.5,0,2.7-1.2,2.7-2.7c0-7.5-6.1-13.6-13.6-13.6c-4.5,0-8.4,2.2-10.9,5.5c-2.5-3.3-6.4-5.5-10.9-5.5
				c-7.5,0-13.6,6.1-13.6,13.6c0,1.5,1.2,2.7,2.7,2.7h19.1v47.8h-29.8c-1.5,0-2.7,1.2-2.7,2.7s1.2,2.7,2.7,2.7h109.5V584.5z
				 M1393.3,525.8c3.6,0,6.6,2.3,7.7,5.5h-15.5C1386.7,528.1,1389.7,525.8,1393.3,525.8z M1363.8,531.3c1.1-3.2,4.2-5.5,7.7-5.5
				c3.6,0,6.6,2.3,7.7,5.5H1363.8z M1433.7,273.2h2.9v34.9h-2.9V273.2z M1431.5,313.5h7.3V368h-7.3V313.5z M1426.5,373.4h17.3V434
				h-17.3V373.4z M1425.7,439.4h18.9l1.9,5.1h-22.7L1425.7,439.4z M1447.6,584.5h-25V449.9h25V584.5z"/>
			<path class="st1" d="M1459.4,574.8v-9.7c-0.8,1.5-1.3,3.1-1.3,4.5C1458.1,571.4,1458.5,573.2,1459.4,574.8z"/>
			<path class="st1" d="M1377.2,441.5h2.6v2.6c0,1.5,1.2,2.7,2.7,2.7s2.7-1.2,2.7-2.7v-2.6h2.6c1.5,0,2.7-1.2,2.7-2.7
				s-1.2-2.7-2.7-2.7h-2.6v-2.6c0-1.5-1.2-2.7-2.7-2.7s-2.7,1.2-2.7,2.7v2.6h-2.6c-1.5,0-2.7,1.2-2.7,2.7S1375.7,441.5,1377.2,441.5
				z"/>
			<path class="st1" d="M1435.1,458.7c-1.5,0-2.7,1.2-2.7,2.7v12.3c0,1.5,1.2,2.7,2.7,2.7s2.7-1.2,2.7-2.7v-12.3
				C1437.8,459.9,1436.6,458.7,1435.1,458.7z"/>
			<path class="st1" d="M1435.1,493.9c-1.5,0-2.7,1.2-2.7,2.7v12.3c0,1.5,1.2,2.7,2.7,2.7s2.7-1.2,2.7-2.7v-12.3
				C1437.8,495.2,1436.6,493.9,1435.1,493.9z"/>
		</g>
		<path class="st1" d="M1393.3,525.8c3.6,0,6.6,2.3,7.7,5.5h-15.5C1386.7,528.1,1389.7,525.8,1393.3,525.8z"/>
		<path class="st1" d="M1363.8,531.3c1.1-3.2,4.2-5.5,7.7-5.5c3.6,0,6.6,2.3,7.7,5.5H1363.8z"/>
	</g>
	<g>
		<path class="st1" d="M1163.1,349l28.6,12.5V571l-21.4,6.3V589h180.3v-12.5l-27-5.5c4.1-25.5,13-103.1-14.4-174.3
			c-8.3-21.4-18.9-40.4-30.3-56.9c0.3-5.4,1.3-11.7,4.4-13c5.6-2.6,13.5-2.6,13.5-4.7s-1.2-6.8-14.3-7.5c-9.3-0.5-16.9,1.7-20.4,3
			c-23.1-27.9-45.8-45.9-55.2-52.7l-4-2.3h-1.1v-29.8h-6v29.8h-4.1v78.3l-7.5-4c0,0-7.2-0.8-13.1,0.3c-6,1.1-10,3.9-9.6,7.5
			C1161.9,348.3,1163.1,349,1163.1,349z M1291.8,432.9c11.1,76.1,0,129.2,0,129.2h-31.4c1.3-7.5,13.2-56.5,3.4-136.9
			c-10.5-86.4-44.7-137.8-44.7-137.8S1278.9,344.6,1291.8,432.9z M1213,305.7c4.2,9.4,9.6,22.9,15.1,40.3H1213V305.7z M1213,359.2
			h19.2c0.6,2.1,1.2,4.2,1.8,6.4h-21V359.2z M1213,369.9h22.1c0.9,3.5,1.9,7.1,2.8,10.8c0,0.2,0,0.3,0.1,0.5h-25V369.9z M1213,385.5
			h25.9c0.9,3.8,1.6,7.5,2.4,11.3H1213V385.5z M1213,401.1h29.1c0.7,3.8,1.3,7.5,1.9,11.4h-31V401.1z M1213,416.7h31.6
			c0.2,1.2,0.4,2.4,0.5,3.6H1213V416.7z M1213,433.6h33.8c0.3,1.9,0.5,3.9,0.6,5.8H1213V433.6z M1213,443.7h34.9
			c0.3,3.8,0.6,7.6,0.9,11.3H1213V443.7z M1213,459.3h36.1c0.2,3.8,0.4,7.6,0.6,11.4H1213V459.3z M1213,474.9h37
			c0.2,3.9,0.3,7.7,0.4,11.4H1213V474.9z M1213,490.5h37.5c0,1.5,0,2.9,0.1,4.4H1213V490.5z M1213,508.2h37.6c0,1.7,0,3.3,0,4.9
			H1213V508.2z M1213,517.4h37.5c0,4-0.1,7.8-0.3,11.3H1213V517.4z M1213,533h37.1c-0.2,4.1-0.3,8-0.5,11.4H1213V533z M1213,548.7
			h36.4c-0.3,5.1-0.6,8.9-0.8,11.3H1213V548.7z"/>
	</g>
	<g>
		<g>
			<path class="st1" d="M1215,576h-6.7v-33.3c0-3.7-3-6.7-6.7-6.7s-6.7,3-6.7,6.7V576h-13.3v-20c0-3.7-3-6.7-6.7-6.7s-6.7,3-6.7,6.7
				v20h-26.6v-46.6c0-2-0.4-3.8-0.9-5.6c-0.1-0.3-0.2-0.7-0.3-1.1c-0.6-1.7-1.4-3.4-2.5-4.9l-0.1-0.1c-1.2-1.6-2.5-3-4.1-4.1
				l-0.1-0.1c-1.6-1.2-3.4-2.2-5.3-2.8c-2.1-0.7-4.3-1.2-6.7-1.2h-13.3c-3.7,0-6.7-3-6.7-6.7s3-6.7,6.7-6.7h13.3
				c2.3,0,4.5,0.2,6.7,0.7v-34c0-2-0.4-3.8-0.9-5.6c-0.1-0.3-0.2-0.7-0.3-1.1c-0.6-1.7-1.4-3.4-2.5-4.9l-0.1-0.1
				c-1.2-1.6-2.5-3-4.1-4.1l-0.1-0.1c-1.6-1.2-3.4-2.2-5.3-2.8c-2.1-0.7-4.3-1.2-6.7-1.2H1095c-3.7,0-6.7-3-6.7-6.7s3-6.7,6.7-6.7
				h13.3c2.3,0,4.5,0.2,6.7,0.7v-20.7c0-2-0.4-3.9-0.9-5.7c-0.1-0.3-0.2-0.5-0.2-0.8c-2-5.6-6.5-10-12.1-12.1v-0.2
				c-2.1-0.7-4.3-1.2-6.7-1.2c-3.7,0-6.7-3-6.7-6.7s3-6.7,6.7-6.7c2.3,0,4.5,0.2,6.7,0.7v-20.7c0-9.3-6.4-17-14.9-19.3l-11.7-35.1
				v-25.5c0-3.7-3-6.7-6.7-6.7s-6.7,3-6.7,6.7v25.5l-11.7,35.1c-8.6,2.3-14.9,10-14.9,19.3v7.3c2.2-0.4,4.4-0.7,6.7-0.7
				c3.7,0,6.7,3,6.7,6.7s-3,6.7-6.7,6.7c-2.3,0-4.6,0.5-6.7,1.2c-1.9,0.7-3.7,1.7-5.3,2.8l-0.1,0.1c-1.6,1.2-2.9,2.6-4.1,4.1
				l-0.1,0.1c-1.1,1.5-1.9,3.2-2.5,4.9c-0.1,0.3-0.2,0.7-0.3,1.1c-0.5,1.8-0.9,3.6-0.9,5.6v20.7c2.2-0.4,4.4-0.7,6.7-0.7h13.3
				c3.7,0,6.7,3,6.7,6.7s-3,6.7-6.7,6.7h-13.3c-2.3,0-4.6,0.5-6.7,1.2c-1.9,0.7-3.7,1.7-5.3,2.8l-0.1,0.1c-1.6,1.2-2.9,2.6-4.1,4.1
				l-0.1,0.1c-1.1,1.5-1.9,3.2-2.5,4.9c-0.1,0.3-0.2,0.7-0.3,1.1c-0.5,1.8-0.9,3.6-0.9,5.6v34c2.2-0.4,4.4-0.7,6.7-0.7h13.3
				c3.7,0,6.7,3,6.7,6.7s-3,6.7-6.7,6.7h-13.3c-2.3,0-4.6,0.5-6.7,1.2c-1.9,0.7-3.7,1.7-5.3,2.8l-0.1,0.1c-1.6,1.2-2.9,2.6-4.1,4.1
				l-0.1,0.1c-1.1,1.5-1.9,3.2-2.5,4.9c-0.1,0.3-0.2,0.7-0.3,1.1c-0.5,1.8-0.9,3.6-0.9,5.6v59.9h-26.6v-20c0-3.7-3-6.7-6.7-6.7
				s-6.7,3-6.7,6.7v20H942v-33.3c0-3.7-3-6.7-6.7-6.7s-6.7,3-6.7,6.7v33.3H922c-3.7,0-6.7,3-6.7,6.7s3,6.7,6.7,6.7h293
				c3.7,0,6.7-3,6.7-6.7C1221.6,578.9,1218.7,576,1215,576z M1063.7,364.9c2.8-2.7,6.9-2.5,9.5-0.1c1.3,1.5,2,3.1,2,4.8
				c0,1.7-0.7,3.3-1.9,4.7c-1.3,1.3-3,2-4.8,2c-1.7,0-3.5-0.7-4.8-2c-1.2-1.3-1.9-2.9-1.9-4.7
				C1061.9,367.8,1062.5,366.2,1063.7,364.9z M1061.9,416.2h13.3c3.7,0,6.7,3,6.7,6.7s-3,6.7-6.7,6.7h-13.3c-3.7,0-6.7-3-6.7-6.7
				S1058.2,416.2,1061.9,416.2z M1048.5,469.4h40c3.7,0,6.7,3,6.7,6.7s-3,6.7-6.7,6.7h-40c-3.7,0-6.7-3-6.7-6.7
				S1044.9,469.4,1048.5,469.4z M1095.1,549.4h-53.3c-3.7,0-6.7-3-6.7-6.7s3-6.7,6.7-6.7h53.3c3.7,0,6.7,3,6.7,6.7
				C1101.8,546.4,1098.8,549.4,1095.1,549.4z"/>
		</g>
	</g>
</g>
</svg>
