<?xml version="1.0" encoding="utf-8"?>
<!-- Generator: Adobe Illustrator 21.1.0, SVG Export Plug-In . SVG Version: 6.00 Build 0)  -->
<svg version="1.1" id="Capa_1" xmlns="http://www.w3.org/2000/svg" xmlns:xlink="http://www.w3.org/1999/xlink" x="0px" y="0px"
	 viewBox="0 0 512 512" style="enable-background:new 0 0 512 512;" xml:space="preserve">
<style type="text/css">
	.st0{fill:#FFFFFF;}
	.st1{fill:#222F3E;}
	.st2{fill:#F24026;}
	.st3{fill:none;stroke:#BFBEBE;stroke-width:20;stroke-miterlimit:10;}
	.st4{fill:#BFBEBE;}
</style>
<rect x="255" y="12.3" class="st0" width="248.7" height="486.7"/>
<g>
	<g>
		<path class="st1" d="M85.1,454.9c-1.9-1.9-4.4-2.9-7.1-2.9s-5.2,1.1-7.1,2.9S68,459.4,68,462s1.1,5.2,2.9,7.1
			c1.9,1.9,4.4,2.9,7.1,2.9s5.2-1.1,7.1-2.9c1.9-1.9,2.9-4.4,2.9-7.1S86.9,456.8,85.1,454.9z"/>
	</g>
</g>
<rect x="11.7" y="302.3" class="st0" width="131.3" height="194"/>
<g>
	<g>
		<path class="st2" d="M469.5,182.9c-1.9-1.9-4.4-2.9-7.1-2.9c-2.6,0-5.2,1.1-7.1,2.9c-1.9,1.9-2.9,4.4-2.9,7.1s1.1,5.2,2.9,7.1
			c1.9,1.9,4.4,2.9,7.1,2.9c2.6,0,5.2-1.1,7.1-2.9c1.9-1.9,2.9-4.4,2.9-7.1S471.4,184.8,469.5,182.9z"/>
	</g>
</g>
<circle class="st3" cx="380.8" cy="253.2" r="37.8"/>
<path class="st4" d="M509.1,2.9C507.2,1.1,504.6,0,502,0H256c-5.5,0-10,4.5-10,10v28.6L151.2,64c-5.3,1.4-8.5,6.9-7.1,12.2
	l49.1,183.3L150.7,302c-5.4-7.9-14.5-13.1-24.8-13.1H30c-16.5,0-30,13.5-30,30v163c0,16.5,13.5,30,30,30h96
	c14.1,0,25.9-9.7,29.1-22.8l11.9,10.4c9.2,8,20.9,12.4,33.1,12.4H502c5.5,0,10-4.5,10-10V10C512,7.3,510.9,4.8,509.1,2.9z M136,482
	L136,482c0,5.5-4.5,10-10,10H30c-5.5,0-10-4.5-10-10V319c0-5.5,4.5-10,10-10h38v115.2c0,5.5,4.5,10,10,10s10-4.5,10-10V309h38
	c5.5,0,10,4.5,10,10V482z M166,80.7l80-21.4v37.1l-6.7,1.8c-2.6,0.7-4.7,2.4-6.1,4.7c-1.3,2.3-1.7,5-1,7.6c3.8,14.3-4.7,29.1-19,33
	c-2.6,0.7-4.8,2.4-6.1,4.7s-1.7,5-1,7.6l39,144.3H225l-10.3-40.5c-0.3-1.3-0.9-2.5-1.7-3.5L166,80.7z M246,142.2v84.4l-18.2-67.5
	C235.4,155.1,241.6,149.3,246,142.2z M389.7,492H200.1c-7.3,0-14.4-2.7-20-7.5l-24.1-21V325.1l43.7-43.7l7.9,31
	c1.1,4.4,5.1,7.5,9.7,7.5h196.6c7.7,0,14,6.3,14,14s-6.3,14-14,14H313.1c-5.5,0-10,4.5-10,10s4.5,10,10,10h132c7.7,0,14,6.3,14,14
	s-6.3,14-14,14h-132c-5.5,0-10,4.5-10,10s4.5,10,10,10h110.6c7.7,0,14,6.3,14,14s-6.3,14-14,14H313.1c-5.5,0-10,4.5-10,10
	s4.5,10,10,10h76.5c7.7,0,14,6.3,14,14C403.7,485.7,397.4,492,389.7,492z M492,492L492,492h-71.4c1.9-4.3,3-9,3-14s-1.1-9.7-3-14
	h3.1c18.7,0,34-15.3,34-34c0-5.5-1.3-10.6-3.6-15.2c14.4-4,25-17.1,25-32.8c0-7.6-2.5-14.6-6.7-20.3V235c0-5.5-4.5-10-10-10
	s-10,4.5-10,10v113.8c-2.3-0.5-4.8-0.8-7.3-0.8h-0.3c1.9-4.3,3-9,3-14c0-18.7-15.3-34-34-34h-16.1l0,0h-37.6l0,0h-54.7V109.9
	c17.9-3.9,32-18,35.9-35.9h75.2c3.9,17.9,18,32,35.9,35.9V141c0,5.5,4.5,10,10,10s10-4.5,10-10v-40c0-5.5-4.5-10-10-10
	c-14.8,0-26.9-12.1-26.9-26.9c0-5.5-4.5-10-10-10h-93.1c-5.5,0-10,4.5-10,10c0,14.8-12.1,26.9-26.9,26.9c-5.5,0-10,4.5-10,10v199
	H266V20h226V492z"/>
<g>
	<path class="st2" d="M462.4,225c-5.5,0-10,4.5-10,10v113.6c3,1.2,14.6,6.3,20,12.8V235C472.4,229.5,467.9,225,462.4,225z"/>
	<path class="st2" d="M512,501.9V10c0-2.7-1.1-5.2-2.9-7.1C507.2,1.1,504.6,0,502,0H256c-5.5,0-10,4.5-10,10v28.6L151.2,64
		c-5.3,1.4-8.5,6.9-7.1,12.2l48.8,182.3l20.6-1.7c-0.2-0.2-0.3-0.5-0.5-0.7L166,80.7l80-21.4v37.1l-6.7,1.8
		c-2.6,0.7-4.7,2.4-6.1,4.7c-1.3,2.3-1.7,5-1,7.6c3.8,14.3-4.7,29.1-19,33c-2.6,0.7-4.8,2.4-6.1,4.7s-1.7,5-1,7.6l39,144.2
		l173.2,0.3c-1.5-0.2-3-0.3-4.5-0.3h-16.1h-37.6h-54.7V109.9c17.9-3.9,32-18,35.9-35.9h75.2c3.9,17.9,18,32,35.9,35.9V141
		c0,5.5,4.5,10,10,10s10-4.5,10-10v-40c0-5.5-4.5-10-10-10c-14.8,0-26.9-12.1-26.9-26.9c0-5.5-4.5-10-10-10h-93.1
		c-5.5,0-10,4.5-10,10c0,14.8-12.1,26.9-26.9,26.9c-5.5,0-10,4.5-10,10v199H266V20h226v472h-71.4l-12.3,19.9H502
		C507.5,511.9,512,507.4,512,501.9z M246,226.6l-18.2-67.5c7.6-4,13.8-9.8,18.2-16.9V226.6z"/>
</g>
</svg>
