<?xml version="1.0" encoding="utf-8"?>
<!-- Generator: Adobe Illustrator 21.1.0, SVG Export Plug-In . SVG Version: 6.00 Build 0)  -->
<svg version="1.1" id="Capa_1" xmlns="http://www.w3.org/2000/svg" xmlns:xlink="http://www.w3.org/1999/xlink" x="0px" y="0px"
	 viewBox="0 0 82.4 64.2" style="enable-background:new 0 0 82.4 64.2;" xml:space="preserve">
<style type="text/css">
	.st0{fill:#FB6C5A;}
</style>
<g>
	<g>
		<circle class="st0" cx="27.2" cy="27.2" r="27"/>
		<circle class="st0" cx="68.2" cy="50.2" r="14"/>
	</g>
	<g>
		<g>
			<g>
				<path d="M27.3,45.1c-1.3,0-2.3,1-2.3,2.3c0,1.3,1,2.3,2.3,2.3c1.3,0,2.3-1,2.3-2.3C29.6,46.1,28.6,45.1,27.3,45.1z M27.3,48.2
					c-0.4,0-0.8-0.4-0.8-0.8s0.4-0.8,0.8-0.8s0.8,0.4,0.8,0.8S27.7,48.2,27.3,48.2z"/>
			</g>
		</g>
		<g>
			<g>
				<path d="M60.6,36c0.8-0.6,1.3-1.6,1.3-2.7c0-1.9-1.6-3.5-3.5-3.5H46.2c0.4-0.8,0.8-2.1,1.1-3.9c0.6-4.1-0.3-6.3-1.1-7.4
					c-0.7-0.9-1.7-1.5-2.8-1.6c-0.9-0.1-1.8,0.6-1.8,1.6c-0.1,1.5-0.7,5.5-1.4,7c-1.9,3.8-6.5,6.1-7.9,6.8c-0.5-0.4-1.1-0.7-1.8-0.7
					h-6.2c-1.6,0-2.8,1.3-2.8,2.8V50c0,1.6,1.3,2.8,2.8,2.8h6.2c0.8,0,1.6-0.4,2.1-0.9c0.8,0.5,2.1,1.1,3.9,1.1h19.9
					c1.9,0,3.5-1.6,3.5-3.5c0-0.9-0.3-1.7-0.9-2.3c1.1-0.6,1.9-1.7,1.9-3.1c0-0.9-0.3-1.7-0.9-2.3c1.1-0.6,1.9-1.7,1.9-3.1
					C61.9,37.6,61.4,36.6,60.6,36z M30.4,51.3h-6.2c-0.7,0-1.3-0.6-1.3-1.3V34.5c0-0.7,0.6-1.3,1.3-1.3h6.2c0.4,0,0.7,0.2,0.9,0.4
					v17c0,0.1,0,0.2,0.1,0.3C31.1,51.1,30.8,51.3,30.4,51.3z M55.3,36.8h3.2c1.1,0,1.9,0.9,1.9,1.9c0,1.1-0.9,1.9-1.9,1.9h-3.2
					c-0.4,0-0.8,0.3-0.8,0.8c0,0.4,0.3,0.8,0.8,0.8h2.1c1.1,0,1.9,0.9,1.9,1.9c0,1.1-0.9,1.9-1.9,1.9h-2.7c-0.4,0-0.8,0.3-0.8,0.8
					c0,0.4,0.3,0.8,0.8,0.8h1.6c1.1,0,1.9,0.9,1.9,1.9c0,1.1-0.9,1.9-1.9,1.9H36.4c-1.6,0-2.6-0.5-3.2-0.9c0-0.2,0.1-0.3,0.1-0.5
					V34.5c0-0.3-0.1-0.6-0.1-0.9c1.8-0.8,6.4-3.2,8.4-7.4c1-2.1,1.6-7.3,1.6-7.5c0,0,0-0.1,0-0.1c0,0,0-0.1,0-0.1c0,0,0.1,0,0.1,0
					c0.5,0.1,1.2,0.3,1.7,1c0.7,0.9,1.3,2.6,0.8,6.2c-0.4,3-1.5,4.3-1.5,4.4c-0.4,0.5,0,1.2,0.6,1.2h13.6c1.1,0,1.9,0.9,1.9,1.9
					c0,1.1-0.9,1.9-1.9,1.9h-3.2c-0.4,0-0.8,0.3-0.8,0.8C54.5,36.4,54.8,36.8,55.3,36.8z"/>
			</g>
		</g>
	</g>
</g>
</svg>
